/* XPM */
static char *Swall1753218503[] = {
/* columns rows colors chars-per-pixel */
"128 128 5 1 ",
"  c #502830",
". c #704838",
"X c #906858",
"o c #A88868",
"O c #C8A878",
/* pixels */
"XXXXXXXX........                XXXXXXXXXXXXXXXXXXXXXXXXXXXXXXXXXXXXXXXXXXXXXXXX                                        ........",
"XXXXXXXX........                XXXXXXXXXXXXXXXXXXXXXXXXXXXXXXXXXXXXXXXXXXXXXXXX                                        ........",
"XXXXXXXX........                XXXXXXXXXXXXXXXXXXXXXXXXXXXXXXXXXXXXXXXXXXXXXXXX                                        ........",
"XXXXXXXX........                XXXXXXXXXXXXXXXXXXXXXXXXXXXXXXXXXXXXXXXXXXXXXXXX                                        ........",
"XXXXXXXX........                XXXXXXXXXXXXXXXXXXXXXXXXXXXXXXXXXXXXXXXXXXXXXXXX                                        ........",
"XXXXXXXX........                XXXXXXXXXXXXXXXXXXXXXXXXXXXXXXXXXXXXXXXXXXXXXXXX                                        ........",
"XXXXXXXX........                XXXXXXXXXXXXXXXXXXXXXXXXXXXXXXXXXXXXXXXXXXXXXXXX                                        ........",
"XXXXXXXX........                XXXXXXXXXXXXXXXXXXXXXXXXXXXXXXXXXXXXXXXXXXXXXXXX                                        ........",
"OOOOOOOOOOOOOOOOOOOOOOOOOOOOOOOO                                                OOOOOOOOOOOOOOOOOOOOOOOOOOOOOOOOOOOOOOOOOOOOOOOO",
"OOOOOOOOOOOOOOOOOOOOOOOOOOOOOOOO                                                OOOOOOOOOOOOOOOOOOOOOOOOOOOOOOOOOOOOOOOOOOOOOOOO",
"OOOOOOOOOOOOOOOOOOOOOOOOOOOOOOOO                                                OOOOOOOOOOOOOOOOOOOOOOOOOOOOOOOOOOOOOOOOOOOOOOOO",
"OOOOOOOOOOOOOOOOOOOOOOOOOOOOOOOO                                                OOOOOOOOOOOOOOOOOOOOOOOOOOOOOOOOOOOOOOOOOOOOOOOO",
"OOOOOOOOOOOOOOOOOOOOOOOOOOOOOOOO                                                OOOOOOOOOOOOOOOOOOOOOOOOOOOOOOOOOOOOOOOOOOOOOOOO",
"OOOOOOOOOOOOOOOOOOOOOOOOOOOOOOOO                                                OOOOOOOOOOOOOOOOOOOOOOOOOOOOOOOOOOOOOOOOOOOOOOOO",
"OOOOOOOOOOOOOOOOOOOOOOOOOOOOOOOO                                                OOOOOOOOOOOOOOOOOOOOOOOOOOOOOOOOOOOOOOOOOOOOOOOO",
"OOOOOOOOOOOOOOOOOOOOOOOOOOOOOOOO                                                OOOOOOOOOOOOOOOOOOOOOOOOOOOOOOOOOOOOOOOOOOOOOOOO",
"ooooooooooooooooOOOOOOOOOOOOOOOOOOOOOOOOOOOOOOOOOOOOOOOOOOOOOOOOOOOOOOOOOOOOOOOOOOOOOOOOOOOOOOOOOOOOOOOOoooooooooooooooooooooooo",
"ooooooooooooooooOOOOOOOOOOOOOOOOOOOOOOOOOOOOOOOOOOOOOOOOOOOOOOOOOOOOOOOOOOOOOOOOOOOOOOOOOOOOOOOOOOOOOOOOoooooooooooooooooooooooo",
"ooooooooooooooooOOOOOOOOOOOOOOOOOOOOOOOOOOOOOOOOOOOOOOOOOOOOOOOOOOOOOOOOOOOOOOOOOOOOOOOOOOOOOOOOOOOOOOOOoooooooooooooooooooooooo",
"ooooooooooooooooOOOOOOOOOOOOOOOOOOOOOOOOOOOOOOOOOOOOOOOOOOOOOOOOOOOOOOOOOOOOOOOOOOOOOOOOOOOOOOOOOOOOOOOOoooooooooooooooooooooooo",
"ooooooooooooooooOOOOOOOOOOOOOOOOOOOOOOOOOOOOOOOOOOOOOOOOOOOOOOOOOOOOOOOOOOOOOOOOOOOOOOOOOOOOOOOOOOOOOOOOoooooooooooooooooooooooo",
"ooooooooooooooooOOOOOOOOOOOOOOOOOOOOOOOOOOOOOOOOOOOOOOOOOOOOOOOOOOOOOOOOOOOOOOOOOOOOOOOOOOOOOOOOOOOOOOOOoooooooooooooooooooooooo",
"ooooooooooooooooOOOOOOOOOOOOOOOOOOOOOOOOOOOOOOOOOOOOOOOOOOOOOOOOOOOOOOOOOOOOOOOOOOOOOOOOOOOOOOOOOOOOOOOOoooooooooooooooooooooooo",
"ooooooooooooooooOOOOOOOOOOOOOOOOOOOOOOOOOOOOOOOOOOOOOOOOOOOOOOOOOOOOOOOOOOOOOOOOOOOOOOOOOOOOOOOOOOOOOOOOoooooooooooooooooooooooo",
"ooooooooooooooooooooooooooooooooOOOOOOOOOOOOOOOOOOOOOOOOOOOOOOOOOOOOOOOOOOOOOOOOOOOOOOOOoooooooooooooooooooooooooooooooooooooooo",
"ooooooooooooooooooooooooooooooooOOOOOOOOOOOOOOOOOOOOOOOOOOOOOOOOOOOOOOOOOOOOOOOOOOOOOOOOoooooooooooooooooooooooooooooooooooooooo",
"ooooooooooooooooooooooooooooooooOOOOOOOOOOOOOOOOOOOOOOOOOOOOOOOOOOOOOOOOOOOOOOOOOOOOOOOOoooooooooooooooooooooooooooooooooooooooo",
"ooooooooooooooooooooooooooooooooOOOOOOOOOOOOOOOOOOOOOOOOOOOOOOOOOOOOOOOOOOOOOOOOOOOOOOOOoooooooooooooooooooooooooooooooooooooooo",
"ooooooooooooooooooooooooooooooooOOOOOOOOOOOOOOOOOOOOOOOOOOOOOOOOOOOOOOOOOOOOOOOOOOOOOOOOoooooooooooooooooooooooooooooooooooooooo",
"ooooooooooooooooooooooooooooooooOOOOOOOOOOOOOOOOOOOOOOOOOOOOOOOOOOOOOOOOOOOOOOOOOOOOOOOOoooooooooooooooooooooooooooooooooooooooo",
"ooooooooooooooooooooooooooooooooOOOOOOOOOOOOOOOOOOOOOOOOOOOOOOOOOOOOOOOOOOOOOOOOOOOOOOOOoooooooooooooooooooooooooooooooooooooooo",
"ooooooooooooooooooooooooooooooooOOOOOOOOOOOOOOOOOOOOOOOOOOOOOOOOOOOOOOOOOOOOOOOOOOOOOOOOoooooooooooooooooooooooooooooooooooooooo",
"oooooooooooooooooooooooooooooooooooooooooooooooooooooooooooooooooooooooooooooooooooooooooooooooooooooooooooooooooooooooooooooooo",
"oooooooooooooooooooooooooooooooooooooooooooooooooooooooooooooooooooooooooooooooooooooooooooooooooooooooooooooooooooooooooooooooo",
"oooooooooooooooooooooooooooooooooooooooooooooooooooooooooooooooooooooooooooooooooooooooooooooooooooooooooooooooooooooooooooooooo",
"oooooooooooooooooooooooooooooooooooooooooooooooooooooooooooooooooooooooooooooooooooooooooooooooooooooooooooooooooooooooooooooooo",
"oooooooooooooooooooooooooooooooooooooooooooooooooooooooooooooooooooooooooooooooooooooooooooooooooooooooooooooooooooooooooooooooo",
"oooooooooooooooooooooooooooooooooooooooooooooooooooooooooooooooooooooooooooooooooooooooooooooooooooooooooooooooooooooooooooooooo",
"oooooooooooooooooooooooooooooooooooooooooooooooooooooooooooooooooooooooooooooooooooooooooooooooooooooooooooooooooooooooooooooooo",
"oooooooooooooooooooooooooooooooooooooooooooooooooooooooooooooooooooooooooooooooooooooooooooooooooooooooooooooooooooooooooooooooo",
"ooooooooooooooooooooooooooooooooooooooooooooooooooooooooXXXXXXXXoooooooooooooooooooooooooooooooooooooooooooooooooooooooooooooooo",
"ooooooooooooooooooooooooooooooooooooooooooooooooooooooooXXXXXXXXoooooooooooooooooooooooooooooooooooooooooooooooooooooooooooooooo",
"ooooooooooooooooooooooooooooooooooooooooooooooooooooooooXXXXXXXXoooooooooooooooooooooooooooooooooooooooooooooooooooooooooooooooo",
"ooooooooooooooooooooooooooooooooooooooooooooooooooooooooXXXXXXXXoooooooooooooooooooooooooooooooooooooooooooooooooooooooooooooooo",
"ooooooooooooooooooooooooooooooooooooooooooooooooooooooooXXXXXXXXoooooooooooooooooooooooooooooooooooooooooooooooooooooooooooooooo",
"ooooooooooooooooooooooooooooooooooooooooooooooooooooooooXXXXXXXXoooooooooooooooooooooooooooooooooooooooooooooooooooooooooooooooo",
"ooooooooooooooooooooooooooooooooooooooooooooooooooooooooXXXXXXXXoooooooooooooooooooooooooooooooooooooooooooooooooooooooooooooooo",
"ooooooooooooooooooooooooooooooooooooooooooooooooooooooooXXXXXXXXoooooooooooooooooooooooooooooooooooooooooooooooooooooooooooooooo",
"ooooooooooooooooXXXXXXXXooooooooooooooooooooooooXXXXXXXXooooooooXXXXXXXXooooooooooooooooooooooooooooooooooooooooXXXXXXXXoooooooo",
"ooooooooooooooooXXXXXXXXooooooooooooooooooooooooXXXXXXXXooooooooXXXXXXXXooooooooooooooooooooooooooooooooooooooooXXXXXXXXoooooooo",
"ooooooooooooooooXXXXXXXXooooooooooooooooooooooooXXXXXXXXooooooooXXXXXXXXooooooooooooooooooooooooooooooooooooooooXXXXXXXXoooooooo",
"ooooooooooooooooXXXXXXXXooooooooooooooooooooooooXXXXXXXXooooooooXXXXXXXXooooooooooooooooooooooooooooooooooooooooXXXXXXXXoooooooo",
"ooooooooooooooooXXXXXXXXooooooooooooooooooooooooXXXXXXXXooooooooXXXXXXXXooooooooooooooooooooooooooooooooooooooooXXXXXXXXoooooooo",
"ooooooooooooooooXXXXXXXXooooooooooooooooooooooooXXXXXXXXooooooooXXXXXXXXooooooooooooooooooooooooooooooooooooooooXXXXXXXXoooooooo",
"ooooooooooooooooXXXXXXXXooooooooooooooooooooooooXXXXXXXXooooooooXXXXXXXXooooooooooooooooooooooooooooooooooooooooXXXXXXXXoooooooo",
"ooooooooooooooooXXXXXXXXooooooooooooooooooooooooXXXXXXXXooooooooXXXXXXXXooooooooooooooooooooooooooooooooooooooooXXXXXXXXoooooooo",
"XXXXXXXXooooooooooooooooooooooooooooooooXXXXXXXXooooooooXXXXXXXXooooooooooooooooooooooooooooooooooooooooXXXXXXXXoooooooooooooooo",
"XXXXXXXXooooooooooooooooooooooooooooooooXXXXXXXXooooooooXXXXXXXXooooooooooooooooooooooooooooooooooooooooXXXXXXXXoooooooooooooooo",
"XXXXXXXXooooooooooooooooooooooooooooooooXXXXXXXXooooooooXXXXXXXXooooooooooooooooooooooooooooooooooooooooXXXXXXXXoooooooooooooooo",
"XXXXXXXXooooooooooooooooooooooooooooooooXXXXXXXXooooooooXXXXXXXXooooooooooooooooooooooooooooooooooooooooXXXXXXXXoooooooooooooooo",
"XXXXXXXXooooooooooooooooooooooooooooooooXXXXXXXXooooooooXXXXXXXXooooooooooooooooooooooooooooooooooooooooXXXXXXXXoooooooooooooooo",
"XXXXXXXXooooooooooooooooooooooooooooooooXXXXXXXXooooooooXXXXXXXXooooooooooooooooooooooooooooooooooooooooXXXXXXXXoooooooooooooooo",
"XXXXXXXXooooooooooooooooooooooooooooooooXXXXXXXXooooooooXXXXXXXXooooooooooooooooooooooooooooooooooooooooXXXXXXXXoooooooooooooooo",
"XXXXXXXXooooooooooooooooooooooooooooooooXXXXXXXXooooooooXXXXXXXXooooooooooooooooooooooooooooooooooooooooXXXXXXXXoooooooooooooooo",
"oooooooooooooooooooooooooooooooooooooooooooooooooooooooooooooooooooooooooooooooooooooooooooooooooooooooooooooooooooooooooooooooo",
"oooooooooooooooooooooooooooooooooooooooooooooooooooooooooooooooooooooooooooooooooooooooooooooooooooooooooooooooooooooooooooooooo",
"oooooooooooooooooooooooooooooooooooooooooooooooooooooooooooooooooooooooooooooooooooooooooooooooooooooooooooooooooooooooooooooooo",
"oooooooooooooooooooooooooooooooooooooooooooooooooooooooooooooooooooooooooooooooooooooooooooooooooooooooooooooooooooooooooooooooo",
"oooooooooooooooooooooooooooooooooooooooooooooooooooooooooooooooooooooooooooooooooooooooooooooooooooooooooooooooooooooooooooooooo",
"oooooooooooooooooooooooooooooooooooooooooooooooooooooooooooooooooooooooooooooooooooooooooooooooooooooooooooooooooooooooooooooooo",
"oooooooooooooooooooooooooooooooooooooooooooooooooooooooooooooooooooooooooooooooooooooooooooooooooooooooooooooooooooooooooooooooo",
"oooooooooooooooooooooooooooooooooooooooooooooooooooooooooooooooooooooooooooooooooooooooooooooooooooooooooooooooooooooooooooooooo",
"ooooooooooooooooooooooooooooooooOOOOOOOOooooooooooooooooooooooooooooooooooooooooXXXXXXXXoooooooooooooooooooooooooooooooooooooooo",
"ooooooooooooooooooooooooooooooooOOOOOOOOooooooooooooooooooooooooooooooooooooooooXXXXXXXXoooooooooooooooooooooooooooooooooooooooo",
"ooooooooooooooooooooooooooooooooOOOOOOOOooooooooooooooooooooooooooooooooooooooooXXXXXXXXoooooooooooooooooooooooooooooooooooooooo",
"ooooooooooooooooooooooooooooooooOOOOOOOOooooooooooooooooooooooooooooooooooooooooXXXXXXXXoooooooooooooooooooooooooooooooooooooooo",
"ooooooooooooooooooooooooooooooooOOOOOOOOooooooooooooooooooooooooooooooooooooooooXXXXXXXXoooooooooooooooooooooooooooooooooooooooo",
"ooooooooooooooooooooooooooooooooOOOOOOOOooooooooooooooooooooooooooooooooooooooooXXXXXXXXoooooooooooooooooooooooooooooooooooooooo",
"ooooooooooooooooooooooooooooooooOOOOOOOOooooooooooooooooooooooooooooooooooooooooXXXXXXXXoooooooooooooooooooooooooooooooooooooooo",
"ooooooooooooooooooooooooooooooooOOOOOOOOooooooooooooooooooooooooooooooooooooooooXXXXXXXXoooooooooooooooooooooooooooooooooooooooo",
"ooooooooooooooooooooooooOOOOOOOOooooooooooooooooooooooooooooooooooooooooOOOOOOOOoooooooooooooooooooooooooooooooooooooooooooooooo",
"ooooooooooooooooooooooooOOOOOOOOooooooooooooooooooooooooooooooooooooooooOOOOOOOOoooooooooooooooooooooooooooooooooooooooooooooooo",
"ooooooooooooooooooooooooOOOOOOOOooooooooooooooooooooooooooooooooooooooooOOOOOOOOoooooooooooooooooooooooooooooooooooooooooooooooo",
"ooooooooooooooooooooooooOOOOOOOOooooooooooooooooooooooooooooooooooooooooOOOOOOOOoooooooooooooooooooooooooooooooooooooooooooooooo",
"ooooooooooooooooooooooooOOOOOOOOooooooooooooooooooooooooooooooooooooooooOOOOOOOOoooooooooooooooooooooooooooooooooooooooooooooooo",
"ooooooooooooooooooooooooOOOOOOOOooooooooooooooooooooooooooooooooooooooooOOOOOOOOoooooooooooooooooooooooooooooooooooooooooooooooo",
"ooooooooooooooooooooooooOOOOOOOOooooooooooooooooooooooooooooooooooooooooOOOOOOOOoooooooooooooooooooooooooooooooooooooooooooooooo",
"ooooooooooooooooooooooooOOOOOOOOooooooooooooooooooooooooooooooooooooooooOOOOOOOOoooooooooooooooooooooooooooooooooooooooooooooooo",
"ooooooooooooooooOOOOOOOOooooooooOOOOOOOOooooooooooooooooooooooooOOOOOOOOooooooooooooooooOOOOOOOOoooooooooooooooooooooooooooooooo",
"ooooooooooooooooOOOOOOOOooooooooOOOOOOOOooooooooooooooooooooooooOOOOOOOOooooooooooooooooOOOOOOOOoooooooooooooooooooooooooooooooo",
"ooooooooooooooooOOOOOOOOooooooooOOOOOOOOooooooooooooooooooooooooOOOOOOOOooooooooooooooooOOOOOOOOoooooooooooooooooooooooooooooooo",
"ooooooooooooooooOOOOOOOOooooooooOOOOOOOOooooooooooooooooooooooooOOOOOOOOooooooooooooooooOOOOOOOOoooooooooooooooooooooooooooooooo",
"ooooooooooooooooOOOOOOOOooooooooOOOOOOOOooooooooooooooooooooooooOOOOOOOOooooooooooooooooOOOOOOOOoooooooooooooooooooooooooooooooo",
"ooooooooooooooooOOOOOOOOooooooooOOOOOOOOooooooooooooooooooooooooOOOOOOOOooooooooooooooooOOOOOOOOoooooooooooooooooooooooooooooooo",
"ooooooooooooooooOOOOOOOOooooooooOOOOOOOOooooooooooooooooooooooooOOOOOOOOooooooooooooooooOOOOOOOOoooooooooooooooooooooooooooooooo",
"ooooooooooooooooOOOOOOOOooooooooOOOOOOOOooooooooooooooooooooooooOOOOOOOOooooooooooooooooOOOOOOOOoooooooooooooooooooooooooooooooo",
"ooooooooooooooooooooooooOOOOOOOOooooooooooooooooooooooooOOOOOOOOoooooooooooooooooooooooooooooooooooooooooooooooooooooooooooooooo",
"ooooooooooooooooooooooooOOOOOOOOooooooooooooooooooooooooOOOOOOOOoooooooooooooooooooooooooooooooooooooooooooooooooooooooooooooooo",
"ooooooooooooooooooooooooOOOOOOOOooooooooooooooooooooooooOOOOOOOOoooooooooooooooooooooooooooooooooooooooooooooooooooooooooooooooo",
"ooooooooooooooooooooooooOOOOOOOOooooooooooooooooooooooooOOOOOOOOoooooooooooooooooooooooooooooooooooooooooooooooooooooooooooooooo",
"ooooooooooooooooooooooooOOOOOOOOooooooooooooooooooooooooOOOOOOOOoooooooooooooooooooooooooooooooooooooooooooooooooooooooooooooooo",
"ooooooooooooooooooooooooOOOOOOOOooooooooooooooooooooooooOOOOOOOOoooooooooooooooooooooooooooooooooooooooooooooooooooooooooooooooo",
"ooooooooooooooooooooooooOOOOOOOOooooooooooooooooooooooooOOOOOOOOoooooooooooooooooooooooooooooooooooooooooooooooooooooooooooooooo",
"ooooooooooooooooooooooooOOOOOOOOooooooooooooooooooooooooOOOOOOOOoooooooooooooooooooooooooooooooooooooooooooooooooooooooooooooooo",
"ooooooooooooooooOOOOOOOOooooooooooooooooooooooooOOOOOOOOooooooooooooooooooooooooooooooooXXXXXXXXoooooooooooooooooooooooooooooooo",
"ooooooooooooooooOOOOOOOOooooooooooooooooooooooooOOOOOOOOooooooooooooooooooooooooooooooooXXXXXXXXoooooooooooooooooooooooooooooooo",
"ooooooooooooooooOOOOOOOOooooooooooooooooooooooooOOOOOOOOooooooooooooooooooooooooooooooooXXXXXXXXoooooooooooooooooooooooooooooooo",
"ooooooooooooooooOOOOOOOOooooooooooooooooooooooooOOOOOOOOooooooooooooooooooooooooooooooooXXXXXXXXoooooooooooooooooooooooooooooooo",
"ooooooooooooooooOOOOOOOOooooooooooooooooooooooooOOOOOOOOooooooooooooooooooooooooooooooooXXXXXXXXoooooooooooooooooooooooooooooooo",
"ooooooooooooooooOOOOOOOOooooooooooooooooooooooooOOOOOOOOooooooooooooooooooooooooooooooooXXXXXXXXoooooooooooooooooooooooooooooooo",
"ooooooooooooooooOOOOOOOOooooooooooooooooooooooooOOOOOOOOooooooooooooooooooooooooooooooooXXXXXXXXoooooooooooooooooooooooooooooooo",
"ooooooooooooooooOOOOOOOOooooooooooooooooooooooooOOOOOOOOooooooooooooooooooooooooooooooooXXXXXXXXoooooooooooooooooooooooooooooooo",
"ooooooooOOOOOOOOooooooooooooooooXXXXXXXXoooooooooooooooooooooooooooooooooooooooooooooooooooooooooooooooooooooooooooooooooooooooo",
"ooooooooOOOOOOOOooooooooooooooooXXXXXXXXoooooooooooooooooooooooooooooooooooooooooooooooooooooooooooooooooooooooooooooooooooooooo",
"ooooooooOOOOOOOOooooooooooooooooXXXXXXXXoooooooooooooooooooooooooooooooooooooooooooooooooooooooooooooooooooooooooooooooooooooooo",
"ooooooooOOOOOOOOooooooooooooooooXXXXXXXXoooooooooooooooooooooooooooooooooooooooooooooooooooooooooooooooooooooooooooooooooooooooo",
"ooooooooOOOOOOOOooooooooooooooooXXXXXXXXoooooooooooooooooooooooooooooooooooooooooooooooooooooooooooooooooooooooooooooooooooooooo",
"ooooooooOOOOOOOOooooooooooooooooXXXXXXXXoooooooooooooooooooooooooooooooooooooooooooooooooooooooooooooooooooooooooooooooooooooooo",
"ooooooooOOOOOOOOooooooooooooooooXXXXXXXXoooooooooooooooooooooooooooooooooooooooooooooooooooooooooooooooooooooooooooooooooooooooo",
"ooooooooOOOOOOOOooooooooooooooooXXXXXXXXoooooooooooooooooooooooooooooooooooooooooooooooooooooooooooooooooooooooooooooooooooooooo",
"oooooooooooooooooooooooooooooooooooooooooooooooooooooooooooooooooooooooooooooooooooooooooooooooooooooooooooooooooooooooooooooooo",
"oooooooooooooooooooooooooooooooooooooooooooooooooooooooooooooooooooooooooooooooooooooooooooooooooooooooooooooooooooooooooooooooo",
"oooooooooooooooooooooooooooooooooooooooooooooooooooooooooooooooooooooooooooooooooooooooooooooooooooooooooooooooooooooooooooooooo",
"oooooooooooooooooooooooooooooooooooooooooooooooooooooooooooooooooooooooooooooooooooooooooooooooooooooooooooooooooooooooooooooooo",
"oooooooooooooooooooooooooooooooooooooooooooooooooooooooooooooooooooooooooooooooooooooooooooooooooooooooooooooooooooooooooooooooo",
"oooooooooooooooooooooooooooooooooooooooooooooooooooooooooooooooooooooooooooooooooooooooooooooooooooooooooooooooooooooooooooooooo",
"oooooooooooooooooooooooooooooooooooooooooooooooooooooooooooooooooooooooooooooooooooooooooooooooooooooooooooooooooooooooooooooooo",
"oooooooooooooooooooooooooooooooooooooooooooooooooooooooooooooooooooooooooooooooooooooooooooooooooooooooooooooooooooooooooooooooo"
};
