/* XPM */
static char *Wwall1753218503[] = {
/* columns rows colors chars-per-pixel */
"128 128 4 1 ",
"  c #502830",
". c #704838",
"X c #906858",
"o c #A88868",
/* pixels */
"XXXXXXXXooooooooXXXXXXXXooooooooXXXXXXXX........                                                                                ",
"XXXXXXXXooooooooXXXXXXXXooooooooXXXXXXXX........                                                                                ",
"XXXXXXXXooooooooXXXXXXXXooooooooXXXXXXXX........                                                                                ",
"XXXXXXXXooooooooXXXXXXXXooooooooXXXXXXXX........                                                                                ",
"XXXXXXXXooooooooXXXXXXXXooooooooXXXXXXXX........                                                                                ",
"XXXXXXXXooooooooXXXXXXXXooooooooXXXXXXXX........                                                                                ",
"XXXXXXXXooooooooXXXXXXXXooooooooXXXXXXXX........                                                                                ",
"XXXXXXXXooooooooXXXXXXXXooooooooXXXXXXXX........                                                                                ",
"ooooooooXXXXXXXXooooooooXXXXXXXX........................                                                                        ",
"ooooooooXXXXXXXXooooooooXXXXXXXX........................                                                                        ",
"ooooooooXXXXXXXXooooooooXXXXXXXX........................                                                                        ",
"ooooooooXXXXXXXXooooooooXXXXXXXX........................                                                                        ",
"ooooooooXXXXXXXXooooooooXXXXXXXX........................                                                                        ",
"ooooooooXXXXXXXXooooooooXXXXXXXX........................                                                                        ",
"ooooooooXXXXXXXXooooooooXXXXXXXX........................                                                                        ",
"ooooooooXXXXXXXXooooooooXXXXXXXX........................                                                                        ",
"XXXXXXXXooooooooXXXXXXXXXXXXXXXXXXXXXXXX........................                                                                ",
"XXXXXXXXooooooooXXXXXXXXXXXXXXXXXXXXXXXX........................                                                                ",
"XXXXXXXXooooooooXXXXXXXXXXXXXXXXXXXXXXXX........................                                                                ",
"XXXXXXXXooooooooXXXXXXXXXXXXXXXXXXXXXXXX........................                                                                ",
"XXXXXXXXooooooooXXXXXXXXXXXXXXXXXXXXXXXX........................                                                                ",
"XXXXXXXXooooooooXXXXXXXXXXXXXXXXXXXXXXXX........................                                                                ",
"XXXXXXXXooooooooXXXXXXXXXXXXXXXXXXXXXXXX........................                                                                ",
"XXXXXXXXooooooooXXXXXXXXXXXXXXXXXXXXXXXX........................                                                                ",
"ooooooooXXXXXXXXXXXXXXXXXXXXXXXXXXXXXXXX................................                                                XXXXXXXX",
"ooooooooXXXXXXXXXXXXXXXXXXXXXXXXXXXXXXXX................................                                                XXXXXXXX",
"ooooooooXXXXXXXXXXXXXXXXXXXXXXXXXXXXXXXX................................                                                XXXXXXXX",
"ooooooooXXXXXXXXXXXXXXXXXXXXXXXXXXXXXXXX................................                                                XXXXXXXX",
"ooooooooXXXXXXXXXXXXXXXXXXXXXXXXXXXXXXXX................................                                                XXXXXXXX",
"ooooooooXXXXXXXXXXXXXXXXXXXXXXXXXXXXXXXX................................                                                XXXXXXXX",
"ooooooooXXXXXXXXXXXXXXXXXXXXXXXXXXXXXXXX................................                                                XXXXXXXX",
"ooooooooXXXXXXXXXXXXXXXXXXXXXXXXXXXXXXXX................................                                                XXXXXXXX",
"ooooooooooooooooXXXXXXXXXXXXXXXXXXXXXXXX........        ................                                XXXXXXXXXXXXXXXXXXXXXXXX",
"ooooooooooooooooXXXXXXXXXXXXXXXXXXXXXXXX........        ................                                XXXXXXXXXXXXXXXXXXXXXXXX",
"ooooooooooooooooXXXXXXXXXXXXXXXXXXXXXXXX........        ................                                XXXXXXXXXXXXXXXXXXXXXXXX",
"ooooooooooooooooXXXXXXXXXXXXXXXXXXXXXXXX........        ................                                XXXXXXXXXXXXXXXXXXXXXXXX",
"ooooooooooooooooXXXXXXXXXXXXXXXXXXXXXXXX........        ................                                XXXXXXXXXXXXXXXXXXXXXXXX",
"ooooooooooooooooXXXXXXXXXXXXXXXXXXXXXXXX........        ................                                XXXXXXXXXXXXXXXXXXXXXXXX",
"ooooooooooooooooXXXXXXXXXXXXXXXXXXXXXXXX........        ................                                XXXXXXXXXXXXXXXXXXXXXXXX",
"ooooooooooooooooXXXXXXXXXXXXXXXXXXXXXXXX........        ................                                XXXXXXXXXXXXXXXXXXXXXXXX",
"ooooooooooooooooXXXXXXXXXXXXXXXXXXXXXXXX................        ........        ........                XXXXXXXXoooooooooooooooo",
"ooooooooooooooooXXXXXXXXXXXXXXXXXXXXXXXX................        ........        ........                XXXXXXXXoooooooooooooooo",
"ooooooooooooooooXXXXXXXXXXXXXXXXXXXXXXXX................        ........        ........                XXXXXXXXoooooooooooooooo",
"ooooooooooooooooXXXXXXXXXXXXXXXXXXXXXXXX................        ........        ........                XXXXXXXXoooooooooooooooo",
"ooooooooooooooooXXXXXXXXXXXXXXXXXXXXXXXX................        ........        ........                XXXXXXXXoooooooooooooooo",
"ooooooooooooooooXXXXXXXXXXXXXXXXXXXXXXXX................        ........        ........                XXXXXXXXoooooooooooooooo",
"ooooooooooooooooXXXXXXXXXXXXXXXXXXXXXXXX................        ........        ........                XXXXXXXXoooooooooooooooo",
"ooooooooooooooooXXXXXXXXXXXXXXXXXXXXXXXX................        ........        ........                XXXXXXXXoooooooooooooooo",
"ooooooooooooooooXXXXXXXXXXXXXXXXXXXXXXXX........        ........        ........                        XXXXXXXXoooooooooooooooo",
"ooooooooooooooooXXXXXXXXXXXXXXXXXXXXXXXX........        ........        ........                        XXXXXXXXoooooooooooooooo",
"ooooooooooooooooXXXXXXXXXXXXXXXXXXXXXXXX........        ........        ........                        XXXXXXXXoooooooooooooooo",
"ooooooooooooooooXXXXXXXXXXXXXXXXXXXXXXXX........        ........        ........                        XXXXXXXXoooooooooooooooo",
"ooooooooooooooooXXXXXXXXXXXXXXXXXXXXXXXX........        ........        ........                        XXXXXXXXoooooooooooooooo",
"ooooooooooooooooXXXXXXXXXXXXXXXXXXXXXXXX........        ........        ........                        XXXXXXXXoooooooooooooooo",
"ooooooooooooooooXXXXXXXXXXXXXXXXXXXXXXXX........        ........        ........                        XXXXXXXXoooooooooooooooo",
"ooooooooooooooooXXXXXXXXXXXXXXXXXXXXXXXX........        ........        ........                        XXXXXXXXoooooooooooooooo",
"ooooooooXXXXXXXXXXXXXXXXXXXXXXXX........        ........        ........                                        XXXXXXXXoooooooo",
"ooooooooXXXXXXXXXXXXXXXXXXXXXXXX........        ........        ........                                        XXXXXXXXoooooooo",
"ooooooooXXXXXXXXXXXXXXXXXXXXXXXX........        ........        ........                                        XXXXXXXXoooooooo",
"ooooooooXXXXXXXXXXXXXXXXXXXXXXXX........        ........        ........                                        XXXXXXXXoooooooo",
"ooooooooXXXXXXXXXXXXXXXXXXXXXXXX........        ........        ........                                        XXXXXXXXoooooooo",
"ooooooooXXXXXXXXXXXXXXXXXXXXXXXX........        ........        ........                                        XXXXXXXXoooooooo",
"ooooooooXXXXXXXXXXXXXXXXXXXXXXXX........        ........        ........                                        XXXXXXXXoooooooo",
"ooooooooXXXXXXXXXXXXXXXXXXXXXXXX........        ........        ........                                        XXXXXXXXoooooooo",
"XXXXXXXXXXXXXXXXXXXXXXXX                                ........        ........                                        XXXXXXXX",
"XXXXXXXXXXXXXXXXXXXXXXXX                                ........        ........                                        XXXXXXXX",
"XXXXXXXXXXXXXXXXXXXXXXXX                                ........        ........                                        XXXXXXXX",
"XXXXXXXXXXXXXXXXXXXXXXXX                                ........        ........                                        XXXXXXXX",
"XXXXXXXXXXXXXXXXXXXXXXXX                                ........        ........                                        XXXXXXXX",
"XXXXXXXXXXXXXXXXXXXXXXXX                                ........        ........                                        XXXXXXXX",
"XXXXXXXXXXXXXXXXXXXXXXXX                                ........        ........                                        XXXXXXXX",
"XXXXXXXXXXXXXXXXXXXXXXXX                                ........        ........                                        XXXXXXXX",
"XXXXXXXXXXXXXXXXXXXXXXXX                                        ........                                                XXXXXXXX",
"XXXXXXXXXXXXXXXXXXXXXXXX                                        ........                                                XXXXXXXX",
"XXXXXXXXXXXXXXXXXXXXXXXX                                        ........                                                XXXXXXXX",
"XXXXXXXXXXXXXXXXXXXXXXXX                                        ........                                                XXXXXXXX",
"XXXXXXXXXXXXXXXXXXXXXXXX                                        ........                                                XXXXXXXX",
"XXXXXXXXXXXXXXXXXXXXXXXX                                        ........                                                XXXXXXXX",
"XXXXXXXXXXXXXXXXXXXXXXXX                                        ........                                                XXXXXXXX",
"XXXXXXXXXXXXXXXXXXXXXXXX                                        ........                                                XXXXXXXX",
"XXXXXXXXXXXXXXXXXXXXXXXX                                                ........                                                ",
"XXXXXXXXXXXXXXXXXXXXXXXX                                                ........                                                ",
"XXXXXXXXXXXXXXXXXXXXXXXX                                                ........                                                ",
"XXXXXXXXXXXXXXXXXXXXXXXX                                                ........                                                ",
"XXXXXXXXXXXXXXXXXXXXXXXX                                                ........                                                ",
"XXXXXXXXXXXXXXXXXXXXXXXX                                                ........                                                ",
"XXXXXXXXXXXXXXXXXXXXXXXX                                                ........                                                ",
"XXXXXXXXXXXXXXXXXXXXXXXX                                                ........                                                ",
"XXXXXXXXXXXXXXXXXXXXXXXX                                                        ........                                        ",
"XXXXXXXXXXXXXXXXXXXXXXXX                                                        ........                                        ",
"XXXXXXXXXXXXXXXXXXXXXXXX                                                        ........                                        ",
"XXXXXXXXXXXXXXXXXXXXXXXX                                                        ........                                        ",
"XXXXXXXXXXXXXXXXXXXXXXXX                                                        ........                                        ",
"XXXXXXXXXXXXXXXXXXXXXXXX                                                        ........                                        ",
"XXXXXXXXXXXXXXXXXXXXXXXX                                                        ........                                        ",
"XXXXXXXXXXXXXXXXXXXXXXXX                                                        ........                                        ",
"XXXXXXXXXXXXXXXXXXXXXXXXXXXXXXXX................                                                                                ",
"XXXXXXXXXXXXXXXXXXXXXXXXXXXXXXXX................                                                                                ",
"XXXXXXXXXXXXXXXXXXXXXXXXXXXXXXXX................                                                                                ",
"XXXXXXXXXXXXXXXXXXXXXXXXXXXXXXXX................                                                                                ",
"XXXXXXXXXXXXXXXXXXXXXXXXXXXXXXXX................                                                                                ",
"XXXXXXXXXXXXXXXXXXXXXXXXXXXXXXXX................                                                                                ",
"XXXXXXXXXXXXXXXXXXXXXXXXXXXXXXXX................                                                                                ",
"XXXXXXXXXXXXXXXXXXXXXXXXXXXXXXXX................                                                                                ",
"ooooooooXXXXXXXXXXXXXXXXXXXXXXXXXXXXXXXX................                                                                        ",
"ooooooooXXXXXXXXXXXXXXXXXXXXXXXXXXXXXXXX................                                                                        ",
"ooooooooXXXXXXXXXXXXXXXXXXXXXXXXXXXXXXXX................                                                                        ",
"ooooooooXXXXXXXXXXXXXXXXXXXXXXXXXXXXXXXX................                                                                        ",
"ooooooooXXXXXXXXXXXXXXXXXXXXXXXXXXXXXXXX................                                                                        ",
"ooooooooXXXXXXXXXXXXXXXXXXXXXXXXXXXXXXXX................                                                                        ",
"ooooooooXXXXXXXXXXXXXXXXXXXXXXXXXXXXXXXX................                                                                        ",
"ooooooooXXXXXXXXXXXXXXXXXXXXXXXXXXXXXXXX................                                                                        ",
"ooooooooooooooooXXXXXXXXXXXXXXXXXXXXXXXX........................                                                                ",
"ooooooooooooooooXXXXXXXXXXXXXXXXXXXXXXXX........................                                                                ",
"ooooooooooooooooXXXXXXXXXXXXXXXXXXXXXXXX........................                                                                ",
"ooooooooooooooooXXXXXXXXXXXXXXXXXXXXXXXX........................                                                                ",
"ooooooooooooooooXXXXXXXXXXXXXXXXXXXXXXXX........................                                                                ",
"ooooooooooooooooXXXXXXXXXXXXXXXXXXXXXXXX........................                                                                ",
"ooooooooooooooooXXXXXXXXXXXXXXXXXXXXXXXX........................                                                                ",
"ooooooooooooooooXXXXXXXXXXXXXXXXXXXXXXXX........................                                                                ",
"ooooooooooooooooXXXXXXXXXXXXXXXXXXXXXXXX........................                                                                ",
"ooooooooooooooooXXXXXXXXXXXXXXXXXXXXXXXX........................                                                                ",
"ooooooooooooooooXXXXXXXXXXXXXXXXXXXXXXXX........................                                                                ",
"ooooooooooooooooXXXXXXXXXXXXXXXXXXXXXXXX........................                                                                ",
"ooooooooooooooooXXXXXXXXXXXXXXXXXXXXXXXX........................                                                                ",
"ooooooooooooooooXXXXXXXXXXXXXXXXXXXXXXXX........................                                                                ",
"ooooooooooooooooXXXXXXXXXXXXXXXXXXXXXXXX........................                                                                ",
"ooooooooooooooooXXXXXXXXXXXXXXXXXXXXXXXX........................                                                                "
};
