/* XPM */
static char *ditto_201755194879[] = {
/* columns rows colors chars-per-pixel */
"128 128 74 1 ",
"  c gray15",
". c #282828",
"X c #383040",
"o c #3C3040",
"O c #383440",
"+ c #3C3440",
"@ c #3C3444",
"# c #403844",
"$ c #403848",
"% c #403C48",
"& c #443C48",
"* c #443C4C",
"= c #4C4450",
"- c #4C4854",
"; c #504C58",
": c #544C58",
"> c #544C5C",
", c #584C58",
"< c #584C5C",
"1 c #58505C",
"2 c #5C5060",
"3 c #5C5460",
"4 c #605864",
"5 c #906858",
"6 c #A88868",
"7 c #C8A878",
"8 c #A090B0",
"9 c #A490B0",
"0 c #A898B8",
"q c #B4A4C0",
"w c #B8A4C4",
"e c #B8A4C8",
"r c #B8A8C8",
"t c #BCA8C8",
"y c #BCACCC",
"u c #C4B0CC",
"i c #C4ACD0",
"p c #C4B0D0",
"a c #C8B0D0",
"s c #C8B0D4",
"d c #CCB4D8",
"f c #CCB8D8",
"g c #D0B8DC",
"h c #D0BCDC",
"j c #D4BCDC",
"k c #D4BCE0",
"l c #D4C0DC",
"z c #D4C0E0",
"x c #D8C0E0",
"c c #D8C4E0",
"v c #D8C0E4",
"b c #D8C4E4",
"n c #DCC4E4",
"m c #DCC4E8",
"M c #DCC8E8",
"N c #E0C8E8",
"B c #E0C8EC",
"V c #E0CCEC",
"C c #E4CCEC",
"Z c #E4CCF0",
"A c #E4D0F0",
"S c #E4D0F4",
"D c #E8D0F0",
"F c #E8D0F4",
"G c #E8D4F4",
"H c #E8D4F8",
"J c #ECD4F8",
"K c #ECD8F8",
"L c #F0D8FF",
"P c #F4DCFC",
"I c #F8DCFF",
"U c #F8E0FF",
"Y c #F8E4FC",
"T c #FCE4FF",
/* pixels */
"66666666666666666666666666666666666666666666666666666666666666667777777766666666777777776666666666666666666666665555555566666666",
"66666666666666666666666666666666666666666666666666666666666666667777777766666666777777776666666666666666666666665555555566666666",
"66666666666666666666666666666666666666666666666666666666666666667777777766666666777777776666666666666666666666665555555566666666",
"66666666666666666666666666666666666666666666666666666666666666667777777766666666777777776666666666666666666666665555555566666666",
"66666666666666666666666666666666666666666666666666666666666666667777777766666666777777776666666666666666666666665555555566666666",
"66666666666666666666666666666666666666666666666666666666666666667777777766666666777777776666666666666666666666665555555566666666",
"66666666666666666666666666666666666666666666666666666666666666667777777766666666777777776666666666666666666666665555555566666666",
"66666666666666666666666666666666666666666666666666666666666666667777777766666666777777776666666666666666666666665555555566666666",
"66666666666666667777777766666666666666666666666666666666777777776666666677777777666666666666666666666666555555556666666655555555",
"66666666666666667777777766666666666666666666666666666666777777776666666677777777666666666666666666666666555555556666666655555555",
"66666666666666667777777766666666666666666666666666666666777777776666666677777777666666666666666666666666555555556666666655555555",
"66666666666666667777777766666666666666666666666666666666777777776666666677777777666666666666666666666666555555556666666655555555",
"66666666666666667777777766666666666666666666666666666666777777776666666677777777666666666666666666666666555555556666666655555555",
"66666666666666667777777766666666666666666666666666666666777777776666666677777777666666666666666666666666555555556666666655555555",
"66666666666666667777777766666666666666666666666666666666777777776666666677777777666666666666666666666666555555556666666655555555",
"66666666666666667777777766666666666666666666666666666666777777776666666677777777666666666666666666666666555555556666666655555555",
"66666666777777776666666666666666666666666666666677777777666666667777777766666666666666666666666666666666666666665555555566666666",
"66666666777777776666666666666666666666666666666677777777666666667777777766666666666666666666666666666666666666665555555566666666",
"66666666777777776666666666666666666666666666666677777777666666667777777766666666666666666666666666666666666666665555555566666666",
"66666666777777776666666666666666666666666666666677777777666666667777777766666666666666666666666666666666666666665555555566666666",
"66666666777777776666666666666666666666666666666677777777666666667777777766666666666666666666666666666666666666665555555566666666",
"66666666777777776666666666666666666666666666666677777777666666667777777766666666666666666666666666666666666666665555555566666666",
"66666666777777776666666666666666666666666666666677777777666666667777777766666666666666666666666666666666666666665555555566666666",
"66666666777777776666666666666666666666666666666677777777666666667777777766666666666666666666666666666666666666665555555566666666",
"77777777666666666666666666666666666666666666666666666666666666666666666666666666666666666666666666666666555555556666666666666666",
"77777777666666666666666666666666666666666666666666666666666666666666666666666666666666666666666666666666555555556666666666666666",
"77777777666666666666666666666666666666666666666666666666666666666666666666666666666666666666666666666666555555556666666666666666",
"77777777666666666666666666666666666666666666666666666666666666666666666666666666666666666666666666666666555555556666666666666666",
"77777777666666666666666666666666666666666666666666666666666666666666666666666666666666666666666666666666555555556666666666666666",
"77777777666666666666666666666666666666666666666666666666666666666666666666666666666666666666666666666666555555556666666666666666",
"77777777666666666666666666666666666666666666666666666666666666666666666666666666666666666666666666666666555555556666666666666666",
"77777777666666666666666666666666666666666666666666666666666666666666666666666666666666666666666666666666555555556666666666666666",
"66666666666666666666666666666666666666665555555566666666555555556666666666666666666666666666666666666666666666666666666666666666",
"66666666666666666666666666666666666666665555555566666666555555556666666666666666666666666666666666666666666666666666666666666666",
"66666666666666666666666666666666666666665555555566666666555555556666666666666666666666666666666666666666666666666666666666666666",
"66666666666666666666666666666666666666665555555566666666555555556666666666666666666666666666666666666666666666666666666666666666",
"66666666666666666666666666666666666666665555555566666666555555556666666666666666666666666666666666666666666666666666666666666666",
"66666666666666666666666666666666666666665555555566666666555555556666666666666666666666666666666666666666666666666666666666666666",
"66666666666666666666666666666666666666665555555566666666555555556666666666666666666666666666666666666666666666666666666666666666",
"66666666666666666666666666666666666666665555555566666666555555556666666666666666666666666666666666666666666666666666666666666666",
"66666666666666666666666666666666555555556666666655555555666666666666666666666666555555556666666666666666666666666666666666666666",
"66666666666666666666666666666666555555556666666655555555666666666666666666666666555555556666666666666666666666666666666666666666",
"66666666666666666666666666666666555555556666666655555555666666666666666666666666555555556666666666666666666666666666666666666666",
"66666666666666666666666666666666555555556666666655555555666666666666666666666666555555556666666666666666666666666666666666666666",
"66666666666666666666666666666666555555556666666655555555666666666666666666666666555555556666666666666666666666666666666666666666",
"66666666666666666666666666666666555555556666666655555555666666666666666666666666555555556666666666666666666666666666666666666666",
"66666666666666666666666666666666555555556666666655555555666666666666666666666666555555556666666666666666666666666666666666666666",
"66666666666666666666666666666666555555556666666655555555666666666666666666666666555555556666666666666666666666666666666666666666",
"66666666666666666666666655555555666666665555555566666666666666666666666666666666666666666666666666666666666666666666666677777777",
"66666666666666666666666655555555666666665555555566666666666666666666666666666666666666666666666666666666666666666666666677777777",
"66666666666666666666666655555555666666665555555566666666666666666666666666666666666666666666666666666666666666666666666677777777",
"66666666666666666666666655555555666666665555555566666666666666666666666666666666666666666666666666666666666666666666666677777777",
"66666666666666666666666655555555666666665555555566666666666666666666666666666666666666666666666666666666666666666666666677777777",
"66666666666666666666666655555555666666665555555566666666666666666666666666666666666666666666666666666666666666666666666677777777",
"66666666666666666666666655555555666666665555555566666666666666666666666666666666666666666666666666666666666666666666666677777777",
"66666666666666666666666655555555666666665555555566666666666666666666666666666666666666666666666666666666666666666666666677777777",
"66666666666666666666666666666666555555556666666666666666666666666666666666666666666666666666666677777777666666667777777766666666",
"66666666666666666666666666666666555555556666666666666666666666666666666666666666666666666666666677777777666666667777777766666666",
"66666666666666666666666666666666555555556666666666666666666666666666666666666666666666666666666677777777666666667777777766666666",
"66666666666666666666666666666666555555556666666666666666666666666666666666666666666666666666666677777777666666667777777766666666",
"666666666666666666666666666666665555555566666666666..........6666666666666666666666666666666666677777777666666667777777766666666",
"666666666666666666666666666666665555555566666666666..........6666666666666666666666666666666666677777777666666667777777766666666",
"6666666666666666666666666666666....55555666666666..zzzzxxxx,,..66666666666666666666666666666666677777777666666667777777766666666",
"6666666666666666666666666666666....55555666666666..zzzzxxxx,,..66666666666666666666666666666666677777777666666667777777766666666",
"66666666666666666666666666666..qq11....66666666..zzxxMMMMMMbb<<..66..........666666666667777777766666666777777776666666655555555",
"66666666666666666666666666666..qq11....66666666..zzxxMMMMMMbb<<..66..........666666666667777777766666666777777776666666655555555",
"666666666666666666666666666..MMSSFFZZ11..6666..zzbbbbMMBBBBMMhh>>..AAZZZZVV11..6666666667777777766666666777777776666666655555555",
"666666666666666666666666666..MMSSFFZZ11..6666..zzbbbbMMBBBBMMhh>>..AAZZZZVV11..6666666667777777766666666777777776666666655555555",
"666666666666666666666666666..MMAAYYFFZZ::....zzzzbbMMMMVVZZZZAAFFFFFFJJAAAAZZ<<..66666667777777766666666777777776666666655555555",
"666666666666666666666666666..MMAAYYFFZZ::....zzzzbbMMMMVVZZZZAAFFFFFFJJAAAAZZ<<..66666667777777766666666777777776666666655555555",
"666666666666666666666666666..bbAAFFGGAAMM33zzxxbbMMNNBBVVSSSSHHTTTTTTPPHHFFSSZZ11..666667777777766666666777777776666666655555555",
"666666666666666666666666666..bbAAFFGGAAMM33zzxxbbMMNNBBVVSSSSHHTTTTTTPPHHFFSSZZ11..666667777777766666666777777776666666655555555",
"666666665555555566666666666..zzBBAASSGGZZzzvvbbxxBBMMBBAASSSSFFPPTTUUIIGGGGFFSSVV>>..777666....677777777666666665555555566666666",
"666666665555555566666666666..zzBBAASSGGZZzzvvbbxxBBMMBBAASSSSFFPPTTUUIIGGGGFFSSVV>>..777666....677777777666666665555555566666666",
"666666665555555566666666666..zzxxMMZZZZxxzzxxxxmmMMMMMMZZAAAAFFPPPPLLUULLFFDDAACCMM::......uu11....77777666666665555555566666666",
"666666665555555566666666666..zzxxMMZZZZxxzzxxxxmmMMMMMMZZAAAAFFPPPPLLUULLFFDDAACCMM::......uu11....77777666666665555555566666666",
"666666665555555566666666666..::xxxxBBnnzzvvxxxxbbhhNNBBZZSSFFFFLLFFGGJJDDGGFFFFFFFFSSBBSSSSFFFFSS22..777666666665555555566666666",
"666666665555555566666666666..::xxxxBBnnzzvvxxxxbbhhNNBBZZSSFFFFLLFFGGJJDDGGFFFFFFFFSSBBSSSSFFFFSS22..777666666665555555566666666",
"66666666555555556666666666666..zzzzvvzzzzvvbbxxbbBBMMVVAAZZSSFFFFFFLLFFGGJJFFFFFFKKGGAAAAAABBNNMMMM::777666666665555555566666666",
"66666666555555556666666666666..zzzzvvzzzzvvbbxxbbBBMMVVAAZZSSFFFFFFLLFFGGJJFFFFFFKKGGAAAAAABBNNMMMM::777666666665555555566666666",
"66666666666666666666666666666..llzzzzzzzzxxjj==44ppMMMMVVZZZZZZAAFFSSAADDAAFFAAFFFFAAZZMMMMxxxxzzzz::666666666666666666666666666",
"66666666666666666666666666666..llzzzzzzzzxxjj==44ppMMMMVVZZZZZZAAFFSSAADDAAFFAAFFFFAAZZMMMMxxxxzzzz::666666666666666666666666666",
"66666666666666666666666666666..llzzzzzzxxbbxxccbbMMMMddaass<<11;;::::::::iiFFSSFFSSAABBMMxxvvzzzzzz::666666666666666666666666666",
"66666666666666666666666666666..llzzzzzzxxbbxxccbbMMMMddaass<<11;;::::::::iiFFSSFFSSAABBMMxxvvzzzzzz::666666666666666666666666666",
"66666666666666666666666666666  hhzzzzzzzzvvbbxxbbBBMMNNBBZZSSSSSSSSSSFFSSSSSSSSSSSSSSBBcczzzzzzzzll::666666666666666666666666666",
"66666666666666666666666666666  hhzzzzzzzzvvbbxxbbBBMMNNBBZZSSSSSSSSSSFFSSSSSSSSSSSSSSBBcczzzzzzzzll::666666666666666666666666666",
"66666666666666666666666666666  --llkkzzzzzzzzzzbbMMMMMMVVCCZZZZZZZZZZAAZZZZZZZZZZZZZZMMzzzzzzjjhhhh**666666666666666666666666666",
"66666666666666666666666666666  --llkkzzzzzzzzzzbbMMMMMMVVCCZZZZZZZZZZAAZZZZZZZZZZZZZZMMzzzzzzjjhhhh**666666666666666666666666666",
"6666666666666666666666667777777  zzzzzzxxbbxxccmmMMMMNNBBZZAAAAAAZZAAAASSSSSSSSAAZZZZBBcczzzzzzhhff%%666666666666666666666666666",
"6666666666666666666666667777777  zzzzzzxxbbxxccmmMMMMNNBBZZAAAAAAZZAAAASSSSSSSSAAZZZZBBcczzzzzzhhff%%666666666666666666666666666",
"6666666666666666666666667777777  zzzzzzzzxxbbccbbMMNNNNBBVVZZAAAAZZAAAASSSSAASSAAZZCCBBxxzzzzhhhh%%66666666666666666666666666666",
"6666666666666666666666667777777  zzzzzzzzxxbbccbbMMNNNNBBVVZZAAAAZZAAAASSSSAASSAAZZCCBBxxzzzzhhhh%%66666666666666666666666666666",
"6666666666666666666666667777777  llzzzzzzzzzzzzzzMMMMMMMMMMVVZZZZZZZZZZZZZZZZZZZZVVMMMMnnzzzzhhww$$66666666666666666666666666666",
"6666666666666666666666667777777  llzzzzzzzzzzzzzzMMMMMMMMMMVVZZZZZZZZZZZZZZZZZZZZVVMMMMnnzzzzhhww$$66666666666666666666666666666",
"66666666666666666666666677777  hhzzzzzzzzzzbbxxxxbbMMMMBBMMBBVVZZZZAAAAAAAAAAAAZZNNNNBBmmcczzzz==6666666666666666666666666666666",
"66666666666666666666666677777  hhzzzzzzzzzzbbxxxxbbMMMMBBMMBBVVZZZZAAAAAAAAAAAAZZNNNNBBmmcczzzz==6666666666666666666666666666666",
"66666666666666667777777766666  llzzzzzzzzzzbbccxxbbMMNNBBNNNNBBNNVVVVZZVVZZZZVVVVMMBBMMxxbbvvzz::6666666555555555555555566666666",
"66666666666666667777777766666  llzzzzzzzzzzbbccxxbbMMNNBBNNNNBBNNVVVVZZVVZZZZVVVVMMBBMMxxbbvvzz::6666666555555555555555566666666",
"666666666666666677777777666  hhhhzzzzzzzzzzzzxxxxxxccMMMMMMMMMMMMMMMMBBMMMMMMMMMMMMMMMMzzzzzzzz::6666666555555555555555566666666",
"666666666666666677777777666  hhhhzzzzzzzzzzzzxxxxxxccMMMMMMMMMMMMMMMMBBMMMMMMMMMMMMMMMMzzzzzzzz::6666666555555555555555566666666",
"666666666666666677777777666  jjzzzzzzzzzzzzvvzzxxbbccbbMMMMMMBBMMNNBBMMNNBBNNNNBBNNNNbbvvccvvzz::6666666555555555555555566666666",
"666666666666666677777777666  jjzzzzzzzzzzzzvvzzxxbbccbbMMMMMMBBMMNNBBMMNNBBNNNNBBNNNNbbvvccvvzz::6666666555555555555555566666666",
"6666666666666666777777776  hhjjzzzzzzzzvvzzzzvvccxxccccxxMMMMBBMMMMBBMMMMBBMMMMBBMMMMbbbbzzvvzz::  66666555555555555555566666666",
"6666666666666666777777776  hhjjzzzzzzzzvvzzzzvvccxxccccxxMMMMBBMMMMBBMMMMBBMMMMBBMMMMbbbbzzvvzz::  66666555555555555555566666666",
"5555555566666666666666666  hhhhkkzzzzzzzzzzzzzzzzxxzzxxxxzzxxbbmmbbMMMMMMMMMMMMMMmmzzxxzzzzzzzzzz::55555555555556666666666666666",
"5555555566666666666666666  hhhhkkzzzzzzzzzzzzzzzzxxzzxxxxzzxxbbmmbbMMMMMMMMMMMMMMmmzzxxzzzzzzzzzz::55555555555556666666666666666",
"55555555666666666666666  rrhhllzzzzzzzzzzzzvvzzzzvvzzccbbxxccbbxxxxbbxxbbbbxxxxbbxxxxbbzzzzzzzzzz::  555555555556666666666666666",
"55555555666666666666666  rrhhllzzzzzzzzzzzzvvzzzzvvzzccbbxxccbbxxxxbbxxbbbbxxxxbbxxxxbbzzzzzzzzzz::  555555555556666666666666666",
"55555555666666666666666  tthhjjzzzzzzzzzzzzzzzzzzzzzzxxzzccccbbccvvbbccvvbbbbvvbbbbzzvvvvzzzzzzzzjj::  5555555556666666666666666",
"55555555666666666666666  tthhjjzzzzzzzzzzzzzzzzzzzzzzxxzzccccbbccvvbbccvvbbbbvvbbbbzzvvvvzzzzzzzzjj::  5555555556666666666666666",
"55555555666666666666666  wwhhhhjjzzzzzzzzzzzzzzzzzzzzzzzzzzzzzzzzzzzzzzzzzzzzzzzzzzzzzzzzzzzzkkjjhhhh::5555555556666666666666666",
"55555555666666666666666  wwhhhhjjzzzzzzzzzzzzzzzzzzzzzzzzzzzzzzzzzzzzzzzzzzzzzzzzzzzzzzzzzzzzkkjjhhhh::5555555556666666666666666",
"666666666666666666666  99rrhhhhlljjzzzzzzzzzzzzzzzzzzzzzzzzzzzzzzzzvvzzzzvvzzzzzzzzzzzzzzzzzzllhhhhhh::  66666666666666666666666",
"666666666666666666666  99rrhhhhlljjzzzzzzzzzzzzzzzzzzzzzzzzzzzzzzzzvvzzzzvvzzzzzzzzzzzzzzzzzzllhhhhhh::  66666666666666666666666",
"666666666666666666666  8888wwhhhhhhhhzzlllllllljjllzzzzzzzzzzzzzzzzzzzzzzzzzzzzzzzzllzzjjjjhhhhhhhhhhww%%66666666666666666666666",
"666666666666666666666  8888wwhhhhhhhhzzlllllllljjllzzzzzzzzzzzzzzzzzzzzzzzzzzzzzzzzllzzjjjjhhhhhhhhhhww%%66666666666666666666666",
"666666666666666666666  $$8888yyhhhhhhhhjjhhjjjjhhjjjjkkzzzzkkzzzzzzzzzzzzzzzzllzzlljjjjhhhhhhhhhheeww99$$66666666666666666666666",
"666666666666666666666  $$8888yyhhhhhhhhjjhhjjjjhhjjjjkkzzzzkkzzzzzzzzzzzzzzzzllzzlljjjjhhhhhhhhhheeww99$$66666666666666666666666",
"66666666666666666666666  999900rrhhhhhhhhhhhhhhhhhhhhhhhhllhhzzzzzzzzzzzzzzzzjjllllllhhhhhhhheerr998899%%66666666666666666666666",
"66666666666666666666666  999900rrhhhhhhhhhhhhhhhhhhhhhhhhllhhzzzzzzzzzzzzzzzzjjllllllhhhhhhhheerr998899%%66666666666666666666666",
"66666666666666666666666  %%888888wweeddhhggffwwwwwwwwwwwweehhhhhhhhhhhhhhhhhhhhhhhhffeewwww8888888888$$6666666666666666666666666",
"66666666666666666666666  %%888888wweeddhhggffwwwwwwwwwwwweehhhhhhhhhhhhhhhhhhhhhhhhffeewwww8888888888$$6666666666666666666666666",
"6666666666666666666666666  %%$$9988889988888888888888888888888899wwwweewwwwwwww8888888888888888888888$$6666666666666666666666666",
"6666666666666666666666666  %%$$9988889988888888888888888888888899wwwweewwwwwwww8888888888888888888888$$6666666666666666666666666",
"66666666666666666666666666666  ++++%%%%%%%%999988$$####@@####$$%%%%9999889999%%%%%%999999999988%%&&%%666666666666666666666666666",
"66666666666666666666666666666  ++++%%%%%%%%999988$$####@@####$$%%%%9999889999%%%%%%999999999988%%&&%%666666666666666666666666666",
"66666666666666666666666666666666666666665  XXoo++6666666666666666  ++XXXX++XX6666  OO++XXOO++++666666666666666666666666666666666",
"66666666666666666666666666666666666666665  XXoo++6666666666666666  ++XXXX++XX6666  OO++XXOO++++666666666666666666666666666666666"
};
