/* XPM */
static char *ditto_331755194881[] = {
/* columns rows colors chars-per-pixel */
"128 128 78 1 ",
"  c gray15",
". c #282828",
"X c #2C282C",
"o c #383040",
"O c #3C3440",
"+ c #3C3444",
"@ c #3C3844",
"# c #403844",
"$ c #403848",
"% c #403C48",
"& c #484050",
"* c #4C4450",
"= c #504454",
"- c #504854",
"; c #544C58",
": c #544C5C",
"> c #584C5C",
", c #58505C",
"< c #585060",
"1 c #5C5060",
"2 c #5C5460",
"3 c #605464",
"4 c #685C6C",
"5 c #6C6070",
"6 c #906858",
"7 c #A88868",
"8 c #C8A878",
"9 c #8C7C94",
"0 c #9884A4",
"q c #A090B0",
"w c #A490B0",
"e c #A490B4",
"r c #AC9CBC",
"t c #B0A0B8",
"y c #B4A0C0",
"u c #B4A4C4",
"i c #B8A4C4",
"p c #B8A4C8",
"a c #B8A8C8",
"s c #BCA8C8",
"d c #C0ACC8",
"f c #C4B0D0",
"g c #C8B0D4",
"h c #C8B4D4",
"j c #CCB8D8",
"k c #D0B8D8",
"l c #D0BCD8",
"z c #D0B8DC",
"x c #D0BCDC",
"c c #D4BCDC",
"v c #D4BCE0",
"b c #D0C0DC",
"n c #D4C0DC",
"m c #D4C0E0",
"M c #D8C0E0",
"N c #D8C4E0",
"B c #D8C0E4",
"V c #D8C4E4",
"C c #DCC4E8",
"Z c #DCC8E8",
"A c #E0C8E8",
"S c #E0C8EC",
"D c #E0CCEC",
"F c #E0CCF0",
"G c #E4CCF0",
"H c #E4D0F0",
"J c #E4D0F4",
"K c #E8D0F0",
"L c #E8D0F4",
"P c #E8D4F4",
"I c #E8D4F8",
"U c #ECD4FC",
"Y c #F0D8FC",
"T c #F0DCFC",
"R c #F4DCFF",
"E c #F8E0FF",
"W c #FCE0FF",
"Q c #FCE4FF",
/* pixels */
"77777777777777777777777777777777777777777777777777777777777777778888888877777777888888887777777777777777777777776666666677777777",
"77777777777777777777777777777777777777777777777777777777777777778888888877777777888888887777777777777777777777776666666677777777",
"77777777777777777777777777777777777777777777777777777777777777778888888877777777888888887777777777777777777777776666666677777777",
"77777777777777777777777777777777777777777777777777777777777777778888888877777777888888887777777777777777777777776666666677777777",
"77777777777777777777777777777777777777777777777777777777777777778888888877777777888888887777777777777777777777776666666677777777",
"77777777777777777777777777777777777777777777777777777777777777778888888877777777888888887777777777777777777777776666666677777777",
"77777777777777777777777777777777777777777777777777777777777777778888888877777777888888887777777777777777777777776666666677777777",
"77777777777777777777777777777777777777777777777777777777777777778888888877777777888888887777777777777777777777776666666677777777",
"77777777777777778888888877777777777777777777777777777777888888887777777788888888777777777777777777777777666666667777777766666666",
"77777777777777778888888877777777777777777777777777777777888888887777777788888888777777777777777777777777666666667777777766666666",
"77777777777777778888888877777777777777777777777777777777888888887777777788888888777777777777777777777777666666667777777766666666",
"77777777777777778888888877777777777777777777777777777777888888887777777788888888777777777777777777777777666666667777777766666666",
"77777777777777778888888877777777777777777777777777777777888888887777777788888888777777777777777777777777666666667777777766666666",
"77777777777777778888888877777777777777777777777777777777888888887777777788888888777777777777777777777777666666667777777766666666",
"77777777777777778888888877777777777777777777777777777777888888887777777788888888777777777777777777777777666666667777777766666666",
"77777777777777778888888877777777777777777777777777777777888888887777777788888888777777777777777777777777666666667777777766666666",
"77777777888888887777777777777777777777777777777788888888777777778888888877777777777777777777777777777777777777776666666677777777",
"77777777888888887777777777777777777777777777777788888888777777778888888877777777777777777777777777777777777777776666666677777777",
"77777777888888887777777777777777777777777777777788888888777777778888888877777777777777777777777777777777777777776666666677777777",
"77777777888888887777777777777777777777777777777788888888777777778888888877777777777777777777777777777777777777776666666677777777",
"77777777888888887777777777777777777777777777777788888888777777778888888877777777777777777777777777777777777777776666666677777777",
"77777777888888887777777777777777777777777777777788888888777777778888888877777777777777777777777777777777777777776666666677777777",
"77777777888888887777777777777777777777777777777788888888777777778888888877777777777777777777777777777777777777776666666677777777",
"77777777888888887777777777777777777777777777777788888888777777778888888877777777777777777777777777777777777777776666666677777777",
"88888888777777777777777777777777777777777777777777777777777777777777777777777777777777777777777777777777666666667777777777777777",
"88888888777777777777777777777777777777777777777777777777777777777777777777777777777777777777777777777777666666667777777777777777",
"88888888777777777777777777777777777777777777777777777777777777777777777777777777777777777777777777777777666666667777777777777777",
"88888888777777777777777777777777777777777777777777777777777777777777777777777777777777777777777777777777666666667777777777777777",
"88888888777777777777777777777777777777777777777777777777777777777777777777777777777777777777777777777777666666667777777777777777",
"88888888777777777777777777777777777777777777777777777777777777777777777777777777777777777777777777777777666666667777777777777777",
"88888888777777777777777777777777777777777777777777777777777777777777777777777777777777777777777777777777666666667777777777777777",
"88888888777777777777777777777777777777777777777777777777777777777777777777777777777777777777777777777777666666667777777777777777",
"77777777777777777777777777777777777777776666666677777777666666667777777777777777777777777777777777777777777777777777777777777777",
"77777777777777777777777777777777777777776666666677777777666666667777777777777777777777777777777777777777777777777777777777777777",
"77777777777777777777777777777777777777776666666677777777666666667777777777777777777777777777777777777777777777777777777777777777",
"77777777777777777777777777777777777777776666666677777777666666667777777777777777777777777777777777777777777777777777777777777777",
"77777777777777777777777777777777777777776666666677777777666666667777777777777777777777777777777777777777777777777777777777777777",
"77777777777777777777777777777777777777776666666677777777666666667777777777777777777777777777777777777777777777777777777777777777",
"77777777777777777777777777777777777777776666666677777777666666667777777777777777777777777777777777777777777777777777777777777777",
"77777777777777777777777777777777777777776666666677777777666666667777777777777777777777777777777777777777777777777777777777777777",
"77777777777777777777777777777777666666667777777766666666777777777777777777777777666666667777777777777777777777777777777777777777",
"77777777777777777777777777777777666666667777777766666666777777777777777777777777666666667777777777777777777777777777777777777777",
"77777777777777777777777777777777666666667777777766666666777777777777777777777777666666667777777777777777777777777777777777777777",
"77777777777777777777777777777777666666667777777766666666777777777777777777777777666666667777777777777777777777777777777777777777",
"77777777777777777777777777777777666666667777777766666666777777777777777777777777666666667777777777777777777777777777777777777777",
"77777777777777777777777777777777666666667777777766666666777777777777777777777777666666667777777777777777777777777777777777777777",
"77777777777777777777777777777777666666667777777766666666777777777777777777777777666666667777777777777777777777777777777777777777",
"77777777777777777777777777777777666666667777777766666666777777777777777777777777666666667777777777777777777777777777777777777777",
"77777777777777777777777766666666777777776666666677777777777777777777777777777777777777777777777777777777777777777777777788888888",
"77777777777777777777777766666666777777776666666677777777777777777777777777777777777777777777777777777777777777777777777788888888",
"77777777777777777777777766666666777777776666666677777777777777777777777777777777777777777777777777777777777777777777777788888888",
"77777777777777777777777766666666777777776666666677777777777777777777777777777777777777777777777777777777777777777777777788888888",
"77777777777777777777777766666666777777776666666677777777777777777777777777777777777777777777777777777777777777777777777788888888",
"77777777777777777777777766666666777777776666666677777777777777777777777777777777777777777777777777777777777777777777777788888888",
"77777777777777777777777766666666777777776666666677777777777777777777777777777777777777777777777777777777777777777777777788888888",
"77777777777777777777777766666666777777776666666677777777777777777777777777777777777777777777777777777777777777777777777788888888",
"77777777777777777777777777777777666666667777777777777777777777777777777777777777777777777777777788888888777777778888888877777777",
"77777777777777777777777777777777666666667777777777777777777777777777777777777777777777777777777788888888777777778888888877777777",
"77777777777777777777777777777777666666667777777777777777777777777777777777777777777777777777777788888888777777778888888877777777",
"77777777777777777777777777777777666666667777777777777777777777777777777777777777777777777777777788888888777777778888888877777777",
"77777777777777777777777777777777666666667777777777777..........77777777777777777777777777777777788888888777777778888888877777777",
"77777777777777777777777777777777666666667777777777777..........77777777777777777777777777777777788888888777777778888888877777777",
"777777777777777777777777777777776........7777777777..mmMMMMmm::..777777777777777777777777777777788888888777777778888888877777777",
"777777777777777777777777777777776........7777777777..mmMMMMmm::..777777777777777777777777777777788888888777777778888888877777777",
"7777777777777777777777777777777..ZZZZZZ;;..777777..mmmmmmCCVVMM::77..........777777777778888888877777777888888887777777766666666",
"7777777777777777777777777777777..ZZZZZZ;;..777777..mmmmmmCCVVMM::77..........777777777778888888877777777888888887777777766666666",
"77777777777777777777777777777..BBSSJJJJZZ;;7777..BBMMVVSSZZZZSS,,..SSGGGGGG<<..7777777778888888877777777888888887777777766666666",
"77777777777777777777777777777..BBSSJJJJZZ;;7777..BBMMVVSSZZZZSS,,..SSGGGGGG<<..7777777778888888877777777888888887777777766666666",
"77777777777777777777777777777..mmZZLLYYGG;;....mmMMCCZZZZZZGGGGHHHHLLLLHHHHGG,,..77777778888888877777777888888887777777766666666",
"77777777777777777777777777777..mmZZLLYYGG;;....mmMMCCZZZZZZGGGGHHHHLLLLHHHHGG,,..77777778888888877777777888888887777777766666666",
"77777777777777777777777777777..xxZZJJQQJJMM22mmVVMMZZSSZZGGHHLLLLLLQQEEYYLLJJHH<<..777778888888877777777888888887777777766666666",
"77777777777777777777777777777..xxZZJJQQJJMM22mmVVMMZZSSZZGGHHLLLLLLQQEEYYLLJJHH<<..777778888888877777777888888887777777766666666",
"77777777666666667777777777777..;;VVGGLLPPJJmmBBMMVVZZZZSSGGJJLLQQEEQQWWEELLJJJJSS>>..888777........88888777777776666666677777777",
"77777777666666667777777777777..;;VVGGLLPPJJmmBBMMVVZZZZSSGGJJLLQQEEQQWWEELLJJJJSS>>..888777........88888777777776666666677777777",
"7777777766666666777777777777777..mmZZGGGGmmmmMMMMVVXXZZGGGGHHJJEERREETTTTLLKKGGGGZZ;;......ZZHHTT22..888777777776666666677777777",
"7777777766666666777777777777777..mmZZGGGGmmmmMMMMVVXXZZGGGGHHJJEERREETTTTLLKKGGGGZZ;;......ZZHHTT22..888777777776666666677777777",
"7777777766666666777777777777777..mmZZAAMMBBmmMMVVZZAASSGGJJJJLLKKRRssKKEEYYLLLLJJJJHHSSGGJJLLLLLLJJ,,..8777777776666666677777777",
"7777777766666666777777777777777..mmZZAAMMBBmmMMVVZZAASSGGJJJJLLKKRRssKKEEYYLLLLJJJJHHSSGGJJLLLLLLJJ,,..8777777776666666677777777",
"7777777766666666777777777777777..mmBBMMmmBBVV11==99jjAAHHJJLLLLLLYYPPEEWWPPIILLLLLLLLHHJJJJJJHHZZSStt&&8777777776666666677777777",
"7777777766666666777777777777777..mmBBMMmmBBVV11==99jjAAHHJJLLLLLLYYPPEEWWPPIILLLLLLLLHHJJJJJJHHZZSStt&&8777777776666666677777777",
"7777777777777777777777777777777..ccmmmmmmmmMMMMVVZZZZZZGGggff::33;;;;5544ggLLKKJJLLYYHHGGGGZZZZMMMMmm--7777777777777777777777777",
"7777777777777777777777777777777..ccmmmmmmmmMMMMVVZZZZZZGGggff::33;;;;5544ggLLKKJJLLYYHHGGGGZZZZMMMMmm--7777777777777777777777777",
"7777777777777777777777777777777..mmmmmmmmBBMMNNAAZZZZAAGGHHJJLLLLLLPPLLEELLLLJJLLJJLLJJZZZZSSBBmmmmdd$$7777777777777777777777777",
"7777777777777777777777777777777..mmmmmmmmBBMMNNAAZZZZAAGGHHJJLLLLLLPPLLEELLLLJJLLJJLLJJZZZZSSBBmmmmdd$$7777777777777777777777777",
"7777777777777777777777777777777..xxmmmmmmBBVVMMAASSZZAAHHJJLLLLLLLLLLUULLLLLLJJJJJJJJHHAAVVVVBBmmmm;;777777777777777777777777777",
"7777777777777777777777777777777..xxmmmmmmBBVVMMAASSZZAAHHJJLLLLLLLLLLUULLLLLLJJJJJJJJHHAAVVVVBBmmmm;;777777777777777777777777777",
"7777777777777777777777777777777  ;;ccmmmmmmmmmmZZZZZZDDGGGGGGHHHHHHHHHHKKHHKKGGGGGGGGGGZZmmmmmmxxxx&&777777777777777777777777777",
"7777777777777777777777777777777  ;;ccmmmmmmmmmmZZZZZZDDGGGGGGHHHHHHHHHHKKHHKKGGGGGGGGGGZZmmmmmmxxxx&&777777777777777777777777777",
"777777777777777777777777888888887..mmmmMMVVMMNNZZZZZZAAGGHHJJLLJJJJLLLLLLLLJJJJJJGGHHSSZZMMmmmmcc;;77777777777777777777777777777",
"777777777777777777777777888888887..mmmmMMVVMMNNZZZZZZAAGGHHJJLLJJJJLLLLLLLLJJJJJJGGHHSSZZMMmmmmcc;;77777777777777777777777777777",
"7777777777777777777777778888888  nnmmmmmmMMVVVVAASSAASSGGHHGGJJJJJJLLJJJJLLJJJJJJGGSSSSZZVVmmmmxx%%77777777777777777777777777777",
"7777777777777777777777778888888  nnmmmmmmMMVVVVAASSAASSGGHHGGJJJJJJLLJJJJLLJJJJJJGGSSSSZZVVmmmmxx%%77777777777777777777777777777",
"7777777777777777777777778888888  xxvvmmmmmmmmmmCCZZZZZZAADDGGGGGGGGGGGGGGGGGGGGGGFFZZZZZZmmmmxx&&7777777777777777777777777777777",
"7777777777777777777777778888888  xxvvmmmmmmmmmmCCZZZZZZAADDGGGGGGGGGGGGGGGGGGGGGGFFZZZZZZmmmmxx&&7777777777777777777777777777777",
"7777777777777777777777778888888..mmmmmmmmMMVVMMVVSSZZZZSSDDGGHHHHHHHHHHHHJJJJHHHHGGAASSBBNNmmmm**7777777777777777777777777777777",
"7777777777777777777777778888888..mmmmmmmmMMVVMMVVSSZZZZSSDDGGHHHHHHHHHHHHJJJJHHHHGGAASSBBNNmmmm**7777777777777777777777777777777",
"77777777777777778888888877777  bbmmmmmmmmmmVVNNVVVVZZAASSAAAAGGHHGGHHHHGGHHGGGGHHZZSSSSMMVVBB::777777777666666666666666677777777",
"77777777777777778888888877777  bbmmmmmmmmmmVVNNVVVVZZAASSAAAAGGHHGGHHHHGGHHGGGGHHZZSSSSMMVVBB::777777777666666666666666677777777",
"77777777777777778888888877777  xxmmmmmmmmmmMMMMMMVVCCZZZZZZZZZZZZZZSSSSDDDDDDDDDDZZZZZZmmmmmm;;777777777666666666666666677777777",
"77777777777777778888888877777  xxmmmmmmmmmmMMMMMMVVCCZZZZZZZZZZZZZZSSSSDDDDDDDDDDZZZZZZmmmmmm;;777777777666666666666666677777777",
"777777777777777788888888777  xxmmmmmmmmmmmmBBMMMMVVVVZZSSZZZZSSZZAASSZZAASSAAAASSAAAAZZBBNNBB::  7777777666666666666666677777777",
"777777777777777788888888777  xxmmmmmmmmmmmmBBMMMMVVVVZZSSZZZZSSZZAASSZZAASSAAAASSAAAAZZBBNNBB::  7777777666666666666666677777777",
"777777777777777788888888777  ccmmmmmmmmBBmmmmVVNNMMNNNNZZCCSSSSZZZZSSZZZZSSZZZZSSZZAAVVVVmmBBmm;;  77777666666666666666677777777",
"777777777777777788888888777  ccmmmmmmmmBBmmmmVVNNMMNNNNZZCCSSSSZZZZSSZZZZSSZZZZSSZZAAVVVVmmBBmm;;  77777666666666666666677777777",
"6666666677777777777777777  xxxxvvmmmmmmmmmmmmmmmmMMmmMMMMmmVVMMCCCCCCZZZZZZZZZZZZZZMMMMmmmmmmmmcc;;66666666666667777777777777777",
"6666666677777777777777777  xxxxvvmmmmmmmmmmmmmmmmMMmmMMMMmmVVMMCCCCCCZZZZZZZZZZZZZZMMMMmmmmmmmmcc;;66666666666667777777777777777",
"6666666677777777777777777  xxnnmmmmmmmmmmmmBBmmmmBBmmNNVVMMNNVVMMMMVVMMVVVVVVVVVVMMMMVVmmmmmmmmmm;;  666666666667777777777777777",
"6666666677777777777777777  xxnnmmmmmmmmmmmmBBmmmmBBmmNNVVMMNNVVMMMMVVMMVVVVVVVVVVMMMMVVmmmmmmmmmm;;  666666666667777777777777777",
"66666666777777777777777  ppxxccmmmmmmmmmmmmmmmmmmmmmmMMmmmmNNVVNNBBVVNNBBVVVVBBVVVVmmBBBBmmmmmmmmxx;;666666666667777777777777777",
"66666666777777777777777  ppxxccmmmmmmmmmmmmmmmmmmmmmmMMmmmmNNVVNNBBVVNNBBVVVVBBVVVVmmBBBBmmmmmmmmxx;;666666666667777777777777777",
"66666666777777777777777  iikkxxccmmvvmmmmmmmmmmmmmmmmmmmmmmmmmmmmmmmmmmmmmmmmmmmmmmmmmmmmmmmmvvccxx;;  6666666667777777777777777",
"66666666777777777777777  iikkxxccmmvvmmmmmmmmmmmmmmmmmmmmmmmmmmmmmmmmmmmmmmmmmmmmmmmmmmmmmmmmvvccxx;;  6666666667777777777777777",
"77777777777777777777777  wwssxxnnccmmmmmmmmmmmmmmmmmmmmmmmmmmmmmmmmBBmmmmBBmmmmmmmmmmmmmmmmmmnnxxxxxx**7777777777777777777777777",
"77777777777777777777777  wwssxxnnccmmmmmmmmmmmmmmmmmmmmmmmmmmmmmmmmBBmmmmBBmmmmmmmmmmmmmmmmmmnnxxxxxx**7777777777777777777777777",
"77777777777777777777777  qqiixxxxxxxxccnnnnnnnnccnnnnmmmmmmmmmmmmmmmmmmmmmmmmmmmmmmmmmmccxxxxxxxxllii&&  77777777777777777777777",
"77777777777777777777777  qqiixxxxxxxxccnnnnnnnnccnnnnmmmmmmmmmmmmmmmmmmmmmmmmmmmmmmmmmmccxxxxxxxxllii&&  77777777777777777777777",
"77777777777777777777777  qqqqiixxxxxxxxccxxccccxxccccxxmmmmvvmmmmmmmmmmmmmmmmnnmmnnccxxxxxxxxllssiiuuqq$$77777777777777777777777",
"77777777777777777777777  qqqqiixxxxxxxxccxxccccxxccccxxmmmmvvmmmmmmmmmmmmmmmmnnmmnnccxxxxxxxxllssiiuuqq$$77777777777777777777777",
"77777777777777777777777  wwwwqqaaxxxxxxxxxxxxxxxxxxxxxxxxnnxxmmmmmmmmmmmmmmmmccnnnnxxxxxxxxaaiieewwqqww%%77777777777777777777777",
"77777777777777777777777  wwwwqqaaxxxxxxxxxxxxxxxxxxxxxxxxnnxxmmmmmmmmmmmmmmmmccnnnnxxxxxxxxaaiieewwqqww%%77777777777777777777777",
"77777777777777777777777  %%qqqqqquuppkkxxzzllhhiiiiiirriiiikkxxxxxxxxxxxxxxxxxxxxxxssiiiiqqqqqqqqqqqq$$7777777777777777777777777",
"77777777777777777777777  %%qqqqqquuppkkxxzzllhhiiiiiirriiiikkxxxxxxxxxxxxxxxxxxxxxxssiiiiqqqqqqqqqqqq$$7777777777777777777777777",
"7777777777777777777777777  %%$$wwqqqqwwqqqqqqqqqqqqqqqqqqqqqqqqyyiippffssppiiiiqqqqqqqqqqqqqqqqqqqqqq$$7777777777777777777777777",
"7777777777777777777777777  %%$$wwqqqqwwqqqqqqqqqqqqqqqqqqqqqqqqyyiippffssppiiiiqqqqqqqqqqqqqqqqqqqqqq$$7777777777777777777777777",
"77777777777777777777777777777  @@OO$$%%%%%%%%%%%%%%@@OOOO++@@##%%%%%%wwqq00%%%%%%$$######%%wwqq%%%%%%777777777777777777777777777",
"77777777777777777777777777777  @@OO$$%%%%%%%%%%%%%%@@OOOO++@@##%%%%%%wwqq00%%%%%%$$######%%wwqq%%%%%%777777777777777777777777777",
"7777777777777777777777777777777777777777666666667777777777777777777  ooooOO77777777777777  OO##777777777777777777777777777777777",
"7777777777777777777777777777777777777777666666667777777777777777777  ooooOO77777777777777  OO##777777777777777777777777777777777"
};
