/* XPM */
static char *ditto_371755194882[] = {
/* columns rows colors chars-per-pixel */
"128 128 78 1 ",
"  c gray15",
". c #282828",
"X c #282C28",
"o c #383040",
"O c #3C3440",
"+ c #3C3444",
"@ c #3C3844",
"# c #403844",
"$ c #403848",
"% c #403C48",
"& c #484050",
"* c #4C4450",
"= c #504854",
"- c #544C58",
"; c #544C5C",
": c #58505C",
"> c #585060",
", c #5C5464",
"< c #645C64",
"1 c #686070",
"2 c #906858",
"3 c #A88868",
"4 c #C8A878",
"5 c #807088",
"6 c #9484A4",
"7 c #A090B0",
"8 c #A490B0",
"9 c #A894B4",
"0 c #AC98B4",
"q c #B09CBC",
"w c #B0A0C0",
"e c #B4A0C4",
"r c #B8A4C4",
"t c #B8A4C8",
"y c #B8A8C8",
"u c #BCA8C8",
"i c #BCA8CC",
"p c #C0A8C8",
"a c #C4ACD0",
"s c #C4B0D0",
"d c #C8B0D4",
"f c #C8B4D4",
"g c #CCB8D8",
"h c #D0B8D8",
"j c #D0BCD8",
"k c #D0B8DC",
"l c #D0BCDC",
"z c #D4BCDC",
"x c #D4BCE0",
"c c #D0C0DC",
"v c #D4C0DC",
"b c #D4C0E0",
"n c #D8C0E0",
"m c #D8C4E0",
"M c #D8C0E4",
"N c #D8C4E4",
"B c #DCC4E4",
"V c #DCC4E8",
"C c #DCC8E8",
"Z c #E0C8E8",
"A c #E0C8EC",
"S c #E0CCEC",
"D c #E4CCEC",
"F c #E0CCF0",
"G c #E4CCF0",
"H c #E4D0F0",
"J c #E4D0F4",
"K c #E8D0F0",
"L c #E8D0F4",
"P c #E8D4F4",
"I c #E8D4F8",
"U c #ECD4F8",
"Y c #ECD8F8",
"T c #F0D8FC",
"R c #F0DCFC",
"E c #F8DCFF",
"W c #F8E0FC",
"Q c #FCE4FF",
/* pixels */
"33333333333333333333333333333333333333333333333333333333333333334444444433333333444444443333333333333333333333332222222233333333",
"33333333333333333333333333333333333333333333333333333333333333334444444433333333444444443333333333333333333333332222222233333333",
"33333333333333333333333333333333333333333333333333333333333333334444444433333333444444443333333333333333333333332222222233333333",
"33333333333333333333333333333333333333333333333333333333333333334444444433333333444444443333333333333333333333332222222233333333",
"33333333333333333333333333333333333333333333333333333333333333334444444433333333444444443333333333333333333333332222222233333333",
"33333333333333333333333333333333333333333333333333333333333333334444444433333333444444443333333333333333333333332222222233333333",
"33333333333333333333333333333333333333333333333333333333333333334444444433333333444444443333333333333333333333332222222233333333",
"33333333333333333333333333333333333333333333333333333333333333334444444433333333444444443333333333333333333333332222222233333333",
"33333333333333334444444433333333333333333333333333333333444444443333333344444444333333333333333333333333222222223333333322222222",
"33333333333333334444444433333333333333333333333333333333444444443333333344444444333333333333333333333333222222223333333322222222",
"33333333333333334444444433333333333333333333333333333333444444443333333344444444333333333333333333333333222222223333333322222222",
"33333333333333334444444433333333333333333333333333333333444444443333333344444444333333333333333333333333222222223333333322222222",
"33333333333333334444444433333333333333333333333333333333444444443333333344444444333333333333333333333333222222223333333322222222",
"33333333333333334444444433333333333333333333333333333333444444443333333344444444333333333333333333333333222222223333333322222222",
"33333333333333334444444433333333333333333333333333333333444444443333333344444444333333333333333333333333222222223333333322222222",
"33333333333333334444444433333333333333333333333333333333444444443333333344444444333333333333333333333333222222223333333322222222",
"33333333444444443333333333333333333333333333333344444444333333334444444433333333333333333333333333333333333333332222222233333333",
"33333333444444443333333333333333333333333333333344444444333333334444444433333333333333333333333333333333333333332222222233333333",
"33333333444444443333333333333333333333333333333344444444333333334444444433333333333333333333333333333333333333332222222233333333",
"33333333444444443333333333333333333333333333333344444444333333334444444433333333333333333333333333333333333333332222222233333333",
"33333333444444443333333333333333333333333333333344444444333333334444444433333333333333333333333333333333333333332222222233333333",
"33333333444444443333333333333333333333333333333344444444333333334444444433333333333333333333333333333333333333332222222233333333",
"33333333444444443333333333333333333333333333333344444444333333334444444433333333333333333333333333333333333333332222222233333333",
"33333333444444443333333333333333333333333333333344444444333333334444444433333333333333333333333333333333333333332222222233333333",
"44444444333333333333333333333333333333333333333333333333333333333333333333333333333333333333333333333333222222223333333333333333",
"44444444333333333333333333333333333333333333333333333333333333333333333333333333333333333333333333333333222222223333333333333333",
"44444444333333333333333333333333333333333333333333333333333333333333333333333333333333333333333333333333222222223333333333333333",
"44444444333333333333333333333333333333333333333333333333333333333333333333333333333333333333333333333333222222223333333333333333",
"44444444333333333333333333333333333333333333333333333333333333333333333333333333333333333333333333333333222222223333333333333333",
"44444444333333333333333333333333333333333333333333333333333333333333333333333333333333333333333333333333222222223333333333333333",
"44444444333333333333333333333333333333333333333333333333333333333333333333333333333333333333333333333333222222223333333333333333",
"44444444333333333333333333333333333333333333333333333333333333333333333333333333333333333333333333333333222222223333333333333333",
"33333333333333333333333333333333333333332222222233333333222222223333333333333333333333333333333333333333333333333333333333333333",
"33333333333333333333333333333333333333332222222233333333222222223333333333333333333333333333333333333333333333333333333333333333",
"33333333333333333333333333333333333333332222222233333333222222223333333333333333333333333333333333333333333333333333333333333333",
"33333333333333333333333333333333333333332222222233333333222222223333333333333333333333333333333333333333333333333333333333333333",
"33333333333333333333333333333333333333332222222233333333222222223333333333333333333333333333333333333333333333333333333333333333",
"33333333333333333333333333333333333333332222222233333333222222223333333333333333333333333333333333333333333333333333333333333333",
"33333333333333333333333333333333333333332222222233333333222222223333333333333333333333333333333333333333333333333333333333333333",
"33333333333333333333333333333333333333332222222233333333222222223333333333333333333333333333333333333333333333333333333333333333",
"33333333333333333333333333333333222222223333333322222222333333333333333333333333222222223333333333333333333333333333333333333333",
"33333333333333333333333333333333222222223333333322222222333333333333333333333333222222223333333333333333333333333333333333333333",
"33333333333333333333333333333333222222223333333322222222333333333333333333333333222222223333333333333333333333333333333333333333",
"33333333333333333333333333333333222222223333333322222222333333333333333333333333222222223333333333333333333333333333333333333333",
"33333333333333333333333333333333222222223333333322222222333333333333333333333333222222223333333333333333333333333333333333333333",
"33333333333333333333333333333333222222223333333322222222333333333333333333333333222222223333333333333333333333333333333333333333",
"33333333333333333333333333333333222222223333333322222222333333333333333333333333222222223333333333333333333333333333333333333333",
"33333333333333333333333333333333222222223333333322222222333333333333333333333333222222223333333333333333333333333333333333333333",
"33333333333333333333333322222222333333332222222233333333333333333333333333333333333333333333333333333333333333333333333344444444",
"33333333333333333333333322222222333333332222222233333333333333333333333333333333333333333333333333333333333333333333333344444444",
"33333333333333333333333322222222333333332222222233333333333333333333333333333333333333333333333333333333333333333333333344444444",
"33333333333333333333333322222222333333332222222233333333333333333333333333333333333333333333333333333333333333333333333344444444",
"33333333333333333333333322222222333333332222222233333333333333333333333333333333333333333333333333333333333333333333333344444444",
"33333333333333333333333322222222333333332222222233333333333333333333333333333333333333333333333333333333333333333333333344444444",
"33333333333333333333333322222222333333332222222233333333333333333333333333333333333333333333333333333333333333333333333344444444",
"33333333333333333333333322222222333333332222222233333333333333333333333333333333333333333333333333333333333333333333333344444444",
"33333333333333333333333333333333222222223333333333333333333333333333333333333333333333333333333344444444333333334444444433333333",
"33333333333333333333333333333333222222223333333333333333333333333333333333333333333333333333333344444444333333334444444433333333",
"333333333333333333333333333333332222222233333333333333333..333333333333333333333333333333333333344444444333333334444444433333333",
"333333333333333333333333333333332222222233333333333333333..333333333333333333333333333333333333344444444333333334444444433333333",
"33333333333333333333333333333333222222223333333333333....;;....33333333333333333333333333333333344444444333333334444444433333333",
"33333333333333333333333333333333222222223333333333333....;;....33333333333333333333333333333333344444444333333334444444433333333",
"333333333333333333333333333333332........3333333333..bbnnnnbb;;..333333333333333333333333333333344444444333333334444444433333333",
"333333333333333333333333333333332........3333333333..bbnnnnbb;;..333333333333333333333333333333344444444333333334444444433333333",
"3333333333333333333333333333333..bbCCCC--..333333..bbbbbbNNMMnn;;33..........333333333334444444433333333444444443333333322222222",
"3333333333333333333333333333333..bbCCCC--..333333..bbbbbbNNMMnn;;33..........333333333334444444433333333444444443333333322222222",
"3333333333333333333333333333333..AAJJJJAA--..33..MMnnnnAACCCCAA::..AAGGGGGG>>..3333333334444444433333333444444443333333322222222",
"3333333333333333333333333333333..AAJJJJAA--..33..MMnnnnAACCCCAA::..AAGGGGGG>>..3333333334444444433333333444444443333333322222222",
"3333333333333333333333333333333..CCHHWWHHNN--..bbnnnnCCCCAAGGGGHHHHLLLLHHHHGG::..33333334444444433333333444444443333333322222222",
"3333333333333333333333333333333..CCHHWWHHNN--..bbnnnnCCCCAAGGGGHHHHLLLLHHHHGG::..33333334444444433333333444444443333333322222222",
"3333333333333333333333333333333..NNGGQQLLJJ,,bbNNnnNNAACCGGJJJJLLUUIIUULLLLJJDD::..333334444444433333333444444443333333322222222",
"3333333333333333333333333333333..NNGGQQLLJJ,,bbNNnnNNAACCGGJJJJLLUUIIUULLLLJJDD::..333334444444433333333444444443333333322222222",
"3333333322222222333333333333333..NNSSLLQQJJbbMMnnCCCCCCAAGGJJLLTTWWQQQQEELLLLJJAA::..444333........44444333333332222222233333333",
"3333333322222222333333333333333..NNSSLLQQJJbbMMnnCCCCCCAAGGJJLLTTWWQQQQEELLLLJJAA::..444333........44444333333332222222233333333",
"3333333322222222333333333333333..bbCCGGGGbbbbnnnnBBMMCCSSGGHHLLWWWWXXRRLLLLKKGGGGCC--......CCGGWW<<..444333333332222222233333333",
"3333333322222222333333333333333..bbCCGGGGbbbbnnnnBBMMCCSSGGHHLLWWWWXXRRLLLLKKGGGGCC--......CCGGWW<<..444333333332222222233333333",
"3333333322222222333333333333333..bbNNZZnnbbbbnnNNCCZZAAGGJJLLPPLLWWIIUUYYIILLLLJJJJHHAAAAJJLLPPLLJJ::..4333333332222222233333333",
"3333333322222222333333333333333..bbNNZZnnbbbbnnNNCCZZAAGGJJLLPPLLWWIIUUYYIILLLLJJJJHHAAAAJJLLPPLLJJ::..4333333332222222233333333",
"3333333322222222333333333333333..bbMMnnbbMMNNpp**====00ffJJJJLLIIIITTUUQQPPIIJJLLLLLLJJHHJJLLHHGGAANN--4333333332222222233333333",
"3333333322222222333333333333333..bbMMnnbbMMNNpp**====00ffJJJJLLIIIITTUUQQPPIIJJLLLLLLJJHHJJLLHHGGAANN--4333333332222222233333333",
"3333333333333333333333333333333..zzbbbbbbbbnnnnmmCCCCCCGGHHVVVVdd55--::--11LLKKHHLLIIJJGGGGGGCCCCnnbb--3333333333333333333333333",
"3333333333333333333333333333333..zzbbbbbbbbnnnnmmCCCCCCGGHHVVVVdd55--::--11LLKKHHLLIIJJGGGGGGCCCCnnbb--3333333333333333333333333",
"3333333333333333333333333333333..vvbbbbbbMMnnNNZZCCCCDDGGHHJJLLLLUULLLLLLLLLLLLJJJJLLJJSSCCAANNnnbbbb&&3333333333333333333333333",
"3333333333333333333333333333333..vvbbbbbbMMnnNNZZCCCCDDGGHHJJLLLLUULLLLLLLLLLLLJJJJLLJJSSCCAANNnnbbbb&&3333333333333333333333333",
"3333333333333333333333333333333..llbbbbbbMMNNnnZZAACCDDHHJJLLLLLLPPPPLLLLLLLLLLJJJJJJJJZZCCNNNNbbbb--333333333333333333333333333",
"3333333333333333333333333333333..llbbbbbbMMNNnnZZAACCDDHHJJLLLLLLPPPPLLLLLLLLLLJJJJJJJJZZCCNNNNbbbb--333333333333333333333333333",
"3333333333333333333333333333333  --zzbbbbbbbbMMCCCCCCSSGGGGGGHHHHHHHHHHLLLLHHGGGGGGGGGGCCbbbbbbllll&&333333333333333333333333333",
"3333333333333333333333333333333  --zzbbbbbbbbMMCCCCCCSSGGGGGGHHHHHHHHHHLLLLHHGGGGGGGGGGCCbbbbbbllll&&333333333333333333333333333",
"333333333333333333333333444444443..bbbbnnNNnnCCZZCCCCSSGGHHJJJJLLJJLLLLLLLLJJJJJJGGHHSSCCnnbbbbzz--33333333333333333333333333333",
"333333333333333333333333444444443..bbbbnnNNnnCCZZCCCCSSGGHHJJJJLLJJLLLLLLLLJJJJJJGGHHSSCCnnbbbbzz--33333333333333333333333333333",
"333333333333333333333333444444443  bbbbbbnnNNmmCCAAZZAAGGHHJJJJJJLLLLLLJJLLJJJJJJGGAAAACCNNbbbbll%%33333333333333333333333333333",
"333333333333333333333333444444443  bbbbbbnnNNmmCCAAZZAAGGHHJJJJJJLLLLLLJJLLJJJJJJGGAAAACCNNbbbbll%%33333333333333333333333333333",
"3333333333333333333333334444444  llxxbbbbbbbbbbCCCCCCCCSSDDGGGGGGGGGGGGGGGGGGGGGGFFCCCCCCbbbbll&&3333333333333333333333333333333",
"3333333333333333333333334444444  llxxbbbbbbbbbbCCCCCCCCSSDDGGGGGGGGGGGGGGGGGGGGGGFFCCCCCCbbbbll&&3333333333333333333333333333333",
"3333333333333333333333334444444..bbbbbbbbnnNNnnVVAACCCCAASSHHHHHHHHJJJJJJJJJJHHHHHHZZAAMMmmbbbb**3333333333333333333333333333333",
"3333333333333333333333334444444..bbbbbbbbnnNNnnVVAACCCCAASSHHHHHHHHJJJJJJJJJJHHHHHHZZAAMMmmbbbb**3333333333333333333333333333333",
"33333333333333334444444433333  ccbbbbbbbbnnNNmmNNCCCCZZAAZZZZGGHHGGHHHHGGHHGGGGHHAAAAAAnnNNMM;;333333333222222222222222233333333",
"33333333333333334444444433333  ccbbbbbbbbnnNNmmNNCCCCZZAAZZZZGGHHGGHHHHGGHHGGGGHHAAAAAAnnNNMM;;333333333222222222222222233333333",
"33333333333333334444444433333  llbbbbbbbbbbnnnnnnNNCCCCCCCCCCCCCCZZSSAASSSSSSSSSSCCCCCCbbbbbb--333333333222222222222222233333333",
"33333333333333334444444433333  llbbbbbbbbbbnnnnnnNNCCCCCCCCCCCCCCZZSSAASSSSSSSSSSCCCCCCbbbbbb--333333333222222222222222233333333",
"333333333333333344444444333  llbbbbbbbbbbbbMMnnnnNNNNCCAACCCCAACCZZAACCZZAAZZZZAAZZZZCCMMmmMM;;  3333333222222222222222233333333",
"333333333333333344444444333  llbbbbbbbbbbbbMMnnnnNNNNCCAACCCCAACCZZAACCZZAAZZZZAAZZZZCCMMmmMM;;  3333333222222222222222233333333",
"333333333333333344444444333  zzbbbbbbbbMMbbbbNNmmnnmmmmCCVVAAAACCCCAACCCCAACCCCAACCZZNNNNbbMMbb--  33333222222222222222233333333",
"333333333333333344444444333  zzbbbbbbbbMMbbbbNNmmnnmmmmCCVVAAAACCCCAACCCCAACCCCAACCZZNNNNbbMMbb--  33333222222222222222233333333",
"2222222233333333333333333  llllxxbbbbbbbbbbbbbbbbnnbbnnnnbbNNnnVVVVVVCCCCCCCCCCCCCCnnnnbbbbbbbbzz--22222222222223333333333333333",
"2222222233333333333333333  llllxxbbbbbbbbbbbbbbbbnnbbnnnnbbNNnnVVVVVVCCCCCCCCCCCCCCnnnnbbbbbbbbzz--22222222222223333333333333333",
"2222222233333333333333333  llvvbbbbbbbbbbbbMMbbbbMMbbmmNNnnmmNNnnnnNNnnNNNNNNNNNNnnnnNNbbbbbbbbbb--  222222222223333333333333333",
"2222222233333333333333333  llvvbbbbbbbbbbbbMMbbbbMMbbmmNNnnmmNNnnnnNNnnNNNNNNNNNNnnnnNNbbbbbbbbbb--  222222222223333333333333333",
"22222222333333333333333  ttllzzbbbbbbbbbbbbbbbbbbbbbbnnbbbbmmNNmmMMNNmmMMNNNNMMNNNNbbMMMMbbbbbbbbll--222222222223333333333333333",
"22222222333333333333333  ttllzzbbbbbbbbbbbbbbbbbbbbbbnnbbbbmmNNmmMMNNmmMMNNNNMMNNNNbbMMMMbbbbbbbbll--222222222223333333333333333",
"22222222333333333333333  rrhhllzzbbxxbbbbbbbbbbbbbbbbbbbbbbbbbbbbbbbbbbbbbbbbbbbbbbbbbbbbbbbbxxzzll--  2222222223333333333333333",
"22222222333333333333333  rrhhllzzbbxxbbbbbbbbbbbbbbbbbbbbbbbbbbbbbbbbbbbbbbbbbbbbbbbbbbbbbbbbxxzzll--  2222222223333333333333333",
"33333333333333333333333  88uullvvzzbbbbbbbbbbbbbbbbbbbbbbbbbbbbbbbbMMbbbbMMbbbbbbbbbbbbbbbbbbvvllllll**3333333333333333333333333",
"33333333333333333333333  88uullvvzzbbbbbbbbbbbbbbbbbbbbbbbbbbbbbbbbMMbbbbMMbbbbbbbbbbbbbbbbbbvvllllll**3333333333333333333333333",
"33333333333333333333333  77rrllllllllzzvvvvvvvvzzvvvvbbbbbbbbbbbbbbbbbbbbbbbbbbbbbbvvbbzzlllllllljjrr&&  33333333333333333333333",
"33333333333333333333333  77rrllllllllzzvvvvvvvvzzvvvvbbbbbbbbbbbbbbbbbbbbbbbbbbbbbbvvbbzzlllllllljjrr&&  33333333333333333333333",
"33333333333333333333333  7777rrllllllllzzllzzzzllzzzzllbbbbxxbbbbbbbbbbbbbbbbvvbbvvzzlllllllljjaarree77$$33333333333333333333333",
"33333333333333333333333  7777rrllllllllzzllzzzzllzzzzllbbbbxxbbbbbbbbbbbbbbbbvvbbvvzzlllllllljjaarree77$$33333333333333333333333",
"33333333333333333333333  888877yyllllllllllvvllllllllllllvvllbbbbbbbbbbbbbbbbzzvvvvllllllllyyrr99887788%%33333333333333333333333",
"33333333333333333333333  888877yyllllllllllvvllllllllllllvvllbbbbbbbbbbbbbbbbzzvvvvllllllllyyrr99887788%%33333333333333333333333",
"33333333333333333333333  %%777777wwttllllkkjjggrrrrrrqqrrrrlllllllllllllllllllllllliirrrr777777777777$$3333333333333333333333333",
"33333333333333333333333  %%777777wwttllllkkjjggrrrrrrqqrrrrlllllllllllllllllllllllliirrrr777777777777$$3333333333333333333333333",
"3333333333333333333333333  %%$$88777788777777777777777777777777eerrttllssyyrrrr7777777777777777777788$$3333333333333333333333333",
"3333333333333333333333333  %%$$88777788777777777777777777777777eerrttllssyyrrrr7777777777777777777788$$3333333333333333333333333",
"33333333333333333333333333333  @@OO$$%%%%%%88%%%%%%@@OO++++@@##%%%%%%88778866%%%%$$$$####%%8877%%%%%%333333333333333333333333333",
"33333333333333333333333333333  @@OO$$%%%%%%88%%%%%%@@OO++++@@##%%%%%%88778866%%%%$$$$####%%8877%%%%%%333333333333333333333333333",
"33333333333333333333333333333333333333332  oo2223333333333333333333  ooooOOoo333333333333  OO##333333333333333333333333333333333",
"33333333333333333333333333333333333333332  oo2223333333333333333333  ooooOOoo333333333333  OO##333333333333333333333333333333333"
};
