/* XPM */
static char *ditto_151755194877[] = {
/* columns rows colors chars-per-pixel */
"128 128 79 1 ",
"  c gray15",
". c #282828",
"X c #383040",
"o c #3C3040",
"O c #383440",
"+ c #3C3440",
"@ c #3C3844",
"# c #403844",
"$ c #403848",
"% c #403C48",
"& c #44404C",
"* c #48404C",
"= c #4C4450",
"- c #4C4850",
"; c #504854",
": c #504858",
"> c #544C58",
", c #544C5C",
"< c #584C5C",
"1 c #58505C",
"2 c #585060",
"3 c #5C5060",
"4 c #5C5460",
"5 c #685C70",
"6 c #906858",
"7 c #A88868",
"8 c #C8A878",
"9 c #90809C",
"0 c #A090A8",
"q c #A090B0",
"w c #A490B0",
"e c #A494B4",
"r c #B09CBC",
"t c #B0A4BC",
"y c #B4A4BC",
"u c #B4A0C0",
"i c #B8A4C4",
"p c #BCA4C4",
"a c #B8A8C4",
"s c #B8A4C8",
"d c #B8A8C8",
"f c #BCA8C8",
"g c #BCA8CC",
"h c #C4ACCC",
"j c #C4B0D0",
"k c #C8B4D4",
"l c #CCB4D4",
"z c #D0B8D8",
"x c #D0BCD8",
"c c #D0B8DC",
"v c #D0BCDC",
"b c #D4BCDC",
"n c #D4BCE0",
"m c #D4C0DC",
"M c #D4C0E0",
"N c #D8C0E0",
"B c #D8C4E0",
"V c #D8C0E4",
"C c #D8C4E4",
"Z c #DCC4E8",
"A c #DCC8E8",
"S c #E0C8E8",
"D c #E0C8EC",
"F c #E0CCEC",
"G c #E4CCEC",
"H c #E0CCF0",
"J c #E4CCF0",
"K c #E4D0F0",
"L c #E4D0F4",
"P c #E8D0F0",
"I c #E8D0F4",
"U c #E8D4F4",
"Y c #E8D4F8",
"T c #ECD4F8",
"R c #F0D8FC",
"E c #F4DCFF",
"W c #F8DCFF",
"Q c #F8E0FF",
"! c #FCE4FF",
/* pixels */
"77777777777777777777777777777777777777777777777777777777777777778888888877777777888888887777777777777777777777776666666677777777",
"77777777777777777777777777777777777777777777777777777777777777778888888877777777888888887777777777777777777777776666666677777777",
"77777777777777777777777777777777777777777777777777777777777777778888888877777777888888887777777777777777777777776666666677777777",
"77777777777777777777777777777777777777777777777777777777777777778888888877777777888888887777777777777777777777776666666677777777",
"77777777777777777777777777777777777777777777777777777777777777778888888877777777888888887777777777777777777777776666666677777777",
"77777777777777777777777777777777777777777777777777777777777777778888888877777777888888887777777777777777777777776666666677777777",
"77777777777777777777777777777777777777777777777777777777777777778888888877777777888888887777777777777777777777776666666677777777",
"77777777777777777777777777777777777777777777777777777777777777778888888877777777888888887777777777777777777777776666666677777777",
"77777777777777778888888877777777777777777777777777777777888888887777777788888888777777777777777777777777666666667777777766666666",
"77777777777777778888888877777777777777777777777777777777888888887777777788888888777777777777777777777777666666667777777766666666",
"77777777777777778888888877777777777777777777777777777777888888887777777788888888777777777777777777777777666666667777777766666666",
"77777777777777778888888877777777777777777777777777777777888888887777777788888888777777777777777777777777666666667777777766666666",
"77777777777777778888888877777777777777777777777777777777888888887777777788888888777777777777777777777777666666667777777766666666",
"77777777777777778888888877777777777777777777777777777777888888887777777788888888777777777777777777777777666666667777777766666666",
"77777777777777778888888877777777777777777777777777777777888888887777777788888888777777777777777777777777666666667777777766666666",
"77777777777777778888888877777777777777777777777777777777888888887777777788888888777777777777777777777777666666667777777766666666",
"77777777888888887777777777777777777777777777777788888888777777778888888877777777777777777777777777777777777777776666666677777777",
"77777777888888887777777777777777777777777777777788888888777777778888888877777777777777777777777777777777777777776666666677777777",
"77777777888888887777777777777777777777777777777788888888777777778888888877777777777777777777777777777777777777776666666677777777",
"77777777888888887777777777777777777777777777777788888888777777778888888877777777777777777777777777777777777777776666666677777777",
"77777777888888887777777777777777777777777777777788888888777777778888888877777777777777777777777777777777777777776666666677777777",
"77777777888888887777777777777777777777777777777788888888777777778888888877777777777777777777777777777777777777776666666677777777",
"77777777888888887777777777777777777777777777777788888888777777778888888877777777777777777777777777777777777777776666666677777777",
"77777777888888887777777777777777777777777777777788888888777777778888888877777777777777777777777777777777777777776666666677777777",
"88888888777777777777777777777777777777777777777777777777777777777777777777777777777777777777777777777777666666667777777777777777",
"88888888777777777777777777777777777777777777777777777777777777777777777777777777777777777777777777777777666666667777777777777777",
"88888888777777777777777777777777777777777777777777777777777777777777777777777777777777777777777777777777666666667777777777777777",
"88888888777777777777777777777777777777777777777777777777777777777777777777777777777777777777777777777777666666667777777777777777",
"88888888777777777777777777777777777777777777777777777777777777777777777777777777777777777777777777777777666666667777777777777777",
"88888888777777777777777777777777777777777777777777777777777777777777777777777777777777777777777777777777666666667777777777777777",
"88888888777777777777777777777777777777777777777777777777777777777777777777777777777777777777777777777777666666667777777777777777",
"88888888777777777777777777777777777777777777777777777777777777777777777777777777777777777777777777777777666666667777777777777777",
"77777777777777777777777777777777777777776666666677777777666666667777777777777777777777777777777777777777777777777777777777777777",
"77777777777777777777777777777777777777776666666677777777666666667777777777777777777777777777777777777777777777777777777777777777",
"77777777777777777777777777777777777777776666666677777777666666667777777777777777777777777777777777777777777777777777777777777777",
"77777777777777777777777777777777777777776666666677777777666666667777777777777777777777777777777777777777777777777777777777777777",
"77777777777777777777777777777777777777776666666677777777666666667777777777777777777777777777777777777777777777777777777777777777",
"77777777777777777777777777777777777777776666666677777777666666667777777777777777777777777777777777777777777777777777777777777777",
"77777777777777777777777777777777777777776666666677777777666666667777777777777777777777777777777777777777777777777777777777777777",
"77777777777777777777777777777777777777776666666677777777666666667777777777777777777777777777777777777777777777777777777777777777",
"77777777777777777777777777777777666666667777777766666666777777777777777777777777666666667777777777777777777777777777777777777777",
"77777777777777777777777777777777666666667777777766666666777777777777777777777777666666667777777777777777777777777777777777777777",
"77777777777777777777777777777777666666667777777766666666777777777777777777777777666666667777777777777777777777777777777777777777",
"77777777777777777777777777777777666666667777777766666666777777777777777777777777666666667777777777777777777777777777777777777777",
"77777777777777777777777777777777666666667777777766666666777777777777777777777777666666667777777777777777777777777777777777777777",
"77777777777777777777777777777777666666667777777766666666777777777777777777777777666666667777777777777777777777777777777777777777",
"77777777777777777777777777777777666666667777777766666666777777777777777777777777666666667777777777777777777777777777777777777777",
"77777777777777777777777777777777666666667777777766666666777777777777777777777777666666667777777777777777777777777777777777777777",
"77777777777777777777777766666666777777776666666677777777777777777777777777777777777777777777777777777777777777777777777788888888",
"77777777777777777777777766666666777777776666666677777777777777777777777777777777777777777777777777777777777777777777777788888888",
"77777777777777777777777766666666777777776666666677777777777777777777777777777777777777777777777777777777777777777777777788888888",
"77777777777777777777777766666666777777776666666677777777777777777777777777777777777777777777777777777777777777777777777788888888",
"77777777777777777777777766666666777777776666666677777777777777777777777777777777777777777777777777777777777777777777777788888888",
"77777777777777777777777766666666777777776666666677777777777777777777777777777777777777777777777777777777777777777777777788888888",
"77777777777777777777777766666666777777776666666677777777777777777777777777777777777777777777777777777777777777777777777788888888",
"77777777777777777777777766666666777777776666666677777777777777777777777777777777777777777777777777777777777777777777777788888888",
"77777777777777777777777777777777666666667777777777777777777777777777777777777777777777777777777788888888777777778888888877777777",
"77777777777777777777777777777777666666667777777777777777777777777777777777777777777777777777777788888888777777778888888877777777",
"77777777777777777777777777777777666666667777777777777777777777777777777777777777777777777777777788888888777777778888888877777777",
"77777777777777777777777777777777666666667777777777777777777777777777777777777777777777777777777788888888777777778888888877777777",
"777777777777777777777777777777776666666677777777777........777777777777777777777777777777777777788888888777777778888888877777777",
"777777777777777777777777777777776666666677777777777........777777777777777777777777777777777777788888888777777778888888877777777",
"7777777777777777777777777777777....66666777777777..MMMMNN,,..7777777777777777777777777777777777788888888777777778888888877777777",
"7777777777777777777777777777777....66666777777777..MMMMNN,,..7777777777777777777777777777777777788888888777777778888888877777777",
"77777777777777777777777777777..tt<<..7777777777..MMNNAAAAAA>>..77..........77777777777778888888877777777888888887777777766666666",
"77777777777777777777777777777..tt<<..7777777777..MMNNAAAAAA>>..77..........77777777777778888888877777777888888887777777766666666",
"777777777777777777777777777..JJIIII11....7777..NNCCAAAADDFFAA11..yyKKJJJJ22....7777777778888888877777777888888887777777766666666",
"777777777777777777777777777..JJIIII11....7777..NNCCAAAADDFFAA11..yyKKJJJJ22....7777777778888888877777777888888887777777766666666",
"7777777777777777777777777..CCJJIITTJJVV>>....MMMMAAAAAAJJJJJJLLLLKKIIIIKKKKFF>>..77777778888888877777777888888887777777766666666",
"7777777777777777777777777..CCJJIITTJJVV>>....MMMMAAAAAAJJJJJJLLLLKKIIIIKKKKFF>>..77777778888888877777777888888887777777766666666",
"7777777777777777777777777..BBDDLLIILLKKaa22MMNNCCAASSFFJJLLIIUUQQ!!!!RRIIIILLJJ<<..777778888888877777777888888887777777766666666",
"7777777777777777777777777..BBDDLLIILLKKaa22MMNNCCAASSFFJJLLIIUUQQ!!!!RRIIIILLJJ<<..777778888888877777777888888887777777766666666",
"7777777766666666777777777..,,NNFFLLLLIIAAMMCCCCCCDDAAFFKKLLIIII!!WW!!!!RRYYIILLDD,,..8887777777788888888777777776666666677777777",
"7777777766666666777777777..,,NNFFLLLLIIAAMMCCCCCCDDAAFFKKLLIIII!!WW!!!!RRYYIILLDD,,..8887777777788888888777777776666666677777777",
"777777776666666677777777777..MMAAAAJJJJMMMMNNNNCCAAAASSJJKKPPIIRRUUEEYYRRIIPPKKJJAA>>..............88888777777776666666677777777",
"777777776666666677777777777..MMAAAAJJJJMMMMNNNNCCAAAASSJJKKPPIIRRUUEEYYRRIIPPKKJJAA>>..............88888777777776666666677777777",
"777777776666666677777777777..MMBBAADDBBMMVVNNNNCC..SSDDJJJJIIIIIIIIUUIIYYIIIIIIIIIILLDDJJLLIIUUII11..888777777776666666677777777",
"777777776666666677777777777..MMBBAADDBBMMVVNNNNCC..SSDDJJJJIIIIIIIIUUIIYYIIIIIIIIIILLDDJJLLIIUUII11..888777777776666666677777777",
"777777776666666677777777777..MMMMNNVVMMMMVVCCNNZZDDAASSJJLLLLIIII..IIIIIIIIIILLIIEELLKKKKJJDDSSAADD>>888777777776666666677777777",
"777777776666666677777777777..MMMMNNVVMMMMVVCCNNZZDDAASSJJLLLLIIII..IIIIIIIIIILLIIEELLKKKKJJDDSSAADD>>888777777776666666677777777",
"777777777777777777777777777..>>MMMMMMMMMMMM--kkNNAAAAAASSJJJJJJKKKKLLKKKKLLKKJJLLPPKKFFAAAANNNNMMMM>>777777777777777777777777777",
"777777777777777777777777777..>>MMMMMMMMMMMM--kkNNAAAAAASSJJJJJJKKKKLLKKKKLLKKJJLLPPKKFFAAAANNNNMMMM>>777777777777777777777777777",
"77777777777777777777777777777..MMMMMMMMNNCCNNBBzzpp55;;;;3344hh00kkccNNnnIILLLLLLLLKKDDCCNNVVMMMMMM>>777777777777777777777777777",
"77777777777777777777777777777..MMMMMMMMNNCCNNBBzzpp55;;;;3344hh00kkccNNnnIILLLLLLLLKKDDCCNNVVMMMMMM>>777777777777777777777777777",
"77777777777777777777777777777  bbMMMMMMMMVVCCNNVVAAAASSDDFFKKKKLLLLLLLLLLLLLLLLLLKKKKDDBBMMMMMMMMmm>>777777777777777777777777777",
"77777777777777777777777777777  bbMMMMMMMMVVCCNNVVAAAASSDDFFKKKKLLLLLLLLLLLLLLLLLLKKKKDDBBMMMMMMMMmm>>777777777777777777777777777",
"77777777777777777777777777777  vvmmMMMMMMMMMMMMMMZZAAAAAAFFHHJJJJJJJJJJJJJJJJJJJJHHDDAAMMMMMMbbvvvv**777777777777777777777777777",
"77777777777777777777777777777  vvmmMMMMMMMMMMMMMMZZAAAAAAFFHHJJJJJJJJJJJJJJJJJJJJHHDDAAMMMMMMbbvvvv**777777777777777777777777777",
"77777777777777777777777788888  >>MMMMMMNNCCNNBBCCZZAASSAAFFJJKKKKJJKKKKLLKKLLJJKKJJFFDDMMMMMMMMvvll%%777777777777777777777777777",
"77777777777777777777777788888  >>MMMMMMNNCCNNBBCCZZAASSAAFFJJKKKKJJKKKKLLKKLLJJKKJJFFDDMMMMMMMMvvll%%777777777777777777777777777",
"7777777777777777777777778888888  MMMMMMMMNNCCBBNNAASSSSDDSSFFKKKKJJKKKKJJKKJJJJKKFFDDDDNNMMMMvvvv&&77777777777777777777777777777",
"7777777777777777777777778888888  MMMMMMMMNNCCBBNNAASSSSDDSSFFKKKKJJKKKKJJKKJJJJKKFFDDDDNNMMMMvvvv&&77777777777777777777777777777",
"77777777777777777777777788888  vvmmMMMMMMMMMMMMMMCCAAAAAAAAAAFFDDFFJJGGJJJJHHJJJJFFAAAAMMMMmmxxii$$77777777777777777777777777777",
"77777777777777777777777788888  vvmmMMMMMMMMMMMMMMCCAAAAAAAAAAFFDDFFJJGGJJJJHHJJJJFFAAAAMMMMmmxxii$$77777777777777777777777777777",
"77777777777777777777777788888  bbMMMMMMMMMMCCNNNNCCAAAADDAAAADDAAGGFFJJJJKKGGJJJJSSSSDDZZBBMMmm==7777777777777777777777777777777",
"77777777777777777777777788888  bbMMMMMMMMMMCCNNNNCCAAAADDAAAADDAAGGFFJJJJKKGGJJJJSSSSDDZZBBMMmm==7777777777777777777777777777777",
"77777777777777778888888877777  mmMMMMMMMMMMVVBBNNCCCCAADDSSSSDDSSAADDSSDDFFFFAADDAADDDDNNCCVVMM>>7777777666666666666666677777777",
"77777777777777778888888877777  mmMMMMMMMMMMVVBBNNCCCCAADDSSSSDDSSAADDSSDDFFFFAADDAADDDDNNCCVVMM>>7777777666666666666666677777777",
"777777777777777788888888777  vvnnMMMMMMMMMMMMNNNNNNMMCCAAAAAAAAAAAAAAAAAAAAAAAAAAAAAAAAMMMMMMMM>>7777777666666666666666677777777",
"777777777777777788888888777  vvnnMMMMMMMMMMMMNNNNNNMMCCAAAAAAAAAAAAAAAAAAAAAAAAAAAAAAAAMMMMMMMM>>7777777666666666666666677777777",
"777777777777777788888888777  bbMMMMMMMMMMMMVVMMNNCCBBNNAAAAAADDAASSDDAASSDDSSSSDDSSSSCCVVBBVVMM>>7777777666666666666666677777777",
"777777777777777788888888777  bbMMMMMMMMMMMMVVMMNNCCBBNNAAAAAADDAASSDDAASSDDSSSSDDSSSSCCVVBBVVMM>>7777777666666666666666677777777",
"7777777777777777888888887  vvbbMMMMMMMMVVMMMMVVNNNNBBBBNNCCZZAAAAAADDAAAADDAAAADDAAAACCCCMMVVMM,,  77777666666666666666677777777",
"7777777777777777888888887  vvbbMMMMMMMMVVMMMMVVNNNNBBBBNNCCZZAAAAAADDAAAADDAAAADDAAAACCCCMMVVMM,,  77777666666666666666677777777",
"6666666677777777777777777  vvvvnnMMMMMMMMMMMMMMMMMMMMNNNNMMNNVVCCCCZZZZZZAAAAAAAACCMMNNMMMMMMMMMM>>  666666666667777777777777777",
"6666666677777777777777777  vvvvnnMMMMMMMMMMMMMMMMMMMMNNNNMMNNVVCCCCZZZZZZAAAAAAAACCMMNNMMMMMMMMMM>>  666666666667777777777777777",
"66666666777777777777777  vvvvMMMMMMMMMMMMMMVVMMMMVVMMBBCCNNBBCCNNNNCCNNNNCCNNNNCCNNNNCCMMMMMMMMMMMM::666666666667777777777777777",
"66666666777777777777777  vvvvMMMMMMMMMMMMMMVVMMMMVVMMBBCCNNBBCCNNNNCCNNNNCCNNNNCCNNNNCCMMMMMMMMMMMM::666666666667777777777777777",
"66666666777777777777777  vvvvbbMMMMMMMMMMMMMMMMMMMMMMNNMMBBBBCCBBVVCCBBVVCCCCVVCCCCMMVVVVMMMMMMMMbb>>  6666666667777777777777777",
"66666666777777777777777  vvvvbbMMMMMMMMMMMMMMMMMMMMMMNNMMBBBBCCBBVVCCBBVVCCCCVVCCCCMMVVVVMMMMMMMMbb>>  6666666667777777777777777",
"66666666777777777777777  iivvvvbbMMMMMMMMMMMMMMMMMMMMMMMMMMMMMMMMMMMMMMMMMMMMMMMMMMMMMMMMMMMMnnbbvvvv>>  66666667777777777777777",
"66666666777777777777777  iivvvvbbMMMMMMMMMMMMMMMMMMMMMMMMMMMMMMMMMMMMMMMMMMMMMMMMMMMMMMMMMMMMnnbbvvvv>>  66666667777777777777777",
"777777777777777777777  wwddvvvvmmbbMMMMMMMMMMMMMMMMMMMMMMMMMMMMMMMMVVMMMMVVMMMMMMMMMMMMMMMMMMmmvvmmvvvv%%77777777777777777777777",
"777777777777777777777  wwddvvvvmmbbMMMMMMMMMMMMMMMMMMMMMMMMMMMMMMMMVVMMMMVVMMMMMMMMMMMMMMMMMMmmvvmmvvvv%%77777777777777777777777",
"777777777777777777777  qqqqssvvvvvvvvMMmmmmmmmmMMMMMMMMMMMMMMMMMMMMMMMMMMMMMMMMMMMMMMMMMMbbvvvvvvvvvvss%%77777777777777777777777",
"777777777777777777777  qqqqssvvvvvvvvMMmmmmmmmmMMMMMMMMMMMMMMMMMMMMMMMMMMMMMMMMMMMMMMMMMMbbvvvvvvvvvvss%%77777777777777777777777",
"777777777777777777777  qqqqqqjjvvvvvvvvbbvvbbbbvvbbbbnnMMMMnnMMMMMMMMMMMMMMMMmmMMmmbbbbvvvvvvvvvvffiiii$$77777777777777777777777",
"777777777777777777777  qqqqqqjjvvvvvvvvbbvvbbbbvvbbbbnnMMMMnnMMMMMMMMMMMMMMMMmmMMmmbbbbvvvvvvvvvvffiiii$$77777777777777777777777",
"777777777777777777777  %%wwwwiiffvvvvvvvvvvvvvvvvvvvvvvvvmmbbMMMMMMMMMMMMMMMMbbmmmmmmvvvvvvvvssddrrqqww%%77777777777777777777777",
"777777777777777777777  %%wwwwiiffvvvvvvvvvvvvvvvvvvvvvvvvmmbbMMMMMMMMMMMMMMMMbbmmmmmmvvvvvvvvssddrrqqww%%77777777777777777777777",
"77777777777777777777777  %%qqqqqqiisskkvvcczzddiiiiiiiiiissvvvvvvvvvvvvvvvvvvvvvvvvvvggiiiieeqqqqqqqqqq%%77777777777777777777777",
"77777777777777777777777  %%qqqqqqiisskkvvcczzddiiiiiiiiiissvvvvvvvvvvvvvvvvvvvvvvvvvvggiiiieeqqqqqqqqqq%%77777777777777777777777",
"7777777777777777777777777  %%$$wwqqqqwwqqqqqqqqqqqqqqqqqqqqqqqquuiiiissiiiiiiiieeqqqqqqqqqqqqqqqqqqqq$$7777777777777777777777777",
"7777777777777777777777777  %%$$wwqqqqwwqqqqqqqqqqqqqqqqqqqqqqqquuiiiissiiiiiiiieeqqqqqqqqqqqqqqqqqqqq$$7777777777777777777777777",
"77777777777777777777777777777  ++++%%%%%%qqwwwwqqww99####@@##$$%%qqwwwwqqwwwwqqqqwwwwwwwwwwwwqq%%%%%%777777777777777777777777777",
"77777777777777777777777777777  ++++%%%%%%qqwwwwqqww99####@@##$$%%qqwwwwqqwwwwqqqqwwwwwwwwwwwwqq%%%%%%777777777777777777777777777",
"777777777777777777777777777777777777777  XXXXoo++XXXX7777777777  XX++OOXX++XXXX++XXOO++XXOO++++777777777777777777777777777777777",
"777777777777777777777777777777777777777  XXXXoo++XXXX7777777777  XX++OOXX++XXXX++XXOO++XXOO++++777777777777777777777777777777777"
};
