/* XPM */
static char *ditto_221755194879[] = {
/* columns rows colors chars-per-pixel */
"128 128 82 1 ",
"  c gray15",
". c #282828",
"X c #383040",
"o c #3C3040",
"O c #383440",
"+ c #3C3440",
"@ c #3C3444",
"# c #3C3844",
"$ c #403844",
"% c #403848",
"& c #403C48",
"* c #48404C",
"= c #484050",
"- c #4C4450",
"; c #544C58",
": c #544C5C",
"> c #584C58",
", c #584C5C",
"< c #58505C",
"1 c #585060",
"2 c #5C5060",
"3 c #5C5460",
"4 c #645C68",
"5 c #685C70",
"6 c #906858",
"7 c #A88868",
"8 c #C8A878",
"9 c #7C6C80",
"0 c #807488",
"q c #9884A0",
"w c #A090B0",
"e c #A490B0",
"r c #AC98B8",
"t c #B09CBC",
"y c #B4A4BC",
"u c #B0A0C0",
"i c #B4A0C0",
"p c #B8A4C4",
"a c #B8A4C8",
"s c #BCA4C8",
"d c #B8A8C8",
"f c #BCA8CC",
"g c #C4ACD0",
"h c #C0B0D0",
"j c #C8B0D0",
"k c #CCB4D4",
"l c #CCB4D8",
"z c #CCB8D8",
"x c #D0BCD8",
"c c #D0B8DC",
"v c #D0BCDC",
"b c #D4BCDC",
"n c #D4BCE0",
"m c #D0C0DC",
"M c #D4C0DC",
"N c #D4C0E0",
"B c #D4C0E4",
"V c #D8C0E0",
"C c #D8C4E0",
"Z c #D8C0E4",
"A c #D8C4E4",
"S c #DCC4E4",
"D c #DCC4E8",
"F c #DCC8E8",
"G c #E0C8E8",
"H c #E0C8EC",
"J c #E0CCEC",
"K c #E4CCEC",
"L c #E0CCF0",
"P c #E4CCF0",
"I c #E4D0F0",
"U c #E4D0F4",
"Y c #E8D0F0",
"T c #E8D0F4",
"R c #E8D4F4",
"E c #E8D4F8",
"W c #ECD4F8",
"Q c #F0D8FC",
"! c #F4DCFF",
"~ c #F8E0FF",
"^ c #FCE0FF",
"/ c #FCE4FF",
/* pixels */
"77777777777777777777777777777777777777777777777777777777777777778888888877777777888888887777777777777777777777776666666677777777",
"77777777777777777777777777777777777777777777777777777777777777778888888877777777888888887777777777777777777777776666666677777777",
"77777777777777777777777777777777777777777777777777777777777777778888888877777777888888887777777777777777777777776666666677777777",
"77777777777777777777777777777777777777777777777777777777777777778888888877777777888888887777777777777777777777776666666677777777",
"77777777777777777777777777777777777777777777777777777777777777778888888877777777888888887777777777777777777777776666666677777777",
"77777777777777777777777777777777777777777777777777777777777777778888888877777777888888887777777777777777777777776666666677777777",
"77777777777777777777777777777777777777777777777777777777777777778888888877777777888888887777777777777777777777776666666677777777",
"77777777777777777777777777777777777777777777777777777777777777778888888877777777888888887777777777777777777777776666666677777777",
"77777777777777778888888877777777777777777777777777777777888888887777777788888888777777777777777777777777666666667777777766666666",
"77777777777777778888888877777777777777777777777777777777888888887777777788888888777777777777777777777777666666667777777766666666",
"77777777777777778888888877777777777777777777777777777777888888887777777788888888777777777777777777777777666666667777777766666666",
"77777777777777778888888877777777777777777777777777777777888888887777777788888888777777777777777777777777666666667777777766666666",
"77777777777777778888888877777777777777777777777777777777888888887777777788888888777777777777777777777777666666667777777766666666",
"77777777777777778888888877777777777777777777777777777777888888887777777788888888777777777777777777777777666666667777777766666666",
"77777777777777778888888877777777777777777777777777777777888888887777777788888888777777777777777777777777666666667777777766666666",
"77777777777777778888888877777777777777777777777777777777888888887777777788888888777777777777777777777777666666667777777766666666",
"77777777888888887777777777777777777777777777777788888888777777778888888877777777777777777777777777777777777777776666666677777777",
"77777777888888887777777777777777777777777777777788888888777777778888888877777777777777777777777777777777777777776666666677777777",
"77777777888888887777777777777777777777777777777788888888777777778888888877777777777777777777777777777777777777776666666677777777",
"77777777888888887777777777777777777777777777777788888888777777778888888877777777777777777777777777777777777777776666666677777777",
"77777777888888887777777777777777777777777777777788888888777777778888888877777777777777777777777777777777777777776666666677777777",
"77777777888888887777777777777777777777777777777788888888777777778888888877777777777777777777777777777777777777776666666677777777",
"77777777888888887777777777777777777777777777777788888888777777778888888877777777777777777777777777777777777777776666666677777777",
"77777777888888887777777777777777777777777777777788888888777777778888888877777777777777777777777777777777777777776666666677777777",
"88888888777777777777777777777777777777777777777777777777777777777777777777777777777777777777777777777777666666667777777777777777",
"88888888777777777777777777777777777777777777777777777777777777777777777777777777777777777777777777777777666666667777777777777777",
"88888888777777777777777777777777777777777777777777777777777777777777777777777777777777777777777777777777666666667777777777777777",
"88888888777777777777777777777777777777777777777777777777777777777777777777777777777777777777777777777777666666667777777777777777",
"88888888777777777777777777777777777777777777777777777777777777777777777777777777777777777777777777777777666666667777777777777777",
"88888888777777777777777777777777777777777777777777777777777777777777777777777777777777777777777777777777666666667777777777777777",
"88888888777777777777777777777777777777777777777777777777777777777777777777777777777777777777777777777777666666667777777777777777",
"88888888777777777777777777777777777777777777777777777777777777777777777777777777777777777777777777777777666666667777777777777777",
"77777777777777777777777777777777777777776666666677777777666666667777777777777777777777777777777777777777777777777777777777777777",
"77777777777777777777777777777777777777776666666677777777666666667777777777777777777777777777777777777777777777777777777777777777",
"77777777777777777777777777777777777777776666666677777777666666667777777777777777777777777777777777777777777777777777777777777777",
"77777777777777777777777777777777777777776666666677777777666666667777777777777777777777777777777777777777777777777777777777777777",
"77777777777777777777777777777777777777776666666677777777666666667777777777777777777777777777777777777777777777777777777777777777",
"77777777777777777777777777777777777777776666666677777777666666667777777777777777777777777777777777777777777777777777777777777777",
"77777777777777777777777777777777777777776666666677777777666666667777777777777777777777777777777777777777777777777777777777777777",
"77777777777777777777777777777777777777776666666677777777666666667777777777777777777777777777777777777777777777777777777777777777",
"77777777777777777777777777777777666666667777777766666666777777777777777777777777666666667777777777777777777777777777777777777777",
"77777777777777777777777777777777666666667777777766666666777777777777777777777777666666667777777777777777777777777777777777777777",
"77777777777777777777777777777777666666667777777766666666777777777777777777777777666666667777777777777777777777777777777777777777",
"77777777777777777777777777777777666666667777777766666666777777777777777777777777666666667777777777777777777777777777777777777777",
"77777777777777777777777777777777666666667777777766666666777777777777777777777777666666667777777777777777777777777777777777777777",
"77777777777777777777777777777777666666667777777766666666777777777777777777777777666666667777777777777777777777777777777777777777",
"77777777777777777777777777777777666666667777777766666666777777777777777777777777666666667777777777777777777777777777777777777777",
"77777777777777777777777777777777666666667777777766666666777777777777777777777777666666667777777777777777777777777777777777777777",
"77777777777777777777777766666666777777776666666677777777777777777777777777777777777777777777777777777777777777777777777788888888",
"77777777777777777777777766666666777777776666666677777777777777777777777777777777777777777777777777777777777777777777777788888888",
"77777777777777777777777766666666777777776666666677777777777777777777777777777777777777777777777777777777777777777777777788888888",
"77777777777777777777777766666666777777776666666677777777777777777777777777777777777777777777777777777777777777777777777788888888",
"77777777777777777777777766666666777777776666666677777777777777777777777777777777777777777777777777777777777777777777777788888888",
"77777777777777777777777766666666777777776666666677777777777777777777777777777777777777777777777777777777777777777777777788888888",
"77777777777777777777777766666666777777776666666677777777777777777777777777777777777777777777777777777777777777777777777788888888",
"77777777777777777777777766666666777777776666666677777777777777777777777777777777777777777777777777777777777777777777777788888888",
"77777777777777777777777777777777666666667777777777777777777777777777777777777777777777777777777788888888777777778888888877777777",
"77777777777777777777777777777777666666667777777777777777777777777777777777777777777777777777777788888888777777778888888877777777",
"77777777777777777777777777777777666666667777777777777777777777777777777777777777777777777777777788888888777777778888888877777777",
"77777777777777777777777777777777666666667777777777777777777777777777777777777777777777777777777788888888777777778888888877777777",
"777777777777777777777777777777776666666677777777777..........7777777777777777777777777777777777788888888777777778888888877777777",
"777777777777777777777777777777776666666677777777777..........7777777777777777777777777777777777788888888777777778888888877777777",
"7777777777777777777777777777777......666777777777..NNNNVVVV>>..77777777777777777777777777777777788888888777777778888888877777777",
"7777777777777777777777777777777......666777777777..NNNNVVVV>>..77777777777777777777777777777777788888888777777778888888877777777",
"77777777777777777777777777777..yyFF;;..77777777..NNVVVVFFFFZZ,,..77..........777777777778888888877777777888888887777777766666666",
"77777777777777777777777777777..yyFF;;..77777777..NNVVVVFFFFZZ,,..77..........777777777778888888877777777888888887777777766666666",
"777777777777777777777777777..FFIITTII11..7777..NNAAAAFFHHFFFFAA::..IIUUPPPP<<..7777777778888888877777777888888887777777766666666",
"777777777777777777777777777..FFIITTII11..7777..NNAAAAFFHHFFFFAA::..IIUUPPPP<<..7777777778888888877777777888888887777777766666666",
"777777777777777777777777777..FFII~~~~II;;....vvNNVVFFFFFFPPPPIIUUTTTTTTIIUUPP<<..77777778888888877777777888888887777777766666666",
"777777777777777777777777777..FFII~~~~II;;....vvNNVVFFFFFFPPPPIIUUTTTTTTIIUUPP<<..77777778888888877777777888888887777777766666666",
"777777777777777777777777777..AAJJYYQQUUJJ4400VVAAFFGGHHPPUUTTTT!!~~//~~TTRRTTPP<<..777778888888877777777888888887777777766666666",
"777777777777777777777777777..AAJJYYQQUUJJ4400VVAAFFGGHHPPUUTTTT!!~~//~~TTRRTTPP<<..777778888888877777777888888887777777766666666",
"777777776666666677777777777..NNFFIIUUTT^^NNZZAAAAHHFFHHIIUUTTEEQQ//////EEQQUUUUHH,,..888777......8888888777777776666666677777777",
"777777776666666677777777777..NNFFIIUUTT^^NNZZAAAAHHFFHHIIUUTTEEQQ//////EEQQUUUUHH,,..888777......8888888777777776666666677777777",
"777777776666666677777777777..;;VVFFPPPPFFNNVVVVAAFFssFFPPIIIITT~~~~^^WWWWQQYYIIPPFF;;......FFJJ;;..88888777777776666666677777777",
"777777776666666677777777777..;;VVFFPPPPFFNNVVVVAAFFssFFPPIIIITT~~~~^^WWWWQQYYIIPPFF;;......FFJJ;;..88888777777776666666677777777",
"77777777666666667777777777777..NNVVHHGGNNZZVVVVAAFFGGHHPPUUTTRRYYWWllTTWWQQTTTTTTTTUUHHPPTTTTTTTT33..888777777776666666677777777",
"77777777666666667777777777777..NNVVHHGGNNZZVVVVAAFFGGHHPPUUTTRRYYWWllTTWWQQTTTTTTTTUUHHPPTTTTTTTT33..888777777776666666677777777",
"77777777666666667777777777777..NNNNZZNNNNZZAAVVFFHHFFGGIIPPUUTTTTTTRREERRWWTTTTTT//~~IIIIIIJJGGFFAA;;888777777776666666677777777",
"77777777666666667777777777777..NNNNZZNNNNZZAAVVFFHHFFGGIIPPUUTTTTTTRREERRWWTTTTTT//~~IIIIIIJJGGFFAA;;888777777776666666677777777",
"77777777777777777777777777777..vvNNNNNNNNNNVV;;--99ggAAPPPPPPUUIIIIUUIIYYUUYYYYIIYYIIPPFFFFAAVVNNNN;;777777777777777777777777777",
"77777777777777777777777777777..vvNNNNNNNNNNVV;;--99ggAAPPPPPPUUIIIIUUIIYYUUYYYYIIYYIIPPFFFFAAVVNNNN;;777777777777777777777777777",
"77777777777777777777777777777..mmNNNNNNVVZZVVCCAAFFFFGGHHDDSSjj55qq22;;;;ttTTUUUUTTUUJJFFVVAABBNNNN;;777777777777777777777777777",
"77777777777777777777777777777..mmNNNNNNVVZZVVCCAAFFFFGGHHDDSSjj55qq22;;;;ttTTUUUUTTUUJJFFVVAABBNNNN;;777777777777777777777777777",
"77777777777777777777777777777  ;;NNNNNNNNZZAAVVAAHHFFGGJJPPUUUUUUUUTTUUUUTTUUUUUUUUUUHHCCCCZZNNNNMM;;777777777777777777777777777",
"77777777777777777777777777777  ;;NNNNNNNNZZAAVVAAHHFFGGJJPPUUUUUUUUTTUUUUTTUUUUUUUUUUHHCCCCZZNNNNMM;;777777777777777777777777777",
"7777777777777777777777777777777  MMnnNNNNNNNNNNAAFFFFFFJJKKPPPPPPPPPPPPPPPPPPPPPPPPPPFFNNNNNNnnvvvv**777777777777777777777777777",
"7777777777777777777777777777777  MMnnNNNNNNNNNNAAFFFFFFJJKKPPPPPPPPPPPPPPPPPPPPPPPPPPFFNNNNNNnnvvvv**777777777777777777777777777",
"7777777777777777777777778888888  NNNNNNVVAAVVCCAAFFFFGGJJIIIIIIIIUUUUIIUUUUUUUUIIPPIIHHCCNNNNNNvvkk&&777777777777777777777777777",
"7777777777777777777777778888888  NNNNNNVVAAVVCCAAFFFFGGJJIIIIIIIIUUUUIIUUUUUUUUIIPPIIHHCCNNNNNNvvkk&&777777777777777777777777777",
"7777777777777777777777778888888  NNNNNNNNVVAACCVVFFGGGGHHKKPPIIIIUUUUUUUUUUIIPPIIPPKKHHAAZZNNnnvv&&77777777777777777777777777777",
"7777777777777777777777778888888  NNNNNNNNVVAACCVVFFGGGGHHKKPPIIIIUUUUUUUUUUIIPPIIPPKKHHAAZZNNnnvv&&77777777777777777777777777777",
"7777777777777777777777778888888  MMNNNNNNNNNNNNVVFFFFFFFFHHJJPPPPPPPPPPPPPPPPPPPPLLFFFFSSNNNNvvpp%%77777777777777777777777777777",
"7777777777777777777777778888888  MMNNNNNNNNNNNNVVFFFFFFFFHHJJPPPPPPPPPPPPPPPPPPPPLLFFFFSSNNNNvvpp%%77777777777777777777777777777",
"7777777777777777777777778888888..NNNNNNNNNNAAVVVVFFFFFFHHFFJJJJIIIIIIIIIIIIIIIIIIHHGGHHFFCCNNNN--7777777777777777777777777777777",
"7777777777777777777777778888888..NNNNNNNNNNAAVVVVFFFFFFHHFFJJJJIIIIIIIIIIIIIIIIIIHHGGHHFFCCNNNN--7777777777777777777777777777777",
"77777777777777778888888877777  MMNNNNNNNNNNAACCVVAAFFGGHHGGGGHHJJJJPPPPPPIIJJJJPPFFHHHHVVAAZZNN;;7777777666666666666666677777777",
"77777777777777778888888877777  MMNNNNNNNNNNAACCVVAAFFGGHHGGGGHHJJJJPPPPPPIIJJJJPPFFHHHHVVAAZZNN;;7777777666666666666666677777777",
"77777777777777778888888877777  vvNNNNNNNNNNNNVVVVVVCCFFFFFFFFFFFFFFFFFFFFFFGGFFFFFFFFFFNNNNNNNN;;7777777666666666666666677777777",
"77777777777777778888888877777  vvNNNNNNNNNNNNVVVVVVCCFFFFFFFFFFFFFFFFFFFFFFGGFFFFFFFFFFNNNNNNNN;;7777777666666666666666677777777",
"777777777777777788888888777  bbNNNNNNNNNNNNZZVVVVAACCAAFFFFFFHHFFGGHHFFGGHHGGGGHHGGGGAAZZCCZZNN;;7777777666666666666666677777777",
"777777777777777788888888777  bbNNNNNNNNNNNNZZVVVVAACCAAFFFFFFHHFFGGHHFFGGHHGGGGHHGGGGAAZZCCZZNN;;7777777666666666666666677777777",
"7777777777777777888888887  vvbbNNNNNNNNZZNNNNZZCCVVCCCCVVFFFFHHFFFFHHFFFFHHFFFFHHFFFFAAAANNZZNN;;  77777666666666666666677777777",
"7777777777777777888888887  vvbbNNNNNNNNZZNNNNZZCCVVCCCCVVFFFFHHFFFFHHFFFFHHFFFFHHFFFFAAAANNZZNN;;  77777666666666666666677777777",
"6666666677777777777777777  vvvvnnNNNNNNNNNNNNNNNNVVNNVVVVNNCCAADDDDAAFFFFFFFFFFFFDDNNVVNNNNNNNNNN;;66666666666667777777777777777",
"6666666677777777777777777  vvvvnnNNNNNNNNNNNNNNNNVVNNVVVVNNCCAADDDDAAFFFFFFFFFFFFDDNNVVNNNNNNNNNN;;66666666666667777777777777777",
"66666666777777777777777  ddvvMMNNNNNNNNNNNNZZNNNNZZNNCCAAVVCCAAVVVVAAVVAAAAVVVVAAVVVVAANNNNNNNNNN;;  666666666667777777777777777",
"66666666777777777777777  ddvvMMNNNNNNNNNNNNZZNNNNZZNNCCAAVVCCAAVVVVAAVVAAAAVVVVAAVVVVAANNNNNNNNNN;;  666666666667777777777777777",
"66666666777777777777777  aavvbbNNNNNNNNNNNNNNNNNNNNNNVVNNCCCCAACCZZAACCZZAAAAZZAAAANNZZZZNNNNNNNNbb;;  6666666667777777777777777",
"66666666777777777777777  aavvbbNNNNNNNNNNNNNNNNNNNNNNVVNNCCCCAACCZZAACCZZAAAAZZAAAANNZZZZNNNNNNNNbb;;  6666666667777777777777777",
"66666666777777777777777  ppvvvvbbNNNNNNNNNNNNNNNNNNNNNNNNNNNNNNNNNNNNNNNNNNNNNNNNNNNNNNNNNNNNnnbbvvvv==6666666667777777777777777",
"66666666777777777777777  ppvvvvbbNNNNNNNNNNNNNNNNNNNNNNNNNNNNNNNNNNNNNNNNNNNNNNNNNNNNNNNNNNNNnnbbvvvv==6666666667777777777777777",
"777777777777777777777  eeuuvvvvMMbbNNNNNNNNNNNNNNNNNNNNNNNNNNNNNNNNZZNNNNZZNNNNNNNNNNNNNNNNNNMMvvvvvv--  77777777777777777777777",
"777777777777777777777  eeuuvvvvMMbbNNNNNNNNNNNNNNNNNNNNNNNNNNNNNNNNZZNNNNZZNNNNNNNNNNNNNNNNNNMMvvvvvv--  77777777777777777777777",
"777777777777777777777  wwwwppvvvvvvvvbbMMMMMMMMbbMMNNNNNNNNNNNNNNNNNNNNNNNNNNNNNNNNMMNNbbbbvvvvvvvvhhpp&&77777777777777777777777",
"777777777777777777777  wwwwppvvvvvvvvbbMMMMMMMMbbMMNNNNNNNNNNNNNNNNNNNNNNNNNNNNNNNNMMNNbbbbvvvvvvvvhhpp&&77777777777777777777777",
"777777777777777777777  %%wwwwppvvvvvvvvbbvvbbbbvvbbbbnnNNNNnnNNNNNNNNNNNNNNNNMMNNMMbbvvvvvvvvvvvvaappee%%77777777777777777777777",
"777777777777777777777  %%wwwwppvvvvvvvvbbvvbbbbvvbbbbnnNNNNnnNNNNNNNNNNNNNNNNMMNNMMbbvvvvvvvvvvvvaappee%%77777777777777777777777",
"77777777777777777777777  eeeerrddvvvvvvvvvvvvvvvvvvvvvvvvMMvvNNNNbbNNNNNNNNNNbbMMMMMMvvvvvvzzppddeewwee&&77777777777777777777777",
"77777777777777777777777  eeeerrddvvvvvvvvvvvvvvvvvvvvvvvvMMvvNNNNbbNNNNNNNNNNbbMMMMMMvvvvvvzzppddeewwee&&77777777777777777777777",
"77777777777777777777777  &&wwwwwwppaaffvvccxxppppppppiippaavvvvvvvvvvvvvvvvvvvvvvvvzzaappppwwwwwwwwww%%7777777777777777777777777",
"77777777777777777777777  &&wwwwwwppaaffvvccxxppppppppiippaavvvvvvvvvvvvvvvvvvvvvvvvzzaappppwwwwwwwwww%%7777777777777777777777777",
"7777777777777777777777777  &&%%eewwwweewwwwwwwwwwwwwwwwwwwwwwwwwwppaaaappppppppwwwwwwwwwwwwwwwwwwwwww%%7777777777777777777777777",
"7777777777777777777777777  &&%%eewwwweewwwwwwwwwwwwwwwwwwwwwwwwwwppaaaappppppppwwwwwwwwwwwwwwwwwwwwww%%7777777777777777777777777",
"77777777777777777777777777777  ++++&&&&&&&&eeeeww%%##++@@@@##$$&&&&eeeewweeee&&&&&&&&eeeeeeeeww&&&&&&777777777777777777777777777",
"77777777777777777777777777777  ++++&&&&&&&&eeeeww%%##++@@@@##$$&&&&eeeewweeee&&&&&&&&eeeeeeeeww&&&&&&777777777777777777777777777",
"77777777777777777777777777777777777777776  XXoo++7777777777777777  ++XXXX++XX777777  ++XXOO++@@777777777777777777777777777777777",
"77777777777777777777777777777777777777776  XXoo++7777777777777777  ++XXXX++XX777777  ++XXOO++@@777777777777777777777777777777777"
};
