/* XPM */
static char *ditto_161755194878[] = {
/* columns rows colors chars-per-pixel */
"128 128 76 1 ",
"  c gray15",
". c #282828",
"X c #383040",
"o c #3C3040",
"O c #383440",
"+ c #3C3440",
"@ c #3C3844",
"# c #403844",
"$ c #403848",
"% c #403C48",
"& c #48404C",
"* c #4C4450",
"= c #504854",
"- c #504C54",
"; c #544C58",
": c #544C5C",
"> c #584C5C",
", c #58505C",
"< c #585060",
"1 c #5C5460",
"2 c #685C70",
"3 c #906858",
"4 c #A88868",
"5 c #C8A878",
"6 c #A08CA8",
"7 c #A090B0",
"8 c #A490B0",
"9 c #A894B0",
"0 c #A894B4",
"q c #AC98BC",
"w c #B4A4BC",
"e c #B8A4C4",
"r c #B8A8C0",
"t c #BCA8C4",
"y c #B8A4C8",
"u c #B8A8C8",
"i c #BCA8C8",
"p c #C0A8CC",
"a c #C0ACD0",
"s c #C4B0D0",
"d c #C8B4D4",
"f c #CCB8D8",
"g c #D0B8D8",
"h c #D0BCD8",
"j c #D0B8DC",
"k c #D0BCDC",
"l c #D4BCDC",
"z c #D4BCE0",
"x c #D4C0DC",
"c c #D4C0E0",
"v c #D8C0E0",
"b c #D8C4E0",
"n c #D8C0E4",
"m c #D8C4E4",
"M c #DCC4E4",
"N c #DCC4E8",
"B c #DCC8E8",
"V c #E0C8E8",
"C c #E0C8EC",
"Z c #E0CCEC",
"A c #E4CCEC",
"S c #E0CCF0",
"D c #E4CCF0",
"F c #E4D0F0",
"G c #E4D0F4",
"H c #E8D0F0",
"J c #E8D0F4",
"K c #E8D4F4",
"L c #E8D4F8",
"P c #ECD4F8",
"I c #F0D8FC",
"U c #F4DCFC",
"Y c #F8DCFF",
"T c #F8E0FF",
"R c #FCE0FF",
"E c #FCE4FF",
/* pixels */
"44444444444444444444444444444444444444444444444444444444444444445555555544444444555555554444444444444444444444443333333344444444",
"44444444444444444444444444444444444444444444444444444444444444445555555544444444555555554444444444444444444444443333333344444444",
"44444444444444444444444444444444444444444444444444444444444444445555555544444444555555554444444444444444444444443333333344444444",
"44444444444444444444444444444444444444444444444444444444444444445555555544444444555555554444444444444444444444443333333344444444",
"44444444444444444444444444444444444444444444444444444444444444445555555544444444555555554444444444444444444444443333333344444444",
"44444444444444444444444444444444444444444444444444444444444444445555555544444444555555554444444444444444444444443333333344444444",
"44444444444444444444444444444444444444444444444444444444444444445555555544444444555555554444444444444444444444443333333344444444",
"44444444444444444444444444444444444444444444444444444444444444445555555544444444555555554444444444444444444444443333333344444444",
"44444444444444445555555544444444444444444444444444444444555555554444444455555555444444444444444444444444333333334444444433333333",
"44444444444444445555555544444444444444444444444444444444555555554444444455555555444444444444444444444444333333334444444433333333",
"44444444444444445555555544444444444444444444444444444444555555554444444455555555444444444444444444444444333333334444444433333333",
"44444444444444445555555544444444444444444444444444444444555555554444444455555555444444444444444444444444333333334444444433333333",
"44444444444444445555555544444444444444444444444444444444555555554444444455555555444444444444444444444444333333334444444433333333",
"44444444444444445555555544444444444444444444444444444444555555554444444455555555444444444444444444444444333333334444444433333333",
"44444444444444445555555544444444444444444444444444444444555555554444444455555555444444444444444444444444333333334444444433333333",
"44444444444444445555555544444444444444444444444444444444555555554444444455555555444444444444444444444444333333334444444433333333",
"44444444555555554444444444444444444444444444444455555555444444445555555544444444444444444444444444444444444444443333333344444444",
"44444444555555554444444444444444444444444444444455555555444444445555555544444444444444444444444444444444444444443333333344444444",
"44444444555555554444444444444444444444444444444455555555444444445555555544444444444444444444444444444444444444443333333344444444",
"44444444555555554444444444444444444444444444444455555555444444445555555544444444444444444444444444444444444444443333333344444444",
"44444444555555554444444444444444444444444444444455555555444444445555555544444444444444444444444444444444444444443333333344444444",
"44444444555555554444444444444444444444444444444455555555444444445555555544444444444444444444444444444444444444443333333344444444",
"44444444555555554444444444444444444444444444444455555555444444445555555544444444444444444444444444444444444444443333333344444444",
"44444444555555554444444444444444444444444444444455555555444444445555555544444444444444444444444444444444444444443333333344444444",
"55555555444444444444444444444444444444444444444444444444444444444444444444444444444444444444444444444444333333334444444444444444",
"55555555444444444444444444444444444444444444444444444444444444444444444444444444444444444444444444444444333333334444444444444444",
"55555555444444444444444444444444444444444444444444444444444444444444444444444444444444444444444444444444333333334444444444444444",
"55555555444444444444444444444444444444444444444444444444444444444444444444444444444444444444444444444444333333334444444444444444",
"55555555444444444444444444444444444444444444444444444444444444444444444444444444444444444444444444444444333333334444444444444444",
"55555555444444444444444444444444444444444444444444444444444444444444444444444444444444444444444444444444333333334444444444444444",
"55555555444444444444444444444444444444444444444444444444444444444444444444444444444444444444444444444444333333334444444444444444",
"55555555444444444444444444444444444444444444444444444444444444444444444444444444444444444444444444444444333333334444444444444444",
"44444444444444444444444444444444444444443333333344444444333333334444444444444444444444444444444444444444444444444444444444444444",
"44444444444444444444444444444444444444443333333344444444333333334444444444444444444444444444444444444444444444444444444444444444",
"44444444444444444444444444444444444444443333333344444444333333334444444444444444444444444444444444444444444444444444444444444444",
"44444444444444444444444444444444444444443333333344444444333333334444444444444444444444444444444444444444444444444444444444444444",
"44444444444444444444444444444444444444443333333344444444333333334444444444444444444444444444444444444444444444444444444444444444",
"44444444444444444444444444444444444444443333333344444444333333334444444444444444444444444444444444444444444444444444444444444444",
"44444444444444444444444444444444444444443333333344444444333333334444444444444444444444444444444444444444444444444444444444444444",
"44444444444444444444444444444444444444443333333344444444333333334444444444444444444444444444444444444444444444444444444444444444",
"44444444444444444444444444444444333333334444444433333333444444444444444444444444333333334444444444444444444444444444444444444444",
"44444444444444444444444444444444333333334444444433333333444444444444444444444444333333334444444444444444444444444444444444444444",
"44444444444444444444444444444444333333334444444433333333444444444444444444444444333333334444444444444444444444444444444444444444",
"44444444444444444444444444444444333333334444444433333333444444444444444444444444333333334444444444444444444444444444444444444444",
"44444444444444444444444444444444333333334444444433333333444444444444444444444444333333334444444444444444444444444444444444444444",
"44444444444444444444444444444444333333334444444433333333444444444444444444444444333333334444444444444444444444444444444444444444",
"44444444444444444444444444444444333333334444444433333333444444444444444444444444333333334444444444444444444444444444444444444444",
"44444444444444444444444444444444333333334444444433333333444444444444444444444444333333334444444444444444444444444444444444444444",
"44444444444444444444444433333333444444443333333344444444444444444444444444444444444444444444444444444444444444444444444455555555",
"44444444444444444444444433333333444444443333333344444444444444444444444444444444444444444444444444444444444444444444444455555555",
"44444444444444444444444433333333444444443333333344444444444444444444444444444444444444444444444444444444444444444444444455555555",
"44444444444444444444444433333333444444443333333344444444444444444444444444444444444444444444444444444444444444444444444455555555",
"44444444444444444444444433333333444444443333333344444444444444444444444444444444444444444444444444444444444444444444444455555555",
"44444444444444444444444433333333444444443333333344444444444444444444444444444444444444444444444444444444444444444444444455555555",
"44444444444444444444444433333333444444443333333344444444444444444444444444444444444444444444444444444444444444444444444455555555",
"44444444444444444444444433333333444444443333333344444444444444444444444444444444444444444444444444444444444444444444444455555555",
"44444444444444444444444444444444333333334444444444444444444444444444444444444444444444444444444455555555444444445555555544444444",
"44444444444444444444444444444444333333334444444444444444444444444444444444444444444444444444444455555555444444445555555544444444",
"44444444444444444444444444444444333333334444444444444444444444444444444444444444444444444444444455555555444444445555555544444444",
"44444444444444444444444444444444333333334444444444444444444444444444444444444444444444444444444455555555444444445555555544444444",
"444444444444444444444444444444443333333344444444444........444444444444444444444444444444444444455555555444444445555555544444444",
"444444444444444444444444444444443333333344444444444........444444444444444444444444444444444444455555555444444445555555544444444",
"4444444444444444444444444444444....33333444444444..ccccvv::..4444444444444444444444444444444444455555555444444445555555544444444",
"4444444444444444444444444444444....33333444444444..ccccvv::..4444444444444444444444444444444444455555555444444445555555544444444",
"44444444444444444444444444444..ww::....44444444..ccvvBBBBBB;;..44..........44444444444445555555544444444555555554444444433333333",
"44444444444444444444444444444..ww::....44444444..ccvvBBBBBB;;..44..........44444444444445555555544444444555555554444444433333333",
"444444444444444444444444444..DDJJJJcc>>..4444..ccmmBBBBCCBBBB,,..rrFFDDDD<<....4444444445555555544444444555555554444444433333333",
"444444444444444444444444444..DDJJJJcc>>..4444..ccmmBBBBCCBBBB,,..rrFFDDDD<<....4444444445555555544444444555555554444444433333333",
"4444444444444444444444444..ccDDJJJJDDBB;;....ccccBBBBBBZZDDDDFFJJJJJJJJFFFFZZ;;..44444445555555544444444555555554444444433333333",
"4444444444444444444444444..ccDDJJJJDDBB;;....ccccBBBBBBZZDDDDFFJJJJJJJJFFFFZZ;;..44444445555555544444444555555554444444433333333",
"4444444444444444444444444..vvCCGGJJJJFFtt<<ccvvmmBBVVZZDDGGJJJJTTEEEEEEIIJJGGAA>>..444445555555544444444555555554444444433333333",
"4444444444444444444444444..vvCCGGJJJJFFtt<<ccvvmmBBVVZZDDGGJJJJTTEEEEEEIIJJGGAA>>..444445555555544444444555555554444444433333333",
"4444444433333333444444444..::vvCCGGGGJJffccmmmmmmCCBBZZFFGGJJJJTTYYRREEIILLJJGGmm::..5554444444455555555444444443333333344444444",
"4444444433333333444444444..::vvCCGGGGJJffccmmmmmmCCBBZZFFGGJJJJTTYYRREEIILLJJGGmm::..5554444444455555555444444443333333344444444",
"444444443333333344444444444..ccMMBBDDDDccccvvvvvvBBBBBBDDFFHHJJUUKKTTPPIIJJHHFFDDBB;;..............55555444444443333333344444444",
"444444443333333344444444444..ccMMBBDDDDccccvvvvvvBBBBBBDDFFHHJJUUKKTTPPIIJJHHFFDDBB;;..............55555444444443333333344444444",
"444444443333333344444444444..ccvvNNCCbbccnnvvvvmm..VVCCDDGGJJJJJJPPKKJJPPJJJJJJJJJJGGCCDDJJJJLLJJ,,..555444444443333333344444444",
"444444443333333344444444444..ccvvNNCCbbccnnvvvvmm..VVCCDDGGJJJJJJPPKKJJPPJJJJJJJJJJGGCCDDJJJJLLJJ,,..555444444443333333344444444",
"444444443333333344444444444..ccccvvnnccccnnmmvvnnCCBBVVDDDDGGJJJJ..JJJJKKJJJJGGJJTTJJFFFFFFCCVVBBCC;;555444444443333333344444444",
"444444443333333344444444444..ccccvvnnccccnnmmvvnnCCBBVVDDDDGGJJJJ..JJJJKKJJJJGGJJTTJJFFFFFFCCVVBBCC;;555444444443333333344444444",
"444444444444444444444444444..;;cccccccccccc==66ccBBBBBBCCDDDDDDFFDDGGFFHHGGFFFFGGHHFFDDBBBBvvvvcccc;;444444444444444444444444444",
"444444444444444444444444444..;;cccccccccccc==66ccBBBBBBCCDDDDDDFFDDGGFFHHGGFFFFGGHHFFDDBBBBvvvvcccc;;444444444444444444444444444",
"44444444444444444444444444444..ccccccccvvnnvvbbggpp22====--11::99ddjjnnzzFFGGGGJJGGFFCCBBvvnncccccc;;444444444444444444444444444",
"44444444444444444444444444444..ccccccccvvnnvvbbggpp22====--11::99ddjjnnzzFFGGGGJJGGFFCCBBvvnncccccc;;444444444444444444444444444",
"44444444444444444444444444444  kkccccccccnnmmvvmmBBBBVVCCDDFFFFGGGGGGGGGGGGGGGGGGFFFFCCbbccccccccxx;;444444444444444444444444444",
"44444444444444444444444444444  kkccccccccnnmmvvmmBBBBVVCCDDFFFFGGGGGGGGGGGGGGGGGGFFFFCCbbccccccccxx;;444444444444444444444444444",
"44444444444444444444444444444  kkxxccccccccccccccNNBBBBBBCCSSDDDDDDDDDDDDDDDDDDDDSSCCBBccccccllkkkk&&444444444444444444444444444",
"44444444444444444444444444444  kkxxccccccccccccccNNBBBBBBCCSSDDDDDDDDDDDDDDDDDDDDSSCCBBccccccllkkkk&&444444444444444444444444444",
"44444444444444444444444455555  ;;ccccccvvmmvvbbmmBBBBVVBBZZFFFFFFDDFFFFGGGGGGDDFFDDZZCCbbcccccckkii%%444444444444444444444444444",
"44444444444444444444444455555  ;;ccccccvvmmvvbbmmBBBBVVBBZZFFFFFFDDFFFFGGGGGGDDFFDDZZCCbbcccccckkii%%444444444444444444444444444",
"4444444444444444444444445555555  ccccccccvvmmbbmmNNVVVVCCVVZZFFFFDDFFFFDDFFDDDDFFZZCCCCvvcccckkkk&&44444444444444444444444444444",
"4444444444444444444444445555555  ccccccccvvmmbbmmNNVVVVCCVVZZFFFFDDFFFFDDFFDDDDFFZZCCCCvvcccckkkk&&44444444444444444444444444444",
"4444444444444444444444445555555  xxccccccccccccccnnBBBBBBBBBBZZZZSSDDAASSDDDDDDDDBBBBBBccccxxhhee$$44444444444444444444444444444",
"4444444444444444444444445555555  xxccccccccccccccnnBBBBBBBBBBZZZZSSDDAASSDDDDDDDDBBBBBBccccxxhhee$$44444444444444444444444444444",
"44444444444444444444444455555  llccccccccccmmvvvvmmBBBBCCBBBBCCCCDDDDFFDDFFDDDDDDVVVVCCmmbbccxx**4444444444444444444444444444444",
"44444444444444444444444455555  llccccccccccmmvvvvmmBBBBCCBBBBCCCCDDDDFFDDFFDDDDDDVVVVCCmmbbccxx**4444444444444444444444444444444",
"44444444444444445555555544444  xxccccccccccnnbbvvmmmmBBCCVVVVCCVVBBZZCCCCZZZZBBCCBBCCBBvvmmnncc;;4444444333333333333333344444444",
"44444444444444445555555544444  xxccccccccccnnbbvvmmmmBBCCVVVVCCVVBBZZCCCCZZZZBBCCBBCCBBvvmmnncc;;4444444333333333333333344444444",
"444444444444444455555555444  kkzzccccccccccccvvvvvvccNNBBBBBBBBBBBBBBBBBBBBBBBBBBBBBBBBcccccccc;;4444444333333333333333344444444",
"444444444444444455555555444  kkzzccccccccccccvvvvvvccNNBBBBBBBBBBBBBBBBBBBBBBBBBBBBBBBBcccccccc;;4444444333333333333333344444444",
"444444444444444455555555444  llccccccccccccnnccvvmmbbvvBBBBBBCCBBVVCCBBVVCCVVVVCCVVVVmmnnbbnncc;;4444444333333333333333344444444",
"444444444444444455555555444  llccccccccccccnnccvvmmbbvvBBBBBBCCBBVVCCBBVVCCVVVVCCVVVVmmnnbbnncc;;4444444333333333333333344444444",
"4444444444444444555555554  kkllccccccccnnccccnnvvvvbbbbvvmmNNBBBBBBCCBBBBCCBBBBCCBBBBmmmmccnncc::  44444333333333333333344444444",
"4444444444444444555555554  kkllccccccccnnccccnnvvvvbbbbvvmmNNBBBBBBCCBBBBCCBBBBCCBBBBmmmmccnncc::  44444333333333333333344444444",
"3333333344444444444444444  kkkkzzccccccccccccccccvvccvvvvccvvnnmmmmNNNNBBBBBBBBBBmmccvvcccccccccc;;33333333333334444444444444444",
"3333333344444444444444444  kkkkzzccccccccccccccccvvccvvvvccvvnnmmmmNNNNBBBBBBBBBBmmccvvcccccccccc;;33333333333334444444444444444",
"33333333444444444444444  aakkccccccccccccccnnccccnnccbbmmvvbbmmvvvvmmvvmmmmvvvvmmvvvvmmcccccccccc;;  333333333334444444444444444",
"33333333444444444444444  aakkccccccccccccccnnccccnnccbbmmvvbbmmvvvvmmvvmmmmvvvvmmvvvvmmcccccccccc;;  333333333334444444444444444",
"33333333444444444444444  ggkkllccccccccccccccccccccccvvccbbbbmmbbnnmmbbnnmmmmnnmmmmccnnnnccccccccll;;  3333333334444444444444444",
"33333333444444444444444  ggkkllccccccccccccccccccccccvvccbbbbmmbbnnmmbbnnmmmmnnmmmmccnnnnccccccccll;;  3333333334444444444444444",
"33333333444444444444444  eekkkkllcccccccccccccccccccccccccccccccccccccccccccccccccccccccccccczzllkkkk;;  33333334444444444444444",
"33333333444444444444444  eekkkkllcccccccccccccccccccccccccccccccccccccccccccccccccccccccccccczzllkkkk;;  33333334444444444444444",
"444444444444444444444  88uukkkkxxllccccccccccccccccccccccccccccccccnnccccnnccccccccccccccccccxxkkxxkkkk%%44444444444444444444444",
"444444444444444444444  88uukkkkxxllccccccccccccccccccccccccccccccccnnccccnnccccccccccccccccccxxkkxxkkkk%%44444444444444444444444",
"444444444444444444444  7777yykkkkkkkkccxxxxxxxxccccccccccccccccccccccccccccccccccccccccccllkkkkkkkkkkyy%%44444444444444444444444",
"444444444444444444444  7777yykkkkkkkkccxxxxxxxxccccccccccccccccccccccccccccccccccccccccccllkkkkkkkkkkyy%%44444444444444444444444",
"444444444444444444444  777777sskkkkkkkkllkkllllkkllllzzcccczzccccccccccccccccxxccxxllllkkkkkkkkkkiieeee$$44444444444444444444444",
"444444444444444444444  777777sskkkkkkkkllkkllllkkllllzzcccczzccccccccccccccccxxccxxllllkkkkkkkkkkiieeee$$44444444444444444444444",
"444444444444444444444  %%8888eeuukkkkkkkkkkkkkkkkkkkkkkkkxxllccccccccccccccccllxxxxxxkkkkkkkkyyuu007788%%44444444444444444444444",
"444444444444444444444  %%8888eeuukkkkkkkkkkkkkkkkkkkkkkkkxxllccccccccccccccccllxxxxxxkkkkkkkkyyuu007788%%44444444444444444444444",
"44444444444444444444444  %%777777eeyyddkkjjggiieeeeeeeeeeyykkkkkkkkkkkkkkkkkkkkkkkkkkuueeee777777777777%%44444444444444444444444",
"44444444444444444444444  %%777777eeyyddkkjjggiieeeeeeeeeeyykkkkkkkkkkkkkkkkkkkkkkkkkkuueeee777777777777%%44444444444444444444444",
"4444444444444444444444444  %%$$88777788777777777777777777777777qqeeeeyyeeeeeeee7777777777777777777777$$4444444444444444444444444",
"4444444444444444444444444  %%$$88777788777777777777777777777777qqeeeeyyeeeeeeee7777777777777777777777$$4444444444444444444444444",
"44444444444444444444444444444  ++++%%%%%%7788887788######@@##$$%%77888877888877%%88888888888877%%%%%%444444444444444444444444444",
"44444444444444444444444444444  ++++%%%%%%7788887788######@@##$$%%77888877888877%%88888888888877%%%%%%444444444444444444444444444",
"444444444444444444444444444444444444444  XXXXoo++XX444444444444  XX++XXXX++XXXX  XXOO++XXOO++++444444444444444444444444444444444",
"444444444444444444444444444444444444444  XXXXoo++XX444444444444  XX++XXXX++XXXX  XXOO++XXOO++++444444444444444444444444444444444"
};
