/* XPM */
static char *enemy_021755719639[] = {
/* columns rows colors chars-per-pixel */
"128 128 41 1 ",
"  c black",
". c #010000",
"X c #000100",
"o c #282128",
"O c #292128",
"+ c #282129",
"@ c #292129",
"# c #423A42",
"$ c #433A42",
"% c #423B42",
"& c #423A43",
"* c #4A4A5A",
"= c #4B4A5A",
"- c #4A4B5A",
"; c #4A4A5B",
": c #7B4A5A",
"> c #7B4A5B",
", c #906858",
"< c #916858",
"1 c #906958",
"2 c #906859",
"3 c #BC735A",
"4 c #BD735A",
"5 c #D64A52",
"6 c #A88868",
"7 c #A98868",
"8 c #A88968",
"9 c #A88869",
"0 c #F78442",
"q c #C8A878",
"w c #C9A878",
"e c #C8A978",
"r c #C8A879",
"t c #737B84",
"y c #737B85",
"u c #4A9CB5",
"i c #8C9CAD",
"p c #DEAD84",
"a c #FFD6BD",
"s c #C5CECE",
"d c white",
/* pixels */
"6666666666666666666666666666666666666666666666666666666666666666qqqqqqqq66666666qqqqqqqq6666666666666666666666662<11,,,,66666666",
"6666666666666666666666666666666666666666666666666666666666666666qqqqqqqq66666666qqqqqqqq6666666666666666666666662211,,,,66666666",
"6666666666666666666666666666666666666666666666666666666666666666qqqqqqqq66666666wqqqqqqq666666666666666666666666,,1,,,,,66666666",
"6666666666666666666666666666666666666666666666666666666666666666qqqqqqqq66666666qqqqqqqq666666666666666666666666,,,,,,,,66666666",
"6666666666666666666666666666666666666666666666666666666666666666qqqqqqqq66666666qqqqrrqq666666666666666666666666,,,,,,,,66666666",
"6666666666666666666666666666666666666666666666666666666666666666qqqqqqqq66666666wwqqrrrq666666666666666666666666,,,,,,,,66666666",
"6666666666666666666666666666666666666666666666666666666666666666qqqqqqqq66666666wwwereqq666666666666666666666666,,,,,,,,66666666",
"6666666666666666666666666666666666666666666666666666666666666666qqqqqqqq66666666wweeeeww666666666666666666666666,,,,,,,,66666666",
"6666666666666666qqqqqqqq66666666666666666666666666666666wwwqqqqq66666666qqqqqqqq666666666666666666666666,,,,,,,,66666666,,,,,,,,",
"6666666666666666qqqqqqqq66666666666666666666666666666666wwqqqqqq66666666qqqqqqqq666666866666666666666666,,,,,,,,66666666,,,,,,,,",
"6666666666666666qqqqqqqq66666666666666666666666666666666rrqqqqqq66666666rewqqqqq666666666666666666666666,,,,,,,,66666666,,,,,,,,",
"6666666666666666qqqqqqqq66666666666666666666666666666666rrrrqqqq66666666eeqqqqqq666666666666666866666666,,,,,,,,66666666,,,,,,,,",
"6666666666666666qqqqwwwq66666666666666666666666666666666eeqqqqqq66666666qqqqqqqq666666666666666866666666,,,,,,,,666666661,1<,,,,",
"6666666666666666qqqqweqq66666666666666666666666666666666eeqqqqqq66666666qqqqqqqq666666666666666666666666,,,,,,,,66666666,,,<,,,,",
"6666666666666666qqqqeerr66666666666666666666666666666666wwwqqqqq66666666qqqqqqqq666666666666696666666666,,,,,,,,66666666,,22,,,,",
"6666666666666666qqqqerrr66666666666666666666666666666666wwwqqqqq66666666qqqqqqqq666666666666666666666666,,,,,,,,66666666,,,,,,,,",
"66666666qqqqqqqq66666666666666666666666666666666qqqqqqqq66666666qqqqqqqq6666666666666666666666666666666666666666,,,,,,,,66666666",
"66666666qqqqqqqq66666666666666666666666666666666qqqqqqqq66666666qqqqqqqq6666666666666666666666666666666666666666,,,,,,,,66666666",
"66666666qwqwqqqq66666666666666666666666666666666qqqqqqqq66666666qeeqqqqq6666666666666666666666666666666666666666,,,,,,,,66666666",
"66666666qqqqqqqw66666666666666666666666666666666qqqqqqqq66666666rrewqqqq6666666666666666699666666666666666666666,,,,,,,,66666666",
"66666666qqqqwwqq66666666666666666666666666666666wqqqeeww66666666qqqqqqqq6666666666666666666666666666666666666666,,,,,,,,66666666",
"66666666qqqqeeqq66666666666666666666666666666666qqqqeeww66666666qqqqqqqq6666666666666666766666666666666666666666,,,,,,,,66666666",
"66666666qqqqeeqq66666666666666666666666666666666qqqqrrqq66666666qqqqqqqq6666666666666666666666666666666666666666,,,,,,,,66666666",
"66666666qqqqrqqq66666666666666666666666666666666qqqqqqqq66666666qqqqqqqq6666666666666666666666666666666666666666,,,,,,,,66666666",
"qqqqqqqq666666666666666666666666666666666666666666666666666666666666666666666666666666666666666666666666,,,,,,,,6666666666666666",
"qqqqqqqq666666666666666666666666666666666666666666666666666666666666666666666666666666666666666666666666,,,,,,,,6666666666666666",
"qwqqqqqq666666666666666666666666666666666666666666666666666666666666666666666666666666666666666666666666,,,,,,,,6666666666666666",
"qeqqqqqq666666666666666666666666666666666666666666666666666666666666666666666666666666666666666666666666,,,,,,,,6666666666666666",
"qqqqqqqq666666666666666666666666666666666666666666666666666666666666666666666666666666666666666666666666,,,,,,,,6666666666666666",
"qqqqqqqq666666666666666666666666666666666666666666666666666666666666666666666666666666666666666666666666,,,,,,,,6666666666666666",
"qqqqqqqq6666666666666666666666666666666666666666666666666666666666666666666666666666666666666666666666661122,,,,6666666666666666",
"qqqqqqqq66666666666666666666666666666666666666666666666666666666666666666666666666666666666666666666666611<,,,,,6666666666666666",
"666666666666666666666666666666666666666622,,,,,,66666666,,,,,,,,6666666666666666666666666666666666666666666666666666666666666666",
"6666666666666666666666666666666666666666<<,,,,,,66666666,,,,,,,,6666666666666666666666666666666666666666666766666666666666666666",
"6666666666666666666666666666666666666666<1,,,,,,66666666,,,,,,,,6666666666666666666666666666666666666666666666666666666696666666",
"6666666666666666666666666666666666666666<1,,,,,,66666666,,,,,,,,6666666666666666667666666666666666666666666666666666666666666666",
"6666666666666666666666666666666666666666,,,,,,,,66666666,,,,,,,,6666666666666666666666666666666666666666866669666666666666666666",
"6666666666666666666666666666666666666666,,,,,,,,66666666,,,,,,,,6666666666666666666666666666666666666666666666666666666668686666",
"6666666666666666666666666666666666666666,,,,,,,,66666666,,,,,,,,6666666666666666666666666666666666666666666666666666666668666666",
"6666666666666666666666666666666666666666,,,,,,,,66666666,,,,,,,,6666666666666666666666666666666666666666666666666666669966666666",
"66666666666666666666666666666666,,,,,,,,66666666,,,2<1,,66666666666666666666666622112<<<6666666666666666666666667666666666666666",
"66666666666666666666666666666666,,,,,,,,66666666,,,,,,,,666666666666666666666666<2122<<<6666666666666666666666666666666666666666",
"66666666666666666666666666666666,,,,,,,,66666666,,,,,,,,666666666666666666666666<<<211<16666666666666666666666666666666666666666",
"66666666666666666666666666666666,,,,,,,,66666666,,,,,,,,666666666666666666666666<<<2,1116666666666666666666666666666666666666666",
"66666666666666666666666666666666,,,,,,,,66666666,,,,,,1<666666666666666666666666,,,,,,,,6666666666666666666666666676666666666666",
"66666666666666666666666666666666,,,,,,,,66666666,,,,,,1<666666666666666666666666,,,,,,1,6666666666666666666666666666666666666666",
"66666666666666666666666666666666,,,,,,,,66666666,,,,,,2<666666666666666666666666,,,,,,,,6666666666666666666666666666666666666666",
"66666666666666666666666666666666,,,,,,,,66666666,,,,,,22666666666666666666666666,,,,,,,,6666666666666666666666666666666666676666",
"666666666666666777666666,,,,,,,,66666666,,,,,,,,666666666666666666666666666666666666666666666666666666666666666666666666qqqqqqqq",
"666666666666666666666666,1,,,,,,66666666,,,,,,,,666666666666666666666666666666666666666666666666666666666666666666666666qqqqqqqq",
"666666666666666666666667,,,,,,,,66666666,,,,,,,,666666666666666666666666666666666666666666666666666666666666666666666666rqqqqqqq",
"666666666666666666666666,,,,,,,,66666666,,,,,,,,666666666666666666666666666666666666666666666666666666666666666666666666rqqqqqqq",
"666666666666666666666666,,,,<<2266666666,,,,11<<666666666666666666666666797766666666666666666666666666666666666666666666qqqqqqqq",
"666666666666666666666666,,,,<22266666666,,,,,<<2666666666666666666666666677766666666666666666666666666666666666666666666qqqqqqqq",
"666666666666666666667666,,,1<<2266666666,,,,,,22666666666666666666666666@@@@@ooo@@o6666666666666666666666666666666666666qqqqqqqq",
"666666666666666666666666,,,11<2266666666,,,,,,22666666666666666666666666@@@@@ooo@@@6666666666666666666666666666666666666qqqqqqqq",
"66666666666666666666666676666666,,,,,,,,666666666666666666667666666@@@@@&&&&&&yids$oo66666666666qqqqqqqq66666666rrqqqwqq99888666",
"66666666666666666666666666666666,,,,,,,,666666666666666666667766@@@o@@@oiii**iiisi$$o 6666666666qqqwqqqq66666666rqwqqqqq99888666",
"66666666666666666666666666666666,,,,,,,,666666666666666666667777@@o&$$oodddyydsioo$$&  666666666qreeqqqq66666666reqqqqqq96666666",
"66666666666666666666666666666666,,,,,,,,666666666666666666667oo@&$$$$&%%yyysdds*=o$$$  666666666qreeqqqq66666666wwqqqqqq96666666",
"66666666666666666666666666666666,,,,,,,,66666666666666666677oo@@$$o=&%%$tttsddstyy&$&  666666666qqqqqqqq66666666wwqqqqqq66666666",
"66666666666666666666666666666666,,,,,,,,6666666666666666667oo&&&$$$$&$oodddtoosddso$&  666666666qqqqqqqq66666666wwqqqqqq66666666",
"66666666666666666666666666666666,,,,,,,,666666666666666667o$&&&&$$$$$$$$iii*$$tiiy&oo  666666666qqqqqqqq66666666qqqqqqqw66666666",
"66666666666666666666666666666666,,,,,,,,66666666666666666oo$&&&&$$$$$$$$=o$$&&&&&&&oo  666666666qqqqqqqq66666666qqqqqqqw66666666",
"66666666666666666666666666666666666666666666666666666666  o$$$&&$%%%&&&&          oo@666rrrwqqqq66666666qqqqqqqq6666666622,,,,,,",
"66666666666666666666666666666666666666666666666666666666  @@$&&&$%%@oo@$>>%t44::4>>o@666rrerqqqq66666666qqqqqqqq666666661<,,,,,,",
"66666666666666666666666666666666666666666666666666666666  @@o&$$&&%o  oo44>aaap4054& 666wweeqqqq66666666qqqqqqqq66666666,,,,,,,,",
"66666666666666666666666666666666666666666666666666666666  @@@@@@@oo45555>4aaaaaa44&o6666wwwwqqqq66666666qqqqqqqq66666666,,,,,,,,",
"66666666666666666666666666666666666666666666666666666666  @@@@@@&&>500004paaaaaa4: 66666wqqqqqqq66666666qqrwqqqq66666666,,,,,,,,",
"666666666666666666666666666666666666666666666666666666666    o  45044>>>aaaaaapp4: 86666qqqqqqqq66666666qqeeqqqq66666666,,,,,,,,",
"6666666666666666666666666666666666666666666666666666666666    ::>44pp444aaaaappip4$66666qqqqqqqq66666666qqqqqqqq66666666,,,,,,,,",
"6666666666666666666666666666666666666666666666666666666666668 :4>>>aa4ppaaaaapiuap>66668qqqqqqqq66666666qqqqqqqq66666666,,,,,,,,",
"66666666,,,,,,,,666666666666666666666666qqqqqqqq66666666666666>:ap:aausd4paaap: dsore>:e66666666qqqqqqqq66666666,,,,,,,,66666666",
"66666666,,,,,,,,666666666666666666666666qqqqqqqq6666666666668>>>ap4aaysdppaaap4:aso>4>:e66666666qqqqqqqq66666666,,,,,,,166666666",
"66666666,,<2,,,,666666666666666666666666qqqqqqqq6666666666666>44aa0ap sdaaaaaap4p4 44>:e66666666qqqqqqqq66666666,,,,,,2<66666666",
"66666666,11,,,,,666666666666666666666666qqqqqqqq66666666666440004paaa44paaaitt::p4>44>:e66666666qqqqqqqq66666666,,,,,,2,66666666",
"66666666,,,,11<<666666666666666666666666qqqqeewe66666666666440004paap444aaatt-;;p4>44>>r66666666qqqqqqqq66666666,,,,,,,,66666666",
"66666666,,,,11<2666666666666666666666666qqqqwwwe66666666666>>0000544404 **;ttt;; >444>>r68666666qqqqqqqq66666666,,,,,,,,66666666",
"66666666,,,,,,22666866666666666666666666qqqqwwrr66666666666$>0000055004 tttttttt >44>:rr66666666qqqqqqqq66666666,,,,,,,,66666666",
"66666666,,,,,,22666666666666666666666666qqqwwwrr66666666666 >0000000004 tttttttt :4:>err66666666qqqqqqqq66666666,,,,,,,,66666666",
"66666666666666666666666666666666qqqqqqqq666666666666666666666 40000>  o@;;yyyy; >>>666666666666666666666666666666666666666666666",
"66666666666666666666666666666666qqqqweqq666666666666666666666 >4444&oo@@&;;===& >>>666666666666666666666666666666666666666666666",
"66666666666666666666666666666666qqqqqqqq666666666666666666666o     ;;&&&@@     6886666666666666666666666666666666666666666666666",
"66666666666666666666666666666666qqqqqqqq6666666666666666666@o==tooo;;;&@ @;;&ooo886666666666666666666666666666666666666666666666",
"66666666666666666666666666666666qqqqqqqq6666666666666666666@&;tt$&o===$o@@;;;ooo666666666666666666666666666666666666666666666666",
"66666666666666666666666666666666qqwwqqqq66666666666666666@@@&ytty;o==;&o&o ;=;;*@@o666666666666666666666666666666666666666666666",
"66666666666666666666666666666666qrrwqqqq66666666666666666@@;yytt==o;==&o&o *==**&&$o@     66666666666666666666666666666666666666",
"66666666666666666666666666666666rrewqqqq66666666666666666@@yyytt*$o*=;&@&o ***;;;;=@@     66666666666666666666666666666666666666",
"666666666666666666666666qqqqqqqq6666666666666666666666666oottttty*o&$===o=u=@=--;=*o@$$$$$66666666666666666666666666666666666666",
"666666666666666666666666qqqqqqqq666666666666666666666666$oottttty*o$====oyi=@$%%==&o@&$$o= 6666666666666666666666666666666666666",
"666666666666666666666666qqqqqqqq666666666666666666666666$&ottttty*o$$o==oys= @@@;& &&&&$$@.7666666666666666666666666666666666666",
"666666666666666666666666qqqqqqqq6666666666666666666666&&oo&--ttty=o&$$$$oyu- <21@@ o@oo@$$$. 66666666666666666666666666666666666",
"666666666666666666666666qqqqqqqq6666666666666666666688== o&;*tttt*@&&&&&oyu= 211@@@@@@@@$$%@ 66666666666666666666666666666666666",
"666666666666666666666666qqqqqqqq6666666666666666666oo$yt   &*tttt* &$&&&@ys= 2<2 @&&&$oo@@%@ 66666666666666666666666666666666666",
"666666666666666666666688rrqqqqqq6666666666666666 o$o$yyt;; &*ttt*$oo@@@@iiy= 1  @@@@&&$$ O$@ 66666666666666666666666666666666666",
"666666666666666666666688erqqqqqq6666666666666666 o$o$tyyy; ;*ttt o&o @@@si <22  @@@@o&$$ @%@ 66666666666666666666666666666666666",
"6666666666666666qreeqqqq666666666666666666666666 o&$$@=yttt==ttt o&&&o$$  6   @&&&&&&@&&   6666666666666,,,,,,,,,,,,,,,,66666666",
"6666666666666666qqqwqqqq666666666666666666666666 @&&$@==tyt=*ttt;&&oo$$$   o@@&&$&&&&@@@   6666666666666,,,,,,,,,,,,,,,,66666666",
"6666666666666666qqqqqqqq666666666666666666666666 @&&&o  yyy&$ttty;o o;==@@ ;=&&&$$=&&@  6666966666666666,,,,,,,,,,,,,,,,66666666",
"6666666666666666qqqqqqqq666666666666666666666666-&&&&&&$&&&@$ttty;o$=;;;;& ;=@o&@$=&@.  6666666666666666,,,1,,,,,,,,,,,,66666666",
"6666666666666666qqqqqqqq666666666666666666666666-%%-$$$$@  o$ytty=o=;;;;;$@&$ o&@$-@@   6666666666666666,,,,,,,,,,,,,,,,66666666",
"6666666666666666qqqqqqqq666666666666666666666666-% oo&o$&&@$$o=tt=o=; @@;;=@  o&X @     6666666666666666,,,,2,,,,,,,,,,,66666666",
"6666666666666666qqqqqqqq6666666666666666666666=-u==-$@;=@@oo%*yy;$oo@@o ;&o>> $> &-o @  6666666666666666,,,,<<,,,,,,,,,,66666666",
"6666666666666666qqqqqqqq6666666666666666666666=-y2>== @$@@@o$yyyo@@ @&o =$ 44 $> -y& @  6666666666666666,,,,1<,,,,,,,,,,66666666",
"2<<<,,,,66666666666666666666666666666666666666;;yttttt=OX@%@&y-    &&$o ;;=o&555y; @@@    6666662222,,,,,,,,,,,,6666666666666666",
"22<<,,,,66666666666666666666666666666666666666;;tttttt==-%@@&-$o@@o$&$@ ;;=o&444;; @@@    66666622<2,,,,,,,,,,,,6666666666666666",
"11<1,,,,66666666666666666666666666666666666666==tttttttty- @@@$$&&&$&&@ ;;;@@     @   @@. 6666661<<<,,,,,,,,,,,,6666666666666666",
"1111,,,,66666666666666666666666666666666666666@@tttttttttyy%@  @&&$$&&@ @@@@66  @@ @@@@@  6666661<<<,,,,,,,,,,,,6666666666666666",
",,,,,,,,66666666666666666666666666666666666666@@tttytttttty$o   &&&$&&@@@@ 666  @@ @@@@@  66666611,,,,,,,,,,,,,,6666666666666666",
",,,,,,,,6666666666766666666666666666666666666666o=tttttttty&oo@@ o&$$ o$  666666  @@@@@@@@ 6766611,,,,,,,,,,,,,,6666666666666666",
",,,,,,,,6666666666666666666677oo@@@6666666666666o=ytttttttt%@@@@o@@@@o&&  666666   @@@@@@@@66667,,,,,,,,,,,,,,,,6666666666666666",
",,,,,,,,6666666666666666666677oo@@@6666666666666o=yyttttttt%@rrr@@  @$$&  6666666  @@@@@@@@66666,,,,,,,,,,,,,,,,6666666666666666",
"66666666666666666666666666666o&&&$$@@66666666666o*tttttttty=--=66  &&&&$$@ 66666666  @@@@@@ .66666666666696666666666666666666666",
"66666666666666666666666666666o&&%%$$@@   6666666o*=tttttttty-%%666 &&@&&$$@   66666  @@@@@@  66666666666666666666666666666666666",
"66666666666666666666666666666o&&$%$$%o    6666662  yttttttyyyo@666666 @&$o=o   666666 @@@@@X 66666666666666666666666666666666666",
"666666666666666666666666666 @&&&$$$$%%&&&oo  @@@o=ttttttttyyyo@666666  @$$=$&&@@666666  @@@    666666666666666666666666666666666",
"666666666666666666666666666 @&&&$$$$$$&&&&@@@ooo@;yyyyyttttty@@666666@  @$$$&$o@666666  @@@    666666666666666666666666666666666",
"666666666666666666666666666 @$$$$=$$@&&&&&$$$o  &&@ $ytttty$@66666666&@@=$$$&@@@66666   @@@  @    666666666666666666666666666666",
"666666666666666666676666666@o$$@@@@@@@&&&$$=$$o $$$o&;**ttt% 66666666@@&$$&$& @@66666  @@@@@@@@@o    666666666666666666666666666",
"666666666666666666666666666@o$O@@@@..@&&&$@=$$o $&&&&o  tty& 66666666 @&$$&&& @@66666 @@@@@@@@@@oo   666666666666666666666666666",
"6666666666666666666666666  &&@@@   666   @&$$$&&o@&$$$@=@=y& 66666666   .@$$$$o 66666 @@@@@@@     @@@  6666666666666666666666666",
"6666666666666666666666666  @@@@@     6   @@@o$$&@@&&$$$=@==@  6666666    @$O@%o 66666  @@@@@@    o@@@  6666666666666666666666666",
"6666666666666666666666666  @@   @@o  6662   o&$&  @&$$$$&$@    666666666XO$@@&o 666666       @@@o@@@@  6666666666666666666666666",
"6666666666666666666666666  @@@@@@@o  6662212 o@o$o@@oo$$&&&o@  666666666X@O @&&6666666676666         666666666666666666666666666",
"6666666666666666666666666  @@@@@ooo  6661<<<<   $@@@ooo$$%%o@  666666668  @@@$$66666666666666  X   . 666666666666666666666666666",
"66666666666666666666666666666      6666622<<<222   ooooo@@o  666666688666  $$  6666666666666666696666666666666666666666666666666",
"66666666666666666666666666666      6666611<122<<             666666666666  oo  6666666666666666666666666666666666666666666666666",
"6666666666666666666666666666666666666666,1112<<2666        66666666666666      6666666666666666666666666666666666666666666666666"
};
