/* XPM */
static char *enemy_071755719640[] = {
/* columns rows colors chars-per-pixel */
"128 128 46 1 ",
"  c black",
". c #010000",
"X c #000100",
"o c #000001",
"O c #282128",
"+ c #292029",
"@ c #282129",
"# c #292129",
"$ c #423A42",
"% c #433A42",
"& c #423B42",
"* c #423A43",
"= c #4A4A5A",
"- c #4A4B5A",
"; c #7B4B5A",
": c #7B4A5B",
"> c #906858",
", c #916858",
"< c #906958",
"1 c #906859",
"2 c #BD725A",
"3 c #BD735A",
"4 c #BD735B",
"5 c #D64A52",
"6 c #A88868",
"7 c #A98868",
"8 c #A88968",
"9 c #A98869",
"0 c #A88969",
"q c #F78442",
"w c #F78542",
"e c #C8A878",
"r c #C9A878",
"t c #C8A978",
"y c #C8A879",
"u c #727B84",
"i c #737B84",
"p c #737A85",
"a c #4A9CB5",
"s c #8C9CAD",
"d c #DEAC84",
"f c #DEAD84",
"g c #DEAD85",
"h c #FFD6BD",
"j c #C5CECE",
"k c #FFFEFF",
/* pixels */
"6666666666666666666666666666666666666666666666666666666666666666eeeeeeee66666666eeeeeeee6666666666666666666666661,<<>>>>66666666",
"6666666666666666666666666666666666666666666666666666666666666666eeeeeeee66666666eeeeeeee666666666666666666666666,,>>>>>>66666666",
"6666666666666666666666666666666666666666666666666666666666666666eeeeeeee66666666eeeeeeee666666666666666666666666>>>>>>>>66666666",
"6666666666666666666666666666666666666666666666666666666666666666eeeeeeee66666666eeeeeeee666666666666666666666666>>>>>>>>66666666",
"6666666666666666666666666666666666666666666666666666666666666666eeeyttee66666666eeeettyy666666666666666666666666>>>>>>>>66666666",
"6666666666666666666666666666666666666666666666666666666666666666eeeeeree66666666rreetyyy666666666666666666666666>>>>>>>>66666666",
"6666666666666666666666666666666666666666666666666666666666666666eeeeeeee66666666rrttrryy666666666666666666666666>>>>>>>>66666666",
"6666666666666666666666666666666666666666666666666666666666666666eeeeeeee66666666rrttttyy666666666666666666666666>>>>>>>>66666666",
"6666666666666666eeeeeeee66666666666666666666666666666666yyyyeeee66666666eeeeeeee666666666666666666666666>111>>>>66666666>>>>>>>>",
"6666666666666666eeeeeeee66666666666666666666666666666666yyyyeeee66666666eeeeeeee666666666666666666666666>><,>>>>66666666>>>>>>>>",
"6666666666666666eeeeeeee66666666666666666666666666666666tryteeee66666666eeeeeeee666666666666666666666666>><<>>>>66666666>>>>>>>>",
"6666666666666666eeeeeerr66666666666666666666666666666666trrteeee66666666eeeeeeee666666666666666666666666>>>>>>>>66666666>>>>>>>>",
"6666666666666666eeeetttr66666666666666666666666666666666tteeeeee66666666eeeeeeee666666666666666666666666>>>>>>>>666666661>>>>>>>",
"6666666666666666eeeetytr66666666666666666666666666666666tteeeeee66666666eeeeeeee666666666666666666666666>>>>>>>>666666661>>>>>>>",
"6666666666666666eeeeyyyy66666666666666666666666666666666rrreeeee66666666eeeeeeee666666666666666666666666>>>>>>>>66666666,<>>>>>>",
"6666666666666666eeeeyyyy66666666666666666666666666666666rrrreeee66666666eeeeeeee666666666666666666666666>>>>>>>>66666666>>>>>>>>",
"66666666eeeeeeee66666666666666666666666666666666eeeeeeee66666666eereeeee6666666666666666666666666666666666666666>>>>>>>>66666666",
"66666666eeeeeeee66666666666666666666666666666666eeeeeeee66666666eetteeee6666666666666666666666666666666666666666>>>>>>>>66666666",
"66666666eeeeeeee66666666666666666666666666666666eeeeeeee66666666eyyteeee6666666666666666666666666666666666666666>>>>>>>>66666666",
"66666666eeeeeeee66666666666666666666666666666666eeeeeeee66666666yytteeee6666666666666666666666666666666666666666>>>>>>>>66666666",
"66666666eeeeeeee66666666666666666666666666666666eeeeeeee66666666eeeeeeee6666666666666666666666666666666666666666>>>>>>>>66666666",
"66666666eeeertee66666666666666666666666666666666eeeeeeee66666666eeeeeeee6666666666666666666666666666666666666666>>>>>>>>66666666",
"66666666eeeettty66666666666666666666666666666666eeeeeeye66666666eeeeeeee6666666666666666666666666666666666666666>>>>>>>>66666666",
"66666666eeeettte66666666666666666666666666666666eeeertte66666666eeeeeeee6666666666666666666666666666666666666666>>>>>>>>66666666",
"eeeeeeee666666666666666666666666666666666666666688666666666666666666666666666666666666666666666666666666>>>>>>>>6666666666666666",
"eeeeeeee666666666666666666666666666666666666666666666666666666666666666666666666666666666666666666666666>>>>>>>>6666666666666666",
"eeeeeeee666666666666666666666666666666666666666666666666666666666666666666666666666666666666666666666666>>>>>>>>6666666666666666",
"eeeeeeee666666666666666666666666666666666666666666666666666666666666666666666666666666666666666666666666>>>>>>>>6666666666666666",
"eeeeeeee666666666666666666666666666666666666666666666666666666666666666666666666666666666666666666666666<<<>>>>>6666666666666666",
"eeeeeeee666666666666666666666666666666666666666666666666666666666666666666666666666666666666666666666666,1>>>>>>6666666666666666",
"eeeeeeee66666666666666666666666666666666666666666666666666666666666666666666666666666666666666666666666611>>>>>>6666666666666666",
"eeeeeeee6666666666666666666666666666666666666666666666666666666666666666666666666666666666666666666666661>>>>>>>6666666666666666",
"666666666666666666666666666666666666666611>>>>>>66666666>>>>>>>>6666666666666666666666666666666666666666666666666666666666666666",
"666666666666666666666666666666666666666611>>>>>>66666666>>>>>>>>6666666666666666666666666666666666666666666666666666666666666666",
"6666666666666666666666666666666666666666>,,>>>>>66666666>>>>>>>>6666666666666666666666666666666666666666666666666666666666666666",
"6666666666666666666666666666666666666666,,,<>>>>666666661>>>>>>>6666666666666666666666666666666666666666666666666666666666666666",
"6666666666666666666666666666666666666666>>>>>>>>66666666>,><>>>>6666666666666666666666666666666666666666666666666666666666666666",
"6666666666666666666666666666666666666666>>>>>>>>66666666<,>>>>>>6666666666666666666666666666666666666666666666666666666666666666",
"6666666666666666666666666666666666666666>>>>>>>>66666666>>>>>>>>6666666666666666666666666666666666666666666666666666666666666666",
"6666666666666666666666666666666666666666>>>>>>>>66666666>>>>>>>>6666666666666666666666666666666666666666666666666666666666666666",
"66666666666666666666666666666666>>>>>>>>66666666>>>>>>>>66666666666666666666666611<<>>>>6666666666666666666666666666666666666666",
"666666666666666666666666666666661>>>>>>>66666666>>>>>>>>66666666666666666666666611<<>>>>6666666666666666666666666666666666666666",
"666666666666666666666666666666661,>>>>>>66666666>>>>>>>>66666666666666666666666611,,>>>>6666666666666666666666666666666666666666",
"66666666666666666666666666666666><>>>>>>66666666>>>>>>>>66666666666666666666666611,,>>>>6666666666666666666666666666666666666666",
"66666666666666666666666666666666>>>>>>>>66666666<<<><<11666666666666666666666666>>>>>>>>6666666666666666666666666666666666666666",
"66666666666666666666666666666666>>>>>>>>66666666<<<><,,1666666O+++OOOOOO++666666>>>>>>>>6666666666666666666666666666666666666666",
"66666666666666666666666666666666>>>>>>>>66666666,,,,<<1166+++OO$*%$$-isj$++66666>>>>>>>>6666666666666666666666666666666666666666",
"66666666666666666666666666666666>>>>>>>>66666666,,,11<116+++OO$$$&$$-sjk$$+66666>>>>>>>>6666666666666666666666666666666666666666",
"666666666666666666666666<>>>>>>>66666666>>>>>>>>666666++++%$$Ojkkj$kksiO$$*O 6666666666666666666666666666666666666666666yytrtttt",
"666666666666666666666666,>>>>>>>66666666>>>>>>>>666+++OOO$$&*Osjjjskki-O$$*+ 6666666666666666666666666666666666666666666yyttttrr",
"666666666666666666666666>>>>>>>>66666666>>>>>>>>666+OO$$$$$$%*%$Oskkk$$$$$$O 6666666666666666666666666666666666666666666yyrreerr",
"666666666666666666666666>>><>>>>66666666>>>>>>>>6+O$*$&&$$$$%OjkkjiiskkkO*$O 6666666666666666666666666666666666666666666yyrrerrr",
"666666666666666666666666>>>,,,1166666666>>>><<,16OO$*$$$$$$$$OjkkjOOpkkkO#*  6666666666666666666666666666666666666666666eeeeeeee",
"666666666666666666666666>>>>,11166666666>>>>><,1+O*$$$$$$$$$$$$$$$$*$$****O  6666666666666666666666666666666666666666666eeeeeeee",
"666666666666666666666666>><<,,1166666666>>>>>>  O+$$$$$$$$$$$$++OO+OOOOO##O  6666666666666666666666666666666666666666666eeeeeeee",
"666666666666666666666666<<<,,,1166666666>>>>>>  ++$$$$$$$$$$$$O         ##O666666666666666666666666666666666666666666666eeeeeeee",
"66666666666666666666666666666666>>>>>>>>666666  +##&%%$**O   O;4;4hhh45w4; 666666666666666666666eeeeeeee66666666yyeeeeee66666666",
"66666666666666666666666666666666>>>>>>>>666666  ++##**OO%;4422444dhhhdd5;; 666666666666666666666eeereeee66666666yeeeeeee66666666",
"66666666666666666666666666666666>>>>>>>>666666  ####OO  +4wwww2;hhhhhhd4  6666666666666666666666ettreeee66666666treeeeee66666666",
"66666666666666666666666666666666>>>>>>>>66666666   #O ;45544;;dhhhhhhdd4  6666666666666666666666yytreeee66666666rreeeeee66666666",
"66666666666666666666666666666666>>>>>>>>66666666   ##&;4w52;;;dhhhhhhff4##6666666666666666666666eeeeeeee66666666eeeeeeee66666666",
"66666666666666666666666666666666>>>>>>>>66666666666 &4;;;4h22dhhhhhdfajh:;6666666666666666666666eeeeeeee66666666eeeeeeee66666666",
"666666666666666666666666666666661>>>>>>>66666666666 &;4g;4hsshddhhhdf-jk*%6;;6666666666666666666eeeeeeee66666666eeeeeeee66666666",
"66666666666666666666666666666666,<>>>>>>6666666666666;gh;4hsskj2hhhdf jk+#6;;6666666666666666666eeeeeeee66666666eeeeeeee66666666",
"666666666666666666666666666666666666666666666666666;;4dhwdh;ikhhhhhhh4dd ;2;;66666666666reeeeeee66666666eeeeeeee66666666>><<>>>>",
"666666666666666666666666666666666666666666666666662225dddhh4ihhhhhfff;4d$;2;;66666666666reeeeeee66666666eeeeeeee66666666>><,>>>>",
"666666666666666666666666666666666666666666666666622qww54hhh444ghhfu---4f;;4;;66666666666eeyteeee66666666eeeeeeee6666666611>,>>>>",
"6666666666666666666666666666666666666666666666666;;qqqqq224w5$;iuiiui--;444;;66666666666eeereeee66666666eeeeeeee66666666111>>>>>",
"6666666666666666666666666666666666666666666666666;;wqqqw322w5 *--iiii-& 222:;66666666666eeeeeeee66666666eeeeeeee66666666>>>>>>>>",
"6666666666666666666666666666666666666666666666666  5qqqqwwww5 -piiiiii- 22;6666666666666eeeeeeee66666666eeeeeeee66666666>>>>>>>>",
"66666666666666666666666666666666666666666666666666 ;4wwww522:#--iiiii--&;;:6666666666666eeeeeeee66666666eeeeeeee66666666>>>>>>>>",
"666666666666666666666666666666666666666666666666666 ;qqww4   +*-iiiii &;;;66666666666666eeeeeeee66666666eeeeeeee66666666>>>>>>>>",
"66666666>>>>>>>>666666666666666666666666eeeeeeee66666    O**%$OO     66666666666eeeeeeee66666666eeeeeeee66666666>>>>>>>>66666666",
"66666666>>>>>>>>666666666666666666666666eeeeeeee66666   ++%OO$+#OO   66666666666eeeeeeee66666666eeeeeeee66666666>>>>>>>>66666666",
"66666666>>>>>>>>666666666666666666666666eeeeeeee666666O+$$O  O***+ 6666666666666eeeeeeee66666666eeeeeeee66666666>>>>>>>>66666666",
"66666666>>>>>>>>666666666666666666666666eeeeeeee666666++$$%$*%OOO  6666666666666eeeeeeee66666666eeeeeeee66666666>>>>>>>>66666666",
"66666666>>>>,111666666666666666666666666eeeerttt666666+O%%$$%%*O   *666666666666eeeettyy66666666eeeeeere66666666>>>>>>>>66666666",
"66666666>>>>,11>666666666666666666666666eeeerttt660666OOOO+++-%%#O --66666666666ereettyr66666666eeeeeett66666666>>>>>>>>66666666",
"66666666>>><,,>>666666666666666666666666eeeerryy00666 O+%----$*-+O##%-$++$-+  66rrttytyy66666666eeeeeeyy66666666>>>>>>>>66666666",
"66666666>>><<,>>666666666666666666666666eeeeeeyy66666 ++--ppp+*-+#*OO-$++$-O   6rrrtttyy66666666eeeeeeyy66666666>>>>>>>166666666",
"66666666666666666666666666666666eeeeeeee6666666666666 ##iiiii-%O++%##-----=++%$6666666666666666666666666666666666666666666666666",
"66666666666666666666666666666666eeeeeeee66666666666  ###iiiii-%O***--%----=%%%++ 66666666666666666666666666666666666666666666666",
"66666666666666666666666666666666yyeeeeee66666666666 O*##iiiiii-#-%Oaa %-----=+++  6666666666666666666666666666666666666666666666",
"66666666666666666666666666666666yyrreeee66666666666 +*##iiiiip-#-*#ss %----*+*$$O+6666666666666666666666666666666666666666666666",
"66666666666666666666666666666666tteeeeee66666666666  &++iiiiii-#-*+ss %----+O$$$++6666666666666666666666666666666666666666666666",
"66666666666666666666666666666666rteeeeee66666666666  +++iiiiii-#**+aa OOO*-#O$$$+O   O*-6666666666666666666666666666666666666666",
"66666666666666666666666666666666rrreeeee6666666666 O#&O+-iiiii- %%+ss  O O$$*%&$++OOO$*%OOO6666686666666666666666666666666666666",
"66666666666666666666666666666666rreeeeee666666666  **&OO--iiii- $%+jj  6 O$$$%%%#+$%*$$%+++6666666666666666666666666666666666666",
"666666666666666666666666eeeeeeee66666666666666666   O%%%%-iiii- Opj- 666     O  &&*OO**%&$-O+66666666666666666666666666666666666",
"666666666666666666666666eeeeeeee666666666666666666 O+OOOO-iiii- Ops- 666     O  #&*+O%%%&;;*++6666666666666666666666666666666666",
"666666666666666666666666eeeeeeee6666666666666666666$*    O-iii- *# 66666,,11,,<1 #*O#%#OO;5;O+O666666666666666666666666666666666",
"666666666666666666666666eeeeeeee6666666666666666++$ippii #-iiiii#O666666,,,1,111 ##***#Os45;%66666666666666666666666666666666666",
"666666666666666666666666eeeeeeee6666666666666666+$-iiiii#*-piiii#O666666<<1,<<1,  #*%%--jgf;$66666666666666666666666666666666666",
"666666666666666666666666eeeerree66666666666666$$+-iiiiii-*#piiiiOO666666       1666*%%iskkks;66666666666666666666666666666666666",
"666666666666666666666666eeeetryy6666666666666 $$%$-iiiiii-#piiii++6+####**%  #  666#%%isjjsi;66666666666666666666666666666666666",
"666666666666666666666666eeeettty6666666666666 +$%%#iiiiii-#iiiii++6+####---O #  666OO*issi$6666666666666666666666666666666666666",
"6666666666666666eeeeeeee6666666666666666966++ +***$O+ -pi- #*iii   ++------# ###  6#######*6666666666666>>>>>>>>>>>>>>>>66666666",
"6666666666666666eeeeeeee666666666666666666----*#%%$%+O---- ##---#++++-----*#####  ########*6666666666666>>>>>>>>>>>>>>>>66666666",
"6666666666666666ttyyeeee66666666666666666--iii- %*%%%%O   #     %%*++----* #####  ###6666666666666666666>>>>>>>>>>>>>>>>66666666",
"6666666666666666rtyyeeee6666666666666666--iiiiiiO++%$%**## #%%%%%%*++----* #####  ####  6666666666666666>>><>>>>>>>>>>>>66666666",
"6666666666666666rreeeeee6666666666666666--iiiiii**O*$%$$O+ *$%%*$$$O#----* O####  ####  6666666666666666>>>>>>>>>>>>>>>>66666666",
"6666666666666666ereeeeee6666666666666666--iiiiiiip-OO*OO*+ *$%%*$$*+#---  ######  ####  6666666666666666>>>>>>>>>>>>>>>>66666666",
"6666666666666666eeeeeeee6666666666666666--iipiiiiii--++ O+*OO*&***O+#-*+++###   ######  6666666666666666>>>>>>>>>>>>>>>>66666666",
"6666666666666666eeeeeeee6666666666666666--iiiiiiiiiipO   #-OO%&&*O O#-# ++O##   ######  6666666666666666>>>><,>>>>>>>>>>66666666",
"11>>>>>>66666666666666666666666666666666--iiiiiiiiiii-*#---#+    O*O #       6  ######    6666661111>>>>>>>>>>>>6666666666666666",
"11>>>>>>66666666666666666666666666666666--iiiiiiiiiip-*#---*+ ++##*O #       6  #######   66666611,1>>>>>>>><,>>6666666666666666",
",,>>>>>>666666666666666666666666666666666--iiiiiiiiiii-#=---- O**%%O 666666666  ########  666666<<,,>>>>>>>>>>>>6666666666666666",
",,,,>>>>666666666666666666666666666666666#Oiiiiiiiiiiiii+%---OOO%%%$O  6666666  ########  666666<,,,>>>>>>>>>>>>6666666666666666",
",<>>>>>>666666666666666666666666666666666#+piiiiiiiiiiii+%--%+  $$$$*  6666666  ########  666666<<>>>>>>>>>>>>>>6666666666666666",
"<<>>>>>>66666666666666666666666666666666666#%iiiiiiiiiii-%+++e  $$$&*  666666666  ######## 66666<<>>>><>>>>>>>>>6666666666666666",
"<>>>>>>>66666666666666666666666666+++O66666+*-iiiiiiiiiip-+++e++OO%%%## 06666666   ########66666<>>>>>>>>>>>>>>>6666666666666666",
"<>>>>>>>6666666666666666666666666+++OO+666666 -piiiiiiiip-+eee*% O%*%%# 666666666  ########66666>>>>>>>>>>>>>>>>6666666666666666",
"66666666666666666666666666666666++&***OO666666  iiiiiiiiiii% 6  +O**%%%&OO666666666  ######  66666666666666666666666666666666666",
"66666666666666666666666666666666+O&&%%*O#O   6  -iiiiiiiiii% 6  +*%*%%&&+O666 ###66  ######  66666666666666666666666666666666666",
"66666606666666666666666666666666OO$$%$$$##   666 -iiiiiiiii%#6  %*%%*%+++#666 ####666 #####  66666666666666666666666666666666666",
"666666666666666666666666666666  $$$$$$$$%****O  OO$$-iiiiipp-   OO&%**+ +#666 ####   6  ###  66666666666666666666666666666666666",
"666666666666666666666666666666  %%%&%*&&%%&$$OOOO+OO$ppiiiiii    O&&**+ ##66  ####   6  ###  66666666666666666666666666666666666",
"666666666666666666666666666666  **&&%**&&%&%%*$$++ *$+  iiiip##6 O&+#*O 666  ########   ###  66666666666666666666666666666666666",
"666666666666666666666666666666O+&*++OO##O**%$$$$%# *%$+O---ii--  ++ #%O 606  ###########     66666666666066660666666666666666666",
"666666666666666666666666666666++&&#++O  OO*%$$$$%# *%%**OO iip-   + #%O 666  ###########   6666666666666666666666666666666666666",
"66666606666666666666666666666 O$###    61   #*%%%%*##%%%&&&O*i- 6  &&  6666  ######     ###  66666666666666666666666666666666666",
"66666606666666666666666666666 O$++#     ,1   OO#$$*OO*%%&%$$%-*    ## 66666  +#####     ###  66666666666666666666666666666666666",
"66667900666666666666666666666 OO   O##  <1111   $**# +$$%%%*$O       66066666    X #######+  66666666666666666666666666666666666",
"66667960666666666666666666666 +++++O##  ,,11,11<OOO#*OOO#%%*$$OO  66666666666666660         666666666666666666666666666666666666",
"66667888666666666666666666666 ++O++O+O  ,,<<1<<<   +*O#O+#***&##  66666666666666666        6666666666666666666666666666666666666",
"66667888666666666666666666666666       6,,<<,,<<666   ++OO##O#  6666066666666666666666666666666606666666666666666666666666666666",
"66666686666666666666666606666666      66>><<,,11666             6666666666666666666666666666666666666666666666666666666666666666",
"6666666666666666666666666666666666666666>>>>,111666666         66666666666666666666666666666666666666666666666666666666666666666"
};
