/* XPM */
static char *enemy_091755719828[] = {
/* columns rows colors chars-per-pixel */
"128 128 43 1 ",
"  c #010100",
". c #000001",
"X c #292128",
"o c #292029",
"O c #282129",
"+ c #292129",
"@ c #423A42",
"# c #433A42",
"$ c #423B42",
"% c #433A43",
"& c #4A4A5A",
"* c #4A4B5A",
"= c #4A4A5B",
"- c #7B4A5A",
"; c #7B4B5A",
": c #906858",
"> c #916858",
", c #906958",
"< c #906859",
"1 c #BD735A",
"2 c #D64A52",
"3 c #A88868",
"4 c #A98868",
"5 c #A88968",
"6 c #A98968",
"7 c #A88869",
"8 c #F78442",
"9 c #C8A878",
"0 c #C9A878",
"q c #C8A978",
"w c #C8A879",
"e c #737A84",
"r c #727B84",
"t c #737B84",
"y c #737B85",
"u c #4A9CB5",
"i c #4B9CB5",
"p c #8C9CAD",
"a c #DEAC84",
"s c #DEAD84",
"d c #FFD6BD",
"f c #FFD7BD",
"g c #FEFFFF",
/* pixels */
"3333333333333333333333333333333333333333333333333333333333333333999999w93333333399999999333333333333333333333333::::::::33333333",
"3333333333333333333333333333333333333333333333333333333333333333999999993333333399999999333333333333333333333333:,::::::33333333",
"3333333333333333333333333333333333333333333333333333333333333333999999993333333399999999333333333333333333333333::::::::33333333",
"3333333333333333333333333333333333333333333333333333333333333333999999993333333399999999333333333333333333333333::::::::33333333",
"33333333333333333333333333333333333333333333333333333333333333339999999933333333w9990000333333333333333333333333::::::::33333333",
"33333333333333333333333333333333333333333333333333333333333333339999999933333333ww99qq00333333333333333333333333::::::::33333333",
"33333333333333333333333333333333333333333333333333333333333333339999999933333333wwqqww00333333333333333333333333::::::::33333333",
"33333333333333333333333333333333333333333333333333333333333333339999999933333333wqqqww00333333333333333333333333::::::::33333333",
"33333333333333339999999933333333333333333333333333333333000qw99933333333qq999999333333333333333333333333::::::::33333333::::::::",
"3333333333333333999999993333333333333333333333333333333300qqww9933333333q0999w99333333333333333333333333::::::::33333333::::::::",
"3333333333333333999999993333333333333333333333333333333399wwww0033333333w9999999333333333333333333333333::::::::33333333::::::::",
"3333333333333333999999ww33333333333333333333333333333333999www003333333399999999333333333333333333333333::::::::33333333::::::::",
"33333333333333339999qqqw3333333333333333333333333333333399w999003333333399999999333333333333333333333333::::::::33333333,:::::::",
"33333333333333339999qqww33333333333333333333333333333333999999q03333333399999999333333333333333333333333::::::::33333333::::::::",
"333333333333333399990q00333333333333333333333333333333339999w9993333333399999999333333333333333333333333::::::::33333333::::::::",
"33333333333333339999000033333333333333333333333333333333999999993333333399999999333333333333333333333333::::::::33333333::::::::",
"3333333399999999333333333333333333333333333333339999999933333333999999993333333333333333333333333333333333333333,::::,,:33333333",
"3333333399999999333333333333333333333333333333339999999933333333999999993333333333333333333333333333333333333333::::::::33333333",
"333333339999999933333333333333333333333333333333999999993333333399999wq93333333333333333333333333333333333333333::::::::33333333",
"33333333999999993333333333333333333333333333333399999999333333339999900q3333333333333333333333333333333333333333::::::::33333333",
"3333333399999999333333333333333333333333333333339999999933333333999999993333333333333333333333333333334333333333::::::::33333333",
"333333339999wq99333333333333333333333333333333339999999933333333999999993333333333333333333333333333334733333333::::::::33333333",
"333333339999q0qq333333333333333333333333333333339999999933333333999999993333333333333333333333333333333333333333::::::::33333333",
"333333339999qqqq333333333333333333333333333333339999999933333333999999993333333333333333333333333373333333333333::::::::33333333",
"9999qw99333333333333333333333333333333333333333333333333333333333333333333333333333333333333333333333333::::::::3333333333333333",
"999900993333333333333333333333333333333333+++oXX++OX+333333333333333333333333333333333333333333333333333::::::::3333333333333333",
"99999w99333333333333333333333333333333333+X+++XX+X+X+333773333333333333333333333333333333333333333333333::::::::3333333333333333",
"99999999333333333333333333333333333333+++pgpr%@@%%%%%+    3333333333333333333333333333333333333333333333::::::::3333333333333333",
"99999999333333333333333333333333333333XX+pgppr&@rrr&%XO+XX3333333333333333333333333333333333333333333333::::::,,3333633333333333",
"9999999933333333333333333333333333333X%@%%Xppgp@gggr+%%%@$X  3333333333333333333333333333333333333333333:::::::,3333333333333333",
"9999999933333333333333333333333333333X@@##%rpgddppp&@$%@@$%+++333333333333333333333333333333333333333333::::::,,3333333333333333",
"9999999933333333333333333333333333333O@@##@%rggg@@@$@$$@@%%%%+O33333333333333333333333333333333333333333::::::,,3333333333333333",
"3333333333333333333333333333333333333O%@XpgggOOOgggrX%@@@@@@@@X 3333333333333333333333333333333333333333333333333333333333333333",
"3333333333333333333333333333333333333O%%XrddpO++dddr@@@@@@@@@@XX 333333333333333333333333333333333333333333333333333333333333333",
"3333333333333333333333333333333333333O%%%%%@%%%%%%@%@@@$@@@@@@@$  73333333333333333333333333333333333333333333333333333333333333",
"33333333333333333333333333333333333333%%XXXXX+XXXXX%@@$$@@@@@@@$%+ 3333333333333333333333333333333333333333333333333333333333333",
"33333333333333333333333333333333333333%%-;$;-X%--%%%%%%%@@%%%%%@%+ 7333333333333333333333333333333333333333333333333333333333333",
"33333333333333333333333333333333333333  da188-2882-X    XX+%%%%%++ 7333333333333333333333333333333333333333333333333333333333333",
"33333333333333333333333333333333333333  ddaaaaa221-11-1a   +XOO+++ 7333333333333333333333333333333333333333333333333333333333333",
"33333333333333333333333333333333333333  dddddda111-881sd   +OOO+++ 7333333333333333333333333333333333333333333333333333333333333",
"33333333333333333333333333333333::::::::11-ddfdddddddddddd8;.OOO  33333333333333::::::::3333333333333333333333333333333333333333",
"33333333333333333333333333333333::::::::111aaddddddddaaadd8;;OOO  33333333333333::::::::3333333333333333333333333333333333333333",
"33333333333333333333333333333333::::::::-1dppdddddddd---dd811.  7773333333333333::::::::3333333333333333333333333333333333333333",
"33333333333333333333333333333333::::::::-pgrrdddda1dguy1ds1aa. 77733333333333333::::::::3333333333333333333333333333333333333333",
"33333333333333333333333333333333::::::::-pgr-dddda1ggir1ds1da  73333333333333333::::::::7733333333333333333333333333333333333333",
"33333333333333333333333333333333::::::::%-a11ddddddgg.1sdddda  73333333333333333::::::::7733333333333333333333333333333333333333",
"33333333333333333333333333333+OO  ::::,,X1d1;aaadddddssdddds1 373333333333333333::::<<    33333333333333333333333333333333333333",
"33333333333333333333333333333OOX  ::::,, 1fr*rrrddddddddddd- 3373333333333333333::::<<    33333333333333333333333333333333363333",
"333333333333333333333333>>>++&%%++777333:  &&rtttt&&tddd-%   ++7333333333333333333333 +%X+   77733333333333333333333333300www0qq",
"333333333333333333333333++ ++%%%%+ 73333%X &rrtttt&&taaa%% ++++ 333333333333333333337 X%+++++ 7733333333333333333333333300www0qq",
"333333333333333333333333++    %&&% 73333%X rryyettttt&&&   %%%+ 333333333333333333337 +% +&&&  733333333333333333333333300qwwwqq",
"333333333333333333333333+%&#%+%&+  733++%&r%&reetttttr&+%+  +++%333333333XX33333333+%-111-+%%+  33333333333333333333333300qqwwww",
"333333333333333333333333++*#%X%&  + 33%%&&r%%rrreerrtr&+%X+  %%&333333333&##3333333%--121-X%%X+ 3333333333333333333333339999w999",
"3333333333333333333333++   *&&%X +%+ 7rrr& %% @*ter%  +% X%X%trtrr%%%3ttrtt%X+++%+ 12222+%&&&&+ 33333333333333333333333399999999",
"3333333333333333333333++X##&+*%X+++ X&rr&%X%%X@@&&&%++++X%%&&rttret&&tttrrtt&%++++o12211dp+%&&%X33333333333333333333333399999999",
"3333333333333333333333++##*++*%X%%+ +&rr X%%%X@@   %%+  #%%erreeeet&&tttrrttt%+++o%1221-gd %%&@@33333333333333333333333399999999",
"333333333333333333337 +X  +&& +%%%Xreett +%%@@XO   OX%@$@@Xrrryettttttttttr&##XXoo.12;dg--&&==O.9q999999333333330099999933333333",
"333333333333333333337 XX+X+%% +%%%Oreytt +%%@@@X  .O@@@$@@X&&ryyttttttttttr&##+XOO.12;dg--%%%=O.qq999999333333330q99999933333333",
"333333333333333333337 ++%+   X@@+X%ryy&& X%%@@@@++O%%@%%%%%X%rrrttetttrttt#%%+++OO 12;dg-&+++&+ qw999999333333330099999933333333",
"333333333333333333337 ++%%%%@XXX &rrr&rr X@@@@@@%+++X%%+X++  %&rtttee%&rtt#X++++OOO%;;ppgp %&&+ q0999999333333339w99999933333333",
"333333333333333333333 .+%%%%%XXX &yee&&r +%%%%@@%%O++%&&&&&X  =rtrryr%&rr&%++++++++.+-rpgp %=&+ 99999999333333339999999933333333",
"333333333333333333333 ..@@%+X%## &yyte& 7  %%%@@%%%O+ ruuuu&  ++   err& XX%++++++++       7    799999999333333339999999933333333",
"333333333333333333333  .X+++X+&# &rrt&% 7  +%@$@%$$O-ddduurrr +++  &rr& O++++++++++++    37   3399999999333333339999999933333333",
"3333333333333333333333 .   %%%&# =rrt+  7  +X%$@$$$+rgggur%uu ++++ 43333+++++X+++++++7337377333399999999333333339999999933333333",
"3333333333333333333377  %%%%%%+ r&+  333377 X@@@$$%X&uuuiiu&+ ++++ 733333+++++++33333333q0w99999333333339999999933333333::::::::",
"3333333333333333333377  X++++++ &&+  333377 X@@@@@@@&rppuur&+ ++++ 7333333++++++33333333qq999999333333339999999933333333::::::::",
"333333333333333333333333          337733333 X@%@@@%%%+dgur+%% ++%+ 73333333333333333333399999999333333339999999933333333::::::::",
"3333333333333333333333333777773377333333333 O@$$@@%%%+dguiu=%   %%+73333333333333333333399999999333333339999999933333333::::::::",
"3333333333333333333333333333333373333333333 +%%$@@@@%+pguiu&%X  %%XX663333333333333333339999999933333333999999w033333333::::::::",
"3333333333333333333333333333333373333333337 +%%%@@@@%   ur++X@O %%&+ 63333333333333333339999999933333333999999w033333333::::::::",
"3333333333333333333333333333333333333333337 O+%%@@@@% ++r=  X@%XX%%++ 3333333333333333339999999933333333999999qq33333333::::::::",
"333333333333333333333333333333333333333333373+%%@@@$% +%%O. X@@@XX%+#  3333333333333333399999999333333339999999933333333::::::::",
"33333333::::::::333333333333333333333333999999..@@@@@@X @@@@@@@@%%O%%  73333333399999999333333339999999933333333::::::::33333333",
"33333333::::::::333333333333333333333333999999  @@@@@@+ %%@@@@@@%++%%  73333333399999999333333339999999933333333::::::::33333333",
"33333333::::::::333333333333333333333333999w99  @@@$@%++%$$$@@@@%X %%  73333333399999999333333339999999933333333::::::::33333333",
"33333333::::::::33333333333333333333333399wq99  @@@@@%%%+$$%@@@@%X ++%+ 3333333399999999333333339999999933333333::::::::33333333",
"33333333::::::::333333333333333333333333999999  @@@@$@@@++$%##+%%X O+%X 33333333999900qq333333339999999933333333::::::::33333333",
"33333333::::::::33333333333333333333333399999w+X@@@@$@@@ +$%##&%XXO%%%+ 3333333399990qqq333333339999999933333333::::::::33333333",
"33333333::::::::33333333333333333333333399999 O%X%@@@@@@ +$$##%X$@%%%%+ 333333339999w9qq333333339999999933333333::::::<<33333333",
"33333333::::::::333333333333333333333333999ww X@XX@@@@@@ X$###XX$@@%%$+ 333333339999999q333333339999999933333333:::::<<<33333333",
"333333333333333333333333333333339qqq999933333 +%$$XOO+       O%%$@%+   733333333333333333333333333333333333333333333333333333333",
"333333333333333333333333333333339q00999933333 +%$%XX++O ++ +XX%%%X+  +++33333333333333333333333333333333333333333333333333333333",
"3333333333333333333333333333333399ww999933333 +%%%$$%%XX%+.%%$%%XX  +&%+33333333333333333333333333333333333333333333333333333333",
"3333333333333333333333333333333399999999333&&&&rXXX#%X%%++%+X@@%**&&&&%+33333333333333333333333333333333333333333333333333333333",
"3333333333333333333333333333333399999999333&&&rr####%%%%++%++%%%&&&&&&%+33333333333333333333333333333333333333333333333333333333",
"33333333333333333333333333333333999999993&&trrertte#%r&         &&ttrr&&++333333333333333333333333333333333333333333333333333333",
"3333333333333333333333333333333399999999+&tttteettr&&rt&%++%%%%%ttttyrrr&&+33333333333333333333333633333333333333333333333333333",
"3333333333333333333333333333333399999999+&tttttttterrrtt=%+&&&&&tteeerrrr&+33333333333333333333333333333333333333333333333333333",
"3333333333333333333333339999999933333XXXtttttttttttttt&&&&&&&+&rttttttttttt%X++,333333333333333333333333333333333333333333333333",
"3333333333333333333333339999999933++OX%&ttettttttttttt&&%%%%%+&rttttttttttt&&X+,333333333333333333333333333333333333333333333333",
"333333333333333333333333999999993++++ &rttttttttetyrt&&&X+    &rttttttttttttt%%,333333333333333333333333333333333333333333333333",
"33333333333333333333333399999999+%&&&&@%%&tttttteeyrt+++333377%%tttttttttttter&X333333333333333333333333333333333333333333333333",
"3333333333333333333333339999999w+%&&&&@X+&ttttttrrrr&+  333333++tteetttttttttt&%337333333333333333333333333333333333333333333333",
"333333333333333333333333999999OO%%@&&&&&&% ttttt++   33333333333 &eetttttttttttt++7733333333333333333333333333333333333333333333",
"3333333333333333333333339999w9XX@@@$@@$$%%X&&&&&++   73333333333 &&rttttttttt&&&   733333333333333333333333333333333333333333333",
"3333333333333333333333339999qqOX@@@@$$$@@%%+X%++37737733333333333%%rttttttttt+++   733333333333333333336333333333333333333333333",
"333333333333333300009999333333++@$$@@@@@@@@@%  73333333333333333333#&erreerrr%%%XX+  3373333333333333333::::::::::::::::44333333",
"333333333333333300q09999333333++@%@@@@@@@@@X+ 773333333333333333333%&rrrer&&&%%%X++  3373333333333333333::::::::::::::::37333333",
"333333333333333399qq9999333333++%%%%@@@@%%@X 733333333333333333333333%rre&XXX%++++X  7773333333333333333::::::::::::::::33333333",
"3333333333333333999w999933333333OX%%@@@@X+O  3333333333333333333333333&&%%@@%X+++++++  73333333333333333:::,::::::::::::33333333",
"33333333333333339999999933333333 +%%%%%%O+X  7333333333333333333333333%% +%%%++++++++  73333333333333333::::::::::::::::33333333",
"33333333333333339999999933333333        ++%X+333333333333333333333333333  +++++++++++  73333333333333333::::::::::::::::33333333",
"33333333333333339999999933333333OOXX++XX%@@X 733333333333333333333333377  +++++++++++  +3333333333333333::::::::::::::::33333333",
"33333333333333339999999933333333OX%%%%@@%%$X 733333333333333333333333337  +++++++++++ ++3333333333333333::::::::::::::::33333333",
",,,,::::444733333333333333333333 +%%%%@@+%%%%..3333333339999999933333333  ++XX+++++++ ++..333333,,::::::::::::::3333333333333333",
",,,,::::443733333333333333333333 ++%%%@@&$$%%..3333333339999999933333333  +++XX++++++ ++...33333,,,::,::::::::::3333333333333333",
"::,,::::3333333333333333333333337  %@$@@&#%%% .3333333339999999933333333737          +++...33333::::::::::::::::3333333333333333",
"::::::::3333333333333333333333337  %@$@@##%%% .3333333339999999933333333777373+++++++++++++..333::::::::::::::::3333333333333333",
"::::::::3333333333333333333333333  %$$######$  3333333339999999933333333333333+++++++++++++..333::::::::::::::::3333333333333333",
"::::::::333333333333333333333333337+X#####+X+  333333333999999993333333333333333  +++++++++..333::::::::::::::::3333333333333333",
"::::::::333333333333333333333333333 XX##XXXX+++333333333999999993333333333333333   ++++++++++.33:::::::::::::,,,3333333333333333",
"::::::::333333333333733333333333333  X#&+XXX+++333333333999999993333333333333333.  ++++++++++..3::::::::::::,,,,3333333333333333",
"33333333333333333333333333333333333333 .OOOO++++  ::::::333333333333333333333333333  +ooo++++..333333333333333333333333333333333",
"33333333333333333333333333333333333333  OOoo++++  ::::::333333333333333333333333333  +oOoo+++..333333333333333333333333333333333",
"33333333333333333333333333333333333333  ..oo++++  ,:::::333333333333333333333333337  OOO+++++..333333333333333333333336333333333",
"3333333333333333333333333333333333333O  %+oo++++++ :::::3333333333333333333333333333 .OO++++++..33333333333333333333333333333333",
"333333333333333333333333333333333333OX+ %%++++++++ <,:::33333333333333333333333333337 +++++++++.37773333333333333333333333333333",
"33333333333333333333333333333333333O+%+X####$+++++ <:,::33333333333333333333333333333333...+++++  373333333333333333333333333333",
"3333333333333333333333333333333333X@%%%@++++++++++ <,,,,33333333333333333333333333333333...++++++  73333333333333333333333333333",
"333333333333333333333333333333333XX@@%%%++++++++++ <,,,,333333333333333333333333333333333..+++++++ 33333333333333333333333333333",
"333333333333333333333333333333333++%%%%%%%%+     .33333333333333333333333333333333333333377  +%%%%%X 733333333333333333333333333",
"3333333333333333333333333333333333++XX++O++ .   ..33333333333333333333333333333333333333377  +%%XX+++ 33333333333333333333333333",
"33333333333333333333333333333333337        <><::3333333333333333333333333333333333333333337 +%%%   %%  7333333333333333333333333",
"3333333333333333333333333333333333333377<<<<<<::3333333333333333333333333333333333333333337  +OO%%%++  3333333333333333333333333",
"3333333333333333333333333333333333333333::::::::3333333333333333333333333333333333333333333 ....%%%O+  7333333333333333333333333",
"3333333333333333333333333333333333333333::::::::3333333333333333333333333333333333333333337 .OOO+++O+  7333333333333333333333333",
"3333333333333333333333333333333333333333::::<<<<3333333333333333333333333333333333333333337 ....   .  77333333333333777733333333",
"3333333333333333333333333333333333333333::::<<<>333333333333333333333333333333333333333333373....    377333333333333777766333333"
};
