/* XPM */
static char *enemy_131755718564[] = {
/* columns rows colors chars-per-pixel */
"128 128 47 1 ",
"  c #000100",
". c #212128",
"X c #212029",
"o c #202129",
"O c #212129",
"+ c #3A3A52",
"@ c #3B3A52",
"# c #3A3B52",
"$ c #3A3A53",
"% c #3A3B53",
"& c #634A42",
"* c #906858",
"= c #916858",
"- c #906958",
"; c #906859",
": c #A88868",
"> c #A98868",
", c #A98968",
"< c #A88869",
"1 c #AC8473",
"2 c #AD8473",
"3 c #B5A56A",
"4 c #B5A56B",
"5 c #C8A878",
"6 c #C9A878",
"7 c #C8A978",
"8 c #C8A879",
"9 c #DEA57B",
"0 c #285A94",
"q c #295A94",
"w c #295B94",
"e c #295A95",
"r c #7384A4",
"t c #7284A5",
"y c #7384A5",
"u c #5AA4DE",
"i c #5AA5DE",
"p c #5BA5DE",
"a c #E6DE9C",
"s c #FFD6BC",
"d c #FFD6BD",
"f c #B5BCD6",
"g c #B4BDD6",
"h c #B5BDD6",
"j c #B5BDD7",
"k c #EFEEFF",
"l c #EFEFFF",
/* pixels */
"::::::::::::::::::::::::::::::::::::::::::::::::::::::::::::::::7776555qqqeqqq::85555555::::::::::::::::::::::::*=--****::::::::",
"::::::::::::::::::::::::::::::::::::::::::::::::::::::::::::::eeeeeeq55qqqrrreq:86555555::::::::::::::::::::::::*=******::::::::",
"::::::::::::::::::::::::::::::::::::::::::::::::::::::::::::::eeqqeqq567qqiiirq:66555555::::::::::::::::::::::::********::::::::",
"::::::::::::::::::::::::::::::::::::::::::::::::::::::::::::e $$$$$$$eee$$rriir  5555555::::::::::::::::::::::::********::::::::",
":::::::::::::::::::::::::::::::::::::::::::::::::::::::::::eeXXX.....eee$$eeipp  6686677::::::::::::::::::::::::********::::::::",
"::::::::::::::::::::::::::::::::::::::::::::::::::::::::   4aaaa33aaa34 riiuepp  6886667::::::::::::::::::::::::********::::::::",
":::::::::::::::::::::::::::::::::::::::::::::::::::::e$ 444499aaaa9aaa93rqpirpp  6886677::::::::::::::::::::::::********::::::::",
":::::::::::::::::::::::::::::::::::::::::::::::::::::e@&aaaa449aaa39aaaa2$ppipp  8888677::::::::::::::::::::::::********::::::::",
"::::::::::::::::55555555:::::::::::::::::::::::::::  $2aaaaaaa944422244a2$iiiq 7::::::::::::::::::::::::*;;;****::::::::**;;=***",
"::::::::::::::::55555555::::::::::::::::::::::::::e$$.2a9999999aaa999aarrruuq$ 7::::::::::::::::::::::::**==****::::::::****-***",
"::::::::::::::::55555555::::::::::::::::::::::::,eeee.2a4434449dsdddddderuuu  77::::::::::::::::::::::::**--****::::::::********",
"::::::::::::::::55555555:::::::::::::::::::::::,qrpqe.&3aaa44addddddddd993ee 667::::,:::::::::::::::::::*---****::::::::********",
"::::::::::::::::55556888:::::::::::::::::::::::,wrueq$&3aaa94sdddddddddda9  6888::::::::::,:::::::::::::********::::::::-*******",
"::::::::::::::::55556688::::::::::::::::::::::qqiii$ 02aaa49ssddddddddddss  6855::::::::::::::::::::::::********::::::::***-****",
"::::::::::::::::55556677::::::::::::::::::::::eeipprr$&24449sssdddddddssss  5555::::::::::::::::::::::::********::::::::***=****",
"::::::::::::::::55557777::::::::::::::::::::::eeppppi$  4449ssssddddddssss  5555::::::::::::::::::::::::********::::::::********",
"::::::::55555555::::::::::::::::::::::::::::::$$uuiiprrrrr49s999ddssddd922  ::::::::::::::::::::::::::::::::::::*==-**=*::::::::",
"::::::::55555555::::::::::::::::::::::::::::::  ruiipppirr49a442ddssddd222,:::::::::::::::::::::::::::::::::::::;*****--::::::::",
"::::::::55555555:::::::::::::::::::::::::::::::: euipe$ aaa3$kg3tr29d994fk+#::::::::::::::::::::::::::::::::::::********::::::::",
"::::::::55555555::::::::::::::::::::::::::::::::6$eeepprjja3$lg&kg&rt&&&fk+#::::::::::::::::::::::::::::::::::::********::::::::",
"::::::::55558885::::::::::::::::::::::::::::::::8  eeppippa4$kg&kk$ee$$&fk$#::::::::::::::::::::::::::::::::::::********::::::::",
"::::::::55556688::::::::::::::::::::::::::::::::88 eeeewppjpurrerr24aa9$rr$,::::::::::::::::::::::::::::::::::::********::::::::",
"::::::::55556655::::::::::::::::::::::::::::::::55766 $errrrreee224adss&&#::::::::::::::::::::::::::::::::::::::********::::::::",
"::::::::55557775:::::::::::::::::::::::::::::::,58866777     uuussdddss92&::::::::::::::::::::::::::::::::::::::********::::::::",
"55555555:::::::::::::::::::::::::::::::::::::::::::::::::: &3ssssssds4492.::::::::::::::::::::::::::::::********::::::::::::::::",
"55558555::::::::::::::::::::::::::::::::::::::::::::::::,,$29sssssdds2292 ::::::::::::::::::::::::::::::********::::::::::::::::",
"57755855::::::::::::::::::::::::::::::::::::::::::::::::@$lg 9as9922299&&:::::::::::::::::::::::::::::::********::::::::::::::::",
"55685555::::::::::::::::::::::::::::::::::::::::::::::::@@lgr2999994399&&:::::::::::::::::::::::::::::::********::::::::::::::::",
"55555555::::::::::::::::::::::::::::::::::::::::::::::::%%kll.@&dds9999$$:::::::::::::::::::::::::::::::*******-::::::::::::::::",
"55555555::::::::::::::::::::::::::::::::::::::::::::::::rrlll.ep  2&& $gr$::::::::::::::::::::::::::::::*******-::::::::::::::::",
"55555555:::::::::::::::::::::::::::::::::::::::::::::$::rrhllrrree2reX$jrr$$$$$:::::::::::::::::::::::::******=-::::::::::::::::",
"55555555:::::::::::::::::::::::::::::::::::::::::::::$$:rrrgllh pperp$$jjj$$$$#:::::::::::::::::::::::::******;*::::::::::::::::",
"::::::::::::::::::::::::::::::::::::::::********:::###wrklrgllll$$.eq$@ghhhh$er   ::::::::::::::::::::::::::::::::::::::::::::::",
"::::::::::::::::::::::::::::::::::::::::***-****:::$#qrrllrgllll&& ew$@ghhhh&er$%&::::::::::::::::::::::::::::::::::::::::::::::",
"::::::::::::::::::::::::::::::::::::::::;;==****:::$#kkkllrgllllkk ri$$ rjghgr$rrk    ::::::::::::::::::::::::::::::::::::::::::",
"::::::::::::::::::::::::::::::::::::::::;;==****:::qqkkkllrgllllkkrrr$$ rhgjrwwrrg%err :::::::::::::::::::::::::::::::::::::::::",
"::::::::::::::::::::::::::::::::::::::::********:::rrlllllrjkklllllge@@ rjjh errr%yykr :::::::::::::::::::::::::::::::::::::::::",
"::::::::::::::::::::::::::::::::::::::::********:::$$lllllrglrrr$&llkew OOO&lr$.O OO%.             :::::::::::::::::::::::::::::",
"::::::::::::::::::::::::::::::::::::::::********:::$$lklllrglrrr$@llkeer&%&rlr$ryyyye@@rrr&@@@rr&&$:::::::::::::::::::::::::::::",
"::::::::::::::::::::::::::::::::::::::::********:::,,lkkllrrrgjhrrllk @khrgj$$rlkkkkgrgkkkggrhkkkgr ::::::::::::::::::::::::::::",
"::::::::::::::::::::::::::::::::********::::::::*****hgkllhhhhhhggkhhghhhhhh@@qlkkkhhrhlkkhhyhkkgrr.::::::::::::::::::::::::::::",
"::::::::::::::::::::::::::::::::********::::::::*****#gklllllrrrlllg@llrhgkk$@&hhhhhrhhhhhyyhhhgr$$$::::::::::::::::::::::::::::",
"::::::::::::::::::::::::::::::::********::::::::******rrllllllhr@@$glllrgg$$$hkhhhhhrhhhhhyyhhherhgke@::::::::::::::::::::::::::",
"::::::::::::::::::::::::::::::::********::::::::******rrllllllhrrrrglllrrr$$$hlhhhhhrhhhhhyyhhh@eggg&%::::::::::::::::::::::::::",
"::::::::::::::::::::::::::::::::********::::::::****==$$lllllrrrlllllllrw$  @hlhjjyyjhhhhyhhqqe@@   ::::::::::::::::::::::::::::",
"::::::::::::::::::::::::::::::::********::::::::****-=#$llhhlgghlllhhhhhr$.$ghhhhjyrhhhhgryyrr$yrgr.::::::::::::::::::::::::::::",
"::::::::::::::::::::::::::::::::********::::::::****--@$llrhlllllllhrrrlr$@wkhhhhhrrhhhhgrqqir@ghkh@::::::::::::::::::::::::::::",
"::::::::::::::::::::::::::::::::********::::::::******=;@@llllllllrglrr@$@@elhhhjrhhhhjrrgrqee$.   :::::::::::::::::::::::::::::",
"::::::::::::::::::::::::*-******::::::::********::::::::$$klllllllrhgee@@@rrlhhhjrjgggjrrjrryy$e&..:::::::::::::::::::::77888888",
"::::::::::::::::::::::::*-******::::::::********::::::::$$klllllllrry Or$&kkghhhjrjghhjryjjjjy$gr$$:::::::::::::::::::::77666888",
"::::::::::::::::::::::::********::::::::********::::::::@@rghlllgr%@@eey$&kkhhhryjgjhjrjjjjhye.yr$$:::::::::::::::::::::76665585",
"::::::::::::::::::::::::********::::::::********::::::::::.$qllg.$@@Oyyy$$ggrrrwrrrrrrryrrrr...  :::::::::::::::::::::::66665555",
"::::::::::::::::::::::::****==;;::::::::****;;;;::::::::,,$. lgr  ye@yyye$                 .$$$,::::::::::::::::::::::::55585555",
"::::::::::::::::::::::::--**=;;;::::::::****;;;;::::::::$$ggrrre.%gy@yyhr$ee O%eweeweee.OO.@$$$:::::::::::::::::::::::::55555555",
"::::::::::::::::::::::::--====;;::::::::****;=;;::::::::@$lhh&&@%&hy&yyhrrrr@%@rrrrrrrr$%%@@::::::::::::::::::::::::::::55555555",
"::::::::::::::::::::::::--=--=;;::::::::***-==**::::::::@@lhrklhgg@ygghkkk@@gr   .$$$$$:::::::::::::::::::::::::::::::::55558555",
"::::::::::::::::::::::::::::::::********::::::::::::::::qqkgrllhhgehhgglkkgggr.@$$...$$:::::::::76555555::::::::55555555::::::::",
"::::::::::::::::::::::::::::::::********::::::::::::::::rrkgrlllkkrhlllllklllr@rrr    :,::::::::86555555::::::::55555555::::::::",
"::::::::::::::::::::::::::::::::********::::::::::::::$$hhgghhhlkkhhrllllllklgg@$weee$$  :::::::85555555::::::::55555555::::::::",
"::::::::::::::::::::::::::::::::********::::::::::::,,$$llrglrhllllg.llllllllll$$$rrre$$$:::::::55555555::::::::55555555::::::::",
"::::::::::::::::::::::::::::::::********::::::::::::::rrllrgkrhllllh  $klllllllrr  $rrrrr$::::::55555685::::::::55765555::::::::",
"::::::::::::::::::::::::::::::::********:::::::::::::$rgllrhkrhlllhr.@$glllllllgg  $wqqrre$$::::55555755::::::::55585555::::::::",
"::::::::::::::::::::::::::::::::********:::::::::::::$gkllrglrhlllO@@we glllllllk :: $$rrr$$::::55555555::::::::55555586::::::::",
"::::::::::::::::::::::::::::::::********:::::::::::::rgkllrglrhlll.@@wweerllllllk$:: $$$$rrq$$::55855555::::::::55555556::::::::",
"::::::::::::::::::::::::::::::::::::::::::::::::,,$$@hhlllrhlrhlggO@$qqw$#fgkklllr .$:: $rrrqrr6::::::::55555555::::::::********",
":::::::::::::::::::::::::::::::::::::::::::::::::$$$@lllllrhlrhl..@@$qqiq# &kkllll .$$::$$rrhhr7::::::::55555555::::::::*;******",
"::::::::::::::::::::::::::::::::::::::::::::::::$rg@@ghlllhhhhjh Xrw$eepq##qglllll.$e$ :7$ergggw@:::::::55555555::::::::=*******",
"::::::::::::::::::::::::::::::::::::::::::::::::$rlw@rhllllhrljr .pr$0epq#qqglllll$$r$ :77$rggge@:::::::55555555::::::::=-******",
"::::::::::::::::::::::::::::::::::::::::::::::::rgkklerrlllhrlhrXX%rpewppy%%&gkkll$$y%%:768rrrge$:::::::55555555::::::::********",
"::::::::::::::::::::::::::::::::::::::::::::::$#gglllrrhhhlhrlhrOX etweppr.X rgkllrrye% 668rttge$:::::::55555555::::::::********",
"::::::::::::::::::::::::::::::::::::::::::::::##llllllllrrlhrkhrOOO  wwpe XX. &kllkk@yy  66$$rje$:::::::55555555::::::::********",
"::::::::::::::::::::::::::::::::::::::::::::::qwllllllllrrllhhhhewOOX%%w%X....&llkkk$yr..666$er$$:::::::55555555::::::::********",
"::::::::********::::::::::::::::::::::::55555$hhlllllllghhlllrhkyyOOO   .XOOOO&jhkllrree$ ::::$$$6665555::::::::********::::::::",
"::::::::*-******::::::::::::::::::::::::5555$$kkllllllgrlllllrhkyyO  OOOXXOOOOO &llllr%ry ::::::66665555::::::::********::::::::",
"::::::::*=******::::::::::::::::::::::::5555##kkllllllhrlllhrhhgjjO  OXXOOOOOOO %hlllr@ry.::::::55555555::::::::*******-::::::::",
"::::::::********::::::::::::::::::::::::5555##kkllllllhrlllh lhrllO  OXXOOOOOOO Orlllr@ry$::::::55555555::::::::********::::::::",
"::::::::**=*=;;;::::::::::::::::::::::::6665rrlllllllrhllllg.jr%gg %r  ...$$OOO  &klllg@$y$ ::::55555555::::::::********::::::::",
"::::::::**-*=;;*::::::::::::::::::::::::668$rhlllllhhhhlllggyye.rrrrr  ...#$OOO Xrgglkkgre$ ::::55555555::::::::****--**::::::::",
"::::::::**--==**:::,::::::::::::::::::::777@rllllllrrlllll@gk@...@kgr  .$$$$%.O @r@rllkkg$. ::::55555855::::::::****==;*::::::::",
"::::::::*-----**::::::::::::::::::::::::777@rlllllhhhlllll@gk$. .@kgrwe .$$$@%% %rrrrlkgg$. ::::55555555::::::::****=*;*::::::::",
"::::::::::::::::::::::::::::::::68855555:::$rkkllhrlllllll@gl@. .%kgrrr .@@+++$ $rtt$jkgh@. ::::::::::::::::::::::::::::::::::::",
"::::::::::::::::::::::::::::::::55555555:rr$rkllrglllllk&@Oglhr gj@wrrr .@@+++$ $rrryeyghhe@::::::::::::::::::::::::::::::::::::",
"::::::::::::::::::::::::::::::::55555555:rrggjgggglllllh@ Orhhhhgh@etrr .@+++++ $rrryeyyyfyy@$,:::::::::::::::::::::::::::::::::",
"::::::::::::::::::::::::::::::::55555555:rrkgrrrllllllh .OOO lllll@eyrr.+++++++ $rrryyy@ehhh$$::::::::::::::::::::::::::::::::::",
"::::::::::::::::::::::::::::::::55555555rglllkllllllky&...OOOrhlyyyyyyyX++++#$$ $yyyyyyyyyghgy :::::::::::::::::::::::::::::::::",
"::::::::::::::::::::::::::::::::55555555rlllllllllllk&$.X.OXO gl$$yyyyyX++++#$$ $yyyyyyyy@hhhy :::::::::::::::::::::::::::::::::",
"::::::::::::::::::::::::::::::::55555558rlllllllllkyy. .XOO.O   yyyyyyyX++++#+##$$yyyyyyyyyyhhhrr$#:::::::::::::::::::::::::::::",
"::::::::::::::::::::::::::::::::555555rrgllllllllkkye. .XXO%% %wyyyyyyye++++++##$$yyyyyyyyeyhhhhrrr#::::::::::::::::::::::::::::",
"::::,:::::::::::::::::::55558877::::::rrllllllllkll&$ ....$%%Xeyyyyyyyyy$X%%$$$$##rryyyyyy$rggghffy@::::::::::::::::::::::::::::",
"::::::::::::::::::::::::55558667:::::rkllllllllllg@  $##$$$X yyyyyyyyyyy%X$$$$$..$yryyyyyyyy$rhhgghhye@:::::::::::::::::::::::::",
"::::::::::::::::::::::::55555587::::rrlllllllllllg%O $$#$$%. ryyyyyyyyyy$.$$$$$X.$yyyyyyyyyy$rhhghhhrr@:::::::::::::::::::::::::",
"::::::::::::::::::::::::55555588:rrrgkllllllllllyerX $$$$$   yyyyyyyyyyy$.$$$$$..$yyyyyyyyyyrr#hhhhhggg$$:::::::::::::::::::::::",
"::::::::::::::::::::::::55556668yghhhlllllllllhhrrrX $$$...  yyyyyyyyyyt$.+++...X$yyyyyyyyyyyy$hhhhhhhhry$$:::::::::::::::::::::",
"::::::::::::::::::::::::5555666rykllllllllllllr@rrrX $$$  ..Xyyyrryyyyyy$.##@. ..$yyyyyyyyyyyy@ghhhhhhhhy$$:::::::::::::::::::::",
"::::::::::::::::::::::::555577rrlllllllllllllgrrrrr$.$%%  .eyyyyryyyyyyX$###@X ..$ryyyyyryyyyyy$rhhhhhhhggr$::::::::::::::::::::",
"::::::::::::::::::::::::5555rrhhllllllllllllhrrrrr$$$$%XXXXwyyyyrtyyyyyX$$##@X. Xqyyyyyyyyyyyyy$rhhhhhhhggr$::::::::::::::::::::",
"::::::::::::::::57775555::::rrglllllllllllllg$rrre $$$. XXX%rryyyyyyytrX$$$$$X. $yytyyrryyrryyy@rhhhhhhhhhy@;;**********::::::::",
"::::::::::::::::55665555:::rgklllllllllllllr$rrrrw.$$$. XX %ttyyyyyyytrX#$$$ XX $yyyyytryyrryyyyy@ygjhhhhhgh. *;********::::::::",
"::::::::::::::::55885555::rrglllllllllllkllr$rrrrw.$$$. .. $yyyyyyyyyyrX##$$ .. $yyyyyrryyrryyyyy@yghhhhhhhh..;;********::::::::",
"::::::::::::::::58885555:rrklllllllllllllllr$rrr$.$$$$$... $yyyyyyyyyyr$##$$ X. $yyyyyryyyyyyyyyr@yghhhhhhhh@@;;********::::::::",
"::::::::::::::::55555555,rrllllllllllllllllr$$$$..##$##... $#$0ryrrtrrr$#+++X .eeyyyyyyyyyyyyyyyrryyhhhhhhhhyy  ********::::::::",
"::::::::::::::::55555555,rgllllllllllllllll&.$$$ .##$$.... .#$qrrryyrrr$#+++oo$ryyyyyyyyyyyyyyyyrye@jhhhhhhhjy..********::::::::",
"::::::::::::::::5555555$$glllllllllllllllr$:,::: .$$$  .  ::::$$$$yyrrr++++++o+ryyyyyyyyyyyyyyyyrye@hhhhhhhhgy@@********::::::::",
"::::::::::::::::5555555$@glllllllllllllllr$:,::: .$$$  .  ::::$$$$yyrrr+++++@o+ryyyyyyyyyyyyyyyyyye@hhhhhhhhgye&********::::::::",
";;;;****:::::::::::::::@$glllllllllllllllr :<<<<..$$%  X  775555::$$$yy.@@@++o+ryyyyyyyyyyyyyy$.    ghhhhhhhhhhy :::::::::::::::",
";;=;****::::::::::::::@ggkllllllllllllllgr :<<OX$$$.XX.   875555::$$$$$.@@++@o+ryyyyyyy$$$$$$$$X    eyhhhhhhhhhy :::::::::::::::",
"-===****::::::::::::::@gklllllllllllllllr<::::.X$$$  XX 66885555:::::$$.@@++@o@ryyyyyye$$     ::**;*%yhhhhhhfhgy :::::::::::::::",
"-===****::::::::::::::@hllllllllllllllllr<::::..$$$  XX 67775555::::::: .++++o@ryyyy$$$:::::::::**;* rhhhhhhhhhy :::::::::::::::",
"--******::::::::::::::@ghlllllllllllllkkr<::::..##$. .  68555555::::::: X$$#$$$erryq$$$:::::::::***= rhhhhhhhhgy :::::::::::::::",
"********:::::::::::::::  hllllllllllllgr<<::::..$. ..  :88555555::::::: X@$##$$ .$$@::::::::::::**** rgghhhhhhgy :::::::::::::::",
"********:::::::::::::::  hllllllllllllr%:::::.$$#. ..  :88555555::::::::..++##$  :::::::::::::::;;;* rjghhhhhye&::::::::::::::::",
"********:::::::::::::::  hglllllllllllr ::::..$$+. .X  :88555555::::::::..++++$  :::::::::::::::;;;; rrjhhhhhy@@::::::::::::::::",
"::::::::::::::::::::::::: &kkkllllllllr ::::..$$$X ..***::::::::::::::::  $$$$#  ::::::::::::::::::::@@jhhjjjr  ::::::::::::::::",
"::::::::::::::::::::::::: &gghklllllljr ::::o..$$. ..***::::::::::::::::  $$$$.  ::::::::::::::::::::@@jhgjyrr  ::::::::::::::::",
":::::::::::::::::::::::::::   hhjllllww:::: $qeee$...;**::::::::::::::::  @@$eeee :::::::::::::::::::  yyyr%  ::::::::::::::::::",
"::::::::::::::::::::::::::::::   jllj  :::: eiippr   ;**::::::::::::::::   .qpppp :::::::::::::::::::      :::::::::::::::::::::",
"::::::::::::::::::::::::::::::   jjjj  :::: epppppe. ;**:::::::::::::::: .eerpppp ::::::::::::::::::::     :::::::::::::::::::::",
":::::::::::::::::::::::::::::::::      :::: eppippi$ ***:::::::::::::::: $iiuippp ::::::::::::::::::::::::::::::::::::::::::::::",
":::::::::::::::::::::::::::::::::::::::::::.X%%$wee. ;;;:::::::::::::::: $iiiq$$$   ::::::::::::::::::::::::::::::::::::::::::::",
":::::::::::::::::::::::::::::::::::::::::...OO.$$e$. ;;;:::::::::::::::: .rrre...... :::::::::::::::::::::::::::::::::::::::::::",
"::::::,:::::::::::::::::::::::::::::::::;O.$%OX.$. :::::::::::::::::::::    .$$$@@@$  ::::::::::::::::::::::::::::::::::::::::::",
"::::::::::::::::::::::::::::::::::::::::;XX..OX... :::::::::::::::::::::   ..$$$@%$....  :::::::::::::::::::::::::::::::::::::::",
"::::::::::::::::::::::::::::::::::::::::;O. X%%%.  :::::::::::::::::::::  ..$$$$%OOO$..  :::::::::::::::::::::::::::::::::::::::",
":::::::::::::::::::::::::::::::::::::::: O.$%   $$.  :::::::::::::::::::::     .O%%%$$$$@ ::::::::::::::::::::::::::::::::::::::",
":::::::::::::::::::::::::::::::::::::::: OOOO   XX.  :::::::::::::::::::::     .XXXXXX... ::::::::::::::::::::::::::::::::::::::",
":::::::::::::::::::::::::::::::::::::::: OOOOOOOX..  ::::::::::::::::::::::::::           ::::::::::::::::::::::::::::::::::::::",
"::::::::::::::::::::::::::::::::::::::::  OOOOOOXX.  ::::::::::::::::::::::::::           ::::::::::::::::::::::::::::::::::::::",
"::::::::::::::::::::::::::::::::::::::::;          :::::::::::::::::::::::::::::::::::::::::::::::::::::::::::::::::::::::::::::"
};
