/* XPM */
static char *enemy_351755718569[] = {
/* columns rows colors chars-per-pixel */
"128 128 56 1 ",
"  c #010000",
". c #000001",
"X c #212128",
"o c #212029",
"O c #202129",
"+ c #212129",
"@ c #3A3A52",
"# c #3B3A52",
"$ c #3A3B52",
"% c #3A3A53",
"& c #624A42",
"* c #634A42",
"= c #634B42",
"- c #906858",
"; c #916858",
": c #906958",
"> c #906859",
", c #906959",
"< c #A88868",
"1 c #A98868",
"2 c #A98869",
"3 c #A88969",
"4 c #AD8473",
"5 c #B5A46B",
"6 c #B4A56B",
"7 c #B5A56B",
"8 c #C8A878",
"9 c #C9A878",
"0 c #C8A978",
"q c #C8A879",
"w c #DEA57A",
"e c #DEA47B",
"r c #DFA47B",
"t c #DEA57B",
"y c #285A94",
"u c #295A94",
"i c #295B94",
"p c #295A95",
"a c #7384A4",
"s c #7284A5",
"d c #7384A5",
"f c #7385A5",
"g c #5AA4DE",
"h c #5AA5DE",
"j c #5AA5DF",
"k c #E6DE9C",
"l c #E6DF9C",
"z c #FED6BD",
"x c #FFD7BD",
"c c #B5BCD6",
"v c #B4BDD6",
"b c #B5BDD6",
"n c #B5BDD7",
"m c #EFEFFE",
"M c #EEEFFF",
"N c #EFEFFF",
/* pixels */
"<<<<<<<<<<<<<<<<<<<<<<<<<<<<<<<<<<<<<<<<<<<<<<<<<<<<<<<<<<<<<<<<q0089999yyuuup<<q9088888<<<<<<<<<<<<<<<<<<<<<<<<--------1<<<<<<<",
"<<<<<<<<<<<<<<<<<<<<<<<<<<<<<<<<<<<<<<<<<<<<<<<<<<<<<<<<<<<<<<<<ppppyyi9yyaadpp<q8008888<<<<<<<<<<<<<<<<<<<<<<<<--------<<<<<<<<",
"<<<<<<<<<<<<<<<<<<<<<<<<<<<<<<<<<<<<<<<<<<<<<<<<<<<<<<<<<<<<<<<<yyppyypqyigggdp188808888<<<<<<<<<<<<<<<<<<<<<<<<--------<<<<<<<<",
"<<<<<<<<<<<<<<<<<<<<<<<<<<<<<<<<<<<<<<<<<<<<<<<<<<<<<<<<<<<<    @@@@@yypiiaaggdyp8808888<<<<<<<<<<<<<<<<<<<<<<<<--------<<<<<<<<",
"<<<<<<<<<<<<<<<<<<<<<<<<<<<<<<<<<<<<<<<<<<<<<<<<<<<<<<<<<<<XXOXXXXXXXpppiyiighhiiqq08800<<<<<<<<<<<<<<<<<<<<<<<<--------<<<<<<<<",
"<<<<<<<<<<<<<<<<<<<<<<<<<<<<<<<<<<<<<<<<<<<<<<<<<<<<<<<<   7kkr6kkkkkkk #yyihhhgg q08000<<<<<<<<<<<<<<<<<<<<<<<<--------<<<<<<<<",
"<<<<<<<<<<<<<<<<<<<<<<<<<<<<<<<<<<<<<<<<<<<<<<<<<<<<<<< 7746krekkkkkrkk7dydhhhhhg 8888qq<<<<<<<<<<<<<<<<<<<<<<<<-,:-----<<<<<<<<",
"<<<<<<<<<<<<<<<<<<<<<<<<<<<<<<<<<<<<<<<<<<<<<<<<<<<<<<  kk7rk6ekkkke7kkkdihhhhhhg 8888qq<<<<<<<<<<<<<<<<<<<<<<<<-,::----<<<<<<<<",
"<<<<<<<<<<<<<<<<88888888<<<<<<<<<<<<<<<<<<<<<<<<<<<<11  kl77544477667llhgghhhhhhj <<<<<<<<<<<<<<<<<<<<<<--------<<<<<<<<>>------",
"<<<<<<<<<<<<<<<<88888888<<<<<<<<<<<<<<<<<<<<<<<<<<<pyypf7rkkkeeelllr7vvggghhhhgii <<<<<<<<<<<<<<<<<<<<<<--------<<<<<<<<--------",
"<<<<<<<<<<<<<<<<88888888<<<<<<<<<<<<<<1<<<<<<<<<<<<ipyfg77xxzzzzxxxr7ggggggghhh  <<<<<<<<<<<<<<<<<<<<<<<--------<<<<<<<<--------",
"<<<<<<<<<<<<<<<<88888888<<<<<<<<<<<<<<<<<<<<<<<<pppfggff7rxxxzzzxxxr7vvvbbggiii  <<<<<<<<<<<<<<<<<<<<<<<--------<<<<<<<<--------",
"<<<<<<<<<<<<<<<<88889900<<<<<<<<<<<<<<<<<<<<<<<<pyygghfprrzzzzzzxzzk6llkllgg   q<<<<<<<<<<<<<<<<<<<<<<<<--------<<<<<<<<--------",
"<<<<<<<<<<<<<<<<88889900<<<<<<<<<<<<<<<<<<<<<1<<yfgghhf xxzzzzzzxzzzx67lllipqq99<<<<<<<<<<<<<<<<<<<<<<<<--------<<<<<<<<--------",
"<<<<<<<<<<<<<<<<888899qq<<<<<<<<<<<<<<<<<<<<11yyfffghhd xxxzzzzzzzzzx66rrr@@0099<<<<<<<<<<<<<<<<<<<<<<<<--------<<<<<<<<--------",
"<<<<<<<<<<<<<<<<8888qqqq<<<<<<<<<<<<<<<<<<<<11yyggyghhd xxxxzzzzzzzzx66rrr  0099<<<<<<<<<<<<<<<<<<<<<<<<--------<<<<<<<<--------",
"<<<<<<<<88888888<<<<<<<<<<<<<<<<<<<<<<<<<<<<<<pyppihgggf44ekzxxxzzerr66fsvrr <<<<<<<<<<<<<<<<<<<<<<<<<<<<<<<<<<<--------<<<<<<<<",
"<<<<<<<<88888888<<<<<<<<<<<<<<<<<<<<<<<<1<<<<<ppX$igggggs44ezxxxzz55644ffvxx  <<<<<<<<<<<<<<<<<<<<<<<<<<<<<<<<<<--------<<<<<<<<",
"<<<<<<<<88888888<<<<<<<<<<<<<<<<<<<<<<<<<<<<<<  q  ghhs mm45exe4ssmmm@*kxxxx  <<<<<<<<<<<<<<<<<<<<<<<<<<<<<<<<<<--------<<<<<<<<",
"<<<<<<<<88888888<<<<<<<<<<<<<<<<<<<<<<<<<<<<<<< q  iihf mmmcasspmmmmm@*krrxx  <<<<<<<<<<<<<<<<<<<<<<<<<<<<<<<<<<--------<<<<<<<<",
"<<<<<<<<88880008<<<<<<<<<<<<<<<<<<<<<<<<<<<<<<<<q  ipgf mmmcyyypmmmmm@*k64xx  <<<<<<<<<<<<<<<<<<<<<<<<<<<<<<<<<<--------<<<<<<<<",
"<<<<<<<<88880000<<<<<<<<<<<<<<<<<<<<<<<<<<<<<<<<q9 @@ggfsssckk54ssssskkxr4** <<<<<<<<<<<<<<<<<<<<<<<<<<<<<<<<<<<--------<<<<<<<<",
"<<<<<<<<888899qq<<<<<<<<<<<<<<<<<<<<<<<<<<<<<<<<00q  fggsyycxxk744444xxxr4  <<<<<<<<<<<<<<<<<<<<<<<<<<<<<<<<<<<<--------<<<<<<<<",
"<<<<<<<<888899qq<<<<<<<<<<<<<<<<<<<<<<<<<<<<<<1<800qq @pgggcxxxxzzzzzxxx4 <<<<<<<<<<<<<<<<<<<<<<<<<<<<<<<<<<<<<<--------<<<<<<<<",
"88888888<<<<<<<<<<<<<<<<<<<<<<<<<<<<<<<<<<<<<<<<<<<<<<<<@@777xxxzzzzxrr**<<<<<<<<<<<<<<<<<<<<<<<<<<<<<<<--------<<<<<<<<<<<<<<<<",
"88888888<<<<<<<<<<<<<<<<<<<<<<<<<<<<<<<<<<<<<<<<<<<<<<<<  r74xxxzzzzxrr  <<<<<<<<<<<<<<<<<<<<<<<<<<<<<<<--------<<<<<<<<<<<<<<<<",
"88888888<<<<<<<<<<<<<<<<<<<<<<<<<<<<<<<<<<<<<<<<<<<<<<<<<<*4r44444zkr  @@<<<<<<<<<<<<<<<<<<<<<<<<<<<<<<<--------<<<<<<<<<<<<<<<<",
"88888888<<<<<<<<<<<<<<<<<<<<<<<<<<<<<<<<<<<<<<<<<<<<<<<<@#*4r47reeee4pp@@<<<<<<<<<<<<<<<<<<<<<<<<<<<<<<<--------<<<<<<<<<<<<<<<<",
"88888888<<<<<<<<<<<<<<<<<<<<<<<<<<<<<<<<<<<<<<<<<<<<<<<<@##4rrrxxx**ocv@@<<<<<<<<<<<<<<<<<<<<<<<<<<<<<<<--------<<<<<<<<<<<<<<<<",
"88888888<<<<<<<<<<<<<<<<<<<<<<<<<<<<<<<<<<<<<<<<<<<<<<@@ssmv **4**4** @vf@<<<<<<<<<<<<<<<<<<<<<<<<<<<<<<--------<<<<<<<<<<<<<<<<",
"88888888<<<<<<<<<<<<<<<<<<<<<<<<<<<<<<<<<<<<<<<<<<<<<<ppvvvvff4*aa4sp@@vfs@@@@@<<<<<<<<<<<<<<<<<<<<<<<<<--------<<<<<<<<<<<<<<<<",
"88888888<<<<<<<<<<<<<<<<<<<<<<<<<<<<<<<<<<<<<<<<<<<<<<ssmmsvmmv ggpagppvvv@@@@@<<<<<<<<<<<<<<<<<<<<<<<<<--:-----<<<<<<<<<<<<<<<<",
"1<<<<<<<<<<<<<<<<<<<<<<<<<<<<<<<<<<<<<<<,,------<<<#@dvmvvdcmmmm@@Xip@@vcnnv@pd#@<<<<<<<<<<<<<<<<<<<<<<<<<<<<<<<<<<<<<<<<<<<<<<<",
"1<<<<<<<<<<<<<<<<<<<<<<<<<<<<<<<<<<<<<<<;,------<<<ppavmvvdcmmmm** ip@@vcnnv*dd#@<<<<<<<<<<<<<<<<<<<<<<<<<<<<<<<<<<<<<<<<<<<<<<<",
"<<<<<<<<<<<<<<<<<<<<<<<<<<<<<<<<<<<<<<<<;>------<@@mmmmmmmdnmmmmNN dg$@ anccvd#dd$<<<<<<<<<<<<<<<<<<<<<<<<<<<<<<<<<<<<<<<22<<<<<",
"<<<<<<<<<<<<<<<<<<<<<<<<<<<<<<<<<<<<<<<<;>------<@@mmmmmmmdcmmmmNNdgg@$Xacvvvddup@<<<<<<<<<<<<<<<<<<<<<<<<<<<<<<<<<<<<<<<22<<<<<",
"<<<<<<<<<<<<<<<<<<<<<<<<<<<<<<<<<<<<<<<<--------1$@mNNNNmmdcmmmmNNNvg###anncvvv#@@<<<<<<<<<<<<<<<<<<<<<<<<<<<<<<<<<<<<<<<<<<<<<<",
"<<<<<<<<<<<<<<<<<<<<<<<<<<<<<<<<<<<<<<<<--------1afmNNNNmmdvmddd@*Nvgyi#an######@@<<<<<<<<<        <<<<<<<<<<<<<<<<<<<<<<<<<<<<<",
"<<<<<<<<<<<<<<<<<<<<<<<<<<<<<<<<<<<<<<<<----;;--1adNNNNNmmdvmddd##Nvgip#abiipypp*@<<<<<<<<<X##dd=*$<<<<<<<<<<<<<<<<<<<<<<<<<<<<<",
"<<<<<<<<<<<<<<<<<<<<<<<<<<<<<<<<<<<<<<<<---->---#dNNNNNNmmdddmmmddNNNyy X#bbvvvvv@<<<<<<<< #dnmmmvf <<<<<<<<<<<<<<<<<<<<<<<<<<<<",
"<<<<<<<<<<<<<<<<<<<<<<<<<<<<<<<<--------<<<<<<<<#dNNNNNNmmnvvNNvvvNNNvv#dvdddvvddp@@,:::<< #dvmmvddX<<<<<<<<<<<<<<<<<<<<<<<<<<<<",
"<<<<<<<<<<<<<<<<<<<<<<<<<<<<<<<<--------<<<<<<<<#dNNNNNNnnmNNNvdNNNNNNNdvm###dv @d@#,,::<< *vvnnf@@@<<<<<<<<<<<<<<<<<<<<<<<<<<<<",
"<<<<<<<<<<<<<<<<<<<<<<<<<<<<<<<<--------<<<<<<<<dvNNNNNN*#NNNNvdNNNNNddNmmmmmd# @d@@----  vNvvvydvvNp@<<<<<<<<<<<<<<<<<<<<<<<<<<",
"<<<<<<<<<<<<<<<<<<<<<<<<<<<<<<<<>;---->-<<<<<<<@vvNNNNNv*#vNNNvdNNNNNddNmmmmvdp @d@@@---  vNvvn#yvvv*#<<<<<<<<<<<<<<<<<<<<<<<<<<",
"<<<<<<<<<<<<<<<<<<<<<<<<<<<<<<<<--------<<<<<<@@NNNNNNv@<<#vNNvddadnNddNmmmm@dv @ddd@@--  vvppp##   <<<<<<<<<<<<<<<<<<<<<<<<<<<<",
"<<<<<<<<<<<<<<<<<<<<<<<<<<<<<<<<--------<<<<<@vvNNNNNvd#<<XvNNNvnnnnvvvNmmvvvddppdds@@, dvvvdd@ddvdX<<<<<<<<<<<<<<<<<<<<<<<<<<<<",
"<<<<<<<<<<<<<<<<<<<<<<<<<<<<<<<<---->>;;<<<<@@mmNNNNN*#,<< dNNNNNNNvdmmmmm@dmd@dddfs@@  dNdygd@vvmv#<<<<<<<<<<<<<<<<<<<<<<<<<<<<",
"<<<<<<<<<<<<<<<<<<<<<<<<<<<<<<<<---->>>;<<<<@@mmNNNNN*#,<<<  NNNNNdvNmmdp*mmmd@ddd@@@@@ dNdppp@X   <<<<<<<<<<<<<<<<<<<<<<<<<<<<<",
"<<<<<<<<<<<<<<<<<<<<<<<<--------<<<<<<<<----@@mmmmmvv*@<<<<  NNNnnnnvvvnaammmd#ddp@@@@@dvmdddd%p*XX<<<<<<<<<<<<<<<<<<<<<qq008888",
"<<<<<<<<<<<<<<<<<<<<<<<<--------<<<<<<<<----@@mmmmmp@<<<<<<  NNNaaNca#*mmmmmmd#dd@ddd@dmmvcvnd%vs@@<<<<<<<<<<<<<<<<<<<<<qq008888",
"<<<<<<<<<<<<<<<<<<<<<<<<--------<<<<<<<<---@avmmmmmp#dd<<<#dvNNNffccbbbmmmnnvd#dddddd@dmmvcvdpXfs@@<<<<<<<<<<<<<<<<<<<<<q9908888",
"<<<<<<<<<<<<<<<<<<<<<<<<--------<<<<<<<<---@ammmmmvspddd<<#vNNNNifbcbmmmmnnndd#ddddddpdvvdddXXX  <<<<<<<<<<<<<<<<<<<<<<<q9998888",
"<<<<<<<<<<<<<<<<<<<<<<<<----;;;,<<<<<<<<---@dmmmmvddaads<<@vmmmm##NvaNmmcdmm pddddddssf    X%@@<<<<<<<<<<<<<<<<<<<<<<<<<88888888",
"<<<<<<<<<<<<<<<<<<<<<<<<----;;;,<<<<<<<<---@dsvvcvddaadd@#vNmmmm##vaiNmmvdvv #pdddddsssX++X@@@@<<<<<<<<<<<<<<<<<<<<<<<<<88888888",
"<<<<<<<<<<<<<<<<<<<<<<<<-->>;;,,<<<<<<<<>-;;#@ssdddddddd##mmmmmmiavaammmvdvv@@@dfsddsdf@###@<<<<<<<<<<<<<<<<<<<<<<<<<<<<88888888",
"<<<<<<<<<<<<<<<<<<<<<<<<->>>>;,,<<<<<<<<>>;;;,@@#pdddddd##mndmmmmm#vNNmmmm@@vf   X@@@@@<<<<<<<<<<<<<<<<<<<<<<<<<<<<<<<<<88888888",
"<<<<<<<<<<<<<<<<<<<<<<<<<<<<<<<<--------<<<<<<@@#@pppdddppmvdmmmmmpvmmmmmmvnnd+#@@XXX@@<<<<<<<<<qq888888<<<<<<<<88888888<<<<<<<<",
"<<<<<<<<<<<<<<<<<<<<<<<<<<<<<<<<--------<<<<<<<<<#@@@dddddmvdmmmmmdvmmmmmmmmmd#dss    <<<<<<<<<<qq888888<<<<<<<<88888888<<<<<<<<",
"<<<<<<<<<<<<<<<<<<<<<<<<<<<<<<<<--------<<<<<<<<<<@@#%@@ccvvnnnmmmvvdmmmmmmmmvv#@pppp@@  <<<<<<<q0088880<<<<<<<<88800800<<<<<<<<",
"<<<<<<<<<<<<<<<<<<<<<<<<<<<<<<<<--------<<<<<<<<<<<<<@@@mmdcmdnmmmmnXmmmmmmmmmm#@@sffp@@@<<<<<<<99008888<<<<<<<<88888800<<<<<<<<",
"<<<<<<<<<<<<<<<<<<<<<<<<<<<<<<<<--;>----<<<<<<<<<<<<<<ddmmdvmdnmmmmv  #mmmmmmmmdf  @ddddf@<<<<<<88888888<<<<<<<<8888qqq9<<<<<<<<",
"<<<<<<<<<<<<<<<<<<<<<<<<<<<<<<<<--------<<<<<<<<<<<<<#dvmmdcmdcmmmvdX##nmmmmmmmvv  @yypdsy@@<<<<88888888<<<<<<<<8888qq99<<<<<<<<",
"<<<<<<<<<<<<<<<<<<<<<<<<<<<<<<<<--------<<<<<<<<<<<<<@vmmmdcmdvmmmX##uu vmmmmmmmm << #@dss@@<<<<88888888<<<<<<1<88888888<<<<<<<<",
"<<<<<<<<<<<<<<<<<<<<<<<<<<<<<<<<--------<<<<<<<<<<<<<dvmmmdcmdvmmmX##uuuudmmmmmmm@<< @@@@ssp@@<<88888888<<<<<<1188888888<<<<<<<<",
"<<<<<<<<<<<<<<<<<<<<<<<<<<<<<<<<<<<<<<<<<<<<<<<<11$##ccNmmanmdnmvvX#@pyi#@vvNNNNmd X@<< @fssidd911<<<<<<88888888<<<<<<<<---->---",
"<<<<<<<<<<<<<<<<<<<<<<<<<<<<<<<<<<<<<<<<<<<<<<<<1@@##NNNmmanmanmXX##@pygy@ *NNNNmm X@@<<@@ssccd911<<<<<<88888888<<<<<<<<,,------",
"<<<<<<<<<<<<<<<<<<<<<<<<<<<<<<<<<<<<<<<<<<<<<<<<@sv##bvNmmnnnnnn Xdp@pigy##yvNNNmmX@p@ <8%pdvcvi@11<<<<<88888888<<<<<<<<;>------",
"<<<<<<<<<<<<<<<<<<<<<<<<<<<<<<<<<<<<<<<<<<<<<<<<@sNi#abNmmmndmnd Xgd@pigy#yyvNNNmm@@f@ <88@dcccy@1<<<<<<88888888<<<<<<<<>>------",
"<<<<<<<<<<<<<<<<<<<<<<<<<<<<<<<<<<<<<<<<<<<<<<<<avNNNiddmmmndmndXX#fjppjjd##*vNNmm@@f@@<8qqffsvy@<<<<<<<88888888<<<<<<<<------>-",
"<<<<<<<<<<<<<<<<<<<<<<<<<<<<<<<<<<<<<<<<<<<<<<@@vvNNNddbnnmndmndoX pfpigjdXX dvNmmddsp@ qqqfssvy@<<<<<<<88888888<<<<<<<<--------",
"<<<<<<<<<<<<<<<<<<<<<<<<<<<<<<<<<<<<<<<<<<<<<<@@NNNNNNNNddmndmvdXXX  ppgp XXX *Nmmmm@dd  99@@dvy@1<<<<<<88888888<<<<<<<<--------",
"<<<<<<<<<<<<<<<<<<<<<<<<<<<<<<<<<<<<<<<<<<<<<<yyNNNNNNNNddmmnnnvppXoX%@p%XXXXX*Nmmmm@ddXXq99@yd@@<<<<<<<88888888<<<<<<<<--------",
"<<<<<<<<--------<<<<<<<<<<<<<<<<<<<<<<<<88888@vvNNNNNNNvccmmmdvmff++o   XX++++=nvmmmddpp$ <<<<$$@9998888<<<<<<<<--------<<<<<<<<",
"<<<<<<<<--------<<<<<<<<<<<<<<<<<<<<<<<<8888@@mmNNNNNNvdmmmmmdvmff+  oooXX+++++ *mmmmd@df <<<<<<q9008888<<<<<<<<--------<<<<<<<<",
"<<<<<<<<--------<<<<<<<<<<<<<<<<<<<<<<<<8800@@mmNNNNmmvdmmmvdnnvnn+  oXoXoo+++X #vmmmd@ddX<<<<<<88008888<<<<<<<<--------<<<<<<<<",
"<<<<<<<<--------<<<<<<<<<<<<<<<<<<<<<<<<8800@@mmNNNNmmvdmmmv mndmm+  +oXoooo++o Xdmmmd#dd@<<<<<<88008888<<<<<<<<--------<<<<<<<<",
"<<<<<<<<--------<<<<<<<<<<<<<<<<<<<<<<<<9990ddmmmmmmmdvmmmmvXnf$vv @s  XXX@$+++  *mmmmv@@d@ <<<<88888888<<<<<<<<--------<<<<<<<<",
"<<<<<<<<--------<<<<<<<<<<<<<<<<<<<<<<<<990$dnmmmmmnnnnmmmvvffiXfffff  XXX@$+++ Xdvvmmmvdp@ <<<<88888888<<<<<<<<--------<<<<<<<<",
"<<<<<<<<--------<<<<<<<<<<<<<<<<<<<<<<<<99q#dNmmmmmddmmmmm@vm%XXX@mvf  X%%$$%++ @d@fmmmmv@X <<<<88888888<<<<<<<<--------<<<<<<<<",
"<<<<<<<<--------<<<<<<<<<<<<<<<<<<<<<<<<99q#dNmmmmnnnmmmmm@vm%X X@mvfpi X%$%%%% @dsfdmmvv@X <<<<88888888<<<<<<<<--------<<<<<<<<",
"<<<<<<<<<<<<<<<<<<<<<<<<<<<<<<<<88888888<<<@smmmmvdmmmmmmm#vm$+ X%mvddd X%%@@@@ @fdd@vmvn#X <<<<<<<<<<<<<<<<<<<<<<<<<<<<<<<<<<<<",
"<<<<<<<<<<<<<<<<<<<<<<<<<<<<<<<<88888888<as@smmmdvmmmmmm*#Xvmvf nv@pddd X@@@@@@ @fdddpdvnvy#<<<<<<<<<<<<<<<<<<<<<<<<<<<<<<<<<<<<",
"<<<<<<<<<<<<<<<<<<<<<<<<<<<<<<<<qq888888<aavvvvvvvmmmmmv# Xdvvvbvv@pdsd X%@@@@@ @fsddpdddvdd##<<<<<<<<<<<<<<<<<<<<<<<<<<<<<<<<<<",
"<<<<<<<<<<<<<<<<<<<<<<<<<<<<<<<<qq9q8888<asmcdssmmmmmmc XXXX mmmmm@psffX@@@@@@@ @fssddd#ivvv##<<<<<<<<<<<<<<<<<<<<<<<<<<<<<<<<<<",
"<<<<<<<<<<<<<<<<<<<<<<<<<<<<<<<<q9888888dcmmmmmmmmmmmf*ooo+++fbmdddddddX@@@@@@@ @dddddddddbbvd 1<<<<<<<<<<<<<<<<<<<<<<<<<<<<<<<<",
"<<<<<<<<<<<<<<<<<<<<<<<<<<<<<<<<99808888dmmmmmmmmmmmm*%XXX+oo bN@@dddddX@@@@@@@ @dddddddd#bbvd 1<<<<<<<<<<<<<<<<<<<<<<<<<<<<<<<<",
"<<<<<<<<<<<<<<<<<<<<<<<<<<<<<<<<99008888dmmmmmmmmmmssX Xoooo+   dddddddX@@@@@$@@#@dddddddfddnnndd@@<<<<<<<<<<<<<<<<<<<<<<<<<<<<<",
"<<<<<<<<<<<<<<<<<<<<<<<<<<<<<<<<990088aacmmmmmmmmmmspX Xooo%% %idddddddp@@@@@@@@@@ddddddddudnnnnddd@<<<<<<<<<<<<<<<<<<<<<<<<<<<<",
"<<<<<<<<<<<<<<<<<<<<<<<<88880099<<<<<<ddmmmmmmmmmmm*@ XXXX%%%Xpddddddddd%X%%@@@@@@dddddddd%dvvvnvva#1111<<<<<<<<<<<<<<<<<<<<<<<<",
"<<<<<<<<<<<<<<<<<<<<<<<<88880099<<<<<dmmmmmmmmmmmv@  @@@%@@X ddddddddddd%X@@@@@XX@dddddddddd#dvvcvnndy@1<<<<<<<<<<<<<<<<<<<<<<<<",
"<<<<<<<<<<<<<<<<<<<<<<<<88880099<<<<ddmmmmmmmmmmmn%o @@%%@%X fdddddddddd%X@@%@%oX@dddddddddd#dvvcvvndd@1<<<<<<<<<<<<<<<<<<<<<<<<",
"<<<<<<<<<<<<<<<<<<<<<<<<88888099<dddvmmmmmmmmmmmdpdX @@%@@   sdddddddddd%X@@%%%oX@dddddddddddd@vccvvvvv@@<<<<<<<<<<<<<<<<<<<<<<<",
"<<<<<<<<<<<<<<<<<<<<<<<<8888999qdvvncmmmmmmmmmccdddX @%%XXX  fsddddddddd@X@@@XXoX%dddddddddddd@vbbbbvnnad##<<<<<<<<<<<<<<<<<<<<<",
"<<<<<<<<<<<<<<<<<<<<<<<<8888999ddmmmmmmmmmmmmmd@ssdX @@%  XXXddddddddddd%X@@%X XX@dddddddddddd#vbbbbvvnns@@<<<<<<<<<<<<<<<<<<<<<",
"<<<<<<<<<<<<<<<<<<<<<<<<8888qqddmmmmmmmmmmmmmvddssf@X%%%  XpdddddsdddddX%@@@%X XX%ddddddddddddd$abbbbcccvvf@<<<<<<<<<<<<<<<<<<<<",
"<<<<<<<<<<<<<<<<<<<<<<<<8888ddnnmmmmmmmmmmmmcdddff@@@@%XXXXpdddddddddddX@@@@@XX Xpddddddddddddd$abbbbcccvvs@<<<<<<<<<<<<<<<<<<<<",
"<<<<<<<<<<<<<<<<89008888<<<<ddvmmmmmmmmmmmmmv@dddp @@@X ooX%fsdddddddddX@@$$%oX @dddddddddddddd%abnnnbbbbbf#,,:::-------11<<<<<<",
"<<<<<<<<<<<<<<<<8q888888<<<dvmmmmmmmmmmmmmmf@ddddpX@@@X oo %ssdddddddddX@$$% XX @dddddddddddddddd#dvccbbbbbb+ ::::------11<<<<<<",
"<<<<<<<<<<<<<<<<88888888<1ssvmmmmmmmmmmmmmmf@ddddpX@@%X XX %sddddddddddX@%%% oX @ddddddddddddddsd#fvbbbbbbbbXX,:--------1<<<<<<<",
"<<<<<<<<<<<<<<<<88888888<ssmmmmmmmmmmmmmmmms@dds@X@@@%%XXX %ssddddddddd#@@%% oX @dddddddddddddddd#fvbbbbbbbb##,:--------<<<<<<<<",
"<<<<<<<<<<<<<<<<88888888<ddmmmmmmmmmmmmmmmms@@@@XX@@@@@XXX @@@paddddddd@@@@@o Xppdddddddddddddddddaabbbbcccbdd  ------,-<<<<<<<<",
"<<<<<<3<<<<<<<<<88888888<dvmmmmmmmmmmmmmmmm*X@@@ X@@@@XXXX X@@paddddddd@@@@@XX%sddffddddddddddddddi#bbbbccbbvd+X--------<<<<<<<<",
"<<<<<<<<<<<<<<<<8888888@#vmmmmmmmmmmmmmmms@<<<<< X@@%  X  <<<<@@$$ddsdf@@@@@@X@dsdsdddddddddddssddi#bbbbccnnvd##--------<<<<<<<<",
"<<<<<<<<<<<<<<<<8888888@#vmmmmmmmmmmmmmmms@<<<<< X@%%  o  <<<<@@$%ddsff@@@@@%X@dddddddddddddddsfddi#bbbbcnnvvdi=--------<<<<<<<<",
",,,,----<<<<<<<<<<<<<<<##vmmmmmmmmmmmmmmmf <<<<<Xo%%%  +  qq8888<<%%%ddX@@@@@X@sddddddsdffffss@X    vvvnncccnnna <<<<<<<<<<<<<<<",
",,:,----<<<<<<<<<<<<<<@vvmmmmmmmmmmmmmmmvf <<<oo%%%X+++   qq8888<<##@@%X@@@@%X@sddddddd@$%@@@@%X    pdnnccbcnvca <<<<<<<<<<<<<<<",
"--::----<<<<<<<<<<<<<<@vmmmmmmmmmmmmmmmmf<<<<<oo@@%  +o 00qq8888<<<<<%@X%@@@%X%sddddddp@%     <<-:,:#dvvbbbbvvbd <<<<<<<<<<<<<<<",
"-:::----<<<<<<<<<<<<<<#vmmmmmmmmmmmmmmmmf<<<<<oo@$%  oo 09998888<<<<<<< X%@@@X%fdddd@@@<<<<<<<<<-::: dvcbbbbvbbd <<<<<<<<<<<<<<<",
"--------<<<<<<<<<<<<<<#vcmmmmmmmmmmmmmmmf<<<<<XX@@%X X  00008888<<<<<<< X%%@@@@pdddp@@@<<<<<<<<<---- dccbbbbbbbf <<<<<<<<<<<<<<<",
"------>;<<<<<<<<<<<<<<<  vmmmmmmmmmmmmvf<<<<<<XX%X Xo  <q0008888<<<<<<< X%@@@@@ X@@@<<<<<<<<<<<<---- dvvbbbbbnbf <<<<<<<<<<<<<<<",
"----;;;;<<<<<<<<<<<<<<<  vmmmmmmmmmmmmf%<<<<<X@@@X Xo  <qq908888<<<<<<<<XX@@@@@  <<<<<<<<<<<<<<<---- svvbbbbbfi=<<<<<<<<<<<<<<<<",
"----;;;;<<<<<<<<<<<<<<<  vvmmmmmmmmmmmf <<<<XX@@@X Xo  <qq008888<<<<<<<<XX@@@@@  <<<<<<<<<<<<<<<---- fdvbbbbbf##<<<<<<<<<<<<<<<<",
"<<<<<<<<<<<<<<<<<<<<<<<<< *mmmmmmmmmmmf <<<<XX@@%o XX---<<<<<<<<<<<<<<<<  @@@@$  <<<<<<<<<<<<<<<<<<<<@%vnnnvvf  <<<<<<<<<<<<<<<<",
"<<<<<<<<<<<<<<<<<<<<<<<<< *nvvmmmmmmmnf <<<<OXX@%X XX---<<<<<<<<<<<<<<<<  @%@@X  <<<<<<<<<<<<<<<<<<<<@@vnnnssf  <<<<<<<<<<<<<<<<",
"<<<<<<<<<<<<<<<<<<<<<<<<<<<   vvnmmmmii<<<< %piip@XXX---<<<<<<<<<<<<<<<<  %%$ippi <<<<<<<<<<<<<<<<<<<  ffff%  <<<<<<<<<<<<<<<<<<",
"<<<<<<<<<<<<<<<<<<<<<<<<<<<<<<   nmmn  <<<< ijjhgf   ---<<<<<<<<<<<<<<<<   Xpgggj <<<<<<<<<<<<<<<<<<<      <<<<<<<<<<<<<<<<<<<<<",
"<<<<<<<<<<<<<<<<<<<<<<<<<<<<<<   nnnn  <<<< ijghggiX ,,-<<<<<<<<<<<<<<<< Xppfgghj <<<<<<<<<<<<<<<<<<<<     <<<<<<<<<<<<<<<<<<<<<",
"<<<<<<<<<<<<<<<<<<<<<<<<<<<<<<<<<      <<<< pjggggg% ,--<<<<<<<<<<<<<<<< @ggggjhj <<<<<<<<<<<<<<<<<<<<<<<<<<<<<<<<<<<<<<<<<<<<<<",
"<<<<<<<<<<<<<<<<<<<<<<<<<<<<<<<<<<<<<<<<<<<XX%%@ppiX ,,,<<<<<<<<<<<<<<<< @jgji$$%   <<<<<<<<<<<<<<<<<<<<<<<<<<<<<<<<<<<<<<<<<<<<",
"<<<<<<<<<<<<<<<<<<<<<<<<<<<<<<<<<<<<<<<<<XXXXXX%%i%X ,,,<<<<<<<<<<<<<<<< XfffiXXXXXX <<<<<<<<<<<<<<<<<<<<<<<<<<<<<<<<<<<<<<<<<<<",
"<<<<<<<<<<<<<<<<<<<<<<<<<<<<<<<<<<<<<<<<-XX%%+++%X <<<<<<<<<<<<<<<<<<<<<    X%%%$$$%  <<<<<<<<<<<<<<<<<<<<<<<<<<<<<<<<<<<<<<<<<<",
"<<<<<<<<<<<<<<<<<<<<<<<<<<<<<<<<<3<<<<<<-XXX++++XX <<<<<<<<<<<<<<<<<<<<<   XX%@@%%$XXXX  <<<<<<<<<<<<<<<<<<<<<<<<<<<<<<<<<<<<<<<",
"<<<<<<<<<<<<<<<<<<<<<<<<<<<<<<<<<<<<<<<<-oX +$%%X  <<<<<<<<<<<<<<<<<<<<<  XX@%@@%+oO%XX  <<<<<<<<<<<<<<<<<<<<<<<<<<<<<<<<<<<<<<<",
"<<<<<<<<<<<<<<<<<<<<<<<<<<<<<<<<<<<<<<<< oX%%   %@X  <<<<<<<<<<<<<<<<<<<<<     X+%%%%$%%% <<<<<<<<<<<<<<<<<<<<<<<<<<<<<<<<<<<<<<",
"<<<<<<<<<<<<<<<<<<<<<<<<<<<<<<<<<<<<<<<< ++++   oXX  <<<<<<<<<<<<<<<<<<<<<     XooooXXXXX <<<<<<<<<<<<<<<<<<<<<<<<<<<<<<<<<<<<<<",
"<<<<<<<<<<<<<<<<<<<<<<<<<<<<<<<<<<<<<<<< +++++++oXX  <<<<<<<<<<<<<<<<<<<<<<<<<<           <<<<<<<<<<<<<<<<<<<<<<<<<<<<<<<<<<<<<<",
"<<<<<<<<<<<<<<<<<<<<<<<<<<<<<<<<<<<<<<<<  +++++oooX  <<<<<<<<<<<<<<<<<<<<<<<<<<           <<<<<<<<<<<<<<<<<<<<<<<<<<<<<<<<<<<<<<",
"<<<<<<<<<<<<<<<<<<<<<<<<<<<<<<<<<<<<<<<<,          <<<<<<<<<<<<<<<<<<<<<<<<<<<<<<<<<<<<<<<<<<<<<<<<<<<<<<<<<<<<<<<<<<<<<<<<<<<<<"
};
