/* XPM */
static char *enemy_291755718567[] = {
/* columns rows colors chars-per-pixel */
"128 128 59 1 ",
"  c #010000",
". c #000100",
"X c #212128",
"o c #212029",
"O c #202129",
"+ c #212129",
"@ c #3A3A52",
"# c #3B3A52",
"$ c #3A3B52",
"% c #3A3A53",
"& c #634A42",
"* c #634B42",
"= c #634A43",
"- c #906858",
"; c #916858",
": c #906958",
"> c #906859",
", c #916859",
"< c #A88868",
"1 c #A98868",
"2 c #A88968",
"3 c #A98968",
"4 c #A88869",
"5 c #A98869",
"6 c #A88969",
"7 c #AD8472",
"8 c #AD8473",
"9 c #B5A46B",
"0 c #B5A56B",
"q c #C8A878",
"w c #C9A878",
"e c #C8A978",
"r c #C9A879",
"t c #DEA57A",
"y c #DEA57B",
"u c #DFA57B",
"i c #285A94",
"p c #295A94",
"a c #295B94",
"s c #295A95",
"d c #7384A4",
"f c #7384A5",
"g c #7385A5",
"h c #5AA4DE",
"j c #5AA5DE",
"k c #5BA5DE",
"l c #5AA5DF",
"z c #E6DE9C",
"x c #E6DE9D",
"c c #FFD6BC",
"v c #FFD6BD",
"b c #FFD7BD",
"n c #B5BCD6",
"m c #B4BDD6",
"M c #B5BDD6",
"N c #B5BDD7",
"B c #EFEFFE",
"V c #EFEEFF",
"C c #EFEFFF",
/* pixels */
"<<<<<<<<<<<<<<<<<<<<<<<<<<<<<<<<<<<<<<<<<<<<<<<<<<<<<<<<<<<<<<<<rreeqqqpppii<<<<qqqqqqqq44<<<<<<<<<<<<<<<<<<<<<<--------<<<<<<<<",
"<<<<<<<<<<<<<<<<<<<<<<<<<<<<<<<<<<<<<<<<<<<<<<<<<<<<<<<<<<<<<<iiiipppqqpffffp<<<qqqqqqqq44<<<<<<<<<<<<<<<<<<<<<<--------<<<<<<<<",
"<<<<<<<<<<<<<<<<<<<<<<<<<<<<<<<<<<<<<<<<<<<<<<<<<<<<<<<<<<<<<<iipapppqepfkllpp<<wqqqqqqq<<<<<<<<<<<<<<<<<<<<<<<<--------<<<<<<<<",
"<<<<<<<<<<<<<<<<<<<<<<<<<<<<<<<<<<<<<<<<<<<<<<<<<<<<<<<<<<    @@$##ppppppfllfpp<qqqqqqqq<<<<<<<<<<<<<<<<<<<<<<<<--------<<<<<<<<",
"<<<<<<<<<<<<<<<<<<<<<<<<<<<<<<<<<<<<<<<<<<<<<<<<<<<<<<<<<<OoooooOOO#ppppiilhkfi<eeqqeeer<<<<<<<<<<<<<<<<<<<<<<<<--------<<<<<<<<",
"<<<<<<<<<<<<<<<<<<<<<<<<<<<<<<<<<<<<<<<<<<<<<<<<<<<<<<    xzx9yxzzzzx Oppilhkkk  eqqeeer<<<<<<<<<<<<<<<<<<<<<<<<--------<<<<<<<<",
"<<<<<<<<<<<<<<<<<<<<<<<<<<<<<<<<<<<<<<<<<<<<<<<<<<<<< 8088zzyzxxzzuzz00pfkhhlll  eqqeqee<<<<<<<<<<<<<<<<<<<<<<<<--------<<<<<<<<",
"<<<<<<<<<<<<<<<<<<<<<<<<<<<<<<<<<<<<<<<<<<<<<<<<<<<<< 8x09zy9zxxzz0uzzzpkkhllll  qqqqqer<<<<<<<<<<<<<<<<<<<<<<<<--------<<<<<<<<",
"<<<<<<<<<<<<<<<<qqqqqqqq<<<<<<<<<<<<<<<<<<<<<<<<<<<<< 8x90008889000yzlhlllkjjhh  <<<<<<<<<<<<<<<<<<<<<<<--------<<<<<<<<--------",
"<<<<<<<<<<<<<<<<qqqqqqqq<<<<<<<<<<<<<<<<<<<<<<<<<<ppiffuxxzzyyxxzz00nhhlllkkjda  <<<<<<<<<<<<<<<<<<<<<<<--------<<<<<<<<--------",
"<<<<<<<<<<<<<<<<qqqqqqqq<<<<<<<<<<<<<<3<<<3<<<<<<ippilf9ccccvvvvcc0dkklllkkkli e<<<<<<<<<<<<<<<<<<<<<<<<--------<<<<<<<<--------",
"<<<<<<<<<<<<<<<<qqqqqqqq<<<<<<<<<<<<<3<<<<<<<<ppigkklffuccccvvvvcc00nmNNnkppi$ e<<<<<<<<<<<<<<<<<<<<<<<<--------<<<<<<<<--------",
"<<<<<<<<<<<<<<<<qqqqqqqq<<<<<<<<<<<<<<<<<<<<<<ippgllhi8ycbbbbbvvbc0yxzzzNl    ee<<<<<<<<<<<<<<<<<<<<<<<<--------<<<<<<<<,-------",
"<<<<<<<<<<<<<<<<qqqqqqqq<<<<<<<<<<<<<<<<<<<<<<ppkkllh#8cbbbcbbvvbccy9xzz8ieqreee<<<<<<<<<<<<<<<<<<<<<<<<--------<<<<<<<<,-------",
"<<<<<<<<<<<<<<<<qqqqeerr<<<<<<<<<<<<<<<<<<<<<ifkggklh@8cbbbcvvvvcccy0yyy8@qqqqeq<<<<<<<<<<<<<<<<<<<<<<<<--------<<<<<<<<,,------",
"<<<<<<<<<<<<<<<<qqqqeerr<<<<<<<<<<<<<<<<<<<<iikksgllh@8cbbccvvvvbccy0yuy8 qqqqqq<<<<<<<<<<<<<<<<<<<<<<<<--------<<<<<<<4:,------",
"<<<<<<<<qqqqqqqq<<<<<<<<<<<<<<<<<<<<<<<<<<<<pppppfkhlff8yybbccccyyy00ffmNy  <<<<<<<<<<<<<<<<<<<<<<<<<<<<<<<<<<<<,----::-<<<<<<<<",
"<<<<<<<<qqqqqqqq<<<<<<<<<<<<<<<<<<<<<<<<<<<<ppo pflhllf888bcbccc00008ffmNc  <<<<<<<<<<<<<<<<<<<<<<<<<<<<<<<<<<<<:>------<<<<<<<<",
"<<<<<<<<qqqqqqqq<<<<<<<<<<<<<<<<<<<<<<<<<<<<  << ihhl@fB88yxc88fBBBm@zzbcc  <<<<<<<<<<<<<<<<<<<<<<<<<<<<<<<<<<<<-------:<<<<<<<<",
"<<<<<<<<qqqqqqqq<<<<<<<<<<<<<<<<<<<<<<<<<<<<< << #ihh@fBBBfffiNBBBBN$zz0xc  <<<<<<<<<<<<<<<<<<<<<<<<<<<<<<<<<<<<--------<<<<<<<<",
"<<<<<<<<qqqqqqqq<<<<<<<<<<<<<<<<<<<<<<<<<<<<<<<< $pll%fBBViiiiNBBBBN$zz8uc  <<<<<<<<<<<<<<<<<<<<<<<<<<<<<<<<<<<<--------<<<<<<<<",
"<<<<<<<<qqqqeeqq<<<<<<<<<<<<<<<<<<<<<<<<<<<<<<<<rO$llkffffxxx88ffff9zcc88= <<<<<<<<<<<<<<<<<<<<<<<<<<<<<<<<<<<<<--------<<<<<<<<",
"<<<<<<<<qqqqeerw<<<<<<<<<<<<<<<<<<<<<<<<<<<<<<<<r  ffkfiiiccby88888ybbc8= <<<<<<<<<<<<<<<<<<<<<<<<<<<<<<<<<<<<<<--------<<<<<<<<",
"<<<<<<<<qqqqeerw<<<<<<<<<<<<<<<<<<<<<<<<<<<<<<3<eer  iflhhccbbbbcccccbb  <<<<<<<<<<<<<<<<<<<<<<<<<<<<<<<<<<<<<<<--------<<<<<<<<",
"qqqqqqqq<<<<<<<<<<<<<<<<<<<<<<<<<<<<<<<<<<<<<<<<11<<<<p@9u9ycccccccxu&&<<<<<<<<<<<<<<<<<<<<<<<<<<<<<<<<<--------<<<<<<<<<<<<<<<<",
"qqqqqqqq<<<<<<<<<<<<<<<<<<<<<<<<<<<<<<<<<<<<<<<<22<<<<  uu8uccccccbyy  <<<<<<<<<<<<<<<<<<<<<<<<<<<<<<<<<--------<<<<<<<<<<<<<<<<",
"qqqqqqqq<<<<<<<<<<<<<<<<<<<<<<<<<<<<<<<<<<<<<<<<2<<<<<<<==u98888cby8 $@1<<<<<<<<<<<<<<<<<<<<<<<<<<<<<<<<--------<<<<<<<<<<<<<<<<",
"qqqqqqqq<<<<<<<<<<<<<<<<<<<<<<<<<<<<<<<<<<<<<<<<22<<<<<@==uu8yyyyy88p$$1<<<<<<<<<<<<<<<<<<<<<<<<<<<<<<<<--------<<<<<<<<<<<<<<<<",
"qqqqqqqq<<<<<<<<<<<<<<<<<<<<<<<<<<<<<<<<<<<<<<<<<<<<<<$$@@yyyccc== fN%@1<<<<<<<<<<<<<<<<<<<<<<<<<<<<<<<<--------<<<<<<<<<<<<<<<<",
"qqqqqqqq<<<<<<<<<<<<<<<<<<<<<<<<<<<<<<<<<<<<<<<<<@@<<@ifBB$O*88&88=OONN@$<<<<<<<<<<<<<<<<<<<<<<<<<<<<<<<--------<<<<<<<<<<<<<<<<",
"qqqqqqqq<<<<<<<<<<<<<<<<<<<<<<<<<<<<<<<<<<<<<<<<@ffffpfNNNfff8&f88gi@NNfi$$@@<<<<<<<<<<<<<<<<<<<<<<<<<<<--------<<<<<<<<<<<<<<<<",
"qqqqqqqq<<<<<<<<<<<<<<<<<<<<<<<<<<<<<<<<<<<<<<<<$fBfffNBffBBBoihislfiNmmf$@@@@<<<<<<<<<<<<<<<<<<<<<<<<<<--------<<<<<<<<<<<<<<<<",
"<<<<<<<<<<<<<<<<<<<<<<<<<<<<<<<<<<<<<<<<--------@fBBBBBNffBBBBN@OOpp#nnnmm##f@@1<<<<<<<<<<<<<<<<<<<<<<<<<<<<<<<<<<<<<<<<<<<<<<<<",
"<<<<<<<<<<<<<<<<<<<<<<<<<<<<<<<<<<<<<<<<--------@fBBBBBNffBBBBn*  pp#nnnmn&pfp@1<<<<<<<<<<<<<<<<<<<<<<<<<<<<<<<<<<<<<<<<<<<<<<<<",
"<<<<<<<<<<<<<<<<<<<<<<<<<<<<<<<<<<<<<<<<----:,fffmBBBBBBffBBBBBB Old$ @NnnNn@pf@$<<<<<<<<<<<<<<<<<<<<<<<<<<<<<<<<<<<<<<<<<<<<<<<",
"<<<<<<<<<<<<<<<<<<<<<<<<<<<<<<<<<<<<<<<<----:$NNmnBBBBBBffBBBBBBfflf$O@NnnNNffp$$<<<<<<<<<<<<<<<<<<<<<<<<<<<<<<<<<<<<<<<<<<<<<<<",
"<<<<<<<<<<<<<<<<<<<<<<<<<<<<<<<<<<<<<<<<----@$BBBBBBBBBBffBBBBBBBBkf$$$NnNnnNd@$$<<<<<<<<<<<<<<<<<<<<<<<<<<<<<<<<<<<<<<<<<<<<<<<",
"<<<<<<<<<<<<<<<<<<<<<<<<<<<<<<<<<<<<<<<<----@$BBBBBBBBBBffBmfff*BBkfi$$Nd@$#@@@$$<<<<<<<<<       <<<<<<<<<<<<<<<<<<<<<<<<<<<<<<<",
"<<<<<<<<<<<<<<<<<<<<<<<<<<<<<<<<<<<<<<<<----@@BBBBBBBBBBffBmfff@CClfi@@Ndpiapp&$$<<<<<<<<<@$fff*@<<<<<<<<<<<<<<<<<<<<<<<<<<<<<<<",
"<<<<<<<<<<<<<<<<<<<<<<<<<<<<<<<<<<<<<<<<--->ffBBBBBBBnnBfffmBBmfCCCNi  $dnnNNNN$@<<<<<<<  fmBBBnf  <<<<<<<<<<<<<<<<<<<<<<<<<<<<<",
"<<<<<<<<<<<<<<<<<<<<<<<<<<<<<<<<--------<<4@fmBBBBBBBfNBNNNNBNNNCCBNm$aNffffNffpi$------  fmBBBffOO<<<<<<<<<<<<<<<<<<<<<<<<<<<<<",
"<<<<<<<<<<<<<<<<<<<<<<<<<<<<<<<<--------<<4@fBBBBBBBB*fNBBBBBfNBCCBBBffBN@@@Nf@ff@::----  mmmNNp$$#<<<<<<<<<<<<<<<<<<<<<<<<<<<<<",
"<<<<<<<<<<<<<<<<<<<<<<<<<<<<<<<<--------@NBBBBBBBBBi@-#$BBBBBfnBCCCNfBBBBBBB@O#ff@,:--- fBmmNf@NNBN$<<<<<<<<<<<<<<<<<<<<<<<<<<<<",
"<<<<<<<<<<<<<<<<<<<<<<<<<<<<<<<<--------@NBBBBBBmmN*@-@$NNBBBfnBCCCNfBBBBBmNf@@ff@@,-:, fBNmnf@fmNN$<<<<<<<<<<<<<<<<<<<<<<<<<<<<",
"<<<<<<<<<<<<<<<<<<<<<<<<<<<<<<<<--------@NBBBBBBf$$,---:@@CCBfffffBNfBBBBB@@Nf@fff@@-,: dBdppp@O   <<<<<<<<<<<<<<<<<<<<<<<<<<<<<",
"<<<<<<<<<<<<<<<<<<<<<<<<<<<<<<<<--------NBBBBBmmmmmff--,OOCCBnnnnnnNNBBBNNmmfiifff@$- *mnNff$pfNfOO<<<<<<<<<<<<<<<<<<<<<<<<<<<<<",
"<<<<<<<<<<<<<<<<<<<<<<<<<<<<<<<<--------BBBBBBf@BBBff:,,  CCBBBBBBfNBBBBNfBB iffff$$> fBNplf$fNBN@$<<<<<<<<<<<<<<<<<<<<<<<<<<<<<",
"<<<<<<<<<<<<<<<<<<<<<<<<<<<<<<<<--------<BBBBBf@fffffff,<1 NBBBBffBBBff@NBBB ifff@@@@ofBNppp$$   <<<<<<<<<<<<<<<<<<<<<<<<<<<<<<<",
"<<<<<<<<<<<<<<<<<<<<<<<<--------<<<<<<<<>BBBBnf@fffffff<<< NBBBNNNNNmNNdNBBB affi#@@@fmBmfff#$a$o<<<<<<<<<<<<<<<<<<<<<<<rreeeqqq",
"<<<<<<<<<<<<<<<<<<<<<<<<--------<<<<<<<<>BBBn@fffffffff<<< NBBNfBBdp#BBBBBBB if$$fff NBmNNnn#fNa#<<<<<<<<<<<<<<<<<<<<<<<rreeqqqq",
"<<<<<<<<<<<<<<<<<<<<<<<<--------<<<<<<<<-BBBm@fffffffff<#@NNBBmfNNmNnBBBNNNN ififfff NBNNNfpo#f#@<<<<<<<<<<<<<<<<<<<<<<<rreeqqqq",
"<<<<<<<<<<<<<<<<<<<<<<<<--------<<<<<<<<->>->-iiifffffff@@BBBBmiNNNBBBBNNNdd$fffffff$NNfdf@OoO <<<<<<<<<<<<<<<<<<<<<<<<<rrerqqqq",
"<<<<<<<<<<<<<<<<<<<<<<<<----::,,<<<<<<<<----,,#%#iffffff@@BBBBN#BBdNBBBdNB Offfffffff#    $$$$<<<<<<<<<<<<<<<<<<<<<<<<<<qqqqqqqq",
"<<<<<<<<<<<<<<<<<<<<<<<<----::,,<<<<<<<<----:,#%##iiiffinnBBBBN@NNpnBBBaNN Oiffffffff#OOoO@@$$<<<<<<<<<<<<<<<<<<<<<<<<<<qqqqqqqq",
"<<<<<<<<<<<<<<<<<<<<<<<<----::,,<<<<<<<<----::--<@$@#fi#BBBBBBmiNminBBBpfN#$#ifffffff$$$@@<<<<<<<<<<<<<<<<<<<<<<<<<<<<<<qqqqqqqq",
"<<<<<<<<<<<<<<<<<<<<<<<<--->>>,,<<<<<<<<--->>:--<<<<<fa#ffBBBBBB##BBBBBBN@NN O$$@@@$$$<<<<<<<<<<<<<<<<<<<<<<<<<<<<<<<<<<qqqqqqqq",
"<<<<<<<<<<<<<<<<<<<<<<<<<<<<<<<<,-------<<<<<<<<<<<<<ffpffBBBBBBiiBBBBBBNnnn OOOOO###<<<<<<<<<<<wwqqqqqq<<<<<<<<qqqqqqqq<<<<<<<<",
"<<<<<<<<<<<<<<<<<<<<<<<<<<<<<<<<--------<<<<<<<<<<<<<<ffffBBBBBBffBBBBBBBBBB      <<<<<<<<<<<<<<rwqqqqqq<<<<<<<<qqqqqqqq<<<<<<<<",
"<<<<<<<<<<<<<<<<<<<<<<<<<<<<<<<<--------<<<<<<<<<<<<<fNNffNnBBBBNNfNBBBBBBBBNfOiai   <<<<<<<<<<<reeqqqqq<<<<<<<<qqqeqqqq<<<<<<<<",
"<<<<<<<<<<<<<<<<<<<<<<<<<<<<<<<<--------<<<<<<<<<<<<<fmBfffnBBBBBB fBBBBBBBBCf#ffa##$$<<<<<<<<<<rreeqqqq<<<<<<<<qqqqqqqq<<<<<<<<",
"<<<<<<<<<<<<<<<<<<<<<<<<<<<<<<<<--------<<<<<<<<<<<<<fNBffBBBBBBBB  $CCBBBBBCNd O#fff$$  <<<<<<<qqqqqqqq<<<<<<<<qqqqeqqq<<<<<<<<",
"<<<<<<<<<<<<<<<<<<<<<<<<<<<<<<<<--------<<<<<<<<<<<$$fNBffBBBBBBNNO@$NNBBBBBCNN  $iifii@@@<<<<<<qqqqqqqq<<<<<<<<qqqqqqqq<<<<<<<<",
"<<<<<<<<<<<<<<<<<<<<<<<<<<<<<<<<--------<<<<<<<<<<<$@fNBffBBBBBB$#@ii $BBBBBBBB    @fffff$<<<<<<qqqqqqqq<<<<<<<<qqqqqqqq<<<<<<<<",
"<<<<<<<<<<<<<<<<<<<<<<<<<<<<<<<<--------<<<<<<<<<<<fffNBffBBBBBBOO$iiiifNBBBBBB$$  O@$ifff$$<<<4qqqqqqqq<<<<<<<<qqqqqqqq<<<<<<<<",
"<<<<<<<<<<<<<<<<<<<<<<<<<<<<<<<<<<<<<<<<<<<<<<<<1@@NNfNBggBBBCCCOo#ipppOfNCCCCCdfo#O #$fffi#@eeq<<<<<<<<qqqqqqqe<<<<<<<<--------",
"<<<<<<<<<<<<<<<<<<<<<<<<<<<<<<<<<<<<<<<<<<<<<<<<@@@BBfddggBBBCCCOo#pihk#O&CCCCCCBo@$<<< $fff@@qq<<<<<<<<qqqqqqqq<<<<<<<<--------",
"<<<<<<<<<<<<<<<<<<<<<<<<<<<<<<<<<<<<<<<<<<<<<<@@Nd@NNddNggBBBBMMff#iihl%#pNCCCCCB#ii << $affddfq<<<<<<<<qqqqqqqq<<<<<<<<--------",
"<<<<<<<<<<<<<<<<<<<<<<<<<<<<<<<<<<<<<<<<<<<<<<@@BN@ffdNBddBBBBMokk#iill%iiNNCCCCB#ff  <<@$ffNNfq<<<<<<<<qqqqqqqq<<<<<<<<--------",
"<<<<<<<<<<<<<<<<<<<<<<<<<<<<<<<<<<<<<<<<<<<<<<ffBBBp#fNBdfCCCCM $$kfakklp#&fCCCCB@ff$$<<rr@fnnmp#<<<<<<<qqqqqqqq<<<<<<<<--------",
"<<<<<<<<<<<<<<<<<<<<<<<<<<<<<<<<<<<<<3<<<<<#fBNNBBBdfdNNmmCCNNf  OfialkfpO #NCCCBffi$#<<er@fNnmp@<<<<<<<qqqqqqqq<<<<<<<<--------",
"<<<<<<<<<<<<<<<<<<<<<<<<<<<<<<<<<<<<<<<<<<<$fBBBBBBBCdddBBCN   +Oo #ill OOoO nCCBB@@f$ <eqqfffNp@1<<<<<<qqqqqqqq<<<<<<<<--------",
"<<<<<<<<<<<<<<<<<<<<<<<<<<<<<<<<<<<<<<<<<<<ifBBBBBBBCffdBBNd+++XOoo##aiOooOOONCCBB@@f@O<eqqipfmp@1<<<<<<qqqqqqqq<<<<<<<<------,-",
"<<<<<<<<--------<<<<<<<<<<<<<<<<<<<<<<<<e@$NNBBBBBBNNmffBBf$OOXX+++    +oo+++gNCBBffii@  <<<$ff$@eqqqqqq<<<<<<<<--------<<<<<<<<",
"<<<<<<<<--------<<<<<<<<<<<<<<<<<<<<<<<<r@$BBBBBBBB* BNfBB$ OOXo+++  +++oo+++ *CBBBB@ff  <<<2$$$@eqqqqqq<<<<<<<<--------<<<<<<<<",
"<<<<<<<<--------<<<<11<<<<<<<<<<<<<<<<<<w@@BBBBBBNd@XNN@NN#oOooo+++  +X+oXXXO #gnBBB#ffOO<<<22@@@qqqqqqq<<<<<<<<--------<<<<<<<<",
"<<<<<<<<--------<<<<11<<<<<<<<<<<<<<<<<<e@@BBBBBBm OXNfXNN#OoOoo+++  +XoXXXXo O#fBBB#ff@@<<<<<<<qqqqqqqq<<<<<<<<--------<<<<<<<<",
"<<<<<<<<--------<<<<12<<<<<<<<<<<<<<<<<<effBBBBBBm NB*dB&# O++++++   ooo##OOo   *BBBBd$fi <<12<<qqqqqqqq<<<<<<<<--------<<<<<<<<",
"<<<<<<<<--------<<<<11<<<<<<<<<<<<<<<<<<@NNBBBBBmf BB*fn#Off++++++## ooo$#O+o O#fmmmBNfpi <<11<<qqqqqqqq<<<<<<<<--------<<<<<<<<",
"<<<<<<<<--------<<<<<<<<<<<<<<<<<<<<<<<<@NBBBBBB*OOBB*O OOBN++++OOg$ oO$$$$$O #gff@fBNN$@ <<11<<qqqqqqqq<<<<<<<<--------<<<<<<<<",
"<<<<<<<<--------<<<<<<<<<<<<<<<<<<<<<<ff@NBBBBNnNf NN@*f$$f=+++ O+ggi O$$$$##+#gfffffmNff@<<11<<qqqqqqqq<<<<<<<<--------<<<<<<<<",
"<<<<<<<<<<<<<<<<<<<<<<<<<<<<<<<<rqqqrrff@mBBBBffCN NN$fm@@OO+++ oofff  #@@@@@O@fffff@NNNN$2<<<<<<<<<<<<<<<<<<<<<<<<<<<<<<<<<<<<<",
"<<<<<<<<<<<<<<<<<<<<<<<<<<<<<<<<eeqqrwff$mBBNfBBCCBBBBBB*@oo+++ fffff .#@@@@#O$ffffff@fNNm22<<<<<<<<<<<<<<<<<<<<<<<<<<<<<<<<<<<<",
"<<<<<<<<<<<<<<<<<<<<<<<<<<<<<<<<qqqqwfnnNmmmnNBBCCCNmBBN##oo+++ gggfg O#@@@@#O#ffffffpfffmf <<<<<<<<<<<<<<<<<<<<<<<<<<<<<<<<<<<<",
"<<<<<<<<<<<<<<<<<<<<<<<<<<<<<<<<qqqqwfBBBmffnBBBCCC* Bm@OOOO+++ ggfffO+#@@@@@O#ffffffff@aN* <2<<<<<<<<<<<<<<<<<<<<<<<<<<<<<<<<<<",
"<<<<<<<<<<<<<<<<<<<<<<<<<<<<<<<<qqqqqfBBBBBBBBBBCNffff=oOo+++ #gfffffoo#@@@@#O$gffffffffdNNddd$1<<<<<<<<<<<<<<<<<<<<<<<<<<<<<<<<",
"<<<<<<<<<<<<<<<<<<<<<<<<<<<<<<<<qqqqqfBBBBBBBBBBCN#ffo ooo+X+ agfffffOO#@@@@#O$gffffffffdnNNdd$1<<<<<<<<<<<<<<<<<<<<<<<<<<<<<<<<",
"<<<<<<<<<<<<<<<<<<<<<<<5<<<<<<<<wqqfNBBBBBBBBBBBfafgfo ooXXO+ agfffffoO#@@@$$$$ $ffffff@anNnmmma$<<<<<<<<<<<<<<<<<<<<<<<<<<<<<<<",
"<<<<<<<<<<<<<<<<<<<<<<<<<<<<<<<<qffnNBBVBBBBBBnnfffgfo OooX## agffggfpaO@@@$$$# $ffffffpddNNNmmdffa#<<<<<<<<<<<<<<<<<<<<<<<<<<<<",
"<<<<<<<<<<<<<<<<<<<<<<5<qqqqeeww<fdBBBBBBBBBBBf@fffffoOOOO###Oaffffffffo#$$$##$ @ffffffff@NNNNNnNfd@1111<<<<<<<<<<<<<<<<<<<<<<<<",
"<6<<<<<<<<<<<<<<<<<5<<<<qqqqeefffnBBBBBBBBBBn@fffffO #$$#$$O ffffffffffo##$$#OO $fffffffff@dnnnnNNNN$@11<<<<<<<<<<<<<<<<<<<<<<<<",
"<<<<<<<<<<<<<<<<<<<<<<<<qqqqeefffnBBBBBBBBBBN@fffffo #$$#$#O ffffffffffo@@$$#Oo @fffffffff@fnnnmNNNNp$12<<<<<<<<5<<<<<<<<<<<<<<<",
"<<<<<<<<<<<<<<<<<<<<<<<<qqqqffNBBBBBBBBBBBBf@ffffffO #$$$$   fffffffffgO@@%$#oo @fffffffff@fnnnnmNNnmd@2<<<<<<<<<<<<<<<<<<<<<<<<",
"<<<<<<<<<<<<<<<<<<<<<<<<qfffNNBBBBBBBBBBBBNffffffffO $$$OOO  gfffffffffO@@@@OOo @fffffffffffffnnnnnnmmd@#<<<<<<<<<<<<<<<<<<<<5<<",
"<<<<<<<<<<<<<<<<<<<<<<<<qfffNBBBBBBBBBBBBNNffffffffO $$$  ooOffgfffffff+@@@@ Oo @fffffffffff@fNNmnnNmmN$#<<<<<<<<<<<<<<<<<<<<<<<",
"<<<<<<<<<<<<<<<<<<<<<<<ffffBBBBBBBBBBBBBBd#ffffffff$O###  oafffffffffff#@@@@ oo @fffffffffff@fNnmmnNNNm@%<<<<<<<<<<<<<<<<<<<<<<<",
"<<<<<<<<<<<<<<<<<<<<<<fnnmmBBBBBBBBBBBBBNfifffffff$$$$#oooopfffffffffff#@@@@o opifffffffffffiffNmmnnnmNdf  <<<<<<<<<<<<<<<<<<<<<",
"<<<<<<<<<<<<<<<<reeeqqfmBBBBBBBBBBBBBBBBdffffffffi #$@O ooo#ggfffffffff#$$##O $fffffffffffffff@NmmMMMMMMf  :::----------<<<<<<<<",
"<<<<<<<<<<<<<<<<reeewrfmBBBBBBBBBBBBBBBBddfffffffiO$$$O oO #ggfffffffffO$#  O @fffffffffffffff$NMMMMMMMMf$$,::----------<<<<<<<<",
"<<<<<<<<<<<<<<<<qqeewwfnBBBBBBBBBBBBBBBBfafffffffpo#$#O OO @gffffffffffO$$  O $fffffffffffffff$fMMMMMMMMg*#,:-----------<<<<<<<<",
"<<<<<<<<<<<<<<<<qqqq@=BBBBBBBBBBBBBBBBBBf$$$@@@@Oo##$##oOO o#ffgfffffff@@$  o $ffffffffffffffff$dMMMMMMMmmf ------------<<<<<<<<",
"<<<<<<<<<<<<<<<<qqeq@&BBBBBBBBBBBBBBBCmf*$@@@@@@ O@@$@@Ooo O@@@@fffffff@@@OO  #ffffffffffffffff$dMMMMMMMMMf#------------<<<<<<<<",
"<<<<<<6<<<<<<<<<qqeeffBBBBBBBBBBBBBBCCf$<<<<<<<< O@$$$OOoO  1$$@fffffff$@@oOO #ffffffffffffffff$dMMMMMMMMMfp------------<<<<<<<<",
"<<<<<<<<<<<<<<<<qq#$nBBBBBBBBBBBBBBBCCf <<<<<<<< O$$#  o  <<12<<@$#ifff@@@##@O$fffffffffffff$$  dMMMmMMMMMMMO ----------<<<<<<<<",
"<<<<<<<<<<<<<<<<qq#@nBBVBBBBBBBBBBBCCCg <<<<<<<< o$##  o  <<22<<@##ifff@@@$##O@ffffffffffffi$$  aMMMMMMMMMMMo ----------<<<<<<<<",
",:,:----<<<<<<<<<<@@mBBBBBBBBBBBBBBBBff<<<<<1111oO###  X  reqqqq<<<@@@@O@@@@@O#ffffff@@     <<<<##fmmmmmmMMMO ,-<<<<<<<<<<<<<<<<",
",,::----<<<<<<<<<<OOmBBBBBBBBBBBBBBBm$$<<<<<11Oo###OXXO   eeqqqq<<<<@@#O@@@@#O#fff@@@@$    <<<<<++fNnnmmMMMMO :-<<<<<<<<<<<<<<<<",
"->:>----<<<<<<<<<<  mBBBBBBBBBBBBBBBm <<<<<<11Oo$$$  oo rreeqqqq<<<<<<<O#@@@#OOffi$@#<<<<<<<<<<<  fNnnNNMMMMo --<<<<<<<<<<<<<<<<",
"->>>----<<<<<<<<<<  mBBBBBBBBBBBBmff<<<<<<<<22oO$$$  oo rreeqqqq<<<<<<< O@@@@Oo##$<<<<<<<<<<<<<<  dNnnNNMMMMO --<<<<<<<<<<<<<<<<",
"--------<<<<<<<<<<  mmBBBBBBBBBBBmii<<<2<2<<11OO@@#O o  rrqqqqqq<<<<<<< O##@$$O$$$<<<<<<<<<<<<<<  fNNNNNMMmmO --<<<<<<<<<<<<<<<<",
"--------<<<<<<<<<<<< $BBBBBBBBBBBf  <<<<<<<<11OO#O oo  <eeqqqqqq<<<<<<< O##$$$#  <<<<<<<<<<<<<<<  fNmmNNMMg#,,--<<<<<<<<<<<<<<<<",
"--------<<<<<<<<<<<<<%fffnBBBBBBBf  <<<<<<<<1O$$@O oo  <eeqqqqqq<<<<<<<<Oo@@$@$  <<<<<<<<<<<<<<<,:#&mNNd**#,:::-<<<<<<<<<<<<<<<<",
"--------<<<<<<<<<<<<<<   nBBBBBBmf <<<<<<<<<O+$#@O Oo  <eeqqqqqq<<<<<<<<OO@@@@$  <<<<<<<<<<<<<<<::  ddd$X  ;:::-<<<<<<<<<<<<<<<<",
"<<<<<<<<<<<<<<<<<<<<<<<<<BBBBBBBgg<<<<<<<<<<oo###o oO---<<<<<<<<<<<<<<<<  #$$$@  <<<<<<<<<<<<<<<<<     <<<<<<<<<<<<<<<<<<<<<<<<<",
"<<<<<<<<<<<<<<<<<<<<<<<<<NmNBBBBaa<<<<<<<<<<OOO##o OO---<<<<<<<<<<<<<<<<  ##$$O  <<<<<<<<<<<<<<<<<<    <<<<<<<<<<<<<<<<<<<<<<<<<",
"<<<<<<<<<<<<<<<<<<<<<<<<<   mmmm  <<<<<<<<< %iaaa#OOO---<<<<<<<<<<<<<<<<  %%#iiia <<<<<<<<<<<<<<<<<<<<<<<<<<<<<<<<<<<<<<<<<<<<<<",
"<<<<<<<<<<<<<<<<<<<<<<<<<<<<      <<<<<<<<< alllkg   ---<<<<<<<<<<<<<<<<   oikkkl <<<<<<<<<<<<<<<<<<<<<<<<<<<<<<<<<<<<<<<<<<<<<<",
"<<<<<<<<<<<<<<<<<<<<<<<<<<<<     <<<<<<<<<< aklllla+ ,:-<<<<<<<<<<<<<<<< Oiiglllk <<<<<<<<<<<<<<<<<<<<<<<<<<<<<<<<<<<<<<<<<<<<<<",
"<<<<<<<<<<<<<<<<<<<<<<<<<<<<<<<<<<<<<<<<<<< akllllk$ :--<<<<<<<<<<<<<<<< #hlklllk <<<<<<<<<<<<<<<<<<<<<<<<<<<<<<<<<<<<<<<<<<<<<<",
"<<<<<<<<<<<<<<<<<<<<<<<<<<<<<<<<<<<<3<<<<<<oO###iiaO ,:,<<<<<<<<<<<<<<<< #kkkp%@#   <<<<<<<<<<<<<<<<<<<<<<<<<<<<<<<<<<<<<<<<<<<<",
"<<<<<<<<<<<<<<<<<<<<<<<<<<<<<<<<<<<<<<<<<OOOOoO##a$O ::,<<<<<<<<<<<<<<<< OfffiOOoooO <<<<<<<<<<<<<<<<<<<<<<<<<<<<<<<<<<<<<<<<<<<",
"<<<<<<<<<<<<<<<<<<<<<<<<<<<<<<<<<<<<<<<<,++$#+++#O <<<<<<<<<<<<<<<<<<<<<    o##$$$$%  <<<<<<<<<<<<<<<<<<<<<<<<<<<<<<<<<<<<<<<<<<",
"<<<<<<<<<<<<<<<<<<<<<<<<<<<<<<<<<<<<<<<<,+++++++OO <<<<<<<<<<<<<<<<<<<<<   oo#$$$%$OOOO  <<<<<<<<<<<<<<<<<<<<<<<<<<<<<<<<<<<<<<<",
"<<<<<<<<<<<<<<<<<<<<<<<<<<<<<<<<<<<3<<<<,O+ +$##o  <<<<<<<<<<<<<<<<<<<<<  Oo$#$$%+++%OO  <<<<<<<<<<<<<<<<<<<<<<<<<<<<<<<<<<<<<<<",
"<<<<<<<<<<<<<<<<<<<<<<<<<<<<<<<<<<<<<<<< O+$$   ##O  <<<<<<<<<<<<<<<<<<<<<     O+$%%####$ <<<<<<<<<<<<<<<<<<<<<<<<<<<<<<<<<<<<<<",
"<<<<<<<<<<<<<<<<<<<<<<<<<<<<<<<<<<<<<<<< OOO+   ooo  <<<<<<<<<<<<<<<<<<<<<     O+++++++++ <<<<<<<<<<<<<<<<<<<<<<<<<<<<<<<<<<<<<<",
"<<<<<<<<<<<<<<<<<<<<<<<<<<<<<<<<<<<<<<<< Ooo++++ooo  <<<<<<<<<<<<<<<<<<<<<<<<<<           <<<<<<<<<<<<<<<<<<<<<<<<<<<<<<<<<<<<<<",
"<<<<<<<<<<<<<<<<<<<<<<<<<<<<<<<<<<<<<<<<  ooXXXXoXO  <<<<<<<<<<<<<<<<<<<<<<<<<<           <<<<<<<<<<<<<<<<<<<<<<<<<<<<<<<<<<<<<<",
"<<<<<<<<<<<<<<<<<<<<<<<<<<<<<<<<<<<<<<<<,          <<<<<<<<<<<<<<<<<<<<<<<<<<<<<<<<<<<<<<<<<<<<<<<<<<<<<<<<<<<<<<<<<<<<<<<<<<<<<"
};
