/* XPM */
static char *enemy_061755718562[] = {
/* columns rows colors chars-per-pixel */
"128 128 50 1 ",
"  c #000001",
". c #212028",
"X c #202129",
"o c #212129",
"O c #3A3A52",
"+ c #3B3A52",
"@ c #3A3B52",
"# c #3B3B52",
"$ c #3A3A53",
"% c #624A42",
"& c #634A42",
"* c #906858",
"= c #916858",
"- c #906958",
"; c #906859",
": c #A88868",
"> c #A98868",
", c #A88968",
"< c #A88869",
"1 c #A98869",
"2 c #A88969",
"3 c #AD8473",
"4 c #B5A56A",
"5 c #B5A56B",
"6 c #C8A878",
"7 c #C9A878",
"8 c #C8A979",
"9 c #DEA47B",
"0 c #DEA57B",
"q c #285A94",
"w c #295A94",
"e c #295B94",
"r c #295A95",
"t c #7384A4",
"y c #7284A5",
"u c #7384A5",
"i c #5AA5DE",
"p c #5BA5DE",
"a c #5AA5DF",
"s c #E6DE9C",
"d c #E7DE9C",
"f c #E6DF9C",
"g c #FFD6BC",
"h c #FFD6BD",
"j c #FFD7BD",
"k c #B5BCD6",
"l c #B5BDD6",
"z c #B5BDD7",
"x c #EFEEFF",
"c c #EFEFFF",
/* pixels */
"::::::::::::::::::::::::::::::::::::::::::::::::::::::::::::::::8888887qwwqqww::66666666>>>>::::::::::::::::::::=*******::::::::",
"::::::::::::::::::::::::::::::::::::::::::::::::::::::::::::::eeqqwqw87qwwuyuww:66666666>>,>::::::::::::::::::::********::::::::",
"::::::::::::::::::::::::::::::::::::::::::::::::::::1:::::::::qeqqwwq868wqpaauw:77666666::::::::::::::::::::::::********::::::::",
"::::::::::::::::::::::::::::::::::::::::::::::::::::::::::::q ###$###wwq##uyapu  6666666::::::::::::::::::::::::********::::::::",
":::::::::::::::::::::::::::::::::::::::::::::::::::::::::::qqoXX..oooqqq$$qqaaa  6666666::::::::::::::::::::::::********::::::::",
":::::::::::::::::::::::::::::::::::::::::::::::::::,::::   4ssss55dds44 tpppqpa  6666666::::::::::::::::::::::::********::::::::",
"::::::::::::::::::::::::::::::::::::::::::::::::::,,>e$ 555599ssds9dss94tqpptaa  6666688::::::::::::::::::::::::********::::::::",
"::::::::::::::::::::::::::::::::::::::::::::::::::>>>q$&ssss540sss59ssss3$ppaaa  6666688::::::::::::::::::::::::********::::::::",
"::::::::::::::::66666666:::::::::::::::::::::::::::  @3dddddss954433355d3#pppq 6::::::::::::::::::::::::=***---*::::::::********",
"::::::::::::::::66666666::::::::::::::::::::::::::q$@o3d9900990ssd999ddtttpaq# 6::::::::::::::::::::::::****---=::::::::********",
"::::::::::::::::66666666::::::::::::::::::::::,::eqqe.3d4444559hjjhhgghqtaaa  66::::::::::::::::::::::::****;-**::::::::********",
"::::::::::::::::66666666::::::::::::::::::::::,>etpqeo&4sss45sjhhhhhjjh994ee 666::::::::::::::::::::,:::****;***::::::::********",
"::::::::::::::::66667776::::::::::::::::::::,,:>qtpqq#&4sss05jhhhhhhhhhhd9  6666::::::::::::::::::::::,:********::::::::********",
"::::::::::::::::66667776::::::::::::::::::::,>qqppa$ q3dss50jjhhhhhhhhjhjj  6666::::::::::::::::::::::::********::::::::********",
"::::::::::::::::66668788::::::::::::::::::::>>qqaaatt@&35550jhhhhhhhhhhhjj  6666::::::::::::::::::::::::********::::::::********",
"::::::::::::::::66668888::::::::::::::::::::>>eqaaaap$  5550jhhhhhhhhhhjjj  6666::::::::::::::::::::::::********::::::::********",
"::::::::66666666::::::::::::::::::::::::::::::$$ppppatttyy49j000hhjhhhh933  >,::::::::::::::::::::::::::::::::::********::::::::",
"::::::::66666666::::::::::::::::::::::::::::::  tppaaaaayy49d443hhjjhhj333>,::::::::::::::::::::::::::::::::::::********::::::::",
"::::::::66666666:::::::::::::::::::::::::::::::: eaape$ fsd4$xl4yy39j995kx$$::::::::::::::::::::::::::::::::::::********::::::::",
"::::::::66666666::::::::::::::::::::::::::::::::6@qeeaatlld4@xl&xk&tt&&&kx$$::::::::::::::::::::::::::::::::::::********::::::::",
"::::::::66666666::::::::::::::::::::::::::1:::::6  eepaaaas4$xl&xx$qq$$&kx$$::::::::::::::::::::::::::::::::::::********::::::::",
"::::::::66666666::::::::::::::::::::::::::::::::66 eqqeeaalaattqyy35ss9$tt$>::::::::::::::::::::::::::::::::::::********::::::::",
":::::::166666688::::::::::::::::::::::::::::::::66667 @ettttuqqq335sjjg&%@::::::::::::::::::::::::::::::::::::::********::::::::",
":::::::166666668::::::::::::::::::::::::::::::1:66668888     aaahjhhjjj93%::::::::::::::::::::::::::::::::::::::********::::::::",
"87666766::::::::::::::::::::::::::::::::::::::::>,:::::::: &4jjjhhhhj4493o>>::::::::::::::::::::::::::::********::::::::::::::::",
"66666666::::::::::::::::::::::::::::::::::::::::,,::::::::@39jjjhhhhg3393 ,,::::::::::::::::::::::::::::********::::::::::::::::",
"66666666::::::::::::::::::::::::::::::::::::::::::::::::@$cl 9sj9933399&&:::::::::::::::::::::::::::::::********::::::::::::::::",
"76666666::::::::::::::::::::::::::::::::::::::::::::::::@@cly3999995499&&:::::::::::::::::::::::::::::::********::::::::::::::::",
"66666666::::::::::::::::::::::::::::::::::::::::::::::::@@ccco@&gjj0099@$,::::::::::::::::::::::::::::::****----::::::::::::::::",
"66666666::::::::::::::::::::::::::::::::::::::::::::::::ttcccoqa  3&& @lt$,,::::::::::::::::::::::::::::****----::::::::::::::::",
"66666666:::::::::::::::::::::::::::::::::::::::::::::::tlllcctttqq3tqo$ltt$@@$$:::::::::::::::::::::::::****=*;;::::::::::::::::",
"66666666::::::::::::::::::::::::::::::::::::::::::::::ttcctlccl aaqta$@lll@@@@$:::::::::::::::::::::::::******;;::::::::::::::::",
"::::::::::::::::::::::::::::::::::::::::;-******:::$$tlclltlcccc$#oeq@@lllll#qt@@   ::,>::::::::::::::::::::::::::::::::::::::::",
"::::::::::::::::::::::::::::::::::::::::=-******:,:qqtlclltlcccc&& qq@@lllll&tt@@$&&:,,>::::::::::::::::::::::::::::::::::::::::",
"::::::::::::::::::::::::::::::::::::::::=*******,$$xxxxccctlccccxx tp#@ tzlllt@ @yxl   >::::::,,::::::::::::::::::::::::::::::::",
"::::::::::::::::::::::::::::::::::::::::=*******,@@xxxxxcctlccccxxttt$$ tllzzt@@etll$tt  :::::,,::::::::::::::::::::::::::::::::",
"::::::::::::::::::::::::::::::::::::::::********:$$xcccccctlccccxxcle#@ tllllt#ttt$@yll  >,:>>>>,>:,::::::::::::::::::::::::::::",
"::::::::::::::::::::::::::::::::::::::::********::,ttccccctlcttt@&ccxeq#$ooo.lloo. .@@$            ,::::::::::::::::::::::::::::",
"::::::::::::::::::::::::::::::::::::::::********::>ytcxxcctlcttt@@ccxeq$&&$$&lltttttq@@ttt&$##tt&&$>::::::::::::::::::::::::::::",
"::::::::::::::::::::::::::::::::::::::::********,,>@@cxxcctttlllttccxee lxttlttxcxxxltlcxxlltlcxxlt ::::::::::::::::::::::::::::",
"::::::::::::::::::::::::::::::::********::::::::***$$kkxccllzzzlllccc@@lllulluqxccxlltlcxxkktkcxltt.::::::::::::::::::::::::::::",
"::::::::::::::::::::::::::::::::********::::::::*****$lxccccctttcxxxc @xlullxu&llllltlllzzttkkllt$@@::::::::::::::::::::::::::::",
"::::::::::::::::::::::::::::::::********::::::::******tycccccclycc@@@cxxlull$lxllllltlllzzuuklleyllxe@::::::::::::::::::::::::::",
"::::::::::::::::::::::::::::::::********::::::::******tyccccccltcltttcccluly$lxllllltlllzzuulll#qlll&@::::::::::::::::::::::::::",
"::::::::::::::::::::::::::::::::********::::::::*****=@$ccccctttttccxcccly$$@lclzzttllllzuzzqqq$@   ::::::::::::::::::::::::::::",
"::::::::::::::::::::::::::::::::********::::::::*****--$llccllllllccclllll$@llllzzttllllztuutt$ttlto::::::::::::::::::::::::::::",
"::::::::::::::::::::::::::::::::********::::::::******-=@@cltcccccccctttlx#qclllzlttllllztwwpt@llxl@::::::::::::::::::::::::::::",
"::::::::::::::::::::::::::::::::********::::::::******-;::@lcccccccltccte@@qclllztllllzttztqqq$o   :::::::::::::::::::::::::::::",
"::::::::::::::::::::::::********::::::::********::::::::::$kxxcccccltlkq#$ttxlllztzzzzzttltttt$q&.o:::::::::::::::::::::88666666",
"::::::::::::::::::::::::********::::::::********::::::::::$kxxcxxcclttu  &xxllllztzzzzzttlllzt#zy$$:::::::::::::::::::::88666666",
"::::::::::::::::::::::::********::::::::********::::::::,,$ytllxlllt#$#q@&xxllltuzzzzztzzzllyeoyy@$,::::::::::::::::::::87766666",
"::::::::::::::::::::::::********::::::::********::::::::>>$$tqtleqq@o$#u@@lltttqutttttttttttooo  >::::::::::::::::::::::67666666",
"::::::::::::::::::::::::=***;;;=::::::::********::::::::::$ylo  ##uq$tuue#                 o$@$:>,::::::::::::::::::::::66666666",
"::::::::::::::::::::::::==**;;;=::::::::********::::::::@@lllttt@@zt$tulu#eq o#qqqqrqeqoooo#$@$:,,::::::::::::::::::::::66666666",
"::::::::::::::::::::::::==--;;;;::::::::****=***::::::::@@clllll@&lt&uuluutt@@#tytttttt@####::::::::::::::::::::::::::::66666666",
"::::::::::::::::::::::::=-----;;::::::::********::::::::@@cltcclll$tzzlxxx@@lt   o#@##@:::::::::::::::::::::::::::::::::66666666",
"::::::::::::::::::::::::2:::::::;;;;****::::::::::::::::qqxktcclllqllllcxxlllto@#$ooo$@:::::::::87666666::::::::66666666>>::::::",
"::::::::::::::::::::::::::::::::;;;;****::::::::::::::::yyxltccccctlccccxxccct@ttt    ::::::::::77666666::::::::67866666>>::::::",
"::::::::::::::::::::::::::::::::**--****::::::::::::,,@@lllllllccclltcxcccccxll@$qeeq##  >::::::66666666::::::::66666666>,::::::",
"::::::::::::::::::::::::::::::::*==-****::::::::::::>>@@xxulctlcccclocxxccccccc@$@yyte@$$,::::::76666666::::::::66666666>>::::::",
"::::::::::::::::::::::::::::::::********::::::::::::::ttxxtlctlccccl  $xcccccccyt  @tttty$>,::::66666666::::::::66666666::::::::",
"::::::::::::::::::::::::::::::::********:::::::::::::$ylcctlctlccclto$@lccccccxll  @qqqtyq$$::::66666666::::::::66666666::::::::",
"::::::::::::::::::::::::::::::::********:::::::::::::@lccctlctlccco#@ee lxccccxxx >> @$ttt$$,,::66666666::::::::66666678::::::::",
"::::::::::::::::::::::::::::::::********:::::::::::::ylccctlctlccco@#eeqqtccccccx@>> @$$$ttq$$::66666666::::::::66666778::::::::",
"::::::::::::::::::::::::::::::::::::::::::::::::::@@#llccctlctlcllo@#qwq##llxxccct o@>, $tyywtt6>>::::::66666666::::::::********",
":::::::::::::::::::::::::::::::::::::::::::::::::$$@@ccccctlctlcoo@@$qwpw# &xxcccx o@@,,$@ttkzt6>>::::::66666666::::::::********",
"::::::::::::::::::::::::::::::::::::::::::::::::$tl#@llcccllllzl oyq#qqaw++qlcccxxo@e@ >8$etzzzw$>>,::::66666666::::::::********",
"::::::::::::::::::::::::::::::::::::::::::::::::$txq@tlccccltclt oat#qepw#qqlcccxx@@y@ >88@tzzzq@>,,::::66666666::::::::********",
"::::::::::::::::::::::::::::::::::::::::::::::::tkxxcqttcccltcltoo#taeqpat@#&lcccc@@t#@:776yttlq$:::::::66666666::::::::********",
"::::::::::::::::::::::::::::::::::::::::::::,>$$llxxcttlllcltcltoo eteqaatoo tlcccyttq@ 676yttlq$:::::::66666666::::::::********",
"::::::::::::::::::::::::::::::::::::::::::::>>$#ccxxccxcttcltcltooo  eepe ooo &ccxxx#tt  66$$tle$:::::::66666666::::::::********",
"::::::::::::::::::::::::::::::::::::::::::::>>qqccccccccttccllllqqooo@$q$ooooo&cxxxx#utoo666@qt$$:::::::66666666::::::::********",
"::::::::********::::::::::::::::::::::::66666$llccccccclllccctlcttooo   oooooo&llcccttqq@ ::::@@$6666666::::::::********::::::::",
"::::::::********::::::::::::::::::::::::6666@@ccccccccltccccctlctto  oooooooooo &xccct$ty ::::::76666666::::::::********::::::::",
"::::::::********::::::::::::::::::::::::6666$$ccccccccltcccltlllllo  oooooooooo @lccct@tto::::::66666666::::::::********::::::::",
"::::::::********::::::::::::::::::::::::6666$$ccccccccltcccl cltcxo  oooooooooo otccct@tt@::::::66666666::::::::********::::::::",
"::::::::****--;;::::::::::::::::::::::::6666ttccccccctlcccclolt@ll @t  o..##ooo  &xxccl@#t$ ::::66666666::::::::********::::::::",
"::::::::****--;;::::::::::::::::::::::::666#tlcccccllllcccllttqottttt  oo.#$ooo otllcxxlye# ::::66666666::::::::********::::::::",
"::::::::****==;;::::::::::::::::::::::::668@tccccccttcccxx@lx#ooo@xly  .$$$$@oo @t@tccxxz#o ::::66666666::::::::********::::::::",
"::::::::******;;::::::::::::::::::::::::668@tccccclllcccxx@lx@o o@clyee .$@@@@$ $tttycxlz#o ::::66666666::::::::********::::::::",
"::::::::::::::::::::::::::::::::76666666::>$txxxcltccccccc@lc@o o@xlttt .OOO$$$ @ttt$zxll#o ::::::::::::::::::::::::::::::::::::",
"::::::::::::::::::::::::::::::::66666666:yt$yxxxtlcccccc&#olclt ll#ettt .OOO$$$ @ytttqylllq$::::::::::::::::::::::::::::::::::::",
"::::::::::::::::::::::::::::::::66666666:yukllllllcccccl@ oyllllll@qttt .OOO@+O @yytuqtttztt#@::::::::::::::::::::::::::::::::::",
"::::::::::::::::::::::::::::::::66666666:yuxltttccccccl oooo cxxxx@qtttoOOOO@@O @yttutt$qzzl$@::::::::::::::::::::::::::::::::::",
"::::::::::::::::::::::::::::::::66666666tlccccccccccxt&ooooootlxutuutuuo++OO$@$ #uuuuuuuttzzlt 1::::::::::::::::::::::::::::::::",
"::::::::::::::::::::::::::::::::66666666tcccccccccccx&$oooooo lx$$uuuuuo++OO$@$ $uuuuuuut$zzly 1::::::::::::::::::::::::::::::::",
"::::::::::::::::::::::::::::::::66666667tcccccccccxtto oooooo   tuuuuuuo++@$$#$$$$uuuuuuttttlllut$@:::::::::::::::::::::::::::::",
"::::::::::::::::::::::::::::::::666666tylccccxccccctqo .ooo@@ @euuuuuttr+@@####$$$uuuuuuttqtllllttt@::::::::::::::::::::::::::::",
"::::::::::::::::::::::::66666666::::>>ttccccccccxxx&@ o.oX###oeuuuuuuutu$o$####$$$ttuuuuuu$tlllllly$>>,:::::::::::::::::::::::::",
"::::::::::::::::::::::::66666666::::>tccccccccccxl$  @$$$##o uuuuuuuuuuu$o##$$#.o$ytuuuuuuuu@tlllllltq$:::::::::::::::::::::::::",
"::::::::::::::::::::::::66666666::,,ttccccccccccxl$o @@$$$#o yuuuuuuuuuu$o##@$@oo$ttuuuuuuuu$tlllllltt$,::,>::::::::::::::::::::",
"::::::::::1:::::::::::::66666666:tttlcccccccccxctqy. @@@$$   yuuuuuuuutu$o##@@@oo$utuuuuuuuuyy$lllllkll$$,,>::::::::::::::::::::",
"::::::::::::1:::::::::::66668666tllllcccccccccllttto #$@ooo  uuuuuuuuuuu$o$$#.ooo$uuuuuuuuuuuu@llllklllyu$$>::::::::::::::::::::",
":::::::::::::::::::::::,6666886yyxcxcccccccccct@ytto $$@  ooouuuuuuuuuuu$o$$$. oo$utuuuuuuuuuu$zllllllllu#$>::::::::::::::::::::",
"::::::::::::::::::::::>,666688ttccccccccccccxlttttt$o$@@  oquuuuuuuuuuuo@$$$@. o.#ttuuuuuuuuuuu#tlllllllllt#::::::::::::::::::::",
"::::::::::::::::::::::>>6666ttllccccccccccccltttyt$@@@@ooooquuuuuuuuuuuo@$$$$.o oqttuuuuuuuuuuu$ylllllllllt#::::::::::::::::::::",
"::::::::::::::::88886666::::ttlxccccccccccccl$tttq #$$o ooo@ytuuuuuuyyy.##$$@oo #uuuuuuuuuuuuut$tlllllllllt#;;**********::::::::",
"::::::::::::::::88686666:::tzxxxccccccccccct$ttttq.$$$o oo @ttuuuuuuyyy.#$$@ oo #uuuuuuuuutuuuuut$tlllllllzzo ==********::::::::",
"::::::::::::::::66666666::ytlcccccccccccccct$tyytqo$@@o oo @ttuuuuuuuuy.##@@ oo #uuuuuuuuuuuuuuuy$tllllllllloo-=********::::::::",
"::::::1:::::::::66666666:yyxccccccccccccccct$yyt$o#$@@$ooo @ttuuuuuuuuyO$#@@ oo #uuuuuuuuuuuuuuut$tlllllllll#$--********::::::::",
"::::::::::::::::66666666:ttccccccccccccccccy@@$$..#$$##.oo $$$eyuuuuyttO$+++X oqquuuuuuuuuuuutuuttytlllllllltt  ********::::::::",
"::::::,:::::::::66666666:tlcccccccccccccccc&o@$$ .#$$$..oo o$@eyuuuuyytO@+++..$yuuuuuuuuuuuuuuuuttq@llllllllltoo********::::::::",
"::::::::::::::::6666666@@lccccccccccccccct@:>,:: o@$$  o  :,>>@@$$uuyytOOO+OOXOtuuuuuuuuuuuuuuttuuq#lllllllllt$$********::::::::",
"::::::::::::::::6666666$@lccccccccccccccct@:>,:: o@@@  o  :,,>@#$$uuyttOOOOOOXOyuuuuuuuuuuuuttttuuq$llllllllztq&********::::::::",
"====****:::::::::::::::@@lcccccccccccccxxt :::,,o.@@@  o  666666>>$$$tt.@++++.Oyuuuuuuuuttyttt@o    lllllllllllt :::::::::::::::",
"==******::::::::::::::@llxccccccxccccccclt ::,oo$$@.ooo   666666,>$$@@@.@@+++.Oyuuuuuuu$$$@@@@@o    qylllllllllt :::::::::::::::",
"********::::::::::::::@lxccccccccccccccct>::::oo@@@  oo 66666666::::>$@.@@$$O.Oyuuuuyyq$$     ::-;;;$yllllllllzt >::::::::::::::",
"********::::::::::::::@lxccccccccccccccct,::::oo@@@  oo 66666666::::>:: .++$O.Oyuuuu$$$::,>:::::-;;; tlllllllzzt ,::::::::::::::",
"********::::::::::::::@llcccccccccccccxxt:::,,.o$$@o o  66666666::::,:: o$$$$@@etttq$$$:::::::::-=** tlllllllllt ,::::::::::::::",
"********:::::::::::::::  lccccxccccccclt::::,>.o@. oo  >66666666::::::> o$$$$@@ o#$$::::::::::::==** tllllllllzt >::::::::::::::",
"********:::::::::::::::  lccccxcccxccct$::::>.$$$. oo  >66666666::::::,:..$#$#$  :::::::::::::::=*** tllllllltq&::::::::::::::::",
"********:::::::::::::::  llccccxcccccct ::::..$@$. oo  >66666666::::::::..$####  :::::::::::::::=*** ttllllllt##::::::::::::::::",
"::::::::::::::::::::::::: &xxccccccccct >:::..@@@o oo***::::::::::::::::  @@@$$  >,:::::::::::::::::>@$llllllt  ::::::::::::::::",
"::::::::::::::::::::::::: &lllccccccclt ,,::...@@o oo***::::::::::::::::  @@@@o  >,:::::::::::::::::>#$llllttt  ::::::::::::::::",
":::::::::::::::::::::::::::   lllccxcee,::: $qqee@ooo***::::::::::::::::  $@#eeeq ::::::::::::::::,:>  tttt$  ::::::::::::::::::",
"::::::::::::::::::::::::::::::   lcxl  >:,> qpppay   ***::::::::::::::::   oqaaaa ::::::::::::::::,,>      :,>::::::::::::::::::",
"::::::::::::::::::::::::::::::   llll  :::, qaapape. -=*:::::::::::::::: .qqtpppa >,::::::::::::::::::     >::::::::::::::::::::",
"::::::::::::::::::::::::::::::::>      :::> qaaaapp# ==*:::::::::::::::: $paapppa >,::::::::::::::::::>,>>,,::::::::::::::::::::",
"::::::::::::::::::::::::::::::::::::>>:::::o.@@@qqq. -==:::::::::::::::: @aapqOO$   ::::::::::::::::::::::::::::::::::::::::::::",
":::::::::::::::::::::::::::::::::::::,:::ooooo.@@q#. ===:::::::::::::::: otttqXXoooo :,,::::::::::::::::::::::::::::::::::::::::",
"::::::::::::::::::::::::::::::::::::::::-oo@@ooo$. >,:::::::::::::::::::    o@@@@$$@  >,::::::::::::::::::::::::::::::::::::::::",
"::::::::::::::::::::::::::::::::::::::::-ooooo.... ,,:::::::::::::::::::   oo$$@@@$.ooo  :::::::::::::::::::::::::::::::::::::::",
"::::::::::::::::::::::::::::::::::::::::-oo o@$@o  >::::::::::::::::::::  oo@@$$@oo.@..  >::::::::::::::::::::::::::::::::::::::",
":::::::::::::::::::::::::::::::::::::::: o.@@   @@o  :::::::::::::::::::>,     .o@@$@@@@$ :::::::::::::::::::::::::::::,::::::::",
":::::::::::::::::::::::::::::::::::::::: oooo   ooo  ,::::::::::::::::::::     ooooooooo. >>::::::::::::::::::::::::::::::::::::",
":::::::::::::::::::::::::::::::::::::::: oooooooooo  >:::::::::::::::::::,>:>,>           ,,::::::::::::::::::,:::::::::::::::::",
"::::::::::::::::::::::::::::::::::::::::  ooooooooo  :::::::::::::::::::::::::,           ,::::::::::::::,::::::,:::::::::::::::",
"::::::::::::::::::::::::::::::::::::::::-          ,>:::::::::::::::::::::::::,>:,>:,>:,>:::::::::::::::::::::::::::::::::::::::"
};
