/* XPM */
static char *enemy_091755719492[] = {
/* columns rows colors chars-per-pixel */
"128 128 56 1 ",
"  c #010000",
". c #292930",
"X c #292831",
"o c #282931",
"O c #292931",
"+ c #425A3A",
"@ c #435A3A",
"# c #425B3A",
"$ c #425A3B",
"% c gray29",
"& c #4B4A4A",
"* c #4A4B4A",
"= c #4A4A4B",
"- c #7B4242",
"; c #7B4342",
": c #906858",
"> c #916858",
", c #906958",
"< c #906859",
"1 c #946A73",
"2 c #946B73",
"3 c #7BA46B",
"4 c #7AA56B",
"5 c #7BA56B",
"6 c #A88868",
"7 c #A98868",
"8 c #A88968",
"9 c #A88869",
"0 c #A98869",
"q c #A88969",
"w c #CEBC52",
"e c #CEBD52",
"r c #C8A878",
"t c #C8A978",
"y c #C8A879",
"u c #C9A879",
"i c #DEA57A",
"p c #DEA47B",
"a c #DEA57B",
"s c gray55",
"d c #8D8C8C",
"f c #8C8C8D",
"g c #AC9C84",
"h c #AD9C84",
"j c #AD9D84",
"k c #9CD684",
"l c #9DD684",
"z c #9CD784",
"x c #CEC5AC",
"c c #CEC4AD",
"v c #CEC5AD",
"b c #CFC5AD",
"n c #FFD6BD",
"m c #FFD7BD",
"M c #FEFFFF",
"N c white",
/* pixels */
"6666666666666666666666666666666666666666666666666666666666666666rrrrrrrr66666666rrrrrrrr666666666666666666666666<<<>::::q8666966",
"6666666666666666666666666666666666666666666686666666666666666666rrrrrrrr66666666rrrrrrrr666666666666666666666666<<>>::::69666666",
"6666666666666666666666666666666666666666666666666666666666666666turrrrrt66666666rrrrrrrr666666666666666666666666::>:::::66666666",
"6666666666666666666666666666666666666666666666666666666666666666   rrrrt66666666rrrrrrrr666666666666666666666666::::::::66666666",
"666666666666666666666666666666666666666669686666669666668666qq66ooo utut66666666rrrrrrrt666666666666666666666666::::::::66666666",
"66666666666666666666666666666666986666666666666669666666886oooXX&&&o      666666rrrrrrrt666666666666666666666666::::::::66666666",
"66666666666666666666666666666666666666666666666666666666ooo&&&&&oooooooXX  66666rrrrrrtt666666666666666666666666::::::::66666666",
"66666666666666666666666666666666666666666666666666966666ooo&&&**  oooooXXX 66666rrrrrrtt666666666666666666666666::::::::66666666",
"6666666666666666rrrrrrrr666666666666666666666666666666XXsssbvvgsssssso  Xoo  uut666666666666666666666666::::::::66666666::::::::",
"6666666666666666rrrrrrrr666666666666666666666666666666XXggjbvvgssssss&& ooo  utt666666666666666666666666::::::::66686666::::::::",
"6666666666666666rrrrrrrr666666666666667666766666666666oobbbbvvgsssssss& ooo  ttu666666666666666666666666::::::::69666666::::::::",
"6666666666666666rrrrrrrr66666666666666666666666666666qoovbbbvsssssssss& Xoo  uuu666666666666666666666666::::::::66666666::::::::",
"6666666666666666rrrrtttr666666666666666669676666666666oovvvvvsssssssss& Xoo  ttt666666666666669666666666::::::::66666666::::::::",
"6666666666666666rrrrttrr666666666666666666666666666666oovvvvvs&   osss& Xoooo   666666666666666666666666::::::::66666666::::::::",
"6666666666666666rrrrutuu666666666666666666666666666666  sssss&&ooo&&&&&oXooo+4# 666666666666696666666666::::::::66666688::::::::",
"6666666666666666rrrruuuu666666666666666666667666666666  ***&&&&&&&&o  ooooo +l4 666666666666666666666666::::::::66666778::::::::",
"66666666rrrrrrrr96666666666666666666666666666666ttu   X*&o      oo*&&*Xo   44l55+++++  q666666666666676666666666::::::::88666666",
"66666666rrrrrrrr96666666666666666666666666666666tt XoooXoXX+++++oooXXo##+#X44l5455444  q666666666666666666666666::::::::68666666",
"66666699rrrrrrrr66666666666666666666666666766666t  ***X  o+54445#X    #455+545llllllk  q666666666666666666666666::::::::66666666",
"66666696rrrrrrrr66666666666666667666666766666666t   XX+44++5544ll52&+4++555+#545lll4+999666666666666666666666666::::::::66666666",
"69666666rrrrtrrr66666666666666666666666686666669t  +++4445&5555llls#+4+&555++555kkz++666666666666666666666666668::::::::66669666",
"66666666rrrrttrr66666666666666666666666666666666t$+kl444+;1&+5++lll#  ;2++5++555+o 9q966666666666668666666666666::::::::66666666",
"66666666rrrruurr66666666666666666666666666666666+44llk4++*&X+5gvg45ggpg2551$+54++o q6666666666696666666666666766::::::::66666666",
"66666666rrrruurr66666666666666666666666666666676+4kkll4++X  +4vm225apmg2542&+5+ 6q666666666666666666666666666667::::::::66666666",
"trrrrrrr6666666666666666666666666666666666666666q     +4+2paammmmmmmmmc44hp44555  q966666666666666666666::::::::6666666666666666",
"rrrrrrrr66666666666666666666666666666666666669669q    +4+2gapvmmmmmmmmc344h4445+  6666667666666666666666::::::::6667866666676666",
"rrrrrrrr6666666666666666666666666666666666666666966699++552pa2vmnnmmmmv4l5 44#X   6666666666666666667666::::::::6666666666666666",
"rrrrrrrr666666666666666666666666666666666666666666666q  44&paag2--;mmpwk+@544  6q66666666666666666666666::::::::6666666666666666",
"rrrrrrrr6666666666666666666666666666766766666666666666  45+gaa1;XXXcmpll +555+X6966666666666666666666666::::::::6666666666666666",
"rrrrrrrr6666666666666666666666666666666666666666666666  44l+;a1;--2pp24l +5+@5+ 666866666666666666666666::::::::6666666666666666",
"rrrrrrrr6666666666666666666666666666666676666666666666q +4l+&12g-1g12;4lX+4555+ 666++z666666666666666666::::::::6666666666666666",
"rrrrrrrr66666666666666666666666666966666666666666666669q 4l+@ gi-1p; +4l++4555+ 666++zz66666666666666666::::::::6666666666666666",
"9666666666666666666666666666666666666666::::::::66666666 4kssv2    &1vs+ +554554 o+kll4+6666666666666666666666666666666666666666",
"9666666666666666666666666666666666666666::::::::66666666&44ggvs&  o&2vgs11+55554++4kll4X 666666666666666666966666666666666668666",
"6666666666666666666666666666666666666666::::::::66666666s1 gvvgs o&&2vvvvg 4554444kkll4   q6666666666666666666666666666696666666",
"6666666666666666666666666666666666666666::::::::666666&&sggvvvvb o&2s&vNNbf+++44llkkkkkkl4 6666666666666666666666666666666666666",
"6666666666666666666666666666666666666666::::::::666666&&sgbbvvbgoo&gs vNNvg&&s44kkkkkkkkk4 q666666666666766669666666666666666666",
"6666666666666666666666666666666666666666::::::::666666&&vgsssv2 &&&NN vNsvNggNh kkkkkkkk o+6666666666666666666666666666666666666",
"6666666666666666666666666666666666666666::::::::66666&sgvgsggg; &&2NN1gvvmmvmNgXkkkkkkkk444++68q66666666666666686666666668666666",
"6666666666666666666666666666666666666666::::::::6666q&gvvgsbbs& &&sNNsssNNvNNNv&kkkkkkkkkkk++66q69668666666666666669666666666666",
"66666666666666666666666666666666::::::::66666666:::&1vvvvgsvvNg &vNNNcNNNNNNNNNN 4kklkkkkkkkk+o 7q996666666666666686666666666666",
"66666666666666666666666666666666::::::::66666666::&fgvvvvgsvmNg cvNNmmNNNNNNNNNNo4kkkkkkkkkkl444   66666666666666666666666666666",
"66666666666666666666666666666666::::::::66666666:&&vvvvvvgsNNv1 NNNccNNNvmNNNNNN&4llkklkkkllkllk   q6666866666666666666666666666",
"66666666666666666666666666666666::::::::666666&&svNNNvvvvgsNNvvNNNcNNNNNvmNNNNNNNv+lklkkkkl444kk  696666666666666666666966666666",
"66666666666666666666666666666666::::::::666666ffgvNNNcvvvvgNNcmNNmcNNNNNvmNNNNNNNvs4kkkklll4444l  666666666666666666666666666666",
"66666666666666666666666666666666::::::::666&&&vNNNNNNNmvsvNNNNc4cmNNNNNNNvsNNNNNNNNs+k44lllkl   9q666666666666666666666666666666",
"66666666666666666666666666666666::::::<<66 vvvvvNNNNNNNNfvNmccs+gvNNNNNNNv&gvNNNNNNvv44l55444   66666666666666666666666666666666",
"66666666666666666666666666666668::::::><6  NNNvfNNNNNNNNscNvw&&&4vNNNNNNNv  sNNNNNNNN 4l554++66666666666666666666666666666698666",
"666666666666666966666666>>::::::86666666<oo&fNNNsvNNNNNNscNNN&&&4vNNNNNN +444&vNNNNgss& 44455  6666666666666666666666666ttrrrrrr",
"666666666666666666666666><::::::66666681ooo&fNNNvvNNNNNvcmNNNcs+vmNNNNNN ++++ovNNNvvvvvg+4555##6666666666666666666666666ttrrrrrr",
"666666666666666666666666<<<<::::69968811oo&&1vNNNNvNNNvsNNNNNNv3NNNNNNNNoo    vNNvsNNNNN +554556666666666666666666666666trrrrrrr",
"6666666666666666666666661111111:&&&&&1vmvgX&&&vNNmsNNsssNNNNNNNNNNNNNNvgq6q6 o&sgvNNNsssNv+54#o 666666066666666666666668trrrrrrr",
"666666666666666666666676ggggggg<&&&;11vmmv;&&ovNNvsvv 1sNNNNNNNNNNNNNNvs6666qo  svNNboooNv 44   666666666666666666666866rrrrrrrr",
"666666666666666666666611mmmmmmpp21svv&vmmmi;&ovNNv   6ssNNNNNNNNNNNNNNgo666699   gNso&&&&&X66666666666666666666666666666rrrrrrrr",
"666666669666666666667681gghpmmmmvg1ggggggg1;o sggs  &svvNNNNNNNNNNNNNNgo666666q  gNso&&og2;gweee666666666666666666666666rrrrrrrr",
"666666666666666666666688111ppmmmmv1ssvs&1; ::     666svNNNNNNNNNNNNNNNgo6676669q gNso&ooig2wweee666666666666666666666666rrrrrrrr",
"6666666666666666666666681jmmmpppmmmgs&o q666666666666svNNNNNNNNNNNNNNNgo666666666  ooogaiiw122gw1121122u66666666rrrrrrrr96666666",
"666666666666666666666661jimmmpppmmmg1&o q8666666666sgvNNNNNmmNNNNNNNNNgo6666666666 ooo2jiwgvcghgjjggggg166666666rrrrrrrr66666666",
"66666666666666776666q922mmimmmmmmmm1&&&:66666666666sgNNNNNNggNNNNNNNNNjX67766666666666  wg2NNwg2iammmmj266666666rrrrrrrr66666666",
"66666666666666676666q2vmpppppmmmmcg1::::666666666ssmNNNNNvs&sNNNNNNNNNNNoo666666666666  ej2ww1gpiipggjju66666666rrrrrrrr66666666",
"6666666666666677666661impppppmmmcp1:::::666666666ssNNNNNNvoo1NNNNNNNNNNNoo666666666666  bg1gwgppaapg111u66666666rrrrrrrr66666666",
"666666666666667766668121ig1ippmm  ::::::666666666ssNNNNNoXo&&ovNNNNNNNNN.o66666666666666Nv12gmmmapppiutu66666666rrrrrrrr66666666",
"6666666666666000666681jjgggggmpj :::::::6666666666sgvNmvoo&&&&sgvvvNNNvvoo66666666666666vvg2gmmmmpipmij166666666rrrrrrrr66666666",
"6666666666660000667666ii1gp1gmg ::::::::66666666666&sNvsoo&&&&oosssNNNv&oo66666666666666www1gmmmmmimmij166666666rrrrrrrr66666666",
"6666666666666666666666661;  ;mg 666666666666666668q&&ooo%%%&**&&&&Xo%ss88666666666666696trr11 im2gmppmpp22trrrrr96666666<<::::::",
"6666666666666666666666661;  ;i1 666666666666666668&ss&&o%%%&&&&&&&&1s1186666666666666666rrt1; im2gvppmpp21ttrrrr66666666::::::::",
"666666666666669666669666q966q  q66666666666666666&&vvs**%%&&&&&&sssvc%%66666666666666666rrtrr im222mmpmm11rrrrrr66666666::::::::",
"66666666667666666666666766699q6669666666666666666&&vvvvvsgcvvvvvvvNvc%cN6666666666666666rrrrrr;;2hmhgmpgrrrrrrrr66666666::::::::",
"6666677667666666666666666666666666666666666666666&&cvvvvsgccvvvvvvNvv&cN6666666666666666rrrrrr  2gv12vg1rrrrrrrr66666666::::::::",
"666666669666666666666966666666966666666666666666&1gccbvvsgccvvvvvvvvv&&66666666666666666rrrrrrrrq      6rrrrrrrr66666666::::::::",
"666666666666666666666666666666666666669666666666*sccbgggjjcvvvvvvvvmc&cNs1%6666666666666rrrrrrrr66    66rrrrrrtt66666666::::::::",
"666666666666966766666666666666666666966666666666*sccbggggjvvvvvvvvvNN&cNs1%6666666666666rrrrrrrr6666q666rrrrrrur66666666::::::::",
"66666666::::::::666666666666666666666666rrrrrrrr&svvvvgssgbvvvvvvvvvvNv*egs**888rrrrrrrr66666666utttrrrr99666666::::::::66666666",
"66666666::::::::669666666666666666966666trrrrrrr%svcvcvggggvvvvvvvvvvvg2ggj2*&78rrrtrrrr66686666utrrrrrr99666666::::::::66666666",
"66666666::::::::666666666666666666666666rrrrrrrr%sccvvvvvg2vvvbvvvvvv&gwsgwgs&&6rrrrrrrr66666666rrrrrrrr66666666::::::::66666666",
"66666666::::::::666666666666666666666666rrrrrr%%ccccvvvvvg&vvvvvvvvs2wgg&2gwg&&6rrrrrrrr66666666rrrrrrrr66666666::::::::66666666",
"66666666::::::::666666666666666666666666rrrrtt&*vvvvvvvvvg&vvvvvvvvs1egg&1ggg&%6rrrrrrtt66666666rrrrrrrr66666666::::::::66666666",
"66866666::::::::666666666666666666666666rrrrtt&*vvvvvvvvbg&vvvvvvvvvc%gesge;&666rrrrrrrt66666666rrrrrrrr66666666::::::::66666666",
"66666666::::::::666666666666666666666666rrrrtt**vvvvvvvvvg;vvvvvvvvvc&;1gg1;%666rrrrrrtt66666666rrrrrrrr66666666::::::::66666666",
"86666666::::::::666676666666666666666666rrrrrr**vvvvvvvvbg2vvvvvvvvvc&&&eg%66666rrrrrrtt66666666rrrrrrrr66666666::::::::66666666",
"66666667666666669666666666666666trrrrrrr666666&&vvvvvvvvvg2bvvvvvvvvv&&8ss666666666666666666666666666066666666666666666666666666",
"66666666666666666666666666666666trrrrrrr666666;;vvvvvvvvgg1vvvvvvvvgg&88ss666666666666666666666666666666666666666666666666666666",
"66666666666666766666666666666666rrrrrrrr66666611vvvvvvvv22gbvvvvvvvs166666666666666666666666666666666666666666666666666666666666",
"66666666666666666666666666666666rrrrrrrr666666%&vvvvvvvv2gvvvvvvvvv1&66666666666666666666666666666666666666660666666666666666666",
"66666666666666666666666666666666trrrrrrr666666%%vvvvvvvv2gvvvvvvccc2&66666666666666666666666666666666666666666666666666666666666",
"66666666667666666666666666666666rrtrrrrr666666%%vvvvvvvv&svvvvvvccc1&86666666666666666666666666666666666666666666666666666666666",
"66666666666666666666666666666666rrrrrrrr666666%%vvvvvvvv&sbvvvvvccc1&66666666666666666666666666666666666666666666666666666666666",
"66666669666666766666666666666666rrrrrrrt666666%%vvvvvvvv&sbvvvvvccc1&66666666699666666666666666666666666666666666666666666666666",
"666666666666666666666666rrrrrrrr66666666666666%%vvvvvvvv&svvvvvvcvv2%666::::::::666666666666669666666666666666666666666666666666",
"666666666666666666666666rrrrrrrr66666666666666%%gvvvvvvv&svvvvvvvvg2&666::::::::666666666666666666666666666666666666666666666666",
"666666666666666666666666rrrrrrrr66666666666666661gvvvvvv&sbvvvvvcg2q6666::::::::666666666666666666666666666666666666666666666666",
"666666666696666666666666rrrrrrrr6666666666666666&svvvvvv22gvvvvbcg*q6666::::::::666666666666666666666660666666666666666666666666",
"666666666666766666666666rrrrrrrr6666666666666666&sbvvvvb22gbvvvvvj&88666::::::::666666666666666666666666666666666666666666666666",
"666666666666666666666666rrrrrrrt6666666666666666&2gbvvvb22gbvvvvvj&q6666::::::::666666666666666666666666666666666666666666666666",
"666666666666666666666966rrrrtrrt6666666666666666&;2ggvbg112gbvvvvj*q6666::::::::666666666666666666666666666666666666666666666666",
"666666666666666666666666rrrrrrrt66666666666666666&&2svgg2;&ggvvvvj*q6666::::::::666666666666666666666666666666666666666666666666",
"6666666666866666ttttrrrr6666666666666666666666666&&11gggg2&ggbvvggv2*66666666666666666666660666666666666::::::::::::::::88666666",
"6666667666666666ttrrrrrr66666666666666666666666668&;22jgg1&jgbvvggv2=66666666666666666666666666666666666::::::::::::::::8866q666",
"6666866666666666rrrrrrrr666666666666666696666666666&&&2gg2&gggbbggv2&66660666606666666666666666666666666::::::::::::::::86666666",
"6666666667666666rrrrrrrr66666666666666666666666666668822ggg;2gbbggvvg&&666666666666666666666666666666666::::::::::::::::66666666",
"6666666666666666rrrrrrrr66666666666666666666666666668611ggg&;gvvgvvvb**666666666666666666666666666666666::::::::::::::::66666666",
"6666668666666666rrrrrrrr666666666666666666666666666676&&212&2vvvvvvvb&*666666666666666666666666666666666::::::::::::::::66666666",
"6666686666666666rrrrrrrr6666666666666666666666666666668&;12&2vvvvvvvb*&666666666666666666666666666666666::::::::::::::::66666666",
"6666666666666666rrrrrrrr66666666666666666666666666666668&;2&2vvvvvvvb&&666666666666666666666666666666666::::::::::::::::666666q6",
"::::::::866666666666766666666666668666666666676666666666t&%1svvvvvvvvvs&666666666666666666666666::<<::::::::::::6666666666666666",
"::::::::966666686666666666666666666666666666666666666666t&%12gvvvvvvvvs&666666666666606666666666::<<::::::::::::666666q666666666",
"::::::::666666666666666666666666666666666666666666666666t%%122gcvvvvvvs&666666666666666666666666::<<::::::::::::6666666666666666",
"::::::::666666666666666666666666666666666666666666666666t%%222gcvvvvvbs&666666666660666666666666:::>::::::::::::6666666666666666",
"::::::::666666666666666666666666666666986866666666666666t%%111gcvvvvvvs&666666666666666666660066::::::::::::::::6666666666666666",
"::::::::666666666666666666666666666666666666666666666666rrr%%2ggvvvvvvs*666666666666666666660666::::::::::::::::6666666666666666",
"::::::::666666666666666666666666666666666966666666666666rrr%%2ggvvvvvvs*66666666666666666666666q::::::::::::::::6666666666666666",
"::::::::666666666666966666666966666666666666666666666666rrr&%2ggvvccvvs&666666666666666666666666::::::::::::::::6666666666666666",
"666666668666666666666666666666666666666666666666::::::::666&*gggvvvvbvs&66666666666666666666666666666666666666666666666666666666",
"666666666666666666666666666666676666666696666686::::::::66&22gggvvvvbbs&66666666666666666666666666666666666666666666666666666666",
"666666666666666666666666666666666666666666666666::::::::6&&gggvvvvvvbg1&66666666666666666666666666666666666666666666666666666666",
"666866666666666666666666666666666666666666666666::::::::6&&gbvvvvvhhj&&666666666q66666666666666666666666666666666666666666666666",
"666666666696666666666666666666666666666666666666::::::::6&&gbbbbvhggj&&666666666666666666666666666666666666666666666666666666666",
"666666666666666666666666666666666666666666666666::::::::6&&ggbbbggggg&&666666666666666666666666666666666666666666666666666666666",
"666666666666666666676666666666666669666666666666::::::<< XX*2gggggggg1; 66666666666666666666q66666666666666666666666666666666666",
"666866666666666666669666666666666666666666666666:::::>><    &gggggggjj; 66666666666666666666666666666666666666666666666666666666",
"6696667666666666666666666666666666666666::::::::88999&&&&&+++   +++&&&X 66666666666666666666666666q66666666666666666666666666666",
"6666666666666666666666766666666669666666::::::::88q +444444+oXooX++++$# 66666666666666666666666666666666666666666666666666666666",
"6666666666666666666666666666676666666666::::::::866 +zzzlll+ +++ X+++4$ 66666666666666666666666666666666666666666666666666666666",
"6666666666666666666666666666666666666666::::::::866 o++++4444#++44444+X666666666666666666666666666666666666666666666666666666666",
"6666666676666666666666666666666666666666::::::::66q  &&&&+4lk$##44554  666666666666666666666666666666666666666666666666666666666",
"6666666666666666666666666666666666666666::::::::669   o&**&44lll     66666666666666666666666666666666666666666666666666666666666",
"6666666666666666666666667666666666666666::::::::666   ooXoX+$444     6666666666666666666666666666666666666666666q666666666666666",
"6666666666666666666666666666666666666699::::::::6669q           6666666666666666666666666666q6666666666q666666666666666666666666"
};
