/* XPM */
static char *enemy_101755720015[] = {
/* columns rows colors chars-per-pixel */
"128 128 50 1 ",
"  c #000001",
". c #212842",
"X c #202942",
"o c #212942",
"O c #212943",
"+ c #6B3A42",
"@ c #6B3B42",
"# c #7B4A5A",
"$ c #7B4B5A",
"% c #7B4A5B",
"& c #424A62",
"* c #424A63",
"= c #434A63",
"- c #424B63",
"; c #6B6B7B",
": c #906858",
"> c #916858",
", c #906958",
"< c #906859",
"1 c #AD426B",
"2 c #BD7B62",
"3 c #BD7B63",
"4 c #A88868",
"5 c #A98868",
"6 c #A88968",
"7 c #A98869",
"8 c #C8A878",
"9 c #C9A878",
"0 c #C8A978",
"q c #C9A978",
"w c #C8A879",
"e c #DEA57A",
"r c #DEA47B",
"t c #DEA57B",
"y c #DFA57B",
"u c #7A84A5",
"i c #7B84A5",
"p c #ADADAC",
"a c #ADACAD",
"s c #ACADAD",
"d c gray68",
"f c #FFD6BC",
"g c #FFD6BD",
"h c #FFD7BD",
"j c #CED6D6",
"k c #CFD6D6",
"l c #CED7D6",
"z c #CED6D7",
"x c #FFFFFE",
"c c white",
/* pixels */
"4444444444444444444444444444444444444444444444444444444444444444qwww88884444444488888888444444444444444444444444::::::::44444444",
"4444444444444444444444444444444444444444444444444444444444444444qwww88884444444488888888444444444444444444444444::::::::44444444",
"444444444444444444444444444444444444444444444444444444444444444488w888884444444488888888444444444444444444444444::::::::44444444",
"4444444444444444444444444444444444444444444444444444444444444444888888884444444488888888444444444444444444444444::::::::44444444",
"444444444444444444444444444444444444444444444444444444444444444488wwww88444444448888888w444444444444444444444444::><<:::44444444",
"44444444444444444444444444444444444444444444444444444444444oooooooooo888444444448888880w444444444444444444444444::,,::::44444444",
"44444444444444444444444444444444444444444444444444444444444oooOoooooow8844444444888888ww444444444444444444444444:::,::::44444444",
"44444444444444444444444444444444444444444444444444444444ooo*****&&&&&ooo44444444888888qq444444444444444444444444::::::::44444444",
"444444444444444488888888444444444444444444444444444444ooooo**********ooooq8888w8444444444444444444444444,:>,::::44444444<<::::::",
"444444444444444488888888444444444444444444444444444444oo**************oooo8w8w88444444444444444444444444,,,,::::44444444::::::::",
"44444444444444448888888844444444444444444444444444444o&&****#3ttoo******i&ow8888444444444444444444444444>>,,::::44444444::::::::",
"4444444444444444889888884444444444444444444444444444oo*&****#2gg%******;i&ow8888444444444444444444444444>>>,::::44444444::::::::",
"44444444444444448988ww984444444444444444444444444444%%##o*&o3gggg2 o&iii&oo88888444444444444444444444444><::::::44444444::::::::",
"44444444444444448888ww984444444444444444444444444$#33ttt%%oo3ggggttp2;;&ooooo888444444444444444444444444:<::::::44444444::::::::",
"44444444444444448888wwqq4444444444444444444444444%%3tggg3#o 3gfgggggtoooooooo888444444444444444444444444::::::::44444444::::::::",
"44444444444444448888wqqq444444444444444444444444$yggg3ttgt3%3hffgffgff21ooooo888444444444444444444444444::::::::44444444::::::::",
"444444448888888844444444444444444444444444444444#2rtttttt21pzgggggggggtr2%ooo44444444444444444444444444444444444::::::::44444444",
"444444448888888844444444444444444444444444444444#122tgt3o&;ccczpggggggggg3ooo44444444444444444444444444444444444::::::::44444444",
"4444444488888888444444444444444444444444444444443tfftt1%o&;cztzzpggggrtt221oo44444444444444444444444444444444444::::::::44444444",
"4444444488888888444444444444444444444444444444443tggg21%+#;cz2zcpzggt2r2i22oo44444444444444444444444444444444444::::::::44444444",
"4444444488888888444444444444444444444444444444%$gt2gt%3tt2%gr%zc;ip;pg1icp;oo44444444444444444444444444444444444::::::::44444444",
"444444448888ww88444444444444444444444444444444%%ggttt133#22tr1pz3tztsz%;cp;oo44444444444444444444444444444444444::::::::44444444",
"444444448888qq88444444444444444444444444444444%$ggg33333 3r22222tggggp*;cp;oo44444444444444444444444444444444444::::::::44444444",
"444444448888qq88444444444444444444444444444444%#gggttt1%o3rrtggfgggggh3331%  44444444444444444444444444444444444::::::::44444444",
"888888884444444444444444444444444444444444444O#1gggtt3%+o1tttgffggggfftt2#+  444444444444444444444444444::::::::4444444444444444",
"88888888444444444444444444444444444444444444oo12ttgr2#o  %2tttggggggfgggt# 44444444444444444444444444444::::>,::4444444444444444",
"8888888844444444444444444444444444444444444411tgggt1#ooo +#ttttttgc2tggg3% 44444444444444444444444444444::::<:::4444444444444444",
"8888888844444444444444444444444444444444444433gggtt#+ooo +%ttttt2zc1tffg3+ 44444444444444444444444444444::::::::4444444444444444",
"88888888444444444444444444444444444444444443rggggp;oooooo  22ttttrtgfgt3  444444444444444444    44444444::::,,,,4444444444444444",
"888888884444444444444444444444444444444444;3tggggt1oooooooo##2tttrgggt3# 444444444444444333 o&  44444444::::,,::4444444444444444",
"88888888444444444444444444444444444444444;;3tggggt2o oooooo X#2ttgggt#o 4444444444444443323 *;  44444444::::,,::4444444444444444",
"qq88888844444444444444444444444444444444;%2gggggpzc& oooooooo 12t23#+   4444444444443333tgg3%&4444444444::::<>::4444444444444444",
"4444444444444444444444444444444444444444;pttttttjjc;oo&&&ip&;p22rr22#o;;;44444444443ttttrfft3$4444444444444444444444444444444444",
"4444444444444444444444444444444444444444;pci;;;;cccu& &;;zc;pcp;rrtt2;zz;;4444444443tgggfrtft34444444444444444444444444444444444",
"44444444444444444444444444444444444444;;zccczzzzcczzzizzzcc;pccz;22t2;zzzp;44444444+#;3tggfft#4444444444444444444444444444444444",
"44444444444444444444444444444444444444;;ccccccccczzczpzcccc;pccci22t2;pzzpi44444444oo&3tggfft#4444444444444444444444444444444444",
"44444444444444444444444444444444444444;;pzccccccczpczppppzc;pccccp;ttt;izzz;;4444  ;;-3tgrrt3#4444444444444444444444444444444444",
"44444444444444444444444444444444444444&&zzzzzzzzzzzczpzzpzczzpccczz222#;zzzpi 444  ;*o3trrt21$4444444444444444444444444444444444",
"44444444444444444444444444444444444444 oczpppppppzcczpccpzccz;zcccc111#;zzzzp 444  ;& ttttt#$44444444444444444444444444444444444",
"44444444444444444444444444444444444444 occcccccccccpzcccccccz;;iccc##111#pzpi 44 &;&o ttt1#7444444444444444444444444444444444444",
"44444444444444444444444444444444:::::: ozjzzzccczzzzzccccccczpppzzzpp21%+pzzpoo  &;&&@tt31#4444444444444444444444444444444444444",
"44444444444444444444444444444444::::::::    icccpppcccccccccccccpppczp%++ipcz;o  o&-#1t3%%44444444444444444444444444444444444444",
"44444444444444444444444444444444::::::::4444;;;;&pcczppppzjjccccczpccczz+zcppp;& o&o%131++44444444444444444444444444444444444444",
"44444444444444444444444444444444::::::<:4444ooooopccz;;;;pjzzcccczpccccz+zc;ip;; -& %111%#44444444444444444444444444444444444444",
"44444444444444444444444444444444,>><::::4444;;;;;;;;;oooo&;zzjjjjjzpppcc;zc ;p;;&&*%3ttt2244444444444444444444444444444444444444",
"44444444444444444444444444444444,>:::<::4444&&&&&&&&&oooo&&ppzjjjjzzppzzzzz ;p;*&oo3ttttp; 4444444444444444444444444444444444444",
"44444444444444444444444444444444::::<<,:4444&&ooooooooooooo;ijjjjjzzzpppczd ;p&o&o ttt3pz; 4444444444444444444444444444444444444",
"44444444444444444444444444444447::::>>,:444&&&ooooooooooooo;ijjzjjzzzzzzpzz ;d*  pz%%%3pz; 4444444444444444444444444444444474444",
"444444444444444444444444:::::::,44444444>>*&*oooooooooooooo;pzzzjjjjjjjjupjoipi;opziiippz; 4444444444444444444444444444488www888",
"444444444444444444444444::::::::44444444>**<  ooooooooooooo;pczzjjjjjjjj;pz;pzjz;pzjjjzzz; 4444444444444444444444444444488ww8888",
"444444444444444444444444::::::::44444444&*,,  ooooooooooooozcccccjjjjjjj;pzzppppzpizjjjp;&4444444444444444444444444444448qqw8888",
"444444444444444444444444::::::::44444444&*>,  ooooooooooooocccccccjjjjjj;pzzppppzpizjjjp  444444444444444444444444444444qqqw8888",
"444444444444444444444444::::,,,:44444444&*:  ooooooooooooooccccccccccjjj;pz;pzzzzzz;;;;&  44444444444444444444444444444488888888",
"444444444444444444444444::::,,,:44444444&&:  ooooooooooooizccccccccccccj;pz;ipppzzzppp&& 444444444444444444444444444444488888888",
"444444444444444444447444::<>,>::44444444&&,  oooooooooooozcccccccccccccc;pz;;;;izzzzzz& 4444444444444444444444444444444488888888",
"444444444444444444444444<<<>>>::444444&&<<>  ooooooooooo pcccccccccccccc;pz;&   Opzzpo444444444444444444444444444444444488888888",
"44444444444444444444444474444444:<::::&*444  oooooooooo&pzcccccccccccccc;pz;&o   ippi 4444444444qq888888444444448888888844444444",
"44444444444444444444444444444444><::::&&444  oooooooooo;cccccccccccccccc;pz;;;444    44444444444wq888888444444448888888844444444",
"44444444444444444444444444444444::::<:**444  ooooooooo ;ccccccccczzccccczpizio44444444444444444488888888444444448888888844444444",
"44444444444444444444444444444444::::<<**444  ooooooooo;iccccccccczpccccccp;zp 44444444444444444488888888444444448888888844444444",
"44444444444444444444444444444444::::::**4  ooooooooooozccccccccccccpzccccp;zp 44444444444444444488888888444444448888888844444444",
"44444444444444444444444444444444::::::&&4  oooooooooo zcccccccccccczzzcccp;zp*44444444444444444488888888444444448888888844444444",
"44444444444444444444444444444474::::::&&4  oooooooooo zccccccccccccczpcccp;zp;4444444444444444448888888844444444q888889w44444444",
"44444444444474444444444444444444:::::&&:  ooooooooooo zccccccccccccczpcccp;zzz* 44444444444444448888888844444444w888899q44444444",
"4444444444444444444444444444444444444&&4 oooooooooooo jcccjzcccccccccjjccp;zzj& 444444448ww8888844444444888w888844444444::::::::",
"4444444444444444444444444444444444444&&4ooooooooooooo jcczppjcccccccccjpcp;zjj& 44444444qq88888844444444888q888844444444::::::::",
"44444444444444444444444444444444444444  ooooooooooooizzjzjccjjcccccccczpcp;zzz& 4444444488888888444444448888888844444444::::::::",
"44444444444444444444444444444444444444  ooooooooooooiczpjccczpcccccccczzcp;zzz;&4444444488888888444444448888888844444444::::::::",
"44444444444444444444444444444444444444  ooooooooooo ;pccccccjpcccccccccccp;jzzpi  44444488888888444444448888888844444444::::::::",
"44444444444444444444444444444444444444  ooooooooooo ;jccccjjjjcccccccccccjizzzzp  44444488888888444444448888888844444444::::::::",
"44444444444444444444444444444444444444  ooooooooooo icccczppzcccccccccccczpzjzzp  44444488888888444444448888888844444444::::::::",
"44444444444444444444444444444444444444  ooooooooooo iczpzcccccccccccccccccc;pzzp;;44444488888888444444448888888844444444,:::::::",
"44444444::::::::4444444444444444444444  ooooooooooo ;zzzzcccccccccccccccccc;pzjjp; qqq8844444444w888888844444444::::::::44444444",
"44444444::::::::4444444444444444444444  ooooooooooo ;pccccccccccccccccccccc;pzjjl; qwq88444444448888888844444444::::::::44444444",
"44444444::::::::4444444444444444444444  ooooooooooo icccccccccccccccccccccc;pjjp;-889888444444448888888844444444::::::::44444444",
"44444444::::::::4444444444444444444444  ooooooooooo icccccccccccccccccccccc;pzzp  888888444444448888888844444444::::::::44444444",
"44444444::::,,::4444444444444444444444  ooooooooooo icccccccccccccccccccccc;pzzp  q88800444444448888888844444444::::<:::44444444",
"44444444::::,:::4444444444444444444444  ooooooooooo ;pccccccccccccccccccccc;pzzp  888880444444448888888844444444::::<<::44444444",
"44444444<<<>,,::444444444444444444444444ooooooooooo o;zcccccccccccccccccccc;pzzp  8888w0444444448888888844444444::::><,,44444444",
"44444444<<<>>>::4444444444444444444444  ooooooooooooo zccccccccccccccccccccppzzp;;8888qq444444448888888844444444::::>,,,44444444",
"44444444444444444444444444444444q98888  ooooooooooooo zcccccccccccccccccccjpppjjp; 444444444444444444444444444444444444444444444",
"44444444444444444444444444444444qw888888  ooooooooooo zccccccccccccccccccjpzp;zzz; 444444444444444444444444444444444444444444444",
"44444444444444444444444444444444888888884oooooooooooo zcczzcccccccccccccczpjp;zzj; 444444444444444444444744444444444444444444444",
"44444444444444444444444444444444889888884oooooooooooo zcczpcccccccccccccczpjp;zzj; 444444444444444444444444444444444444444444444",
"44444444444444444444444444444444888888884  ooooooo44  zcpzccccccccccccccpzzjp;jzz; 444444444444444444444444444444444444444444444",
"444444444444444444444444444444448888888844 oooooo444  zcpzccccccccccccccpzjjp;jjzi&444444444444444444444444444444444444444444444",
"4444444444444444444444444444444488888888444oooo44444  zcpzccccccccccccccpzzzp;jjzp;444444444444444444444444444444444444444444444",
"4444444444444444444444444444444488888888444444444444  ipccccccccccccccccpjzzp;jzzp;444444444444444444444444444444444444444444444",
"4444444444444444444444448888888844444444444444444444  ipccccccccccccccczpjjjp;zzzpi 44444444444444444444444444444444444444444444",
"4444444444444444444444448888888844444444444444444444  ipcccccccccccccczpzjjjp;zzzzz  4444444444444444444444444444444444444444444",
"4444444444444444444444448888888844444444444444444444iizccccccccccccccczpjjjjp;jjzzz  4444444444444444444444444444444444444444444",
"4444444444444444444444448888888844444444444444444444ppcccccccccccccccczpjjjjpujjzzz  4444444444444444444444444444444444444444444",
"4444444444444444444444448888ww8w4444444444444444444 iccccccccccccccccjjjjjj;pzjjzjz  4444444444444444444444444444444444444444444",
"4444444444444444444444448888qq884444444444444444444 iccccccccccccccccjjjjjj;pjjjjjz  4444444444444444444444444444444444444444444",
"4444444444444444444444448888qq884444444444444444444 iccccccccccccccccjjjjjj;pjjjjjj  4444444444444444444444444444444444444444444",
"444444444444444444444444888888884444444444444444444 iccccccccccccccjjjjjju.jzzjjjjj  4444444444444444444444444444444444444444444",
"44444444444444448w888888444444444444444444444444444 ;lcccccccccccccjjjzzzi zkkzzlll  4444444444444444444,>>:::::::::::::44444444",
"4444444444444444qw888888444444444444444444444444444   zccccccccccccjjzzzzi zkkzzlll  4444444444444444444,:<<::::::::::::44444444",
"444444444444444488888888444444444444444444444444444 +22ipzccccccccjjjjzz;ppzklzzid4444444444444444444444::::::::::::::::44444444",
"444444444444444488888888444444444444444444444444444+%t#+;zcccccccjjjjjzp pzzzzld;;4444444444444444444444::::::::::::::::44444444",
"4444474444444444888888884444444444444444444444444##rttttt1  o;pzjzjjzzzp     4  444444444444444444444444::::::::::::::<:44444444",
"4444447444444444888888884444444444444444444444444##tggttt33 o;iiippjzzpi@o   4  444444444444444444444444::::::::::::::::44444444",
"4444444444444444888888884444444444444444444444444%#gffttttto 4   &;zzz;o$$444444444444444444444444444444::::::::::::::::44444444",
"4444444444444444888888884444444444444444444444447ttffffgt3 44444   ooo22  444444444444444444444444444444::::::::::::::::44444444",
"::::::::4444444444444444444444444444444444444444#ttggggg3# q8888 +##%%22  4444444444444444444444,,,,:::::<::::::4444444444444444",
"::::::::4444444444444444444444444444444444444444#tggfggg  wq8888 2tttt%%444444444444444444444444,,,,::::::::::::4444444444444444",
",,::::::4444444444444444444444444444444444444444#rffggt388ww8888+2tttt%o444444444444444444444464>>,,::::::::::::4444444444444444",
",,::::::44444444444444444444444444444444444444441tgghg3%888w8888#2tttt+ 444444444444444444444444>>>>::::::::::::4444444444444444",
",,::::::44444444444444444444444444444444444444%%ggggt##488888888%3tt2 44444444444444444444444444><::::::::::::::4444444444444444",
">,:<::::44444444444444444444444444444444444 o#ttggg33#4488888888%2tt2 44444444444444444444444444<<::::::::::::::4444444444444444",
">><<::::44444444444444444444444444444444444 o#tgggg+ 44488888888%2tt2 44444444444444444444444444::::::::::::::::4444444444444444",
">><<::::444444444444444444444444444444444  13ggfgpo4444488888888%2tt2%44444444444444444444444444::::::::::::::::4444444444444444",
"44444444444444444444444444444444444444444  13ffffp <::::444444@%22tr33$$$7444444444444444444444444444444444444444444444444444444",
"44444444444444444444444444444444444444444  13gfffp >:::<444444@%tttrtt$$%#444444444444444444444444444444444444444444444444444444",
"44444444444444444444444444444444444444444  @##tgfp ,::<<444444@@#3ttttt321%   44444444444444444444444444444444444444444444444444",
"44444444444444444444444444444444444444444  ++otggt#:::>,444444@@+3ttttttr1+    4444444444444444444444444444444444444444444444444",
"4444444444444444444444444444444444444444444@#1+ofgg+   ,444444  @o  %tt3   @+@  444444444444444444444444444444444444444444444444",
"4444444444444444444444444444444444444444444o@#%#223#%%@ 444444  @@oo#331oo@@@@  444444444446444444444444444444444444444444444447",
"4444444444444444444444444444444444444444444  +11   111@ 444444  @@@@@@@@+@@@@@  444444444444444444444444444444444444444444444444",
"44444444444444444444444444444444444444444444    +@++@@o 44444444   444        44444444444444444444444444444444444444444444444444",
"4444444444444444444444444444444444444444:::::   +++++@  44444444   444        44444444444444444444444444444444444444444444444444",
"4444444444444444444444444444444444444444::::::::       4444444444444444444444444444444444444444444444444444444444444444444444444",
"4444444444444444444444444444444444444444::::::::44444444444444444444444444444444444444444444444444444444444444444444444444474444",
"4444444444444444444444444444444444444444::::::::44444444444444444444444444444444444444444444444444444444444444444444444444474444",
"4444444444444444444444444444444444444444::::::::44444444444444444444444444444444444444444444444444444444444444444444444444444444",
"4444444444444444444444444444444444444444::::::::44444444444444444444444444444444444444444444444444444444444444444444444444444444",
"4444444444444444444444444444444444444444::::<:,,44444444444444444444444444444444444444444444444444444444444444444444444444444444",
"4444444444444444444444444444444444444444::::<<>,44444444444444444444444444444444444444444444444444444444444444444444444444444444"
};
